G75*
%MOIN*%
%OFA0B0*%
%FSLAX25Y25*%
%IPPOS*%
%LPD*%
%AMOC8*
5,1,8,0,0,1.08239X$1,22.5*
%
%ADD10C,0.01000*%
%ADD11C,0.00000*%
D10*
X0006250Y0000000D02*
X0143750Y0000000D01*
X0143906Y0000002D01*
X0144062Y0000008D01*
X0144217Y0000017D01*
X0144372Y0000031D01*
X0144527Y0000049D01*
X0144682Y0000070D01*
X0144835Y0000095D01*
X0144988Y0000124D01*
X0145141Y0000157D01*
X0145292Y0000193D01*
X0145443Y0000234D01*
X0145592Y0000278D01*
X0145741Y0000325D01*
X0145888Y0000377D01*
X0146033Y0000432D01*
X0146178Y0000491D01*
X0146321Y0000553D01*
X0146462Y0000619D01*
X0146601Y0000688D01*
X0146739Y0000761D01*
X0146875Y0000837D01*
X0147009Y0000917D01*
X0147141Y0001000D01*
X0147271Y0001086D01*
X0147398Y0001175D01*
X0147524Y0001268D01*
X0147647Y0001364D01*
X0147767Y0001462D01*
X0147886Y0001564D01*
X0148001Y0001668D01*
X0148114Y0001776D01*
X0148224Y0001886D01*
X0148332Y0001999D01*
X0148436Y0002114D01*
X0148538Y0002233D01*
X0148636Y0002353D01*
X0148732Y0002476D01*
X0148825Y0002602D01*
X0148914Y0002729D01*
X0149000Y0002859D01*
X0149083Y0002991D01*
X0149163Y0003125D01*
X0149239Y0003261D01*
X0149312Y0003399D01*
X0149381Y0003538D01*
X0149447Y0003679D01*
X0149509Y0003822D01*
X0149568Y0003967D01*
X0149623Y0004112D01*
X0149675Y0004259D01*
X0149722Y0004408D01*
X0149766Y0004557D01*
X0149807Y0004708D01*
X0149843Y0004859D01*
X0149876Y0005012D01*
X0149905Y0005165D01*
X0149930Y0005318D01*
X0149951Y0005473D01*
X0149969Y0005628D01*
X0149983Y0005783D01*
X0149992Y0005938D01*
X0149998Y0006094D01*
X0150000Y0006250D01*
X0150000Y0143750D01*
X0149998Y0143906D01*
X0149992Y0144062D01*
X0149983Y0144217D01*
X0149969Y0144372D01*
X0149951Y0144527D01*
X0149930Y0144682D01*
X0149905Y0144835D01*
X0149876Y0144988D01*
X0149843Y0145141D01*
X0149807Y0145292D01*
X0149766Y0145443D01*
X0149722Y0145592D01*
X0149675Y0145741D01*
X0149623Y0145888D01*
X0149568Y0146033D01*
X0149509Y0146178D01*
X0149447Y0146321D01*
X0149381Y0146462D01*
X0149312Y0146601D01*
X0149239Y0146739D01*
X0149163Y0146875D01*
X0149083Y0147009D01*
X0149000Y0147141D01*
X0148914Y0147271D01*
X0148825Y0147398D01*
X0148732Y0147524D01*
X0148636Y0147647D01*
X0148538Y0147767D01*
X0148436Y0147886D01*
X0148332Y0148001D01*
X0148224Y0148114D01*
X0148114Y0148224D01*
X0148001Y0148332D01*
X0147886Y0148436D01*
X0147767Y0148538D01*
X0147647Y0148636D01*
X0147524Y0148732D01*
X0147398Y0148825D01*
X0147271Y0148914D01*
X0147141Y0149000D01*
X0147009Y0149083D01*
X0146875Y0149163D01*
X0146739Y0149239D01*
X0146601Y0149312D01*
X0146462Y0149381D01*
X0146321Y0149447D01*
X0146178Y0149509D01*
X0146033Y0149568D01*
X0145888Y0149623D01*
X0145741Y0149675D01*
X0145592Y0149722D01*
X0145443Y0149766D01*
X0145292Y0149807D01*
X0145141Y0149843D01*
X0144988Y0149876D01*
X0144835Y0149905D01*
X0144682Y0149930D01*
X0144527Y0149951D01*
X0144372Y0149969D01*
X0144217Y0149983D01*
X0144062Y0149992D01*
X0143906Y0149998D01*
X0143750Y0150000D01*
X0106250Y0150000D01*
X0106094Y0150002D01*
X0105938Y0150008D01*
X0105783Y0150017D01*
X0105628Y0150031D01*
X0105473Y0150049D01*
X0105318Y0150070D01*
X0105165Y0150095D01*
X0105012Y0150124D01*
X0104859Y0150157D01*
X0104708Y0150193D01*
X0104557Y0150234D01*
X0104408Y0150278D01*
X0104259Y0150325D01*
X0104112Y0150377D01*
X0103967Y0150432D01*
X0103822Y0150491D01*
X0103679Y0150553D01*
X0103538Y0150619D01*
X0103399Y0150688D01*
X0103261Y0150761D01*
X0103125Y0150837D01*
X0102991Y0150917D01*
X0102859Y0151000D01*
X0102729Y0151086D01*
X0102602Y0151175D01*
X0102476Y0151268D01*
X0102353Y0151364D01*
X0102233Y0151462D01*
X0102114Y0151564D01*
X0101999Y0151668D01*
X0101886Y0151776D01*
X0101776Y0151886D01*
X0101668Y0151999D01*
X0101564Y0152114D01*
X0101462Y0152233D01*
X0101364Y0152353D01*
X0101268Y0152476D01*
X0101175Y0152602D01*
X0101086Y0152729D01*
X0101000Y0152859D01*
X0100917Y0152991D01*
X0100837Y0153125D01*
X0100761Y0153261D01*
X0100688Y0153399D01*
X0100619Y0153538D01*
X0100553Y0153679D01*
X0100491Y0153822D01*
X0100432Y0153967D01*
X0100377Y0154112D01*
X0100325Y0154259D01*
X0100278Y0154408D01*
X0100234Y0154557D01*
X0100193Y0154708D01*
X0100157Y0154859D01*
X0100124Y0155012D01*
X0100095Y0155165D01*
X0100070Y0155318D01*
X0100049Y0155473D01*
X0100031Y0155628D01*
X0100017Y0155783D01*
X0100008Y0155938D01*
X0100002Y0156094D01*
X0100000Y0156250D01*
X0100000Y0293750D01*
X0099998Y0293906D01*
X0099992Y0294062D01*
X0099983Y0294217D01*
X0099969Y0294372D01*
X0099951Y0294527D01*
X0099930Y0294682D01*
X0099905Y0294835D01*
X0099876Y0294988D01*
X0099843Y0295141D01*
X0099807Y0295292D01*
X0099766Y0295443D01*
X0099722Y0295592D01*
X0099675Y0295741D01*
X0099623Y0295888D01*
X0099568Y0296033D01*
X0099509Y0296178D01*
X0099447Y0296321D01*
X0099381Y0296462D01*
X0099312Y0296601D01*
X0099239Y0296739D01*
X0099163Y0296875D01*
X0099083Y0297009D01*
X0099000Y0297141D01*
X0098914Y0297271D01*
X0098825Y0297398D01*
X0098732Y0297524D01*
X0098636Y0297647D01*
X0098538Y0297767D01*
X0098436Y0297886D01*
X0098332Y0298001D01*
X0098224Y0298114D01*
X0098114Y0298224D01*
X0098001Y0298332D01*
X0097886Y0298436D01*
X0097767Y0298538D01*
X0097647Y0298636D01*
X0097524Y0298732D01*
X0097398Y0298825D01*
X0097271Y0298914D01*
X0097141Y0299000D01*
X0097009Y0299083D01*
X0096875Y0299163D01*
X0096739Y0299239D01*
X0096601Y0299312D01*
X0096462Y0299381D01*
X0096321Y0299447D01*
X0096178Y0299509D01*
X0096033Y0299568D01*
X0095888Y0299623D01*
X0095741Y0299675D01*
X0095592Y0299722D01*
X0095443Y0299766D01*
X0095292Y0299807D01*
X0095141Y0299843D01*
X0094988Y0299876D01*
X0094835Y0299905D01*
X0094682Y0299930D01*
X0094527Y0299951D01*
X0094372Y0299969D01*
X0094217Y0299983D01*
X0094062Y0299992D01*
X0093906Y0299998D01*
X0093750Y0300000D01*
X0090748Y0300000D01*
X0090748Y0206250D01*
X0090737Y0206090D01*
X0090723Y0205930D01*
X0090704Y0205771D01*
X0090681Y0205612D01*
X0090655Y0205454D01*
X0090625Y0205297D01*
X0090591Y0205140D01*
X0090553Y0204984D01*
X0090512Y0204829D01*
X0090466Y0204675D01*
X0090418Y0204523D01*
X0090365Y0204371D01*
X0090309Y0204221D01*
X0090249Y0204072D01*
X0090185Y0203925D01*
X0090118Y0203780D01*
X0090048Y0203636D01*
X0089974Y0203493D01*
X0089897Y0203353D01*
X0089816Y0203214D01*
X0089732Y0203078D01*
X0089644Y0202943D01*
X0089554Y0202811D01*
X0089460Y0202681D01*
X0089363Y0202553D01*
X0089263Y0202428D01*
X0089161Y0202305D01*
X0089055Y0202184D01*
X0088946Y0202066D01*
X0088834Y0201951D01*
X0088720Y0201839D01*
X0088603Y0201729D01*
X0088484Y0201622D01*
X0088361Y0201518D01*
X0088237Y0201417D01*
X0088110Y0201320D01*
X0087981Y0201225D01*
X0087849Y0201133D01*
X0087715Y0201045D01*
X0087579Y0200960D01*
X0087441Y0200878D01*
X0087302Y0200799D01*
X0087160Y0200724D01*
X0087016Y0200653D01*
X0086871Y0200585D01*
X0086725Y0200520D01*
X0086576Y0200459D01*
X0086427Y0200401D01*
X0086276Y0200348D01*
X0086123Y0200297D01*
X0085970Y0200251D01*
X0085815Y0200208D01*
X0085660Y0200169D01*
X0085503Y0200134D01*
X0085346Y0200103D01*
X0085188Y0200075D01*
X0085030Y0200051D01*
X0084871Y0200031D01*
X0084711Y0200015D01*
X0084551Y0200003D01*
X0084391Y0199994D01*
X0084231Y0199990D01*
X0084070Y0199989D01*
X0083910Y0199992D01*
X0083750Y0200000D01*
X0066250Y0200000D01*
X0066090Y0199992D01*
X0065930Y0199989D01*
X0065769Y0199990D01*
X0065609Y0199994D01*
X0065449Y0200003D01*
X0065289Y0200015D01*
X0065129Y0200031D01*
X0064970Y0200051D01*
X0064812Y0200075D01*
X0064654Y0200103D01*
X0064497Y0200134D01*
X0064340Y0200169D01*
X0064185Y0200208D01*
X0064030Y0200251D01*
X0063877Y0200297D01*
X0063724Y0200348D01*
X0063573Y0200401D01*
X0063424Y0200459D01*
X0063275Y0200520D01*
X0063129Y0200585D01*
X0062984Y0200653D01*
X0062840Y0200724D01*
X0062698Y0200799D01*
X0062559Y0200878D01*
X0062421Y0200960D01*
X0062285Y0201045D01*
X0062151Y0201133D01*
X0062019Y0201225D01*
X0061890Y0201320D01*
X0061763Y0201417D01*
X0061639Y0201518D01*
X0061516Y0201622D01*
X0061397Y0201729D01*
X0061280Y0201839D01*
X0061166Y0201951D01*
X0061054Y0202066D01*
X0060945Y0202184D01*
X0060839Y0202305D01*
X0060737Y0202428D01*
X0060637Y0202553D01*
X0060540Y0202681D01*
X0060446Y0202811D01*
X0060356Y0202943D01*
X0060268Y0203078D01*
X0060184Y0203214D01*
X0060103Y0203353D01*
X0060026Y0203493D01*
X0059952Y0203636D01*
X0059882Y0203780D01*
X0059815Y0203925D01*
X0059751Y0204072D01*
X0059691Y0204221D01*
X0059635Y0204371D01*
X0059582Y0204523D01*
X0059534Y0204675D01*
X0059488Y0204829D01*
X0059447Y0204984D01*
X0059409Y0205140D01*
X0059375Y0205297D01*
X0059345Y0205454D01*
X0059319Y0205612D01*
X0059296Y0205771D01*
X0059277Y0205930D01*
X0059263Y0206090D01*
X0059252Y0206250D01*
X0059252Y0300000D01*
X0056000Y0300000D01*
X0055848Y0299998D01*
X0055696Y0299992D01*
X0055544Y0299983D01*
X0055393Y0299969D01*
X0055242Y0299952D01*
X0055091Y0299931D01*
X0054941Y0299906D01*
X0054792Y0299877D01*
X0054644Y0299845D01*
X0054496Y0299808D01*
X0054349Y0299769D01*
X0054204Y0299725D01*
X0054059Y0299677D01*
X0053916Y0299627D01*
X0053774Y0299572D01*
X0053634Y0299514D01*
X0053495Y0299452D01*
X0053358Y0299387D01*
X0053222Y0299318D01*
X0053088Y0299246D01*
X0052956Y0299171D01*
X0052826Y0299092D01*
X0052698Y0299010D01*
X0052572Y0298925D01*
X0052449Y0298836D01*
X0052327Y0298745D01*
X0052208Y0298650D01*
X0052092Y0298553D01*
X0051978Y0298452D01*
X0051866Y0298349D01*
X0051757Y0298243D01*
X0051651Y0298134D01*
X0051548Y0298022D01*
X0051447Y0297908D01*
X0051350Y0297792D01*
X0051255Y0297673D01*
X0051164Y0297551D01*
X0051075Y0297428D01*
X0050990Y0297302D01*
X0050908Y0297174D01*
X0050829Y0297044D01*
X0050754Y0296912D01*
X0050682Y0296778D01*
X0050613Y0296642D01*
X0050548Y0296505D01*
X0050486Y0296366D01*
X0050428Y0296226D01*
X0050373Y0296084D01*
X0050323Y0295941D01*
X0050275Y0295796D01*
X0050231Y0295651D01*
X0050192Y0295504D01*
X0050155Y0295356D01*
X0050123Y0295208D01*
X0050094Y0295059D01*
X0050069Y0294909D01*
X0050048Y0294758D01*
X0050031Y0294607D01*
X0050017Y0294456D01*
X0050008Y0294304D01*
X0050002Y0294152D01*
X0050000Y0294000D01*
X0050000Y0156250D01*
X0049998Y0156094D01*
X0049992Y0155938D01*
X0049983Y0155783D01*
X0049969Y0155628D01*
X0049951Y0155473D01*
X0049930Y0155318D01*
X0049905Y0155165D01*
X0049876Y0155012D01*
X0049843Y0154859D01*
X0049807Y0154708D01*
X0049766Y0154557D01*
X0049722Y0154408D01*
X0049675Y0154259D01*
X0049623Y0154112D01*
X0049568Y0153967D01*
X0049509Y0153822D01*
X0049447Y0153679D01*
X0049381Y0153538D01*
X0049312Y0153399D01*
X0049239Y0153261D01*
X0049163Y0153125D01*
X0049083Y0152991D01*
X0049000Y0152859D01*
X0048914Y0152729D01*
X0048825Y0152602D01*
X0048732Y0152476D01*
X0048636Y0152353D01*
X0048538Y0152233D01*
X0048436Y0152114D01*
X0048332Y0151999D01*
X0048224Y0151886D01*
X0048114Y0151776D01*
X0048001Y0151668D01*
X0047886Y0151564D01*
X0047767Y0151462D01*
X0047647Y0151364D01*
X0047524Y0151268D01*
X0047398Y0151175D01*
X0047271Y0151086D01*
X0047141Y0151000D01*
X0047009Y0150917D01*
X0046875Y0150837D01*
X0046739Y0150761D01*
X0046601Y0150688D01*
X0046462Y0150619D01*
X0046321Y0150553D01*
X0046178Y0150491D01*
X0046033Y0150432D01*
X0045888Y0150377D01*
X0045741Y0150325D01*
X0045592Y0150278D01*
X0045443Y0150234D01*
X0045292Y0150193D01*
X0045141Y0150157D01*
X0044988Y0150124D01*
X0044835Y0150095D01*
X0044682Y0150070D01*
X0044527Y0150049D01*
X0044372Y0150031D01*
X0044217Y0150017D01*
X0044062Y0150008D01*
X0043906Y0150002D01*
X0043750Y0150000D01*
X0006250Y0150000D01*
X0006094Y0149998D01*
X0005938Y0149992D01*
X0005783Y0149983D01*
X0005628Y0149969D01*
X0005473Y0149951D01*
X0005318Y0149930D01*
X0005165Y0149905D01*
X0005012Y0149876D01*
X0004859Y0149843D01*
X0004708Y0149807D01*
X0004557Y0149766D01*
X0004408Y0149722D01*
X0004259Y0149675D01*
X0004112Y0149623D01*
X0003967Y0149568D01*
X0003822Y0149509D01*
X0003679Y0149447D01*
X0003538Y0149381D01*
X0003399Y0149312D01*
X0003261Y0149239D01*
X0003125Y0149163D01*
X0002991Y0149083D01*
X0002859Y0149000D01*
X0002729Y0148914D01*
X0002602Y0148825D01*
X0002476Y0148732D01*
X0002353Y0148636D01*
X0002233Y0148538D01*
X0002114Y0148436D01*
X0001999Y0148332D01*
X0001886Y0148224D01*
X0001776Y0148114D01*
X0001668Y0148001D01*
X0001564Y0147886D01*
X0001462Y0147767D01*
X0001364Y0147647D01*
X0001268Y0147524D01*
X0001175Y0147398D01*
X0001086Y0147271D01*
X0001000Y0147141D01*
X0000917Y0147009D01*
X0000837Y0146875D01*
X0000761Y0146739D01*
X0000688Y0146601D01*
X0000619Y0146462D01*
X0000553Y0146321D01*
X0000491Y0146178D01*
X0000432Y0146033D01*
X0000377Y0145888D01*
X0000325Y0145741D01*
X0000278Y0145592D01*
X0000234Y0145443D01*
X0000193Y0145292D01*
X0000157Y0145141D01*
X0000124Y0144988D01*
X0000095Y0144835D01*
X0000070Y0144682D01*
X0000049Y0144527D01*
X0000031Y0144372D01*
X0000017Y0144217D01*
X0000008Y0144062D01*
X0000002Y0143906D01*
X0000000Y0143750D01*
X0000000Y0006250D01*
X0000002Y0006094D01*
X0000008Y0005938D01*
X0000017Y0005783D01*
X0000031Y0005628D01*
X0000049Y0005473D01*
X0000070Y0005318D01*
X0000095Y0005165D01*
X0000124Y0005012D01*
X0000157Y0004859D01*
X0000193Y0004708D01*
X0000234Y0004557D01*
X0000278Y0004408D01*
X0000325Y0004259D01*
X0000377Y0004112D01*
X0000432Y0003967D01*
X0000491Y0003822D01*
X0000553Y0003679D01*
X0000619Y0003538D01*
X0000688Y0003399D01*
X0000761Y0003261D01*
X0000837Y0003125D01*
X0000917Y0002991D01*
X0001000Y0002859D01*
X0001086Y0002729D01*
X0001175Y0002602D01*
X0001268Y0002476D01*
X0001364Y0002353D01*
X0001462Y0002233D01*
X0001564Y0002114D01*
X0001668Y0001999D01*
X0001776Y0001886D01*
X0001886Y0001776D01*
X0001999Y0001668D01*
X0002114Y0001564D01*
X0002233Y0001462D01*
X0002353Y0001364D01*
X0002476Y0001268D01*
X0002602Y0001175D01*
X0002729Y0001086D01*
X0002859Y0001000D01*
X0002991Y0000917D01*
X0003125Y0000837D01*
X0003261Y0000761D01*
X0003399Y0000688D01*
X0003538Y0000619D01*
X0003679Y0000553D01*
X0003822Y0000491D01*
X0003967Y0000432D01*
X0004112Y0000377D01*
X0004259Y0000325D01*
X0004408Y0000278D01*
X0004557Y0000234D01*
X0004708Y0000193D01*
X0004859Y0000157D01*
X0005012Y0000124D01*
X0005165Y0000095D01*
X0005318Y0000070D01*
X0005473Y0000049D01*
X0005628Y0000031D01*
X0005783Y0000017D01*
X0005938Y0000008D01*
X0006094Y0000002D01*
X0006250Y0000000D01*
D11*
X0003701Y0010000D02*
X0003703Y0010158D01*
X0003709Y0010316D01*
X0003719Y0010474D01*
X0003733Y0010632D01*
X0003751Y0010789D01*
X0003772Y0010946D01*
X0003798Y0011102D01*
X0003828Y0011258D01*
X0003861Y0011413D01*
X0003899Y0011566D01*
X0003940Y0011719D01*
X0003985Y0011871D01*
X0004034Y0012022D01*
X0004087Y0012171D01*
X0004143Y0012319D01*
X0004203Y0012465D01*
X0004267Y0012610D01*
X0004335Y0012753D01*
X0004406Y0012895D01*
X0004480Y0013035D01*
X0004558Y0013172D01*
X0004640Y0013308D01*
X0004724Y0013442D01*
X0004813Y0013573D01*
X0004904Y0013702D01*
X0004999Y0013829D01*
X0005096Y0013954D01*
X0005197Y0014076D01*
X0005301Y0014195D01*
X0005408Y0014312D01*
X0005518Y0014426D01*
X0005631Y0014537D01*
X0005746Y0014646D01*
X0005864Y0014751D01*
X0005985Y0014853D01*
X0006108Y0014953D01*
X0006234Y0015049D01*
X0006362Y0015142D01*
X0006492Y0015232D01*
X0006625Y0015318D01*
X0006760Y0015402D01*
X0006896Y0015481D01*
X0007035Y0015558D01*
X0007176Y0015630D01*
X0007318Y0015700D01*
X0007462Y0015765D01*
X0007608Y0015827D01*
X0007755Y0015885D01*
X0007904Y0015940D01*
X0008054Y0015991D01*
X0008205Y0016038D01*
X0008357Y0016081D01*
X0008510Y0016120D01*
X0008665Y0016156D01*
X0008820Y0016187D01*
X0008976Y0016215D01*
X0009132Y0016239D01*
X0009289Y0016259D01*
X0009447Y0016275D01*
X0009604Y0016287D01*
X0009763Y0016295D01*
X0009921Y0016299D01*
X0010079Y0016299D01*
X0010237Y0016295D01*
X0010396Y0016287D01*
X0010553Y0016275D01*
X0010711Y0016259D01*
X0010868Y0016239D01*
X0011024Y0016215D01*
X0011180Y0016187D01*
X0011335Y0016156D01*
X0011490Y0016120D01*
X0011643Y0016081D01*
X0011795Y0016038D01*
X0011946Y0015991D01*
X0012096Y0015940D01*
X0012245Y0015885D01*
X0012392Y0015827D01*
X0012538Y0015765D01*
X0012682Y0015700D01*
X0012824Y0015630D01*
X0012965Y0015558D01*
X0013104Y0015481D01*
X0013240Y0015402D01*
X0013375Y0015318D01*
X0013508Y0015232D01*
X0013638Y0015142D01*
X0013766Y0015049D01*
X0013892Y0014953D01*
X0014015Y0014853D01*
X0014136Y0014751D01*
X0014254Y0014646D01*
X0014369Y0014537D01*
X0014482Y0014426D01*
X0014592Y0014312D01*
X0014699Y0014195D01*
X0014803Y0014076D01*
X0014904Y0013954D01*
X0015001Y0013829D01*
X0015096Y0013702D01*
X0015187Y0013573D01*
X0015276Y0013442D01*
X0015360Y0013308D01*
X0015442Y0013172D01*
X0015520Y0013035D01*
X0015594Y0012895D01*
X0015665Y0012753D01*
X0015733Y0012610D01*
X0015797Y0012465D01*
X0015857Y0012319D01*
X0015913Y0012171D01*
X0015966Y0012022D01*
X0016015Y0011871D01*
X0016060Y0011719D01*
X0016101Y0011566D01*
X0016139Y0011413D01*
X0016172Y0011258D01*
X0016202Y0011102D01*
X0016228Y0010946D01*
X0016249Y0010789D01*
X0016267Y0010632D01*
X0016281Y0010474D01*
X0016291Y0010316D01*
X0016297Y0010158D01*
X0016299Y0010000D01*
X0016297Y0009842D01*
X0016291Y0009684D01*
X0016281Y0009526D01*
X0016267Y0009368D01*
X0016249Y0009211D01*
X0016228Y0009054D01*
X0016202Y0008898D01*
X0016172Y0008742D01*
X0016139Y0008587D01*
X0016101Y0008434D01*
X0016060Y0008281D01*
X0016015Y0008129D01*
X0015966Y0007978D01*
X0015913Y0007829D01*
X0015857Y0007681D01*
X0015797Y0007535D01*
X0015733Y0007390D01*
X0015665Y0007247D01*
X0015594Y0007105D01*
X0015520Y0006965D01*
X0015442Y0006828D01*
X0015360Y0006692D01*
X0015276Y0006558D01*
X0015187Y0006427D01*
X0015096Y0006298D01*
X0015001Y0006171D01*
X0014904Y0006046D01*
X0014803Y0005924D01*
X0014699Y0005805D01*
X0014592Y0005688D01*
X0014482Y0005574D01*
X0014369Y0005463D01*
X0014254Y0005354D01*
X0014136Y0005249D01*
X0014015Y0005147D01*
X0013892Y0005047D01*
X0013766Y0004951D01*
X0013638Y0004858D01*
X0013508Y0004768D01*
X0013375Y0004682D01*
X0013240Y0004598D01*
X0013104Y0004519D01*
X0012965Y0004442D01*
X0012824Y0004370D01*
X0012682Y0004300D01*
X0012538Y0004235D01*
X0012392Y0004173D01*
X0012245Y0004115D01*
X0012096Y0004060D01*
X0011946Y0004009D01*
X0011795Y0003962D01*
X0011643Y0003919D01*
X0011490Y0003880D01*
X0011335Y0003844D01*
X0011180Y0003813D01*
X0011024Y0003785D01*
X0010868Y0003761D01*
X0010711Y0003741D01*
X0010553Y0003725D01*
X0010396Y0003713D01*
X0010237Y0003705D01*
X0010079Y0003701D01*
X0009921Y0003701D01*
X0009763Y0003705D01*
X0009604Y0003713D01*
X0009447Y0003725D01*
X0009289Y0003741D01*
X0009132Y0003761D01*
X0008976Y0003785D01*
X0008820Y0003813D01*
X0008665Y0003844D01*
X0008510Y0003880D01*
X0008357Y0003919D01*
X0008205Y0003962D01*
X0008054Y0004009D01*
X0007904Y0004060D01*
X0007755Y0004115D01*
X0007608Y0004173D01*
X0007462Y0004235D01*
X0007318Y0004300D01*
X0007176Y0004370D01*
X0007035Y0004442D01*
X0006896Y0004519D01*
X0006760Y0004598D01*
X0006625Y0004682D01*
X0006492Y0004768D01*
X0006362Y0004858D01*
X0006234Y0004951D01*
X0006108Y0005047D01*
X0005985Y0005147D01*
X0005864Y0005249D01*
X0005746Y0005354D01*
X0005631Y0005463D01*
X0005518Y0005574D01*
X0005408Y0005688D01*
X0005301Y0005805D01*
X0005197Y0005924D01*
X0005096Y0006046D01*
X0004999Y0006171D01*
X0004904Y0006298D01*
X0004813Y0006427D01*
X0004724Y0006558D01*
X0004640Y0006692D01*
X0004558Y0006828D01*
X0004480Y0006965D01*
X0004406Y0007105D01*
X0004335Y0007247D01*
X0004267Y0007390D01*
X0004203Y0007535D01*
X0004143Y0007681D01*
X0004087Y0007829D01*
X0004034Y0007978D01*
X0003985Y0008129D01*
X0003940Y0008281D01*
X0003899Y0008434D01*
X0003861Y0008587D01*
X0003828Y0008742D01*
X0003798Y0008898D01*
X0003772Y0009054D01*
X0003751Y0009211D01*
X0003733Y0009368D01*
X0003719Y0009526D01*
X0003709Y0009684D01*
X0003703Y0009842D01*
X0003701Y0010000D01*
X0133701Y0010000D02*
X0133703Y0010158D01*
X0133709Y0010316D01*
X0133719Y0010474D01*
X0133733Y0010632D01*
X0133751Y0010789D01*
X0133772Y0010946D01*
X0133798Y0011102D01*
X0133828Y0011258D01*
X0133861Y0011413D01*
X0133899Y0011566D01*
X0133940Y0011719D01*
X0133985Y0011871D01*
X0134034Y0012022D01*
X0134087Y0012171D01*
X0134143Y0012319D01*
X0134203Y0012465D01*
X0134267Y0012610D01*
X0134335Y0012753D01*
X0134406Y0012895D01*
X0134480Y0013035D01*
X0134558Y0013172D01*
X0134640Y0013308D01*
X0134724Y0013442D01*
X0134813Y0013573D01*
X0134904Y0013702D01*
X0134999Y0013829D01*
X0135096Y0013954D01*
X0135197Y0014076D01*
X0135301Y0014195D01*
X0135408Y0014312D01*
X0135518Y0014426D01*
X0135631Y0014537D01*
X0135746Y0014646D01*
X0135864Y0014751D01*
X0135985Y0014853D01*
X0136108Y0014953D01*
X0136234Y0015049D01*
X0136362Y0015142D01*
X0136492Y0015232D01*
X0136625Y0015318D01*
X0136760Y0015402D01*
X0136896Y0015481D01*
X0137035Y0015558D01*
X0137176Y0015630D01*
X0137318Y0015700D01*
X0137462Y0015765D01*
X0137608Y0015827D01*
X0137755Y0015885D01*
X0137904Y0015940D01*
X0138054Y0015991D01*
X0138205Y0016038D01*
X0138357Y0016081D01*
X0138510Y0016120D01*
X0138665Y0016156D01*
X0138820Y0016187D01*
X0138976Y0016215D01*
X0139132Y0016239D01*
X0139289Y0016259D01*
X0139447Y0016275D01*
X0139604Y0016287D01*
X0139763Y0016295D01*
X0139921Y0016299D01*
X0140079Y0016299D01*
X0140237Y0016295D01*
X0140396Y0016287D01*
X0140553Y0016275D01*
X0140711Y0016259D01*
X0140868Y0016239D01*
X0141024Y0016215D01*
X0141180Y0016187D01*
X0141335Y0016156D01*
X0141490Y0016120D01*
X0141643Y0016081D01*
X0141795Y0016038D01*
X0141946Y0015991D01*
X0142096Y0015940D01*
X0142245Y0015885D01*
X0142392Y0015827D01*
X0142538Y0015765D01*
X0142682Y0015700D01*
X0142824Y0015630D01*
X0142965Y0015558D01*
X0143104Y0015481D01*
X0143240Y0015402D01*
X0143375Y0015318D01*
X0143508Y0015232D01*
X0143638Y0015142D01*
X0143766Y0015049D01*
X0143892Y0014953D01*
X0144015Y0014853D01*
X0144136Y0014751D01*
X0144254Y0014646D01*
X0144369Y0014537D01*
X0144482Y0014426D01*
X0144592Y0014312D01*
X0144699Y0014195D01*
X0144803Y0014076D01*
X0144904Y0013954D01*
X0145001Y0013829D01*
X0145096Y0013702D01*
X0145187Y0013573D01*
X0145276Y0013442D01*
X0145360Y0013308D01*
X0145442Y0013172D01*
X0145520Y0013035D01*
X0145594Y0012895D01*
X0145665Y0012753D01*
X0145733Y0012610D01*
X0145797Y0012465D01*
X0145857Y0012319D01*
X0145913Y0012171D01*
X0145966Y0012022D01*
X0146015Y0011871D01*
X0146060Y0011719D01*
X0146101Y0011566D01*
X0146139Y0011413D01*
X0146172Y0011258D01*
X0146202Y0011102D01*
X0146228Y0010946D01*
X0146249Y0010789D01*
X0146267Y0010632D01*
X0146281Y0010474D01*
X0146291Y0010316D01*
X0146297Y0010158D01*
X0146299Y0010000D01*
X0146297Y0009842D01*
X0146291Y0009684D01*
X0146281Y0009526D01*
X0146267Y0009368D01*
X0146249Y0009211D01*
X0146228Y0009054D01*
X0146202Y0008898D01*
X0146172Y0008742D01*
X0146139Y0008587D01*
X0146101Y0008434D01*
X0146060Y0008281D01*
X0146015Y0008129D01*
X0145966Y0007978D01*
X0145913Y0007829D01*
X0145857Y0007681D01*
X0145797Y0007535D01*
X0145733Y0007390D01*
X0145665Y0007247D01*
X0145594Y0007105D01*
X0145520Y0006965D01*
X0145442Y0006828D01*
X0145360Y0006692D01*
X0145276Y0006558D01*
X0145187Y0006427D01*
X0145096Y0006298D01*
X0145001Y0006171D01*
X0144904Y0006046D01*
X0144803Y0005924D01*
X0144699Y0005805D01*
X0144592Y0005688D01*
X0144482Y0005574D01*
X0144369Y0005463D01*
X0144254Y0005354D01*
X0144136Y0005249D01*
X0144015Y0005147D01*
X0143892Y0005047D01*
X0143766Y0004951D01*
X0143638Y0004858D01*
X0143508Y0004768D01*
X0143375Y0004682D01*
X0143240Y0004598D01*
X0143104Y0004519D01*
X0142965Y0004442D01*
X0142824Y0004370D01*
X0142682Y0004300D01*
X0142538Y0004235D01*
X0142392Y0004173D01*
X0142245Y0004115D01*
X0142096Y0004060D01*
X0141946Y0004009D01*
X0141795Y0003962D01*
X0141643Y0003919D01*
X0141490Y0003880D01*
X0141335Y0003844D01*
X0141180Y0003813D01*
X0141024Y0003785D01*
X0140868Y0003761D01*
X0140711Y0003741D01*
X0140553Y0003725D01*
X0140396Y0003713D01*
X0140237Y0003705D01*
X0140079Y0003701D01*
X0139921Y0003701D01*
X0139763Y0003705D01*
X0139604Y0003713D01*
X0139447Y0003725D01*
X0139289Y0003741D01*
X0139132Y0003761D01*
X0138976Y0003785D01*
X0138820Y0003813D01*
X0138665Y0003844D01*
X0138510Y0003880D01*
X0138357Y0003919D01*
X0138205Y0003962D01*
X0138054Y0004009D01*
X0137904Y0004060D01*
X0137755Y0004115D01*
X0137608Y0004173D01*
X0137462Y0004235D01*
X0137318Y0004300D01*
X0137176Y0004370D01*
X0137035Y0004442D01*
X0136896Y0004519D01*
X0136760Y0004598D01*
X0136625Y0004682D01*
X0136492Y0004768D01*
X0136362Y0004858D01*
X0136234Y0004951D01*
X0136108Y0005047D01*
X0135985Y0005147D01*
X0135864Y0005249D01*
X0135746Y0005354D01*
X0135631Y0005463D01*
X0135518Y0005574D01*
X0135408Y0005688D01*
X0135301Y0005805D01*
X0135197Y0005924D01*
X0135096Y0006046D01*
X0134999Y0006171D01*
X0134904Y0006298D01*
X0134813Y0006427D01*
X0134724Y0006558D01*
X0134640Y0006692D01*
X0134558Y0006828D01*
X0134480Y0006965D01*
X0134406Y0007105D01*
X0134335Y0007247D01*
X0134267Y0007390D01*
X0134203Y0007535D01*
X0134143Y0007681D01*
X0134087Y0007829D01*
X0134034Y0007978D01*
X0133985Y0008129D01*
X0133940Y0008281D01*
X0133899Y0008434D01*
X0133861Y0008587D01*
X0133828Y0008742D01*
X0133798Y0008898D01*
X0133772Y0009054D01*
X0133751Y0009211D01*
X0133733Y0009368D01*
X0133719Y0009526D01*
X0133709Y0009684D01*
X0133703Y0009842D01*
X0133701Y0010000D01*
X0133701Y0140000D02*
X0133703Y0140158D01*
X0133709Y0140316D01*
X0133719Y0140474D01*
X0133733Y0140632D01*
X0133751Y0140789D01*
X0133772Y0140946D01*
X0133798Y0141102D01*
X0133828Y0141258D01*
X0133861Y0141413D01*
X0133899Y0141566D01*
X0133940Y0141719D01*
X0133985Y0141871D01*
X0134034Y0142022D01*
X0134087Y0142171D01*
X0134143Y0142319D01*
X0134203Y0142465D01*
X0134267Y0142610D01*
X0134335Y0142753D01*
X0134406Y0142895D01*
X0134480Y0143035D01*
X0134558Y0143172D01*
X0134640Y0143308D01*
X0134724Y0143442D01*
X0134813Y0143573D01*
X0134904Y0143702D01*
X0134999Y0143829D01*
X0135096Y0143954D01*
X0135197Y0144076D01*
X0135301Y0144195D01*
X0135408Y0144312D01*
X0135518Y0144426D01*
X0135631Y0144537D01*
X0135746Y0144646D01*
X0135864Y0144751D01*
X0135985Y0144853D01*
X0136108Y0144953D01*
X0136234Y0145049D01*
X0136362Y0145142D01*
X0136492Y0145232D01*
X0136625Y0145318D01*
X0136760Y0145402D01*
X0136896Y0145481D01*
X0137035Y0145558D01*
X0137176Y0145630D01*
X0137318Y0145700D01*
X0137462Y0145765D01*
X0137608Y0145827D01*
X0137755Y0145885D01*
X0137904Y0145940D01*
X0138054Y0145991D01*
X0138205Y0146038D01*
X0138357Y0146081D01*
X0138510Y0146120D01*
X0138665Y0146156D01*
X0138820Y0146187D01*
X0138976Y0146215D01*
X0139132Y0146239D01*
X0139289Y0146259D01*
X0139447Y0146275D01*
X0139604Y0146287D01*
X0139763Y0146295D01*
X0139921Y0146299D01*
X0140079Y0146299D01*
X0140237Y0146295D01*
X0140396Y0146287D01*
X0140553Y0146275D01*
X0140711Y0146259D01*
X0140868Y0146239D01*
X0141024Y0146215D01*
X0141180Y0146187D01*
X0141335Y0146156D01*
X0141490Y0146120D01*
X0141643Y0146081D01*
X0141795Y0146038D01*
X0141946Y0145991D01*
X0142096Y0145940D01*
X0142245Y0145885D01*
X0142392Y0145827D01*
X0142538Y0145765D01*
X0142682Y0145700D01*
X0142824Y0145630D01*
X0142965Y0145558D01*
X0143104Y0145481D01*
X0143240Y0145402D01*
X0143375Y0145318D01*
X0143508Y0145232D01*
X0143638Y0145142D01*
X0143766Y0145049D01*
X0143892Y0144953D01*
X0144015Y0144853D01*
X0144136Y0144751D01*
X0144254Y0144646D01*
X0144369Y0144537D01*
X0144482Y0144426D01*
X0144592Y0144312D01*
X0144699Y0144195D01*
X0144803Y0144076D01*
X0144904Y0143954D01*
X0145001Y0143829D01*
X0145096Y0143702D01*
X0145187Y0143573D01*
X0145276Y0143442D01*
X0145360Y0143308D01*
X0145442Y0143172D01*
X0145520Y0143035D01*
X0145594Y0142895D01*
X0145665Y0142753D01*
X0145733Y0142610D01*
X0145797Y0142465D01*
X0145857Y0142319D01*
X0145913Y0142171D01*
X0145966Y0142022D01*
X0146015Y0141871D01*
X0146060Y0141719D01*
X0146101Y0141566D01*
X0146139Y0141413D01*
X0146172Y0141258D01*
X0146202Y0141102D01*
X0146228Y0140946D01*
X0146249Y0140789D01*
X0146267Y0140632D01*
X0146281Y0140474D01*
X0146291Y0140316D01*
X0146297Y0140158D01*
X0146299Y0140000D01*
X0146297Y0139842D01*
X0146291Y0139684D01*
X0146281Y0139526D01*
X0146267Y0139368D01*
X0146249Y0139211D01*
X0146228Y0139054D01*
X0146202Y0138898D01*
X0146172Y0138742D01*
X0146139Y0138587D01*
X0146101Y0138434D01*
X0146060Y0138281D01*
X0146015Y0138129D01*
X0145966Y0137978D01*
X0145913Y0137829D01*
X0145857Y0137681D01*
X0145797Y0137535D01*
X0145733Y0137390D01*
X0145665Y0137247D01*
X0145594Y0137105D01*
X0145520Y0136965D01*
X0145442Y0136828D01*
X0145360Y0136692D01*
X0145276Y0136558D01*
X0145187Y0136427D01*
X0145096Y0136298D01*
X0145001Y0136171D01*
X0144904Y0136046D01*
X0144803Y0135924D01*
X0144699Y0135805D01*
X0144592Y0135688D01*
X0144482Y0135574D01*
X0144369Y0135463D01*
X0144254Y0135354D01*
X0144136Y0135249D01*
X0144015Y0135147D01*
X0143892Y0135047D01*
X0143766Y0134951D01*
X0143638Y0134858D01*
X0143508Y0134768D01*
X0143375Y0134682D01*
X0143240Y0134598D01*
X0143104Y0134519D01*
X0142965Y0134442D01*
X0142824Y0134370D01*
X0142682Y0134300D01*
X0142538Y0134235D01*
X0142392Y0134173D01*
X0142245Y0134115D01*
X0142096Y0134060D01*
X0141946Y0134009D01*
X0141795Y0133962D01*
X0141643Y0133919D01*
X0141490Y0133880D01*
X0141335Y0133844D01*
X0141180Y0133813D01*
X0141024Y0133785D01*
X0140868Y0133761D01*
X0140711Y0133741D01*
X0140553Y0133725D01*
X0140396Y0133713D01*
X0140237Y0133705D01*
X0140079Y0133701D01*
X0139921Y0133701D01*
X0139763Y0133705D01*
X0139604Y0133713D01*
X0139447Y0133725D01*
X0139289Y0133741D01*
X0139132Y0133761D01*
X0138976Y0133785D01*
X0138820Y0133813D01*
X0138665Y0133844D01*
X0138510Y0133880D01*
X0138357Y0133919D01*
X0138205Y0133962D01*
X0138054Y0134009D01*
X0137904Y0134060D01*
X0137755Y0134115D01*
X0137608Y0134173D01*
X0137462Y0134235D01*
X0137318Y0134300D01*
X0137176Y0134370D01*
X0137035Y0134442D01*
X0136896Y0134519D01*
X0136760Y0134598D01*
X0136625Y0134682D01*
X0136492Y0134768D01*
X0136362Y0134858D01*
X0136234Y0134951D01*
X0136108Y0135047D01*
X0135985Y0135147D01*
X0135864Y0135249D01*
X0135746Y0135354D01*
X0135631Y0135463D01*
X0135518Y0135574D01*
X0135408Y0135688D01*
X0135301Y0135805D01*
X0135197Y0135924D01*
X0135096Y0136046D01*
X0134999Y0136171D01*
X0134904Y0136298D01*
X0134813Y0136427D01*
X0134724Y0136558D01*
X0134640Y0136692D01*
X0134558Y0136828D01*
X0134480Y0136965D01*
X0134406Y0137105D01*
X0134335Y0137247D01*
X0134267Y0137390D01*
X0134203Y0137535D01*
X0134143Y0137681D01*
X0134087Y0137829D01*
X0134034Y0137978D01*
X0133985Y0138129D01*
X0133940Y0138281D01*
X0133899Y0138434D01*
X0133861Y0138587D01*
X0133828Y0138742D01*
X0133798Y0138898D01*
X0133772Y0139054D01*
X0133751Y0139211D01*
X0133733Y0139368D01*
X0133719Y0139526D01*
X0133709Y0139684D01*
X0133703Y0139842D01*
X0133701Y0140000D01*
X0003701Y0140000D02*
X0003703Y0140158D01*
X0003709Y0140316D01*
X0003719Y0140474D01*
X0003733Y0140632D01*
X0003751Y0140789D01*
X0003772Y0140946D01*
X0003798Y0141102D01*
X0003828Y0141258D01*
X0003861Y0141413D01*
X0003899Y0141566D01*
X0003940Y0141719D01*
X0003985Y0141871D01*
X0004034Y0142022D01*
X0004087Y0142171D01*
X0004143Y0142319D01*
X0004203Y0142465D01*
X0004267Y0142610D01*
X0004335Y0142753D01*
X0004406Y0142895D01*
X0004480Y0143035D01*
X0004558Y0143172D01*
X0004640Y0143308D01*
X0004724Y0143442D01*
X0004813Y0143573D01*
X0004904Y0143702D01*
X0004999Y0143829D01*
X0005096Y0143954D01*
X0005197Y0144076D01*
X0005301Y0144195D01*
X0005408Y0144312D01*
X0005518Y0144426D01*
X0005631Y0144537D01*
X0005746Y0144646D01*
X0005864Y0144751D01*
X0005985Y0144853D01*
X0006108Y0144953D01*
X0006234Y0145049D01*
X0006362Y0145142D01*
X0006492Y0145232D01*
X0006625Y0145318D01*
X0006760Y0145402D01*
X0006896Y0145481D01*
X0007035Y0145558D01*
X0007176Y0145630D01*
X0007318Y0145700D01*
X0007462Y0145765D01*
X0007608Y0145827D01*
X0007755Y0145885D01*
X0007904Y0145940D01*
X0008054Y0145991D01*
X0008205Y0146038D01*
X0008357Y0146081D01*
X0008510Y0146120D01*
X0008665Y0146156D01*
X0008820Y0146187D01*
X0008976Y0146215D01*
X0009132Y0146239D01*
X0009289Y0146259D01*
X0009447Y0146275D01*
X0009604Y0146287D01*
X0009763Y0146295D01*
X0009921Y0146299D01*
X0010079Y0146299D01*
X0010237Y0146295D01*
X0010396Y0146287D01*
X0010553Y0146275D01*
X0010711Y0146259D01*
X0010868Y0146239D01*
X0011024Y0146215D01*
X0011180Y0146187D01*
X0011335Y0146156D01*
X0011490Y0146120D01*
X0011643Y0146081D01*
X0011795Y0146038D01*
X0011946Y0145991D01*
X0012096Y0145940D01*
X0012245Y0145885D01*
X0012392Y0145827D01*
X0012538Y0145765D01*
X0012682Y0145700D01*
X0012824Y0145630D01*
X0012965Y0145558D01*
X0013104Y0145481D01*
X0013240Y0145402D01*
X0013375Y0145318D01*
X0013508Y0145232D01*
X0013638Y0145142D01*
X0013766Y0145049D01*
X0013892Y0144953D01*
X0014015Y0144853D01*
X0014136Y0144751D01*
X0014254Y0144646D01*
X0014369Y0144537D01*
X0014482Y0144426D01*
X0014592Y0144312D01*
X0014699Y0144195D01*
X0014803Y0144076D01*
X0014904Y0143954D01*
X0015001Y0143829D01*
X0015096Y0143702D01*
X0015187Y0143573D01*
X0015276Y0143442D01*
X0015360Y0143308D01*
X0015442Y0143172D01*
X0015520Y0143035D01*
X0015594Y0142895D01*
X0015665Y0142753D01*
X0015733Y0142610D01*
X0015797Y0142465D01*
X0015857Y0142319D01*
X0015913Y0142171D01*
X0015966Y0142022D01*
X0016015Y0141871D01*
X0016060Y0141719D01*
X0016101Y0141566D01*
X0016139Y0141413D01*
X0016172Y0141258D01*
X0016202Y0141102D01*
X0016228Y0140946D01*
X0016249Y0140789D01*
X0016267Y0140632D01*
X0016281Y0140474D01*
X0016291Y0140316D01*
X0016297Y0140158D01*
X0016299Y0140000D01*
X0016297Y0139842D01*
X0016291Y0139684D01*
X0016281Y0139526D01*
X0016267Y0139368D01*
X0016249Y0139211D01*
X0016228Y0139054D01*
X0016202Y0138898D01*
X0016172Y0138742D01*
X0016139Y0138587D01*
X0016101Y0138434D01*
X0016060Y0138281D01*
X0016015Y0138129D01*
X0015966Y0137978D01*
X0015913Y0137829D01*
X0015857Y0137681D01*
X0015797Y0137535D01*
X0015733Y0137390D01*
X0015665Y0137247D01*
X0015594Y0137105D01*
X0015520Y0136965D01*
X0015442Y0136828D01*
X0015360Y0136692D01*
X0015276Y0136558D01*
X0015187Y0136427D01*
X0015096Y0136298D01*
X0015001Y0136171D01*
X0014904Y0136046D01*
X0014803Y0135924D01*
X0014699Y0135805D01*
X0014592Y0135688D01*
X0014482Y0135574D01*
X0014369Y0135463D01*
X0014254Y0135354D01*
X0014136Y0135249D01*
X0014015Y0135147D01*
X0013892Y0135047D01*
X0013766Y0134951D01*
X0013638Y0134858D01*
X0013508Y0134768D01*
X0013375Y0134682D01*
X0013240Y0134598D01*
X0013104Y0134519D01*
X0012965Y0134442D01*
X0012824Y0134370D01*
X0012682Y0134300D01*
X0012538Y0134235D01*
X0012392Y0134173D01*
X0012245Y0134115D01*
X0012096Y0134060D01*
X0011946Y0134009D01*
X0011795Y0133962D01*
X0011643Y0133919D01*
X0011490Y0133880D01*
X0011335Y0133844D01*
X0011180Y0133813D01*
X0011024Y0133785D01*
X0010868Y0133761D01*
X0010711Y0133741D01*
X0010553Y0133725D01*
X0010396Y0133713D01*
X0010237Y0133705D01*
X0010079Y0133701D01*
X0009921Y0133701D01*
X0009763Y0133705D01*
X0009604Y0133713D01*
X0009447Y0133725D01*
X0009289Y0133741D01*
X0009132Y0133761D01*
X0008976Y0133785D01*
X0008820Y0133813D01*
X0008665Y0133844D01*
X0008510Y0133880D01*
X0008357Y0133919D01*
X0008205Y0133962D01*
X0008054Y0134009D01*
X0007904Y0134060D01*
X0007755Y0134115D01*
X0007608Y0134173D01*
X0007462Y0134235D01*
X0007318Y0134300D01*
X0007176Y0134370D01*
X0007035Y0134442D01*
X0006896Y0134519D01*
X0006760Y0134598D01*
X0006625Y0134682D01*
X0006492Y0134768D01*
X0006362Y0134858D01*
X0006234Y0134951D01*
X0006108Y0135047D01*
X0005985Y0135147D01*
X0005864Y0135249D01*
X0005746Y0135354D01*
X0005631Y0135463D01*
X0005518Y0135574D01*
X0005408Y0135688D01*
X0005301Y0135805D01*
X0005197Y0135924D01*
X0005096Y0136046D01*
X0004999Y0136171D01*
X0004904Y0136298D01*
X0004813Y0136427D01*
X0004724Y0136558D01*
X0004640Y0136692D01*
X0004558Y0136828D01*
X0004480Y0136965D01*
X0004406Y0137105D01*
X0004335Y0137247D01*
X0004267Y0137390D01*
X0004203Y0137535D01*
X0004143Y0137681D01*
X0004087Y0137829D01*
X0004034Y0137978D01*
X0003985Y0138129D01*
X0003940Y0138281D01*
X0003899Y0138434D01*
X0003861Y0138587D01*
X0003828Y0138742D01*
X0003798Y0138898D01*
X0003772Y0139054D01*
X0003751Y0139211D01*
X0003733Y0139368D01*
X0003719Y0139526D01*
X0003709Y0139684D01*
X0003703Y0139842D01*
X0003701Y0140000D01*
X0018819Y0124579D02*
X0018821Y0124648D01*
X0018827Y0124716D01*
X0018837Y0124784D01*
X0018851Y0124851D01*
X0018869Y0124918D01*
X0018890Y0124983D01*
X0018916Y0125047D01*
X0018945Y0125109D01*
X0018977Y0125169D01*
X0019013Y0125228D01*
X0019053Y0125284D01*
X0019095Y0125338D01*
X0019141Y0125389D01*
X0019190Y0125438D01*
X0019241Y0125484D01*
X0019295Y0125526D01*
X0019351Y0125566D01*
X0019409Y0125602D01*
X0019470Y0125634D01*
X0019532Y0125663D01*
X0019596Y0125689D01*
X0019661Y0125710D01*
X0019728Y0125728D01*
X0019795Y0125742D01*
X0019863Y0125752D01*
X0019931Y0125758D01*
X0020000Y0125760D01*
X0020069Y0125758D01*
X0020137Y0125752D01*
X0020205Y0125742D01*
X0020272Y0125728D01*
X0020339Y0125710D01*
X0020404Y0125689D01*
X0020468Y0125663D01*
X0020530Y0125634D01*
X0020590Y0125602D01*
X0020649Y0125566D01*
X0020705Y0125526D01*
X0020759Y0125484D01*
X0020810Y0125438D01*
X0020859Y0125389D01*
X0020905Y0125338D01*
X0020947Y0125284D01*
X0020987Y0125228D01*
X0021023Y0125169D01*
X0021055Y0125109D01*
X0021084Y0125047D01*
X0021110Y0124983D01*
X0021131Y0124918D01*
X0021149Y0124851D01*
X0021163Y0124784D01*
X0021173Y0124716D01*
X0021179Y0124648D01*
X0021181Y0124579D01*
X0021179Y0124510D01*
X0021173Y0124442D01*
X0021163Y0124374D01*
X0021149Y0124307D01*
X0021131Y0124240D01*
X0021110Y0124175D01*
X0021084Y0124111D01*
X0021055Y0124049D01*
X0021023Y0123988D01*
X0020987Y0123930D01*
X0020947Y0123874D01*
X0020905Y0123820D01*
X0020859Y0123769D01*
X0020810Y0123720D01*
X0020759Y0123674D01*
X0020705Y0123632D01*
X0020649Y0123592D01*
X0020591Y0123556D01*
X0020530Y0123524D01*
X0020468Y0123495D01*
X0020404Y0123469D01*
X0020339Y0123448D01*
X0020272Y0123430D01*
X0020205Y0123416D01*
X0020137Y0123406D01*
X0020069Y0123400D01*
X0020000Y0123398D01*
X0019931Y0123400D01*
X0019863Y0123406D01*
X0019795Y0123416D01*
X0019728Y0123430D01*
X0019661Y0123448D01*
X0019596Y0123469D01*
X0019532Y0123495D01*
X0019470Y0123524D01*
X0019409Y0123556D01*
X0019351Y0123592D01*
X0019295Y0123632D01*
X0019241Y0123674D01*
X0019190Y0123720D01*
X0019141Y0123769D01*
X0019095Y0123820D01*
X0019053Y0123874D01*
X0019013Y0123930D01*
X0018977Y0123988D01*
X0018945Y0124049D01*
X0018916Y0124111D01*
X0018890Y0124175D01*
X0018869Y0124240D01*
X0018851Y0124307D01*
X0018837Y0124374D01*
X0018827Y0124442D01*
X0018821Y0124510D01*
X0018819Y0124579D01*
X0128819Y0125579D02*
X0128821Y0125648D01*
X0128827Y0125716D01*
X0128837Y0125784D01*
X0128851Y0125851D01*
X0128869Y0125918D01*
X0128890Y0125983D01*
X0128916Y0126047D01*
X0128945Y0126109D01*
X0128977Y0126169D01*
X0129013Y0126228D01*
X0129053Y0126284D01*
X0129095Y0126338D01*
X0129141Y0126389D01*
X0129190Y0126438D01*
X0129241Y0126484D01*
X0129295Y0126526D01*
X0129351Y0126566D01*
X0129409Y0126602D01*
X0129470Y0126634D01*
X0129532Y0126663D01*
X0129596Y0126689D01*
X0129661Y0126710D01*
X0129728Y0126728D01*
X0129795Y0126742D01*
X0129863Y0126752D01*
X0129931Y0126758D01*
X0130000Y0126760D01*
X0130069Y0126758D01*
X0130137Y0126752D01*
X0130205Y0126742D01*
X0130272Y0126728D01*
X0130339Y0126710D01*
X0130404Y0126689D01*
X0130468Y0126663D01*
X0130530Y0126634D01*
X0130590Y0126602D01*
X0130649Y0126566D01*
X0130705Y0126526D01*
X0130759Y0126484D01*
X0130810Y0126438D01*
X0130859Y0126389D01*
X0130905Y0126338D01*
X0130947Y0126284D01*
X0130987Y0126228D01*
X0131023Y0126169D01*
X0131055Y0126109D01*
X0131084Y0126047D01*
X0131110Y0125983D01*
X0131131Y0125918D01*
X0131149Y0125851D01*
X0131163Y0125784D01*
X0131173Y0125716D01*
X0131179Y0125648D01*
X0131181Y0125579D01*
X0131179Y0125510D01*
X0131173Y0125442D01*
X0131163Y0125374D01*
X0131149Y0125307D01*
X0131131Y0125240D01*
X0131110Y0125175D01*
X0131084Y0125111D01*
X0131055Y0125049D01*
X0131023Y0124988D01*
X0130987Y0124930D01*
X0130947Y0124874D01*
X0130905Y0124820D01*
X0130859Y0124769D01*
X0130810Y0124720D01*
X0130759Y0124674D01*
X0130705Y0124632D01*
X0130649Y0124592D01*
X0130591Y0124556D01*
X0130530Y0124524D01*
X0130468Y0124495D01*
X0130404Y0124469D01*
X0130339Y0124448D01*
X0130272Y0124430D01*
X0130205Y0124416D01*
X0130137Y0124406D01*
X0130069Y0124400D01*
X0130000Y0124398D01*
X0129931Y0124400D01*
X0129863Y0124406D01*
X0129795Y0124416D01*
X0129728Y0124430D01*
X0129661Y0124448D01*
X0129596Y0124469D01*
X0129532Y0124495D01*
X0129470Y0124524D01*
X0129409Y0124556D01*
X0129351Y0124592D01*
X0129295Y0124632D01*
X0129241Y0124674D01*
X0129190Y0124720D01*
X0129141Y0124769D01*
X0129095Y0124820D01*
X0129053Y0124874D01*
X0129013Y0124930D01*
X0128977Y0124988D01*
X0128945Y0125049D01*
X0128916Y0125111D01*
X0128890Y0125175D01*
X0128869Y0125240D01*
X0128851Y0125307D01*
X0128837Y0125374D01*
X0128827Y0125442D01*
X0128821Y0125510D01*
X0128819Y0125579D01*
M02*
