G75*
%MOIN*%
%OFA0B0*%
%FSLAX25Y25*%
%IPPOS*%
%LPD*%
%AMOC8*
5,1,8,0,0,1.08239X$1,22.5*
%
%ADD10R,0.05906X0.05118*%
%ADD11R,0.02362X0.01575*%
%ADD12C,0.01181*%
%ADD13R,0.00394X0.00394*%
%ADD14C,0.00500*%
%ADD15C,0.02800*%
%ADD16C,0.02780*%
%ADD17C,0.00600*%
%ADD18C,0.03200*%
%ADD19C,0.02900*%
D10*
X0142233Y0117094D03*
X0142233Y0124575D03*
D11*
X0024232Y0119559D03*
X0024232Y0117000D03*
X0024232Y0114441D03*
X0015768Y0114441D03*
X0015768Y0117000D03*
X0015768Y0119559D03*
D12*
X0017343Y0124579D02*
X0017345Y0124682D01*
X0017351Y0124785D01*
X0017361Y0124887D01*
X0017375Y0124990D01*
X0017393Y0125091D01*
X0017415Y0125192D01*
X0017440Y0125292D01*
X0017470Y0125390D01*
X0017503Y0125488D01*
X0017540Y0125584D01*
X0017581Y0125678D01*
X0017626Y0125771D01*
X0017674Y0125863D01*
X0017725Y0125952D01*
X0017780Y0126039D01*
X0017838Y0126124D01*
X0017900Y0126207D01*
X0017965Y0126287D01*
X0018032Y0126365D01*
X0018103Y0126439D01*
X0018177Y0126512D01*
X0018253Y0126581D01*
X0018332Y0126647D01*
X0018413Y0126710D01*
X0018497Y0126770D01*
X0018583Y0126827D01*
X0018671Y0126880D01*
X0018762Y0126930D01*
X0018854Y0126976D01*
X0018948Y0127019D01*
X0019043Y0127058D01*
X0019140Y0127093D01*
X0019238Y0127124D01*
X0019337Y0127152D01*
X0019438Y0127176D01*
X0019539Y0127196D01*
X0019640Y0127212D01*
X0019743Y0127224D01*
X0019846Y0127232D01*
X0019948Y0127236D01*
X0020052Y0127236D01*
X0020154Y0127232D01*
X0020257Y0127224D01*
X0020360Y0127212D01*
X0020461Y0127196D01*
X0020562Y0127176D01*
X0020663Y0127152D01*
X0020762Y0127124D01*
X0020860Y0127093D01*
X0020957Y0127058D01*
X0021052Y0127019D01*
X0021146Y0126976D01*
X0021238Y0126930D01*
X0021328Y0126880D01*
X0021417Y0126827D01*
X0021503Y0126770D01*
X0021587Y0126710D01*
X0021668Y0126647D01*
X0021747Y0126581D01*
X0021823Y0126512D01*
X0021897Y0126439D01*
X0021968Y0126365D01*
X0022035Y0126287D01*
X0022100Y0126207D01*
X0022162Y0126124D01*
X0022220Y0126039D01*
X0022275Y0125952D01*
X0022326Y0125863D01*
X0022374Y0125771D01*
X0022419Y0125678D01*
X0022460Y0125584D01*
X0022497Y0125488D01*
X0022530Y0125390D01*
X0022560Y0125292D01*
X0022585Y0125192D01*
X0022607Y0125091D01*
X0022625Y0124990D01*
X0022639Y0124887D01*
X0022649Y0124785D01*
X0022655Y0124682D01*
X0022657Y0124579D01*
X0022655Y0124476D01*
X0022649Y0124373D01*
X0022639Y0124271D01*
X0022625Y0124168D01*
X0022607Y0124067D01*
X0022585Y0123966D01*
X0022560Y0123866D01*
X0022530Y0123768D01*
X0022497Y0123670D01*
X0022460Y0123574D01*
X0022419Y0123480D01*
X0022374Y0123387D01*
X0022326Y0123295D01*
X0022275Y0123206D01*
X0022220Y0123119D01*
X0022162Y0123034D01*
X0022100Y0122951D01*
X0022035Y0122871D01*
X0021968Y0122793D01*
X0021897Y0122719D01*
X0021823Y0122646D01*
X0021747Y0122577D01*
X0021668Y0122511D01*
X0021587Y0122448D01*
X0021503Y0122388D01*
X0021417Y0122331D01*
X0021329Y0122278D01*
X0021238Y0122228D01*
X0021146Y0122182D01*
X0021052Y0122139D01*
X0020957Y0122100D01*
X0020860Y0122065D01*
X0020762Y0122034D01*
X0020663Y0122006D01*
X0020562Y0121982D01*
X0020461Y0121962D01*
X0020360Y0121946D01*
X0020257Y0121934D01*
X0020154Y0121926D01*
X0020052Y0121922D01*
X0019948Y0121922D01*
X0019846Y0121926D01*
X0019743Y0121934D01*
X0019640Y0121946D01*
X0019539Y0121962D01*
X0019438Y0121982D01*
X0019337Y0122006D01*
X0019238Y0122034D01*
X0019140Y0122065D01*
X0019043Y0122100D01*
X0018948Y0122139D01*
X0018854Y0122182D01*
X0018762Y0122228D01*
X0018672Y0122278D01*
X0018583Y0122331D01*
X0018497Y0122388D01*
X0018413Y0122448D01*
X0018332Y0122511D01*
X0018253Y0122577D01*
X0018177Y0122646D01*
X0018103Y0122719D01*
X0018032Y0122793D01*
X0017965Y0122871D01*
X0017900Y0122951D01*
X0017838Y0123034D01*
X0017780Y0123119D01*
X0017725Y0123206D01*
X0017674Y0123295D01*
X0017626Y0123387D01*
X0017581Y0123480D01*
X0017540Y0123574D01*
X0017503Y0123670D01*
X0017470Y0123768D01*
X0017440Y0123866D01*
X0017415Y0123966D01*
X0017393Y0124067D01*
X0017375Y0124168D01*
X0017361Y0124271D01*
X0017351Y0124373D01*
X0017345Y0124476D01*
X0017343Y0124579D01*
D13*
X0020000Y0127236D03*
X0020000Y0121724D03*
X0017244Y0124480D03*
X0022756Y0124874D03*
D14*
X0015768Y0117000D02*
X0015768Y0114441D01*
X0107980Y0100942D02*
X0107980Y0102806D01*
X0106880Y0103906D01*
X0106880Y0111405D01*
X0104124Y0114161D01*
X0103451Y0114835D01*
X0075479Y0114835D01*
X0075015Y0115299D01*
X0114770Y0115299D01*
X0115860Y0114209D01*
X0117715Y0114209D01*
X0119027Y0115521D01*
X0119027Y0117099D01*
X0120310Y0117099D01*
X0121622Y0118411D01*
X0121622Y0118828D01*
X0133465Y0118898D01*
X0133465Y0018383D01*
X0131559Y0016477D01*
X0130170Y0014072D01*
X0129451Y0011389D01*
X0129451Y0008611D01*
X0130170Y0005928D01*
X0130850Y0004750D01*
X0019150Y0004750D01*
X0019830Y0005928D01*
X0020549Y0008611D01*
X0020549Y0011389D01*
X0019830Y0014072D01*
X0018441Y0016477D01*
X0016477Y0018441D01*
X0014072Y0019830D01*
X0011389Y0020549D01*
X0008611Y0020549D01*
X0005928Y0019830D01*
X0004750Y0019150D01*
X0004750Y0021624D01*
X0005257Y0021117D01*
X0007113Y0021117D01*
X0008203Y0022207D01*
X0018625Y0022207D01*
X0019572Y0021260D01*
X0021428Y0021260D01*
X0022740Y0022572D01*
X0022740Y0024428D01*
X0021428Y0025740D01*
X0019572Y0025740D01*
X0018339Y0024507D01*
X0008203Y0024507D01*
X0007113Y0025597D01*
X0005257Y0025597D01*
X0004750Y0025090D01*
X0004750Y0118138D01*
X0010952Y0118175D01*
X0010952Y0109433D01*
X0011626Y0108759D01*
X0013951Y0108759D01*
X0015041Y0107669D01*
X0016896Y0107669D01*
X0018208Y0108982D01*
X0018208Y0110837D01*
X0016896Y0112149D01*
X0015041Y0112149D01*
X0013951Y0111059D01*
X0013252Y0111059D01*
X0013252Y0118188D01*
X0013400Y0118189D01*
X0013337Y0117952D01*
X0013337Y0117144D01*
X0015624Y0117144D01*
X0015624Y0116856D01*
X0013337Y0116856D01*
X0013337Y0116048D01*
X0013422Y0115730D01*
X0013427Y0115720D01*
X0013422Y0115711D01*
X0013337Y0115393D01*
X0013337Y0114585D01*
X0015624Y0114585D01*
X0015624Y0114297D01*
X0013337Y0114297D01*
X0013337Y0113489D01*
X0013422Y0113171D01*
X0013586Y0112886D01*
X0013819Y0112653D01*
X0014104Y0112489D01*
X0014422Y0112404D01*
X0015624Y0112404D01*
X0015624Y0114297D01*
X0015911Y0114297D01*
X0015911Y0112404D01*
X0017113Y0112404D01*
X0017431Y0112489D01*
X0017716Y0112653D01*
X0017949Y0112886D01*
X0018114Y0113171D01*
X0018199Y0113489D01*
X0018199Y0114297D01*
X0015911Y0114297D01*
X0015911Y0114585D01*
X0018199Y0114585D01*
X0018199Y0115393D01*
X0018114Y0115711D01*
X0018108Y0115720D01*
X0018114Y0115730D01*
X0018199Y0116048D01*
X0018199Y0116856D01*
X0015911Y0116856D01*
X0015911Y0117144D01*
X0018199Y0117144D01*
X0018199Y0117952D01*
X0018128Y0118217D01*
X0022304Y0118242D01*
X0022201Y0118139D01*
X0022201Y0115861D01*
X0022341Y0115720D01*
X0022201Y0115580D01*
X0022201Y0113301D01*
X0022699Y0112804D01*
X0025765Y0112804D01*
X0026253Y0113291D01*
X0044085Y0113291D01*
X0045127Y0112248D01*
X0046983Y0112248D01*
X0048295Y0113560D01*
X0048295Y0115299D01*
X0071879Y0115299D01*
X0071197Y0114617D01*
X0071197Y0112753D01*
X0072515Y0111435D01*
X0074379Y0111435D01*
X0075479Y0112535D01*
X0102498Y0112535D01*
X0104580Y0110453D01*
X0104580Y0103906D01*
X0103480Y0102806D01*
X0103480Y0100942D01*
X0104798Y0099624D01*
X0106662Y0099624D01*
X0107980Y0100942D01*
X0038775Y0108604D02*
X0038775Y0110459D01*
X0037463Y0111771D01*
X0035608Y0111771D01*
X0034624Y0110788D01*
X0033676Y0111736D01*
X0031820Y0111736D01*
X0030783Y0110699D01*
X0030783Y0110770D01*
X0029471Y0112083D01*
X0027615Y0112083D01*
X0026303Y0110770D01*
X0026303Y0108915D01*
X0027615Y0107603D01*
X0029471Y0107603D01*
X0030508Y0108639D01*
X0030508Y0108568D01*
X0031820Y0107256D01*
X0033676Y0107256D01*
X0034659Y0108240D01*
X0035608Y0107291D01*
X0037463Y0107291D01*
X0038775Y0108604D01*
X0133346Y0110950D02*
X0133346Y0112806D01*
X0132034Y0114118D01*
X0130178Y0114118D01*
X0128866Y0112806D01*
X0128866Y0110950D01*
X0130178Y0109638D01*
X0132034Y0109638D01*
X0133346Y0110950D01*
X0066361Y0029441D02*
X0064505Y0029441D01*
X0063193Y0028129D01*
X0063193Y0026273D01*
X0064505Y0024961D01*
X0066361Y0024961D01*
X0067451Y0026051D01*
X0083226Y0026051D01*
X0084249Y0025028D01*
X0086105Y0025028D01*
X0087417Y0026340D01*
X0087417Y0028196D01*
X0086105Y0029508D01*
X0084249Y0029508D01*
X0083092Y0028351D01*
X0067451Y0028351D01*
X0066361Y0029441D01*
X0053734Y0061067D02*
X0052421Y0059755D01*
X0052421Y0057899D01*
X0053734Y0056587D01*
X0055589Y0056587D01*
X0056679Y0057677D01*
X0067953Y0057677D01*
X0067860Y0057584D01*
X0067860Y0043991D01*
X0068007Y0043844D01*
X0069248Y0043844D01*
X0068075Y0042672D01*
X0068075Y0040816D01*
X0069387Y0039504D01*
X0071243Y0039504D01*
X0072555Y0040816D01*
X0072555Y0042672D01*
X0071382Y0043844D01*
X0081600Y0043844D01*
X0081746Y0043991D01*
X0081746Y0045842D01*
X0082387Y0045201D01*
X0084243Y0045201D01*
X0085555Y0046513D01*
X0085555Y0048369D01*
X0084243Y0049681D01*
X0082387Y0049681D01*
X0081746Y0049040D01*
X0081746Y0057584D01*
X0081653Y0057677D01*
X0108211Y0057677D01*
X0109328Y0056559D01*
X0111184Y0056559D01*
X0112496Y0057871D01*
X0112496Y0059727D01*
X0111184Y0061039D01*
X0109328Y0061039D01*
X0108266Y0059977D01*
X0057971Y0059977D01*
X0059022Y0061027D01*
X0104726Y0061027D01*
X0105730Y0060024D01*
X0107585Y0060024D01*
X0108897Y0061336D01*
X0108897Y0063192D01*
X0107585Y0064504D01*
X0105730Y0064504D01*
X0104553Y0063327D01*
X0059022Y0063327D01*
X0057932Y0064417D01*
X0056076Y0064417D01*
X0054764Y0063105D01*
X0054764Y0061249D01*
X0054947Y0061067D01*
X0053734Y0061067D01*
X0029792Y0056403D02*
X0030882Y0057493D01*
X0030882Y0059349D01*
X0029570Y0060661D01*
X0027714Y0060661D01*
X0026624Y0059571D01*
X0022567Y0059571D01*
X0022567Y0063045D01*
X0023657Y0064135D01*
X0023657Y0065991D01*
X0022345Y0067303D01*
X0020489Y0067303D01*
X0019177Y0065991D01*
X0019177Y0064135D01*
X0020267Y0063045D01*
X0020267Y0057945D01*
X0020941Y0057271D01*
X0026624Y0057271D01*
X0027492Y0056403D01*
X0027492Y0052819D01*
X0028165Y0052145D01*
X0028612Y0052145D01*
X0029702Y0051055D01*
X0031558Y0051055D01*
X0032870Y0052367D01*
X0032870Y0054223D01*
X0031558Y0055535D01*
X0029792Y0055535D01*
X0029792Y0056403D01*
X0120067Y0082671D02*
X0120067Y0084526D01*
X0118755Y0085838D01*
X0116899Y0085838D01*
X0116193Y0085132D01*
X0116193Y0086011D01*
X0114881Y0087323D01*
X0113025Y0087323D01*
X0112390Y0086687D01*
X0112390Y0087845D01*
X0111077Y0089157D01*
X0109222Y0089157D01*
X0107910Y0087845D01*
X0107910Y0085989D01*
X0109222Y0084677D01*
X0111077Y0084677D01*
X0111713Y0085313D01*
X0111713Y0084155D01*
X0113025Y0082843D01*
X0114881Y0082843D01*
X0115587Y0083549D01*
X0115587Y0082671D01*
X0116899Y0081358D01*
X0118755Y0081358D01*
X0120067Y0082671D01*
X0073335Y0082044D02*
X0073335Y0083908D01*
X0072235Y0085008D01*
X0072235Y0109866D01*
X0070113Y0111988D01*
X0070113Y0113614D01*
X0068766Y0114961D01*
X0066861Y0114961D01*
X0065513Y0113614D01*
X0065513Y0111709D01*
X0066861Y0110361D01*
X0068487Y0110361D01*
X0069935Y0108914D01*
X0069935Y0085008D01*
X0068835Y0083908D01*
X0068835Y0082044D01*
X0070153Y0080726D01*
X0072017Y0080726D01*
X0073335Y0082044D01*
X0089476Y0068265D02*
X0089476Y0070129D01*
X0088158Y0071447D01*
X0086294Y0071447D01*
X0084976Y0070129D01*
X0084976Y0068265D01*
X0086294Y0066947D01*
X0088158Y0066947D01*
X0089476Y0068265D01*
X0102862Y0075745D02*
X0102862Y0077609D01*
X0101544Y0078927D01*
X0099680Y0078927D01*
X0098362Y0077609D01*
X0098362Y0075745D01*
X0099680Y0074427D01*
X0101544Y0074427D01*
X0102862Y0075745D01*
X0097902Y0105155D02*
X0097902Y0107019D01*
X0096584Y0108337D01*
X0094720Y0108337D01*
X0093402Y0107019D01*
X0093402Y0105155D01*
X0094720Y0103837D01*
X0096584Y0103837D01*
X0097902Y0105155D01*
X0032957Y0027096D02*
X0032957Y0028951D01*
X0031644Y0030264D01*
X0029789Y0030264D01*
X0028477Y0028951D01*
X0028477Y0027096D01*
X0029789Y0025784D01*
X0031644Y0025784D01*
X0032957Y0027096D01*
X0032984Y0034757D02*
X0032984Y0036613D01*
X0031672Y0037925D01*
X0029816Y0037925D01*
X0028504Y0036613D01*
X0028504Y0034757D01*
X0029816Y0033445D01*
X0031672Y0033445D01*
X0032984Y0034757D01*
X0015911Y0114963D02*
X0015911Y0114585D01*
X0015624Y0114585D01*
X0015624Y0116856D01*
X0015911Y0116856D01*
X0015911Y0114963D01*
X0019286Y0004985D02*
X0130714Y0004985D01*
X0130426Y0005484D02*
X0019574Y0005484D01*
X0019845Y0005982D02*
X0130155Y0005982D01*
X0130022Y0006481D02*
X0019978Y0006481D01*
X0020112Y0006979D02*
X0129888Y0006979D01*
X0129755Y0007478D02*
X0020245Y0007478D01*
X0020379Y0007976D02*
X0129621Y0007976D01*
X0129487Y0008475D02*
X0020513Y0008475D01*
X0020549Y0008973D02*
X0129451Y0008973D01*
X0129451Y0009472D02*
X0020549Y0009472D01*
X0020549Y0009970D02*
X0129451Y0009970D01*
X0129451Y0010469D02*
X0020549Y0010469D01*
X0020549Y0010967D02*
X0129451Y0010967D01*
X0129471Y0011466D02*
X0020529Y0011466D01*
X0020395Y0011964D02*
X0129605Y0011964D01*
X0129739Y0012463D02*
X0020261Y0012463D01*
X0020128Y0012961D02*
X0129872Y0012961D01*
X0130006Y0013460D02*
X0019994Y0013460D01*
X0019861Y0013958D02*
X0130139Y0013958D01*
X0130392Y0014457D02*
X0019608Y0014457D01*
X0019320Y0014955D02*
X0130680Y0014955D01*
X0130968Y0015454D02*
X0019032Y0015454D01*
X0018745Y0015952D02*
X0131255Y0015952D01*
X0131543Y0016451D02*
X0018457Y0016451D01*
X0017969Y0016949D02*
X0132031Y0016949D01*
X0132529Y0017448D02*
X0017471Y0017448D01*
X0016972Y0017946D02*
X0133028Y0017946D01*
X0133465Y0018445D02*
X0016471Y0018445D01*
X0015608Y0018943D02*
X0133465Y0018943D01*
X0005256Y0019442D02*
X0004750Y0019442D01*
X0014744Y0019442D02*
X0133465Y0019442D01*
X0006339Y0019940D02*
X0004750Y0019940D01*
X0013661Y0019940D02*
X0133465Y0019940D01*
X0008200Y0020439D02*
X0004750Y0020439D01*
X0011800Y0020439D02*
X0133465Y0020439D01*
X0133465Y0020937D02*
X0004750Y0020937D01*
X0004750Y0021436D02*
X0004938Y0021436D01*
X0007432Y0021436D02*
X0019396Y0021436D01*
X0021604Y0021436D02*
X0133465Y0021436D01*
X0018898Y0021934D02*
X0007930Y0021934D01*
X0022102Y0021934D02*
X0133465Y0021934D01*
X0133465Y0022433D02*
X0022601Y0022433D01*
X0022740Y0022932D02*
X0133465Y0022932D01*
X0133465Y0023430D02*
X0022740Y0023430D01*
X0022740Y0023929D02*
X0133465Y0023929D01*
X0133465Y0024427D02*
X0022740Y0024427D01*
X0018758Y0024926D02*
X0007784Y0024926D01*
X0022242Y0024926D02*
X0133465Y0024926D01*
X0005084Y0025424D02*
X0004750Y0025424D01*
X0007286Y0025424D02*
X0019256Y0025424D01*
X0021744Y0025424D02*
X0064042Y0025424D01*
X0066824Y0025424D02*
X0083853Y0025424D01*
X0086501Y0025424D02*
X0133465Y0025424D01*
X0029650Y0025923D02*
X0004750Y0025923D01*
X0031783Y0025923D02*
X0063543Y0025923D01*
X0067323Y0025923D02*
X0083354Y0025923D01*
X0087000Y0025923D02*
X0133465Y0025923D01*
X0029151Y0026421D02*
X0004750Y0026421D01*
X0032282Y0026421D02*
X0063193Y0026421D01*
X0087417Y0026421D02*
X0133465Y0026421D01*
X0028653Y0026920D02*
X0004750Y0026920D01*
X0032780Y0026920D02*
X0063193Y0026920D01*
X0087417Y0026920D02*
X0133465Y0026920D01*
X0028477Y0027418D02*
X0004750Y0027418D01*
X0032957Y0027418D02*
X0063193Y0027418D01*
X0087417Y0027418D02*
X0133465Y0027418D01*
X0028477Y0027917D02*
X0004750Y0027917D01*
X0032957Y0027917D02*
X0063193Y0027917D01*
X0087417Y0027917D02*
X0133465Y0027917D01*
X0028477Y0028415D02*
X0004750Y0028415D01*
X0032957Y0028415D02*
X0063480Y0028415D01*
X0067387Y0028415D02*
X0083157Y0028415D01*
X0087198Y0028415D02*
X0133465Y0028415D01*
X0028477Y0028914D02*
X0004750Y0028914D01*
X0032957Y0028914D02*
X0063978Y0028914D01*
X0066888Y0028914D02*
X0083655Y0028914D01*
X0086699Y0028914D02*
X0133465Y0028914D01*
X0028937Y0029412D02*
X0004750Y0029412D01*
X0032496Y0029412D02*
X0064477Y0029412D01*
X0066390Y0029412D02*
X0084154Y0029412D01*
X0086201Y0029412D02*
X0133465Y0029412D01*
X0029436Y0029911D02*
X0004750Y0029911D01*
X0031997Y0029911D02*
X0133465Y0029911D01*
X0133465Y0030409D02*
X0004750Y0030409D01*
X0004750Y0030908D02*
X0133465Y0030908D01*
X0133465Y0031406D02*
X0004750Y0031406D01*
X0004750Y0031905D02*
X0133465Y0031905D01*
X0133465Y0032403D02*
X0004750Y0032403D01*
X0004750Y0032902D02*
X0133465Y0032902D01*
X0133465Y0033400D02*
X0004750Y0033400D01*
X0004750Y0033899D02*
X0029363Y0033899D01*
X0032126Y0033899D02*
X0133465Y0033899D01*
X0028864Y0034397D02*
X0004750Y0034397D01*
X0032624Y0034397D02*
X0133465Y0034397D01*
X0028504Y0034896D02*
X0004750Y0034896D01*
X0032984Y0034896D02*
X0133465Y0034896D01*
X0028504Y0035394D02*
X0004750Y0035394D01*
X0032984Y0035394D02*
X0133465Y0035394D01*
X0028504Y0035893D02*
X0004750Y0035893D01*
X0032984Y0035893D02*
X0133465Y0035893D01*
X0028504Y0036391D02*
X0004750Y0036391D01*
X0032984Y0036391D02*
X0133465Y0036391D01*
X0028781Y0036890D02*
X0004750Y0036890D01*
X0032707Y0036890D02*
X0133465Y0036890D01*
X0029280Y0037388D02*
X0004750Y0037388D01*
X0032209Y0037388D02*
X0133465Y0037388D01*
X0029778Y0037887D02*
X0004750Y0037887D01*
X0031710Y0037887D02*
X0133465Y0037887D01*
X0133465Y0038385D02*
X0004750Y0038385D01*
X0004750Y0038884D02*
X0133465Y0038884D01*
X0133465Y0039382D02*
X0004750Y0039382D01*
X0004750Y0039881D02*
X0069010Y0039881D01*
X0071620Y0039881D02*
X0133465Y0039881D01*
X0068512Y0040379D02*
X0004750Y0040379D01*
X0072118Y0040379D02*
X0133465Y0040379D01*
X0068075Y0040878D02*
X0004750Y0040878D01*
X0072555Y0040878D02*
X0133465Y0040878D01*
X0068075Y0041376D02*
X0004750Y0041376D01*
X0072555Y0041376D02*
X0133465Y0041376D01*
X0068075Y0041875D02*
X0004750Y0041875D01*
X0072555Y0041875D02*
X0133465Y0041875D01*
X0068075Y0042373D02*
X0004750Y0042373D01*
X0072555Y0042373D02*
X0133465Y0042373D01*
X0068275Y0042872D02*
X0004750Y0042872D01*
X0072355Y0042872D02*
X0133465Y0042872D01*
X0068774Y0043370D02*
X0004750Y0043370D01*
X0071856Y0043370D02*
X0133465Y0043370D01*
X0067982Y0043869D02*
X0004750Y0043869D01*
X0081624Y0043869D02*
X0133465Y0043869D01*
X0067860Y0044368D02*
X0004750Y0044368D01*
X0081746Y0044368D02*
X0133465Y0044368D01*
X0067860Y0044866D02*
X0004750Y0044866D01*
X0081746Y0044866D02*
X0133465Y0044866D01*
X0067860Y0045365D02*
X0004750Y0045365D01*
X0081746Y0045365D02*
X0082224Y0045365D01*
X0084406Y0045365D02*
X0133465Y0045365D01*
X0067860Y0045863D02*
X0004750Y0045863D01*
X0084905Y0045863D02*
X0133465Y0045863D01*
X0067860Y0046362D02*
X0004750Y0046362D01*
X0085403Y0046362D02*
X0133465Y0046362D01*
X0067860Y0046860D02*
X0004750Y0046860D01*
X0085555Y0046860D02*
X0133465Y0046860D01*
X0067860Y0047359D02*
X0004750Y0047359D01*
X0085555Y0047359D02*
X0133465Y0047359D01*
X0067860Y0047857D02*
X0004750Y0047857D01*
X0085555Y0047857D02*
X0133465Y0047857D01*
X0067860Y0048356D02*
X0004750Y0048356D01*
X0085555Y0048356D02*
X0133465Y0048356D01*
X0067860Y0048854D02*
X0004750Y0048854D01*
X0085070Y0048854D02*
X0133465Y0048854D01*
X0067860Y0049353D02*
X0004750Y0049353D01*
X0081746Y0049353D02*
X0082059Y0049353D01*
X0084571Y0049353D02*
X0133465Y0049353D01*
X0067860Y0049851D02*
X0004750Y0049851D01*
X0081746Y0049851D02*
X0133465Y0049851D01*
X0067860Y0050350D02*
X0004750Y0050350D01*
X0081746Y0050350D02*
X0133465Y0050350D01*
X0067860Y0050848D02*
X0004750Y0050848D01*
X0081746Y0050848D02*
X0133465Y0050848D01*
X0029411Y0051347D02*
X0004750Y0051347D01*
X0031849Y0051347D02*
X0067860Y0051347D01*
X0081746Y0051347D02*
X0133465Y0051347D01*
X0028912Y0051845D02*
X0004750Y0051845D01*
X0032348Y0051845D02*
X0067860Y0051845D01*
X0081746Y0051845D02*
X0133465Y0051845D01*
X0027967Y0052344D02*
X0004750Y0052344D01*
X0032846Y0052344D02*
X0067860Y0052344D01*
X0081746Y0052344D02*
X0133465Y0052344D01*
X0027492Y0052842D02*
X0004750Y0052842D01*
X0032870Y0052842D02*
X0067860Y0052842D01*
X0081746Y0052842D02*
X0133465Y0052842D01*
X0027492Y0053341D02*
X0004750Y0053341D01*
X0032870Y0053341D02*
X0067860Y0053341D01*
X0081746Y0053341D02*
X0133465Y0053341D01*
X0027492Y0053839D02*
X0004750Y0053839D01*
X0032870Y0053839D02*
X0067860Y0053839D01*
X0081746Y0053839D02*
X0133465Y0053839D01*
X0027492Y0054338D02*
X0004750Y0054338D01*
X0032755Y0054338D02*
X0067860Y0054338D01*
X0081746Y0054338D02*
X0133465Y0054338D01*
X0027492Y0054836D02*
X0004750Y0054836D01*
X0032257Y0054836D02*
X0067860Y0054836D01*
X0081746Y0054836D02*
X0133465Y0054836D01*
X0027492Y0055335D02*
X0004750Y0055335D01*
X0031758Y0055335D02*
X0067860Y0055335D01*
X0081746Y0055335D02*
X0133465Y0055335D01*
X0027492Y0055833D02*
X0004750Y0055833D01*
X0029792Y0055833D02*
X0067860Y0055833D01*
X0081746Y0055833D02*
X0133465Y0055833D01*
X0027492Y0056332D02*
X0004750Y0056332D01*
X0029792Y0056332D02*
X0067860Y0056332D01*
X0081746Y0056332D02*
X0133465Y0056332D01*
X0027065Y0056830D02*
X0004750Y0056830D01*
X0030219Y0056830D02*
X0053490Y0056830D01*
X0055833Y0056830D02*
X0067860Y0056830D01*
X0081746Y0056830D02*
X0109057Y0056830D01*
X0111455Y0056830D02*
X0133465Y0056830D01*
X0020883Y0057329D02*
X0004750Y0057329D01*
X0030717Y0057329D02*
X0052992Y0057329D01*
X0056331Y0057329D02*
X0067860Y0057329D01*
X0081746Y0057329D02*
X0108558Y0057329D01*
X0111953Y0057329D02*
X0133465Y0057329D01*
X0020385Y0057827D02*
X0004750Y0057827D01*
X0030882Y0057827D02*
X0052493Y0057827D01*
X0112452Y0057827D02*
X0133465Y0057827D01*
X0020267Y0058326D02*
X0004750Y0058326D01*
X0030882Y0058326D02*
X0052421Y0058326D01*
X0112496Y0058326D02*
X0133465Y0058326D01*
X0020267Y0058824D02*
X0004750Y0058824D01*
X0030882Y0058824D02*
X0052421Y0058824D01*
X0112496Y0058824D02*
X0133465Y0058824D01*
X0020267Y0059323D02*
X0004750Y0059323D01*
X0030882Y0059323D02*
X0052421Y0059323D01*
X0112496Y0059323D02*
X0133465Y0059323D01*
X0020267Y0059821D02*
X0004750Y0059821D01*
X0022567Y0059821D02*
X0026874Y0059821D01*
X0030409Y0059821D02*
X0052488Y0059821D01*
X0112402Y0059821D02*
X0133465Y0059821D01*
X0020267Y0060320D02*
X0004750Y0060320D01*
X0022567Y0060320D02*
X0027373Y0060320D01*
X0029911Y0060320D02*
X0052987Y0060320D01*
X0058314Y0060320D02*
X0105434Y0060320D01*
X0107881Y0060320D02*
X0108609Y0060320D01*
X0111903Y0060320D02*
X0133465Y0060320D01*
X0020267Y0060818D02*
X0004750Y0060818D01*
X0022567Y0060818D02*
X0053485Y0060818D01*
X0058813Y0060818D02*
X0104935Y0060818D01*
X0108380Y0060818D02*
X0109107Y0060818D01*
X0111405Y0060818D02*
X0133465Y0060818D01*
X0020267Y0061317D02*
X0004750Y0061317D01*
X0022567Y0061317D02*
X0054764Y0061317D01*
X0108878Y0061317D02*
X0133465Y0061317D01*
X0020267Y0061815D02*
X0004750Y0061815D01*
X0022567Y0061815D02*
X0054764Y0061815D01*
X0108897Y0061815D02*
X0133465Y0061815D01*
X0020267Y0062314D02*
X0004750Y0062314D01*
X0022567Y0062314D02*
X0054764Y0062314D01*
X0108897Y0062314D02*
X0133465Y0062314D01*
X0020267Y0062812D02*
X0004750Y0062812D01*
X0022567Y0062812D02*
X0054764Y0062812D01*
X0108897Y0062812D02*
X0133465Y0062812D01*
X0020002Y0063311D02*
X0004750Y0063311D01*
X0022833Y0063311D02*
X0054970Y0063311D01*
X0108778Y0063311D02*
X0133465Y0063311D01*
X0019503Y0063809D02*
X0004750Y0063809D01*
X0023332Y0063809D02*
X0055468Y0063809D01*
X0058539Y0063809D02*
X0105035Y0063809D01*
X0108280Y0063809D02*
X0133465Y0063809D01*
X0019177Y0064308D02*
X0004750Y0064308D01*
X0023657Y0064308D02*
X0055967Y0064308D01*
X0058041Y0064308D02*
X0105534Y0064308D01*
X0107781Y0064308D02*
X0133465Y0064308D01*
X0019177Y0064806D02*
X0004750Y0064806D01*
X0023657Y0064806D02*
X0133465Y0064806D01*
X0019177Y0065305D02*
X0004750Y0065305D01*
X0023657Y0065305D02*
X0133465Y0065305D01*
X0019177Y0065803D02*
X0004750Y0065803D01*
X0023657Y0065803D02*
X0133465Y0065803D01*
X0019489Y0066302D02*
X0004750Y0066302D01*
X0023346Y0066302D02*
X0133465Y0066302D01*
X0019987Y0066801D02*
X0004750Y0066801D01*
X0022848Y0066801D02*
X0133465Y0066801D01*
X0020486Y0067299D02*
X0004750Y0067299D01*
X0022349Y0067299D02*
X0085942Y0067299D01*
X0088511Y0067299D02*
X0133465Y0067299D01*
X0085444Y0067798D02*
X0004750Y0067798D01*
X0089009Y0067798D02*
X0133465Y0067798D01*
X0084976Y0068296D02*
X0004750Y0068296D01*
X0089476Y0068296D02*
X0133465Y0068296D01*
X0084976Y0068795D02*
X0004750Y0068795D01*
X0089476Y0068795D02*
X0133465Y0068795D01*
X0084976Y0069293D02*
X0004750Y0069293D01*
X0089476Y0069293D02*
X0133465Y0069293D01*
X0084976Y0069792D02*
X0004750Y0069792D01*
X0089476Y0069792D02*
X0133465Y0069792D01*
X0085138Y0070290D02*
X0004750Y0070290D01*
X0089315Y0070290D02*
X0133465Y0070290D01*
X0085636Y0070789D02*
X0004750Y0070789D01*
X0088817Y0070789D02*
X0133465Y0070789D01*
X0086135Y0071287D02*
X0004750Y0071287D01*
X0088318Y0071287D02*
X0133465Y0071287D01*
X0133465Y0071786D02*
X0004750Y0071786D01*
X0004750Y0072284D02*
X0133465Y0072284D01*
X0133465Y0072783D02*
X0004750Y0072783D01*
X0004750Y0073281D02*
X0133465Y0073281D01*
X0133465Y0073780D02*
X0004750Y0073780D01*
X0004750Y0074278D02*
X0133465Y0074278D01*
X0099331Y0074777D02*
X0004750Y0074777D01*
X0101894Y0074777D02*
X0133465Y0074777D01*
X0098832Y0075275D02*
X0004750Y0075275D01*
X0102392Y0075275D02*
X0133465Y0075275D01*
X0098362Y0075774D02*
X0004750Y0075774D01*
X0102862Y0075774D02*
X0133465Y0075774D01*
X0098362Y0076272D02*
X0004750Y0076272D01*
X0102862Y0076272D02*
X0133465Y0076272D01*
X0098362Y0076771D02*
X0004750Y0076771D01*
X0102862Y0076771D02*
X0133465Y0076771D01*
X0098362Y0077269D02*
X0004750Y0077269D01*
X0102862Y0077269D02*
X0133465Y0077269D01*
X0098521Y0077768D02*
X0004750Y0077768D01*
X0102704Y0077768D02*
X0133465Y0077768D01*
X0099019Y0078266D02*
X0004750Y0078266D01*
X0102205Y0078266D02*
X0133465Y0078266D01*
X0099518Y0078765D02*
X0004750Y0078765D01*
X0101707Y0078765D02*
X0133465Y0078765D01*
X0133465Y0079263D02*
X0004750Y0079263D01*
X0004750Y0079762D02*
X0133465Y0079762D01*
X0133465Y0080260D02*
X0004750Y0080260D01*
X0004750Y0080759D02*
X0070120Y0080759D01*
X0072049Y0080759D02*
X0133465Y0080759D01*
X0069622Y0081257D02*
X0004750Y0081257D01*
X0072548Y0081257D02*
X0133465Y0081257D01*
X0069123Y0081756D02*
X0004750Y0081756D01*
X0073046Y0081756D02*
X0116502Y0081756D01*
X0119152Y0081756D02*
X0133465Y0081756D01*
X0068835Y0082254D02*
X0004750Y0082254D01*
X0073335Y0082254D02*
X0116003Y0082254D01*
X0119651Y0082254D02*
X0133465Y0082254D01*
X0068835Y0082753D02*
X0004750Y0082753D01*
X0073335Y0082753D02*
X0115587Y0082753D01*
X0120067Y0082753D02*
X0133465Y0082753D01*
X0068835Y0083251D02*
X0004750Y0083251D01*
X0073335Y0083251D02*
X0112616Y0083251D01*
X0115289Y0083251D02*
X0115587Y0083251D01*
X0120067Y0083251D02*
X0133465Y0083251D01*
X0068835Y0083750D02*
X0004750Y0083750D01*
X0073335Y0083750D02*
X0112118Y0083750D01*
X0120067Y0083750D02*
X0133465Y0083750D01*
X0069175Y0084248D02*
X0004750Y0084248D01*
X0072995Y0084248D02*
X0111713Y0084248D01*
X0120067Y0084248D02*
X0133465Y0084248D01*
X0069673Y0084747D02*
X0004750Y0084747D01*
X0072496Y0084747D02*
X0109152Y0084747D01*
X0111147Y0084747D02*
X0111713Y0084747D01*
X0119846Y0084747D02*
X0133465Y0084747D01*
X0069935Y0085245D02*
X0004750Y0085245D01*
X0072235Y0085245D02*
X0108654Y0085245D01*
X0111646Y0085245D02*
X0111713Y0085245D01*
X0116193Y0085245D02*
X0116306Y0085245D01*
X0119348Y0085245D02*
X0133465Y0085245D01*
X0069935Y0085744D02*
X0004750Y0085744D01*
X0072235Y0085744D02*
X0108155Y0085744D01*
X0116193Y0085744D02*
X0116804Y0085744D01*
X0118849Y0085744D02*
X0133465Y0085744D01*
X0069935Y0086242D02*
X0004750Y0086242D01*
X0072235Y0086242D02*
X0107910Y0086242D01*
X0115961Y0086242D02*
X0133465Y0086242D01*
X0069935Y0086741D02*
X0004750Y0086741D01*
X0072235Y0086741D02*
X0107910Y0086741D01*
X0112390Y0086741D02*
X0112443Y0086741D01*
X0115462Y0086741D02*
X0133465Y0086741D01*
X0069935Y0087239D02*
X0004750Y0087239D01*
X0072235Y0087239D02*
X0107910Y0087239D01*
X0112390Y0087239D02*
X0112942Y0087239D01*
X0114964Y0087239D02*
X0133465Y0087239D01*
X0069935Y0087738D02*
X0004750Y0087738D01*
X0072235Y0087738D02*
X0107910Y0087738D01*
X0112390Y0087738D02*
X0133465Y0087738D01*
X0069935Y0088237D02*
X0004750Y0088237D01*
X0072235Y0088237D02*
X0108301Y0088237D01*
X0111998Y0088237D02*
X0133465Y0088237D01*
X0069935Y0088735D02*
X0004750Y0088735D01*
X0072235Y0088735D02*
X0108799Y0088735D01*
X0111500Y0088735D02*
X0133465Y0088735D01*
X0069935Y0089234D02*
X0004750Y0089234D01*
X0072235Y0089234D02*
X0133465Y0089234D01*
X0069935Y0089732D02*
X0004750Y0089732D01*
X0072235Y0089732D02*
X0133465Y0089732D01*
X0069935Y0090231D02*
X0004750Y0090231D01*
X0072235Y0090231D02*
X0133465Y0090231D01*
X0069935Y0090729D02*
X0004750Y0090729D01*
X0072235Y0090729D02*
X0133465Y0090729D01*
X0069935Y0091228D02*
X0004750Y0091228D01*
X0072235Y0091228D02*
X0133465Y0091228D01*
X0069935Y0091726D02*
X0004750Y0091726D01*
X0072235Y0091726D02*
X0133465Y0091726D01*
X0069935Y0092225D02*
X0004750Y0092225D01*
X0072235Y0092225D02*
X0133465Y0092225D01*
X0069935Y0092723D02*
X0004750Y0092723D01*
X0072235Y0092723D02*
X0133465Y0092723D01*
X0069935Y0093222D02*
X0004750Y0093222D01*
X0072235Y0093222D02*
X0133465Y0093222D01*
X0069935Y0093720D02*
X0004750Y0093720D01*
X0072235Y0093720D02*
X0133465Y0093720D01*
X0069935Y0094219D02*
X0004750Y0094219D01*
X0072235Y0094219D02*
X0133465Y0094219D01*
X0069935Y0094717D02*
X0004750Y0094717D01*
X0072235Y0094717D02*
X0133465Y0094717D01*
X0069935Y0095216D02*
X0004750Y0095216D01*
X0072235Y0095216D02*
X0133465Y0095216D01*
X0069935Y0095714D02*
X0004750Y0095714D01*
X0072235Y0095714D02*
X0133465Y0095714D01*
X0069935Y0096213D02*
X0004750Y0096213D01*
X0072235Y0096213D02*
X0133465Y0096213D01*
X0069935Y0096711D02*
X0004750Y0096711D01*
X0072235Y0096711D02*
X0133465Y0096711D01*
X0069935Y0097210D02*
X0004750Y0097210D01*
X0072235Y0097210D02*
X0133465Y0097210D01*
X0069935Y0097708D02*
X0004750Y0097708D01*
X0072235Y0097708D02*
X0133465Y0097708D01*
X0069935Y0098207D02*
X0004750Y0098207D01*
X0072235Y0098207D02*
X0133465Y0098207D01*
X0069935Y0098705D02*
X0004750Y0098705D01*
X0072235Y0098705D02*
X0133465Y0098705D01*
X0069935Y0099204D02*
X0004750Y0099204D01*
X0072235Y0099204D02*
X0133465Y0099204D01*
X0069935Y0099702D02*
X0004750Y0099702D01*
X0072235Y0099702D02*
X0104720Y0099702D01*
X0106741Y0099702D02*
X0133465Y0099702D01*
X0069935Y0100201D02*
X0004750Y0100201D01*
X0072235Y0100201D02*
X0104222Y0100201D01*
X0107239Y0100201D02*
X0133465Y0100201D01*
X0069935Y0100699D02*
X0004750Y0100699D01*
X0072235Y0100699D02*
X0103723Y0100699D01*
X0107738Y0100699D02*
X0133465Y0100699D01*
X0069935Y0101198D02*
X0004750Y0101198D01*
X0072235Y0101198D02*
X0103480Y0101198D01*
X0107980Y0101198D02*
X0133465Y0101198D01*
X0069935Y0101696D02*
X0004750Y0101696D01*
X0072235Y0101696D02*
X0103480Y0101696D01*
X0107980Y0101696D02*
X0133465Y0101696D01*
X0069935Y0102195D02*
X0004750Y0102195D01*
X0072235Y0102195D02*
X0103480Y0102195D01*
X0107980Y0102195D02*
X0133465Y0102195D01*
X0069935Y0102693D02*
X0004750Y0102693D01*
X0072235Y0102693D02*
X0103480Y0102693D01*
X0107980Y0102693D02*
X0133465Y0102693D01*
X0069935Y0103192D02*
X0004750Y0103192D01*
X0072235Y0103192D02*
X0103866Y0103192D01*
X0107594Y0103192D02*
X0133465Y0103192D01*
X0069935Y0103690D02*
X0004750Y0103690D01*
X0072235Y0103690D02*
X0104365Y0103690D01*
X0107096Y0103690D02*
X0133465Y0103690D01*
X0069935Y0104189D02*
X0004750Y0104189D01*
X0072235Y0104189D02*
X0094367Y0104189D01*
X0096936Y0104189D02*
X0104580Y0104189D01*
X0106880Y0104189D02*
X0133465Y0104189D01*
X0069935Y0104687D02*
X0004750Y0104687D01*
X0072235Y0104687D02*
X0093869Y0104687D01*
X0097434Y0104687D02*
X0104580Y0104687D01*
X0106880Y0104687D02*
X0133465Y0104687D01*
X0069935Y0105186D02*
X0004750Y0105186D01*
X0072235Y0105186D02*
X0093402Y0105186D01*
X0097902Y0105186D02*
X0104580Y0105186D01*
X0106880Y0105186D02*
X0133465Y0105186D01*
X0069935Y0105684D02*
X0004750Y0105684D01*
X0072235Y0105684D02*
X0093402Y0105684D01*
X0097902Y0105684D02*
X0104580Y0105684D01*
X0106880Y0105684D02*
X0133465Y0105684D01*
X0069935Y0106183D02*
X0004750Y0106183D01*
X0072235Y0106183D02*
X0093402Y0106183D01*
X0097902Y0106183D02*
X0104580Y0106183D01*
X0106880Y0106183D02*
X0133465Y0106183D01*
X0069935Y0106681D02*
X0004750Y0106681D01*
X0072235Y0106681D02*
X0093402Y0106681D01*
X0097902Y0106681D02*
X0104580Y0106681D01*
X0106880Y0106681D02*
X0133465Y0106681D01*
X0069935Y0107180D02*
X0004750Y0107180D01*
X0072235Y0107180D02*
X0093563Y0107180D01*
X0097740Y0107180D02*
X0104580Y0107180D01*
X0106880Y0107180D02*
X0133465Y0107180D01*
X0015032Y0107678D02*
X0004750Y0107678D01*
X0016905Y0107678D02*
X0027540Y0107678D01*
X0029547Y0107678D02*
X0031398Y0107678D01*
X0034098Y0107678D02*
X0035221Y0107678D01*
X0037850Y0107678D02*
X0069935Y0107678D01*
X0072235Y0107678D02*
X0094061Y0107678D01*
X0097242Y0107678D02*
X0104580Y0107678D01*
X0106880Y0107678D02*
X0133465Y0107678D01*
X0014533Y0108177D02*
X0004750Y0108177D01*
X0017404Y0108177D02*
X0027041Y0108177D01*
X0030046Y0108177D02*
X0030899Y0108177D01*
X0034597Y0108177D02*
X0034722Y0108177D01*
X0038349Y0108177D02*
X0069935Y0108177D01*
X0072235Y0108177D02*
X0094560Y0108177D01*
X0096743Y0108177D02*
X0104580Y0108177D01*
X0106880Y0108177D02*
X0133465Y0108177D01*
X0014035Y0108675D02*
X0004750Y0108675D01*
X0017902Y0108675D02*
X0026543Y0108675D01*
X0038775Y0108675D02*
X0069935Y0108675D01*
X0072235Y0108675D02*
X0104580Y0108675D01*
X0106880Y0108675D02*
X0133465Y0108675D01*
X0011211Y0109174D02*
X0004750Y0109174D01*
X0018208Y0109174D02*
X0026303Y0109174D01*
X0038775Y0109174D02*
X0069674Y0109174D01*
X0072235Y0109174D02*
X0104580Y0109174D01*
X0106880Y0109174D02*
X0133465Y0109174D01*
X0010952Y0109672D02*
X0004750Y0109672D01*
X0018208Y0109672D02*
X0026303Y0109672D01*
X0038775Y0109672D02*
X0069176Y0109672D01*
X0072235Y0109672D02*
X0104580Y0109672D01*
X0106880Y0109672D02*
X0130144Y0109672D01*
X0132069Y0109672D02*
X0133465Y0109672D01*
X0010952Y0110171D02*
X0004750Y0110171D01*
X0018208Y0110171D02*
X0026303Y0110171D01*
X0038775Y0110171D02*
X0068677Y0110171D01*
X0071930Y0110171D02*
X0104580Y0110171D01*
X0106880Y0110171D02*
X0129645Y0110171D01*
X0132567Y0110171D02*
X0133465Y0110171D01*
X0010952Y0110670D02*
X0004750Y0110670D01*
X0018208Y0110670D02*
X0026303Y0110670D01*
X0038565Y0110670D02*
X0066553Y0110670D01*
X0071432Y0110670D02*
X0104364Y0110670D01*
X0106880Y0110670D02*
X0129147Y0110670D01*
X0133066Y0110670D02*
X0133465Y0110670D01*
X0010952Y0111168D02*
X0004750Y0111168D01*
X0013252Y0111168D02*
X0014059Y0111168D01*
X0017878Y0111168D02*
X0026701Y0111168D01*
X0030386Y0111168D02*
X0031252Y0111168D01*
X0034244Y0111168D02*
X0035004Y0111168D01*
X0038067Y0111168D02*
X0066054Y0111168D01*
X0070933Y0111168D02*
X0103865Y0111168D01*
X0106880Y0111168D02*
X0128866Y0111168D01*
X0133346Y0111168D02*
X0133465Y0111168D01*
X0010952Y0111667D02*
X0004750Y0111667D01*
X0013252Y0111667D02*
X0014558Y0111667D01*
X0017379Y0111667D02*
X0027199Y0111667D01*
X0029887Y0111667D02*
X0031751Y0111667D01*
X0033745Y0111667D02*
X0035503Y0111667D01*
X0037568Y0111667D02*
X0065556Y0111667D01*
X0070435Y0111667D02*
X0072283Y0111667D01*
X0074610Y0111667D02*
X0103367Y0111667D01*
X0106619Y0111667D02*
X0128866Y0111667D01*
X0133346Y0111667D02*
X0133465Y0111667D01*
X0010952Y0112165D02*
X0004750Y0112165D01*
X0013252Y0112165D02*
X0065513Y0112165D01*
X0070113Y0112165D02*
X0071785Y0112165D01*
X0075109Y0112165D02*
X0102868Y0112165D01*
X0106121Y0112165D02*
X0128866Y0112165D01*
X0133346Y0112165D02*
X0133465Y0112165D01*
X0010952Y0112664D02*
X0004750Y0112664D01*
X0013252Y0112664D02*
X0013809Y0112664D01*
X0015624Y0112664D02*
X0015911Y0112664D01*
X0017727Y0112664D02*
X0044712Y0112664D01*
X0047398Y0112664D02*
X0065513Y0112664D01*
X0070113Y0112664D02*
X0071286Y0112664D01*
X0105622Y0112664D02*
X0128866Y0112664D01*
X0133346Y0112664D02*
X0133465Y0112664D01*
X0010952Y0113162D02*
X0004750Y0113162D01*
X0013252Y0113162D02*
X0013427Y0113162D01*
X0015624Y0113162D02*
X0015911Y0113162D01*
X0018108Y0113162D02*
X0022341Y0113162D01*
X0026124Y0113162D02*
X0044213Y0113162D01*
X0047897Y0113162D02*
X0065513Y0113162D01*
X0070113Y0113162D02*
X0071197Y0113162D01*
X0105124Y0113162D02*
X0129223Y0113162D01*
X0132990Y0113162D02*
X0133465Y0113162D01*
X0010952Y0113661D02*
X0004750Y0113661D01*
X0013252Y0113661D02*
X0013337Y0113661D01*
X0015624Y0113661D02*
X0015911Y0113661D01*
X0018199Y0113661D02*
X0022201Y0113661D01*
X0048295Y0113661D02*
X0065560Y0113661D01*
X0070067Y0113661D02*
X0071197Y0113661D01*
X0104625Y0113661D02*
X0129721Y0113661D01*
X0132491Y0113661D02*
X0133465Y0113661D01*
X0010952Y0114159D02*
X0004750Y0114159D01*
X0013252Y0114159D02*
X0013337Y0114159D01*
X0015624Y0114159D02*
X0015911Y0114159D01*
X0018199Y0114159D02*
X0022201Y0114159D01*
X0048295Y0114159D02*
X0066058Y0114159D01*
X0069568Y0114159D02*
X0071197Y0114159D01*
X0104127Y0114159D02*
X0133465Y0114159D01*
X0010952Y0114658D02*
X0004750Y0114658D01*
X0013252Y0114658D02*
X0013337Y0114658D01*
X0015624Y0114658D02*
X0015911Y0114658D01*
X0018199Y0114658D02*
X0022201Y0114658D01*
X0048295Y0114658D02*
X0066557Y0114658D01*
X0069070Y0114658D02*
X0071237Y0114658D01*
X0103628Y0114658D02*
X0115411Y0114658D01*
X0118164Y0114658D02*
X0133465Y0114658D01*
X0010952Y0115156D02*
X0004750Y0115156D01*
X0013252Y0115156D02*
X0013337Y0115156D01*
X0015624Y0115156D02*
X0015911Y0115156D01*
X0018199Y0115156D02*
X0022201Y0115156D01*
X0048295Y0115156D02*
X0071736Y0115156D01*
X0075158Y0115156D02*
X0114912Y0115156D01*
X0118663Y0115156D02*
X0133465Y0115156D01*
X0010952Y0115655D02*
X0004750Y0115655D01*
X0013252Y0115655D02*
X0013407Y0115655D01*
X0015624Y0115655D02*
X0015911Y0115655D01*
X0018129Y0115655D02*
X0022275Y0115655D01*
X0119027Y0115655D02*
X0133465Y0115655D01*
X0010952Y0116153D02*
X0004750Y0116153D01*
X0013252Y0116153D02*
X0013337Y0116153D01*
X0015624Y0116153D02*
X0015911Y0116153D01*
X0018199Y0116153D02*
X0022201Y0116153D01*
X0119027Y0116153D02*
X0133465Y0116153D01*
X0010952Y0116652D02*
X0004750Y0116652D01*
X0013252Y0116652D02*
X0013337Y0116652D01*
X0015624Y0116652D02*
X0015911Y0116652D01*
X0018199Y0116652D02*
X0022201Y0116652D01*
X0119027Y0116652D02*
X0133465Y0116652D01*
X0010952Y0117150D02*
X0004750Y0117150D01*
X0013252Y0117150D02*
X0013337Y0117150D01*
X0018199Y0117150D02*
X0022201Y0117150D01*
X0120361Y0117150D02*
X0133465Y0117150D01*
X0010952Y0117649D02*
X0004750Y0117649D01*
X0013252Y0117649D02*
X0013337Y0117649D01*
X0018199Y0117649D02*
X0022201Y0117649D01*
X0120860Y0117649D02*
X0133465Y0117649D01*
X0010952Y0118147D02*
X0006264Y0118147D01*
X0013252Y0118147D02*
X0013389Y0118147D01*
X0018146Y0118147D02*
X0022209Y0118147D01*
X0121358Y0118147D02*
X0133465Y0118147D01*
X0133465Y0118646D02*
X0121622Y0118646D01*
X0004750Y0126877D02*
X0005186Y0126441D01*
X0007042Y0126441D01*
X0008354Y0127753D01*
X0008354Y0129520D01*
X0008611Y0129451D01*
X0011389Y0129451D01*
X0014072Y0130170D01*
X0016477Y0131559D01*
X0018441Y0133523D01*
X0019830Y0135928D01*
X0020549Y0138611D01*
X0020549Y0141389D01*
X0019830Y0144072D01*
X0019150Y0145250D01*
X0045492Y0145250D01*
X0048806Y0146327D01*
X0048806Y0146327D01*
X0051625Y0148375D01*
X0051625Y0148375D01*
X0051625Y0148375D01*
X0053673Y0151194D01*
X0053673Y0151194D01*
X0054750Y0154508D01*
X0054750Y0196850D01*
X0060026Y0196850D01*
X0061230Y0196075D01*
X0061230Y0196075D01*
X0064717Y0195156D01*
X0064718Y0195156D01*
X0066384Y0195250D01*
X0083616Y0195250D01*
X0085282Y0195156D01*
X0088770Y0196075D01*
X0088770Y0196075D01*
X0089974Y0196850D01*
X0095250Y0196850D01*
X0095250Y0154508D01*
X0096327Y0151194D01*
X0096327Y0151194D01*
X0098375Y0148375D01*
X0098375Y0148375D01*
X0098375Y0148375D01*
X0101194Y0146327D01*
X0101194Y0146327D01*
X0104508Y0145250D01*
X0130850Y0145250D01*
X0130170Y0144072D01*
X0129451Y0141389D01*
X0129451Y0138611D01*
X0130170Y0135928D01*
X0131559Y0133523D01*
X0133523Y0131559D01*
X0135928Y0130170D01*
X0138611Y0129451D01*
X0141389Y0129451D01*
X0144072Y0130170D01*
X0145250Y0130850D01*
X0145250Y0128384D01*
X0142483Y0128384D01*
X0142483Y0124825D01*
X0141983Y0124825D01*
X0141983Y0128384D01*
X0139116Y0128384D01*
X0138798Y0128299D01*
X0138513Y0128134D01*
X0138280Y0127901D01*
X0138116Y0127616D01*
X0138030Y0127298D01*
X0138030Y0124825D01*
X0141983Y0124825D01*
X0141983Y0124325D01*
X0138030Y0124325D01*
X0138030Y0122047D01*
X0134149Y0122047D01*
X0134604Y0122502D01*
X0135431Y0124498D01*
X0135431Y0126659D01*
X0134604Y0128655D01*
X0133076Y0130183D01*
X0131080Y0131010D01*
X0128920Y0131010D01*
X0126924Y0130183D01*
X0125396Y0128655D01*
X0124569Y0126659D01*
X0124569Y0124498D01*
X0125396Y0122502D01*
X0125851Y0122047D01*
X0124256Y0122047D01*
X0124256Y0122585D01*
X0122944Y0123897D01*
X0121088Y0123897D01*
X0119998Y0122807D01*
X0039173Y0122807D01*
X0038500Y0122134D01*
X0038500Y0122047D01*
X0024830Y0122047D01*
X0025431Y0123498D01*
X0025431Y0125659D01*
X0024604Y0127655D01*
X0023076Y0129183D01*
X0021080Y0130010D01*
X0018920Y0130010D01*
X0016924Y0129183D01*
X0015396Y0127655D01*
X0014569Y0125659D01*
X0014569Y0123498D01*
X0015170Y0122047D01*
X0007341Y0122047D01*
X0008441Y0123147D01*
X0008441Y0125003D01*
X0007129Y0126315D01*
X0005273Y0126315D01*
X0004750Y0125792D01*
X0004750Y0126877D01*
X0034370Y0133438D02*
X0034370Y0135294D01*
X0033058Y0136606D01*
X0031202Y0136606D01*
X0030112Y0135516D01*
X0028220Y0135516D01*
X0027547Y0134842D01*
X0027547Y0125697D01*
X0028220Y0125023D01*
X0044663Y0125023D01*
X0045753Y0123933D01*
X0047609Y0123933D01*
X0048921Y0125245D01*
X0048921Y0127101D01*
X0047609Y0128413D01*
X0045753Y0128413D01*
X0044663Y0127323D01*
X0029847Y0127323D01*
X0029847Y0133216D01*
X0030112Y0133216D01*
X0031202Y0132126D01*
X0033058Y0132126D01*
X0034370Y0133438D01*
X0087464Y0129442D02*
X0087464Y0131298D01*
X0086152Y0132610D01*
X0084297Y0132610D01*
X0082984Y0131298D01*
X0082984Y0129442D01*
X0084297Y0128130D01*
X0086152Y0128130D01*
X0087464Y0129442D01*
X0069701Y0135115D02*
X0069701Y0136971D01*
X0068388Y0138283D01*
X0066533Y0138283D01*
X0065221Y0136971D01*
X0065221Y0135115D01*
X0066533Y0133803D01*
X0068388Y0133803D01*
X0069701Y0135115D01*
X0078775Y0149710D02*
X0078775Y0151566D01*
X0077463Y0152878D01*
X0075608Y0152878D01*
X0074295Y0151566D01*
X0074295Y0149710D01*
X0075608Y0148398D01*
X0077463Y0148398D01*
X0078775Y0149710D01*
X0095626Y0134112D02*
X0095626Y0135967D01*
X0094314Y0137279D01*
X0092458Y0137279D01*
X0091146Y0135967D01*
X0091146Y0134112D01*
X0092458Y0132799D01*
X0094314Y0132799D01*
X0095626Y0134112D01*
X0080468Y0168718D02*
X0080468Y0170573D01*
X0079156Y0171886D01*
X0077301Y0171886D01*
X0075988Y0170573D01*
X0075988Y0168718D01*
X0077301Y0167406D01*
X0079156Y0167406D01*
X0080468Y0168718D01*
X0047897Y0133297D02*
X0047897Y0135152D01*
X0046585Y0136464D01*
X0044730Y0136464D01*
X0043417Y0135152D01*
X0043417Y0133297D01*
X0044730Y0131984D01*
X0046585Y0131984D01*
X0047897Y0133297D01*
X0087708Y0142899D02*
X0087708Y0144755D01*
X0086396Y0146067D01*
X0084541Y0146067D01*
X0083229Y0144755D01*
X0083229Y0142899D01*
X0084541Y0141587D01*
X0086396Y0141587D01*
X0087708Y0142899D01*
X0069827Y0148615D02*
X0069827Y0150471D01*
X0068514Y0151783D01*
X0066659Y0151783D01*
X0065347Y0150471D01*
X0065347Y0148615D01*
X0066659Y0147303D01*
X0068514Y0147303D01*
X0069827Y0148615D01*
X0077980Y0132718D02*
X0077980Y0134573D01*
X0076668Y0135886D01*
X0074812Y0135886D01*
X0073500Y0134573D01*
X0073500Y0132718D01*
X0074812Y0131406D01*
X0076668Y0131406D01*
X0077980Y0132718D01*
X0062185Y0138375D02*
X0062185Y0140231D01*
X0060873Y0141543D01*
X0059017Y0141543D01*
X0057705Y0140231D01*
X0057705Y0138375D01*
X0059017Y0137063D01*
X0060873Y0137063D01*
X0062185Y0138375D01*
X0037894Y0141584D02*
X0037894Y0143440D01*
X0036581Y0144752D01*
X0034726Y0144752D01*
X0033414Y0143440D01*
X0033414Y0141584D01*
X0034726Y0140272D01*
X0036581Y0140272D01*
X0037894Y0141584D01*
X0015134Y0122135D02*
X0007429Y0122135D01*
X0024866Y0122135D02*
X0038501Y0122135D01*
X0124256Y0122135D02*
X0125763Y0122135D01*
X0134237Y0122135D02*
X0138030Y0122135D01*
X0014927Y0122634D02*
X0007928Y0122634D01*
X0025073Y0122634D02*
X0039000Y0122634D01*
X0124207Y0122634D02*
X0125341Y0122634D01*
X0134659Y0122634D02*
X0138030Y0122634D01*
X0014721Y0123132D02*
X0008426Y0123132D01*
X0025279Y0123132D02*
X0120323Y0123132D01*
X0123709Y0123132D02*
X0125135Y0123132D01*
X0134865Y0123132D02*
X0138030Y0123132D01*
X0014569Y0123631D02*
X0008441Y0123631D01*
X0025431Y0123631D02*
X0120821Y0123631D01*
X0123210Y0123631D02*
X0124928Y0123631D01*
X0135072Y0123631D02*
X0138030Y0123631D01*
X0014569Y0124129D02*
X0008441Y0124129D01*
X0025431Y0124129D02*
X0045557Y0124129D01*
X0047805Y0124129D02*
X0124722Y0124129D01*
X0135278Y0124129D02*
X0138030Y0124129D01*
X0014569Y0124628D02*
X0008441Y0124628D01*
X0025431Y0124628D02*
X0045059Y0124628D01*
X0048304Y0124628D02*
X0124569Y0124628D01*
X0135431Y0124628D02*
X0141983Y0124628D01*
X0014569Y0125126D02*
X0008317Y0125126D01*
X0025431Y0125126D02*
X0028117Y0125126D01*
X0048802Y0125126D02*
X0124569Y0125126D01*
X0135431Y0125126D02*
X0138030Y0125126D01*
X0141983Y0125126D02*
X0142483Y0125126D01*
X0014569Y0125625D02*
X0007819Y0125625D01*
X0025431Y0125625D02*
X0027619Y0125625D01*
X0048921Y0125625D02*
X0124569Y0125625D01*
X0135431Y0125625D02*
X0138030Y0125625D01*
X0141983Y0125625D02*
X0142483Y0125625D01*
X0005082Y0126123D02*
X0004750Y0126123D01*
X0007320Y0126123D02*
X0014761Y0126123D01*
X0025239Y0126123D02*
X0027547Y0126123D01*
X0048921Y0126123D02*
X0124569Y0126123D01*
X0135431Y0126123D02*
X0138030Y0126123D01*
X0141983Y0126123D02*
X0142483Y0126123D01*
X0005006Y0126622D02*
X0004750Y0126622D01*
X0007223Y0126622D02*
X0014968Y0126622D01*
X0025032Y0126622D02*
X0027547Y0126622D01*
X0048921Y0126622D02*
X0124569Y0126622D01*
X0135431Y0126622D02*
X0138030Y0126622D01*
X0141983Y0126622D02*
X0142483Y0126622D01*
X0015174Y0127120D02*
X0007721Y0127120D01*
X0024826Y0127120D02*
X0027547Y0127120D01*
X0048902Y0127120D02*
X0124760Y0127120D01*
X0135240Y0127120D02*
X0138030Y0127120D01*
X0141983Y0127120D02*
X0142483Y0127120D01*
X0015381Y0127619D02*
X0008220Y0127619D01*
X0024619Y0127619D02*
X0027547Y0127619D01*
X0029847Y0127619D02*
X0044959Y0127619D01*
X0048403Y0127619D02*
X0124966Y0127619D01*
X0135034Y0127619D02*
X0138117Y0127619D01*
X0141983Y0127619D02*
X0142483Y0127619D01*
X0015858Y0128117D02*
X0008354Y0128117D01*
X0024142Y0128117D02*
X0027547Y0128117D01*
X0029847Y0128117D02*
X0045457Y0128117D01*
X0047905Y0128117D02*
X0125173Y0128117D01*
X0134827Y0128117D02*
X0138496Y0128117D01*
X0141983Y0128117D02*
X0142483Y0128117D01*
X0016356Y0128616D02*
X0008354Y0128616D01*
X0023644Y0128616D02*
X0027547Y0128616D01*
X0029847Y0128616D02*
X0083811Y0128616D01*
X0086638Y0128616D02*
X0125379Y0128616D01*
X0134621Y0128616D02*
X0145250Y0128616D01*
X0016855Y0129114D02*
X0008354Y0129114D01*
X0023145Y0129114D02*
X0027547Y0129114D01*
X0029847Y0129114D02*
X0083312Y0129114D01*
X0087137Y0129114D02*
X0125855Y0129114D01*
X0134145Y0129114D02*
X0145250Y0129114D01*
X0017962Y0129613D02*
X0011994Y0129613D01*
X0022038Y0129613D02*
X0027547Y0129613D01*
X0029847Y0129613D02*
X0082984Y0129613D01*
X0087464Y0129613D02*
X0126353Y0129613D01*
X0133647Y0129613D02*
X0138006Y0129613D01*
X0141994Y0129613D02*
X0145250Y0129613D01*
X0027547Y0130111D02*
X0013854Y0130111D01*
X0029847Y0130111D02*
X0082984Y0130111D01*
X0087464Y0130111D02*
X0126852Y0130111D01*
X0133148Y0130111D02*
X0136146Y0130111D01*
X0143854Y0130111D02*
X0145250Y0130111D01*
X0027547Y0130610D02*
X0014834Y0130610D01*
X0029847Y0130610D02*
X0082984Y0130610D01*
X0087464Y0130610D02*
X0127954Y0130610D01*
X0132046Y0130610D02*
X0135166Y0130610D01*
X0144834Y0130610D02*
X0145250Y0130610D01*
X0027547Y0131108D02*
X0015698Y0131108D01*
X0029847Y0131108D02*
X0082984Y0131108D01*
X0087464Y0131108D02*
X0134302Y0131108D01*
X0027547Y0131607D02*
X0016526Y0131607D01*
X0029847Y0131607D02*
X0074611Y0131607D01*
X0076869Y0131607D02*
X0083293Y0131607D01*
X0087155Y0131607D02*
X0133474Y0131607D01*
X0027547Y0132105D02*
X0017024Y0132105D01*
X0029847Y0132105D02*
X0044609Y0132105D01*
X0046706Y0132105D02*
X0074112Y0132105D01*
X0077368Y0132105D02*
X0083792Y0132105D01*
X0086657Y0132105D02*
X0132976Y0132105D01*
X0027547Y0132604D02*
X0017523Y0132604D01*
X0029847Y0132604D02*
X0030724Y0132604D01*
X0033536Y0132604D02*
X0044110Y0132604D01*
X0047205Y0132604D02*
X0073614Y0132604D01*
X0077866Y0132604D02*
X0084291Y0132604D01*
X0086158Y0132604D02*
X0132477Y0132604D01*
X0027547Y0133103D02*
X0018021Y0133103D01*
X0029847Y0133103D02*
X0030226Y0133103D01*
X0034034Y0133103D02*
X0043612Y0133103D01*
X0047703Y0133103D02*
X0073500Y0133103D01*
X0077980Y0133103D02*
X0092155Y0133103D01*
X0094617Y0133103D02*
X0131979Y0133103D01*
X0027547Y0133601D02*
X0018487Y0133601D01*
X0034370Y0133601D02*
X0043417Y0133601D01*
X0047897Y0133601D02*
X0073500Y0133601D01*
X0077980Y0133601D02*
X0091656Y0133601D01*
X0095115Y0133601D02*
X0131513Y0133601D01*
X0027547Y0134100D02*
X0018775Y0134100D01*
X0034370Y0134100D02*
X0043417Y0134100D01*
X0047897Y0134100D02*
X0066237Y0134100D01*
X0068685Y0134100D02*
X0073500Y0134100D01*
X0077980Y0134100D02*
X0091158Y0134100D01*
X0095614Y0134100D02*
X0131225Y0134100D01*
X0027547Y0134598D02*
X0019062Y0134598D01*
X0034370Y0134598D02*
X0043417Y0134598D01*
X0047897Y0134598D02*
X0065738Y0134598D01*
X0069183Y0134598D02*
X0073525Y0134598D01*
X0077956Y0134598D02*
X0091146Y0134598D01*
X0095626Y0134598D02*
X0130938Y0134598D01*
X0027801Y0135097D02*
X0019350Y0135097D01*
X0034370Y0135097D02*
X0043417Y0135097D01*
X0047897Y0135097D02*
X0065240Y0135097D01*
X0069682Y0135097D02*
X0074023Y0135097D01*
X0077457Y0135097D02*
X0091146Y0135097D01*
X0095626Y0135097D02*
X0130650Y0135097D01*
X0030191Y0135595D02*
X0019638Y0135595D01*
X0034069Y0135595D02*
X0043860Y0135595D01*
X0047455Y0135595D02*
X0065221Y0135595D01*
X0069701Y0135595D02*
X0074522Y0135595D01*
X0076959Y0135595D02*
X0091146Y0135595D01*
X0095626Y0135595D02*
X0130362Y0135595D01*
X0030690Y0136094D02*
X0019875Y0136094D01*
X0033570Y0136094D02*
X0044359Y0136094D01*
X0046956Y0136094D02*
X0065221Y0136094D01*
X0069701Y0136094D02*
X0091272Y0136094D01*
X0095499Y0136094D02*
X0130125Y0136094D01*
X0031188Y0136592D02*
X0020008Y0136592D01*
X0033072Y0136592D02*
X0065221Y0136592D01*
X0069701Y0136592D02*
X0091771Y0136592D01*
X0095001Y0136592D02*
X0129992Y0136592D01*
X0058990Y0137091D02*
X0020142Y0137091D01*
X0060900Y0137091D02*
X0065340Y0137091D01*
X0069581Y0137091D02*
X0092269Y0137091D01*
X0094502Y0137091D02*
X0129858Y0137091D01*
X0058491Y0137589D02*
X0020275Y0137589D01*
X0061399Y0137589D02*
X0065839Y0137589D01*
X0069083Y0137589D02*
X0129725Y0137589D01*
X0057993Y0138088D02*
X0020409Y0138088D01*
X0061897Y0138088D02*
X0066337Y0138088D01*
X0068584Y0138088D02*
X0129591Y0138088D01*
X0057705Y0138586D02*
X0020542Y0138586D01*
X0062185Y0138586D02*
X0129457Y0138586D01*
X0057705Y0139085D02*
X0020549Y0139085D01*
X0062185Y0139085D02*
X0129451Y0139085D01*
X0057705Y0139583D02*
X0020549Y0139583D01*
X0062185Y0139583D02*
X0129451Y0139583D01*
X0057705Y0140082D02*
X0020549Y0140082D01*
X0062185Y0140082D02*
X0129451Y0140082D01*
X0034417Y0140580D02*
X0020549Y0140580D01*
X0036890Y0140580D02*
X0058054Y0140580D01*
X0061836Y0140580D02*
X0129451Y0140580D01*
X0033919Y0141079D02*
X0020549Y0141079D01*
X0037388Y0141079D02*
X0058553Y0141079D01*
X0061337Y0141079D02*
X0129451Y0141079D01*
X0033420Y0141577D02*
X0020499Y0141577D01*
X0037887Y0141577D02*
X0129501Y0141577D01*
X0033414Y0142076D02*
X0020365Y0142076D01*
X0037894Y0142076D02*
X0084052Y0142076D01*
X0086885Y0142076D02*
X0129635Y0142076D01*
X0033414Y0142574D02*
X0020232Y0142574D01*
X0037894Y0142574D02*
X0083553Y0142574D01*
X0087384Y0142574D02*
X0129768Y0142574D01*
X0033414Y0143073D02*
X0020098Y0143073D01*
X0037894Y0143073D02*
X0083229Y0143073D01*
X0087708Y0143073D02*
X0129902Y0143073D01*
X0033545Y0143571D02*
X0019964Y0143571D01*
X0037762Y0143571D02*
X0083229Y0143571D01*
X0087708Y0143571D02*
X0130036Y0143571D01*
X0034044Y0144070D02*
X0019831Y0144070D01*
X0037263Y0144070D02*
X0083229Y0144070D01*
X0087708Y0144070D02*
X0130169Y0144070D01*
X0034542Y0144568D02*
X0019544Y0144568D01*
X0036765Y0144568D02*
X0083229Y0144568D01*
X0087708Y0144568D02*
X0130456Y0144568D01*
X0083541Y0145067D02*
X0019256Y0145067D01*
X0087396Y0145067D02*
X0130744Y0145067D01*
X0084039Y0145565D02*
X0046463Y0145565D01*
X0086898Y0145565D02*
X0103537Y0145565D01*
X0084538Y0146064D02*
X0047997Y0146064D01*
X0086399Y0146064D02*
X0102003Y0146064D01*
X0100870Y0146562D02*
X0049130Y0146562D01*
X0049817Y0147061D02*
X0100183Y0147061D01*
X0066403Y0147559D02*
X0050503Y0147559D01*
X0068770Y0147559D02*
X0099497Y0147559D01*
X0065904Y0148058D02*
X0051189Y0148058D01*
X0069269Y0148058D02*
X0098811Y0148058D01*
X0065406Y0148556D02*
X0051757Y0148556D01*
X0069768Y0148556D02*
X0075449Y0148556D01*
X0077622Y0148556D02*
X0098243Y0148556D01*
X0065347Y0149055D02*
X0052119Y0149055D01*
X0069827Y0149055D02*
X0074951Y0149055D01*
X0078120Y0149055D02*
X0097881Y0149055D01*
X0065347Y0149553D02*
X0052481Y0149553D01*
X0069827Y0149553D02*
X0074452Y0149553D01*
X0078619Y0149553D02*
X0097519Y0149553D01*
X0065347Y0150052D02*
X0052844Y0150052D01*
X0069827Y0150052D02*
X0074295Y0150052D01*
X0078775Y0150052D02*
X0097156Y0150052D01*
X0065426Y0150550D02*
X0053206Y0150550D01*
X0069747Y0150550D02*
X0074295Y0150550D01*
X0078775Y0150550D02*
X0096794Y0150550D01*
X0065924Y0151049D02*
X0053568Y0151049D01*
X0069249Y0151049D02*
X0074295Y0151049D01*
X0078775Y0151049D02*
X0096432Y0151049D01*
X0066423Y0151547D02*
X0053788Y0151547D01*
X0068750Y0151547D02*
X0074295Y0151547D01*
X0078775Y0151547D02*
X0096212Y0151547D01*
X0074776Y0152046D02*
X0053950Y0152046D01*
X0078295Y0152046D02*
X0096050Y0152046D01*
X0075274Y0152544D02*
X0054112Y0152544D01*
X0077797Y0152544D02*
X0095888Y0152544D01*
X0095726Y0153043D02*
X0054274Y0153043D01*
X0054436Y0153541D02*
X0095564Y0153541D01*
X0095402Y0154040D02*
X0054598Y0154040D01*
X0054750Y0154539D02*
X0095250Y0154539D01*
X0095250Y0155037D02*
X0054750Y0155037D01*
X0054750Y0155536D02*
X0095250Y0155536D01*
X0095250Y0156034D02*
X0054750Y0156034D01*
X0054750Y0156533D02*
X0095250Y0156533D01*
X0095250Y0157031D02*
X0054750Y0157031D01*
X0054750Y0157530D02*
X0095250Y0157530D01*
X0095250Y0158028D02*
X0054750Y0158028D01*
X0054750Y0158527D02*
X0095250Y0158527D01*
X0095250Y0159025D02*
X0054750Y0159025D01*
X0054750Y0159524D02*
X0095250Y0159524D01*
X0095250Y0160022D02*
X0054750Y0160022D01*
X0054750Y0160521D02*
X0095250Y0160521D01*
X0095250Y0161019D02*
X0054750Y0161019D01*
X0054750Y0161518D02*
X0095250Y0161518D01*
X0095250Y0162016D02*
X0054750Y0162016D01*
X0054750Y0162515D02*
X0095250Y0162515D01*
X0095250Y0163013D02*
X0054750Y0163013D01*
X0054750Y0163512D02*
X0095250Y0163512D01*
X0095250Y0164010D02*
X0054750Y0164010D01*
X0054750Y0164509D02*
X0095250Y0164509D01*
X0095250Y0165007D02*
X0054750Y0165007D01*
X0054750Y0165506D02*
X0095250Y0165506D01*
X0095250Y0166004D02*
X0054750Y0166004D01*
X0054750Y0166503D02*
X0095250Y0166503D01*
X0095250Y0167001D02*
X0054750Y0167001D01*
X0054750Y0167500D02*
X0077206Y0167500D01*
X0079250Y0167500D02*
X0095250Y0167500D01*
X0076708Y0167998D02*
X0054750Y0167998D01*
X0079749Y0167998D02*
X0095250Y0167998D01*
X0076209Y0168497D02*
X0054750Y0168497D01*
X0080247Y0168497D02*
X0095250Y0168497D01*
X0075988Y0168995D02*
X0054750Y0168995D01*
X0080468Y0168995D02*
X0095250Y0168995D01*
X0075988Y0169494D02*
X0054750Y0169494D01*
X0080468Y0169494D02*
X0095250Y0169494D01*
X0075988Y0169992D02*
X0054750Y0169992D01*
X0080468Y0169992D02*
X0095250Y0169992D01*
X0075988Y0170491D02*
X0054750Y0170491D01*
X0080468Y0170491D02*
X0095250Y0170491D01*
X0076404Y0170989D02*
X0054750Y0170989D01*
X0080052Y0170989D02*
X0095250Y0170989D01*
X0076903Y0171488D02*
X0054750Y0171488D01*
X0079554Y0171488D02*
X0095250Y0171488D01*
X0095250Y0171986D02*
X0054750Y0171986D01*
X0054750Y0172485D02*
X0095250Y0172485D01*
X0095250Y0172983D02*
X0054750Y0172983D01*
X0054750Y0173482D02*
X0095250Y0173482D01*
X0095250Y0173980D02*
X0054750Y0173980D01*
X0054750Y0174479D02*
X0095250Y0174479D01*
X0095250Y0174977D02*
X0054750Y0174977D01*
X0054750Y0175476D02*
X0095250Y0175476D01*
X0095250Y0175974D02*
X0054750Y0175974D01*
X0054750Y0176473D02*
X0095250Y0176473D01*
X0095250Y0176972D02*
X0054750Y0176972D01*
X0054750Y0177470D02*
X0095250Y0177470D01*
X0095250Y0177969D02*
X0054750Y0177969D01*
X0054750Y0178467D02*
X0095250Y0178467D01*
X0095250Y0178966D02*
X0054750Y0178966D01*
X0054750Y0179464D02*
X0095250Y0179464D01*
X0095250Y0179963D02*
X0054750Y0179963D01*
X0054750Y0180461D02*
X0095250Y0180461D01*
X0095250Y0180960D02*
X0054750Y0180960D01*
X0054750Y0181458D02*
X0095250Y0181458D01*
X0095250Y0181957D02*
X0054750Y0181957D01*
X0054750Y0182455D02*
X0095250Y0182455D01*
X0095250Y0182954D02*
X0054750Y0182954D01*
X0054750Y0183452D02*
X0095250Y0183452D01*
X0095250Y0183951D02*
X0054750Y0183951D01*
X0054750Y0184449D02*
X0095250Y0184449D01*
X0095250Y0184948D02*
X0054750Y0184948D01*
X0054750Y0185446D02*
X0095250Y0185446D01*
X0095250Y0185945D02*
X0054750Y0185945D01*
X0054750Y0186443D02*
X0095250Y0186443D01*
X0095250Y0186942D02*
X0054750Y0186942D01*
X0054750Y0187440D02*
X0095250Y0187440D01*
X0095250Y0187939D02*
X0054750Y0187939D01*
X0054750Y0188437D02*
X0095250Y0188437D01*
X0095250Y0188936D02*
X0054750Y0188936D01*
X0054750Y0189434D02*
X0095250Y0189434D01*
X0095250Y0189933D02*
X0054750Y0189933D01*
X0054750Y0190431D02*
X0095250Y0190431D01*
X0095250Y0190930D02*
X0054750Y0190930D01*
X0054750Y0191428D02*
X0095250Y0191428D01*
X0095250Y0191927D02*
X0054750Y0191927D01*
X0054750Y0192425D02*
X0095250Y0192425D01*
X0095250Y0192924D02*
X0054750Y0192924D01*
X0054750Y0193422D02*
X0095250Y0193422D01*
X0095250Y0193921D02*
X0054750Y0193921D01*
X0054750Y0194419D02*
X0095250Y0194419D01*
X0095250Y0194918D02*
X0054750Y0194918D01*
X0054750Y0195416D02*
X0063729Y0195416D01*
X0086271Y0195416D02*
X0095250Y0195416D01*
X0061838Y0195915D02*
X0054750Y0195915D01*
X0088162Y0195915D02*
X0095250Y0195915D01*
X0060705Y0196413D02*
X0054750Y0196413D01*
X0089295Y0196413D02*
X0095250Y0196413D01*
D15*
X0084413Y0092761D03*
X0088413Y0092761D03*
X0084213Y0088561D03*
X0088313Y0088561D03*
X0071085Y0082976D03*
X0087226Y0069197D03*
X0100612Y0076677D03*
X0095652Y0106087D03*
X0073447Y0113685D03*
X0105730Y0101874D03*
D16*
X0107874Y0098031D03*
X0111024Y0098031D03*
X0114961Y0101181D03*
X0118898Y0097638D03*
X0122047Y0097638D03*
X0125197Y0097244D03*
X0128740Y0097244D03*
X0132283Y0097244D03*
X0132283Y0091339D03*
X0129134Y0091339D03*
X0125197Y0091339D03*
X0123228Y0088189D03*
X0119685Y0087402D03*
X0116142Y0088583D03*
X0111811Y0090157D03*
X0014283Y0034594D03*
X0017272Y0029409D03*
X0013972Y0059980D03*
X0016961Y0054669D03*
X0056976Y0076488D03*
X0056807Y0073083D03*
X0057602Y0069839D03*
X0081012Y0039811D03*
X0086677Y0053850D03*
X0083717Y0065339D03*
X0025890Y0065539D03*
X0078311Y0144807D03*
X0047902Y0141929D03*
X0081102Y0130673D03*
X0091547Y0130673D03*
X0073390Y0136161D03*
X0063260Y0136161D03*
X0074350Y0154626D03*
X0060217Y0151236D03*
X0050602Y0128323D03*
X0032449Y0138402D03*
X0032378Y0128709D03*
X0062598Y0124173D03*
X0070197Y0124213D03*
X0075709Y0124213D03*
X0057795Y0106417D03*
X0062913Y0106220D03*
X0061811Y0038543D03*
X0085000Y0149488D03*
X0075039Y0172126D03*
X0099803Y0110276D03*
X0100354Y0123976D03*
X0085224Y0130370D03*
X0067461Y0136043D03*
X0076535Y0150638D03*
X0046681Y0126173D03*
X0021417Y0065063D03*
X0006114Y0128681D03*
X0032130Y0134366D03*
X0028642Y0058421D03*
X0030630Y0053295D03*
X0093386Y0135039D03*
X0054661Y0058827D03*
X0110256Y0058799D03*
X0106657Y0062264D03*
X0057004Y0062177D03*
X0078228Y0169646D03*
X0045657Y0134224D03*
X0085469Y0143827D03*
X0067587Y0149543D03*
X0006201Y0124075D03*
X0085177Y0027268D03*
X0065433Y0027201D03*
X0020500Y0023500D03*
X0006185Y0023357D03*
X0117827Y0083598D03*
X0039650Y0119531D03*
X0122016Y0121657D03*
X0113953Y0085083D03*
X0042929Y0117000D03*
X0119382Y0119339D03*
X0110150Y0086917D03*
X0116787Y0116449D03*
X0046055Y0114488D03*
X0030717Y0028024D03*
X0030744Y0035685D03*
X0083315Y0047441D03*
X0070315Y0041744D03*
X0015969Y0109909D03*
X0131106Y0111878D03*
X0036535Y0109531D03*
X0075740Y0133646D03*
X0032748Y0109496D03*
X0059945Y0139303D03*
X0028543Y0109843D03*
X0035654Y0142512D03*
D17*
X0020394Y0127236D02*
X0020489Y0127234D01*
X0020584Y0127228D01*
X0020679Y0127219D01*
X0020773Y0127205D01*
X0020866Y0127188D01*
X0020959Y0127167D01*
X0021051Y0127143D01*
X0021142Y0127114D01*
X0021232Y0127083D01*
X0021320Y0127047D01*
X0021407Y0127008D01*
X0021492Y0126965D01*
X0021575Y0126920D01*
X0021656Y0126870D01*
X0021736Y0126818D01*
X0021813Y0126762D01*
X0021888Y0126704D01*
X0021960Y0126642D01*
X0022030Y0126577D01*
X0022097Y0126510D01*
X0022162Y0126440D01*
X0022224Y0126368D01*
X0022282Y0126293D01*
X0022338Y0126216D01*
X0022390Y0126136D01*
X0022440Y0126055D01*
X0022485Y0125972D01*
X0022528Y0125887D01*
X0022567Y0125800D01*
X0022603Y0125712D01*
X0022634Y0125622D01*
X0022663Y0125531D01*
X0022687Y0125439D01*
X0022708Y0125346D01*
X0022725Y0125253D01*
X0022739Y0125159D01*
X0022748Y0125064D01*
X0022754Y0124969D01*
X0022756Y0124874D01*
X0020394Y0127236D02*
X0020000Y0127236D01*
X0019897Y0127234D01*
X0019794Y0127228D01*
X0019691Y0127219D01*
X0019589Y0127205D01*
X0019488Y0127188D01*
X0019387Y0127167D01*
X0019287Y0127142D01*
X0019188Y0127114D01*
X0019090Y0127081D01*
X0018993Y0127045D01*
X0018898Y0127006D01*
X0018804Y0126963D01*
X0018712Y0126917D01*
X0018622Y0126867D01*
X0018534Y0126814D01*
X0018447Y0126757D01*
X0018363Y0126697D01*
X0018282Y0126635D01*
X0018202Y0126569D01*
X0018125Y0126500D01*
X0018051Y0126429D01*
X0017980Y0126355D01*
X0017911Y0126278D01*
X0017845Y0126198D01*
X0017783Y0126117D01*
X0017723Y0126033D01*
X0017666Y0125946D01*
X0017613Y0125858D01*
X0017563Y0125768D01*
X0017517Y0125676D01*
X0017474Y0125582D01*
X0017435Y0125487D01*
X0017399Y0125390D01*
X0017366Y0125292D01*
X0017338Y0125193D01*
X0017313Y0125093D01*
X0017292Y0124992D01*
X0017275Y0124891D01*
X0017261Y0124789D01*
X0017252Y0124686D01*
X0017246Y0124583D01*
X0017244Y0124480D01*
X0017246Y0124377D01*
X0017252Y0124274D01*
X0017261Y0124171D01*
X0017275Y0124069D01*
X0017292Y0123968D01*
X0017313Y0123867D01*
X0017338Y0123767D01*
X0017366Y0123668D01*
X0017399Y0123570D01*
X0017435Y0123473D01*
X0017474Y0123378D01*
X0017517Y0123284D01*
X0017563Y0123192D01*
X0017613Y0123102D01*
X0017666Y0123014D01*
X0017723Y0122927D01*
X0017783Y0122843D01*
X0017845Y0122762D01*
X0017911Y0122682D01*
X0017980Y0122605D01*
X0018051Y0122531D01*
X0018125Y0122460D01*
X0018202Y0122391D01*
X0018282Y0122325D01*
X0018363Y0122263D01*
X0018447Y0122203D01*
X0018534Y0122146D01*
X0018622Y0122093D01*
X0018712Y0122043D01*
X0018804Y0121997D01*
X0018898Y0121954D01*
X0018993Y0121915D01*
X0019090Y0121879D01*
X0019188Y0121846D01*
X0019287Y0121818D01*
X0019387Y0121793D01*
X0019488Y0121772D01*
X0019589Y0121755D01*
X0019691Y0121741D01*
X0019794Y0121732D01*
X0019897Y0121726D01*
X0020000Y0121724D01*
X0020000Y0117000D01*
X0015768Y0117000D01*
X0028642Y0058421D02*
X0021417Y0058421D01*
X0021417Y0065063D01*
X0030630Y0053295D02*
X0028642Y0053295D01*
X0028642Y0058421D01*
X0032130Y0134366D02*
X0028697Y0134366D01*
X0028697Y0126173D01*
X0046681Y0126173D01*
X0110256Y0058799D02*
X0110256Y0058827D01*
X0054661Y0058827D01*
X0057004Y0062177D02*
X0106657Y0062177D01*
X0106657Y0062264D01*
X0065433Y0027201D02*
X0085177Y0027201D01*
X0085177Y0027268D01*
X0020500Y0023500D02*
X0020500Y0023357D01*
X0006185Y0023357D01*
X0024232Y0119559D02*
X0039622Y0119559D01*
X0039650Y0119531D01*
X0122016Y0121657D02*
X0039650Y0121657D01*
X0039650Y0119531D01*
X0042929Y0117000D02*
X0024232Y0117000D01*
X0119382Y0119339D02*
X0042929Y0119339D01*
X0042929Y0117000D01*
X0046055Y0116449D02*
X0116787Y0116449D01*
X0024232Y0114441D02*
X0046055Y0114441D01*
X0046055Y0114488D01*
X0046055Y0116449D01*
X0015768Y0119559D02*
X0012102Y0119559D01*
X0012102Y0109909D01*
X0015969Y0109909D01*
X0071085Y0082976D02*
X0071085Y0109390D01*
X0067813Y0112661D01*
X0105730Y0101874D02*
X0105730Y0110929D01*
X0102974Y0113685D01*
X0073447Y0113685D01*
D18*
X0142233Y0117094D02*
X0142233Y0115886D01*
X0130028Y0115886D01*
D19*
X0067813Y0112661D03*
M02*
