%
M48
M72
T01C0.0118
T02C0.0120
T03C0.0130
T04C0.0236
T05C0.1260
%
T01
X10787Y9803
X11102Y9803
X11496Y10118
X11890Y9764
X12205Y9764
X12520Y9724
X12874Y9724
X13228Y9724
X13228Y9134
X12913Y9134
X12520Y9134
X12323Y8819
X11969Y8740
X11614Y8858
X11181Y9016
X1428Y3459
X1727Y2941
X1397Y5998
X1696Y5467
X5698Y7649
X5681Y7308
X5760Y6984
X8101Y3981
X8668Y5385
X8372Y6534
X2589Y6554
X7831Y14481
X4790Y14193
X8110Y13067
X9155Y13067
X7339Y13616
X6326Y13616
X7435Y15463
X6022Y15124
X5060Y12832
X3245Y13840
X3238Y12871
X6260Y12417
X7020Y12421
X7571Y12421
X5780Y10642
X6291Y10622
X6181Y3854
X8500Y14949
X7504Y17213
X9980Y11028
X10035Y12398
X8522Y13037
X6746Y13604
X7654Y15064
X4668Y12617
X2142Y6506
X611Y12868
X3213Y13437
X2864Y5842
X3063Y5330
X9339Y13504
X5466Y5883
X11026Y5880
X10666Y6226
X5700Y6218
X7823Y16965
X4566Y13422
X8547Y14383
X6759Y14954
X620Y12407
X8518Y2727
X6543Y2720
X2050Y2350
X619Y2336
X11783Y8360
X3965Y11953
X12202Y12166
X11395Y8508
X4293Y11700
X11938Y11934
X11015Y8692
X11679Y11645
X4606Y11449
X3072Y2802
X3074Y3569
X8331Y4744
X7031Y4174
X1597Y10991
X13111Y11188
X3654Y10953
X7574Y13365
X3275Y10950
X5994Y13930
X2854Y10984
X3565Y14251
T02
X8441Y9276
X8841Y9276
X8421Y8856
X8831Y8856
X7108Y8298
X8723Y6920
X10061Y7668
X9565Y10609
X7345Y11369
X10573Y10187
T03
X6781Y11266
T04
X2000Y12458
X13000Y12558
T05
X1000Y1000
X14000Y1000
X14000Y14000
X1000Y14000
M30
