G75*
%MOIN*%
%OFA0B0*%
%FSLAX25Y25*%
%IPPOS*%
%LPD*%
%AMOC8*
5,1,8,0,0,1.08239X$1,22.5*
%
%ADD10C,0.02800*%
%ADD11C,0.00500*%
%ADD12C,0.02780*%
%ADD13C,0.00600*%
%ADD14C,0.02900*%
D10*
X0084413Y0092761D03*
X0088413Y0092761D03*
X0084213Y0088561D03*
X0088313Y0088561D03*
X0071085Y0082976D03*
X0087226Y0069197D03*
X0100612Y0076677D03*
X0095652Y0106087D03*
X0073447Y0113685D03*
X0105730Y0101874D03*
D11*
X0133465Y0118504D02*
X0133465Y0018383D01*
X0131559Y0016477D01*
X0130170Y0014072D01*
X0129451Y0011389D01*
X0129451Y0008611D01*
X0130170Y0005928D01*
X0130850Y0004750D01*
X0019150Y0004750D01*
X0019830Y0005928D01*
X0020549Y0008611D01*
X0020549Y0011389D01*
X0019830Y0014072D01*
X0018441Y0016477D01*
X0016477Y0018441D01*
X0014072Y0019830D01*
X0011389Y0020549D01*
X0008611Y0020549D01*
X0005928Y0019830D01*
X0004750Y0019150D01*
X0004750Y0021624D01*
X0005257Y0021117D01*
X0007113Y0021117D01*
X0008425Y0022429D01*
X0008425Y0024285D01*
X0007113Y0025597D01*
X0005257Y0025597D01*
X0004750Y0025090D01*
X0004750Y0118124D01*
X0037792Y0118222D01*
X0038722Y0117291D01*
X0040577Y0117291D01*
X0040689Y0117403D01*
X0040689Y0116072D01*
X0042001Y0114760D01*
X0043815Y0114760D01*
X0043815Y0113560D01*
X0045127Y0112248D01*
X0046983Y0112248D01*
X0048295Y0113560D01*
X0048295Y0115416D01*
X0046983Y0116728D01*
X0045169Y0116728D01*
X0045169Y0117928D01*
X0044854Y0118243D01*
X0115622Y0118451D01*
X0114547Y0117377D01*
X0114547Y0115521D01*
X0115860Y0114209D01*
X0117715Y0114209D01*
X0119027Y0115521D01*
X0119027Y0117099D01*
X0120310Y0117099D01*
X0121622Y0118411D01*
X0121622Y0118469D01*
X0133465Y0118504D01*
X0038775Y0108604D02*
X0038775Y0110459D01*
X0037463Y0111771D01*
X0035608Y0111771D01*
X0034624Y0110788D01*
X0033676Y0111736D01*
X0031820Y0111736D01*
X0030783Y0110699D01*
X0030783Y0110770D01*
X0029471Y0112083D01*
X0027615Y0112083D01*
X0026303Y0110770D01*
X0026303Y0108915D01*
X0027615Y0107603D01*
X0029471Y0107603D01*
X0030508Y0108639D01*
X0030508Y0108568D01*
X0031820Y0107256D01*
X0033676Y0107256D01*
X0034659Y0108240D01*
X0035608Y0107291D01*
X0037463Y0107291D01*
X0038775Y0108604D01*
X0107980Y0100942D02*
X0107980Y0102806D01*
X0106662Y0104124D01*
X0104798Y0104124D01*
X0103480Y0102806D01*
X0103480Y0100942D01*
X0104798Y0099624D01*
X0106662Y0099624D01*
X0107980Y0100942D01*
X0075697Y0112753D02*
X0075697Y0114617D01*
X0074379Y0115935D01*
X0072515Y0115935D01*
X0071197Y0114617D01*
X0071197Y0112753D01*
X0072515Y0111435D01*
X0074379Y0111435D01*
X0075697Y0112753D01*
X0133346Y0110950D02*
X0133346Y0112806D01*
X0132034Y0114118D01*
X0130178Y0114118D01*
X0128866Y0112806D01*
X0128866Y0110950D01*
X0130178Y0109638D01*
X0132034Y0109638D01*
X0133346Y0110950D01*
X0018208Y0108982D02*
X0018208Y0110837D01*
X0016896Y0112149D01*
X0015041Y0112149D01*
X0013729Y0110837D01*
X0013729Y0108982D01*
X0015041Y0107669D01*
X0016896Y0107669D01*
X0018208Y0108982D01*
X0072555Y0040816D02*
X0072555Y0042672D01*
X0071382Y0043844D01*
X0081600Y0043844D01*
X0081746Y0043991D01*
X0081746Y0045842D01*
X0082387Y0045201D01*
X0084243Y0045201D01*
X0085555Y0046513D01*
X0085555Y0048369D01*
X0084243Y0049681D01*
X0082387Y0049681D01*
X0081746Y0049040D01*
X0081746Y0057584D01*
X0081600Y0057730D01*
X0068007Y0057730D01*
X0067860Y0057584D01*
X0067860Y0043991D01*
X0068007Y0043844D01*
X0069248Y0043844D01*
X0068075Y0042672D01*
X0068075Y0040816D01*
X0069387Y0039504D01*
X0071243Y0039504D01*
X0072555Y0040816D01*
X0032984Y0034757D02*
X0032984Y0036613D01*
X0031672Y0037925D01*
X0029816Y0037925D01*
X0028504Y0036613D01*
X0028504Y0034757D01*
X0029816Y0033445D01*
X0031672Y0033445D01*
X0032984Y0034757D01*
X0032957Y0027096D02*
X0032957Y0028951D01*
X0031644Y0030264D01*
X0029789Y0030264D01*
X0028477Y0028951D01*
X0028477Y0027096D01*
X0029789Y0025784D01*
X0031644Y0025784D01*
X0032957Y0027096D01*
X0097902Y0105155D02*
X0097902Y0107019D01*
X0096584Y0108337D01*
X0094720Y0108337D01*
X0093402Y0107019D01*
X0093402Y0105155D01*
X0094720Y0103837D01*
X0096584Y0103837D01*
X0097902Y0105155D01*
X0102862Y0075745D02*
X0102862Y0077609D01*
X0101544Y0078927D01*
X0099680Y0078927D01*
X0098362Y0077609D01*
X0098362Y0075745D01*
X0099680Y0074427D01*
X0101544Y0074427D01*
X0102862Y0075745D01*
X0089476Y0068265D02*
X0089476Y0070129D01*
X0088158Y0071447D01*
X0086294Y0071447D01*
X0084976Y0070129D01*
X0084976Y0068265D01*
X0086294Y0066947D01*
X0088158Y0066947D01*
X0089476Y0068265D01*
X0073335Y0082044D02*
X0073335Y0083908D01*
X0072017Y0085226D01*
X0070153Y0085226D01*
X0068835Y0083908D01*
X0068835Y0082044D01*
X0070153Y0080726D01*
X0072017Y0080726D01*
X0073335Y0082044D01*
X0070113Y0111709D02*
X0070113Y0113614D01*
X0068766Y0114961D01*
X0066861Y0114961D01*
X0065513Y0113614D01*
X0065513Y0111709D01*
X0066861Y0110361D01*
X0068766Y0110361D01*
X0070113Y0111709D01*
X0022740Y0022572D02*
X0022740Y0024428D01*
X0021428Y0025740D01*
X0019572Y0025740D01*
X0018260Y0024428D01*
X0018260Y0022572D01*
X0019572Y0021260D01*
X0021428Y0021260D01*
X0022740Y0022572D01*
X0067673Y0026273D02*
X0067673Y0028129D01*
X0066361Y0029441D01*
X0064505Y0029441D01*
X0063193Y0028129D01*
X0063193Y0026273D01*
X0064505Y0024961D01*
X0066361Y0024961D01*
X0067673Y0026273D01*
X0087417Y0026340D02*
X0087417Y0028196D01*
X0086105Y0029508D01*
X0084249Y0029508D01*
X0082937Y0028196D01*
X0082937Y0026340D01*
X0084249Y0025028D01*
X0086105Y0025028D01*
X0087417Y0026340D01*
X0112496Y0057871D02*
X0112496Y0059727D01*
X0111184Y0061039D01*
X0109328Y0061039D01*
X0108016Y0059727D01*
X0108016Y0057871D01*
X0109328Y0056559D01*
X0111184Y0056559D01*
X0112496Y0057871D01*
X0056901Y0057899D02*
X0056901Y0059755D01*
X0056719Y0059937D01*
X0057932Y0059937D01*
X0059244Y0061249D01*
X0059244Y0063105D01*
X0057932Y0064417D01*
X0056076Y0064417D01*
X0054764Y0063105D01*
X0054764Y0061249D01*
X0054947Y0061067D01*
X0053734Y0061067D01*
X0052421Y0059755D01*
X0052421Y0057899D01*
X0053734Y0056587D01*
X0055589Y0056587D01*
X0056901Y0057899D01*
X0032870Y0052367D02*
X0032870Y0054223D01*
X0031558Y0055535D01*
X0029702Y0055535D01*
X0028390Y0054223D01*
X0028390Y0052367D01*
X0029702Y0051055D01*
X0031558Y0051055D01*
X0032870Y0052367D01*
X0030882Y0057493D02*
X0030882Y0059349D01*
X0029570Y0060661D01*
X0027714Y0060661D01*
X0026402Y0059349D01*
X0026402Y0057493D01*
X0027714Y0056181D01*
X0029570Y0056181D01*
X0030882Y0057493D01*
X0023657Y0064135D02*
X0023657Y0065991D01*
X0022345Y0067303D01*
X0020489Y0067303D01*
X0019177Y0065991D01*
X0019177Y0064135D01*
X0020489Y0062823D01*
X0022345Y0062823D01*
X0023657Y0064135D01*
X0108897Y0061336D02*
X0108897Y0063192D01*
X0107585Y0064504D01*
X0105730Y0064504D01*
X0104417Y0063192D01*
X0104417Y0061336D01*
X0105730Y0060024D01*
X0107585Y0060024D01*
X0108897Y0061336D01*
X0120067Y0082671D02*
X0120067Y0084526D01*
X0118755Y0085838D01*
X0116899Y0085838D01*
X0116193Y0085132D01*
X0116193Y0086011D01*
X0114881Y0087323D01*
X0113025Y0087323D01*
X0112390Y0086687D01*
X0112390Y0087845D01*
X0111077Y0089157D01*
X0109222Y0089157D01*
X0107910Y0087845D01*
X0107910Y0085989D01*
X0109222Y0084677D01*
X0111077Y0084677D01*
X0111713Y0085313D01*
X0111713Y0084155D01*
X0113025Y0082843D01*
X0114881Y0082843D01*
X0115587Y0083549D01*
X0115587Y0082671D01*
X0116899Y0081358D01*
X0118755Y0081358D01*
X0120067Y0082671D01*
X0130714Y0004985D02*
X0019286Y0004985D01*
X0019574Y0005484D02*
X0130426Y0005484D01*
X0130155Y0005982D02*
X0019845Y0005982D01*
X0019978Y0006481D02*
X0130022Y0006481D01*
X0129888Y0006979D02*
X0020112Y0006979D01*
X0020245Y0007478D02*
X0129755Y0007478D01*
X0129621Y0007976D02*
X0020379Y0007976D01*
X0020513Y0008475D02*
X0129487Y0008475D01*
X0129451Y0008973D02*
X0020549Y0008973D01*
X0020549Y0009472D02*
X0129451Y0009472D01*
X0129451Y0009970D02*
X0020549Y0009970D01*
X0020549Y0010469D02*
X0129451Y0010469D01*
X0129451Y0010967D02*
X0020549Y0010967D01*
X0020529Y0011466D02*
X0129471Y0011466D01*
X0129605Y0011964D02*
X0020395Y0011964D01*
X0020261Y0012463D02*
X0129739Y0012463D01*
X0129872Y0012961D02*
X0020128Y0012961D01*
X0019994Y0013460D02*
X0130006Y0013460D01*
X0130139Y0013958D02*
X0019861Y0013958D01*
X0019608Y0014457D02*
X0130392Y0014457D01*
X0130680Y0014955D02*
X0019320Y0014955D01*
X0019032Y0015454D02*
X0130968Y0015454D01*
X0131255Y0015952D02*
X0018745Y0015952D01*
X0018457Y0016451D02*
X0131543Y0016451D01*
X0132031Y0016949D02*
X0017969Y0016949D01*
X0017471Y0017448D02*
X0132529Y0017448D01*
X0133028Y0017946D02*
X0016972Y0017946D01*
X0016471Y0018445D02*
X0133465Y0018445D01*
X0133465Y0018943D02*
X0015608Y0018943D01*
X0005256Y0019442D02*
X0004750Y0019442D01*
X0014744Y0019442D02*
X0133465Y0019442D01*
X0006339Y0019940D02*
X0004750Y0019940D01*
X0013661Y0019940D02*
X0133465Y0019940D01*
X0008200Y0020439D02*
X0004750Y0020439D01*
X0011800Y0020439D02*
X0133465Y0020439D01*
X0133465Y0020937D02*
X0004750Y0020937D01*
X0004750Y0021436D02*
X0004938Y0021436D01*
X0007432Y0021436D02*
X0019396Y0021436D01*
X0021604Y0021436D02*
X0133465Y0021436D01*
X0018898Y0021934D02*
X0007930Y0021934D01*
X0022102Y0021934D02*
X0133465Y0021934D01*
X0018399Y0022433D02*
X0008425Y0022433D01*
X0022601Y0022433D02*
X0133465Y0022433D01*
X0018260Y0022932D02*
X0008425Y0022932D01*
X0022740Y0022932D02*
X0133465Y0022932D01*
X0018260Y0023430D02*
X0008425Y0023430D01*
X0022740Y0023430D02*
X0133465Y0023430D01*
X0018260Y0023929D02*
X0008425Y0023929D01*
X0022740Y0023929D02*
X0133465Y0023929D01*
X0018260Y0024427D02*
X0008283Y0024427D01*
X0022740Y0024427D02*
X0133465Y0024427D01*
X0018758Y0024926D02*
X0007784Y0024926D01*
X0022242Y0024926D02*
X0133465Y0024926D01*
X0005084Y0025424D02*
X0004750Y0025424D01*
X0007286Y0025424D02*
X0019256Y0025424D01*
X0021744Y0025424D02*
X0064042Y0025424D01*
X0066824Y0025424D02*
X0083853Y0025424D01*
X0086501Y0025424D02*
X0133465Y0025424D01*
X0029650Y0025923D02*
X0004750Y0025923D01*
X0031783Y0025923D02*
X0063543Y0025923D01*
X0067323Y0025923D02*
X0083354Y0025923D01*
X0087000Y0025923D02*
X0133465Y0025923D01*
X0029151Y0026421D02*
X0004750Y0026421D01*
X0032282Y0026421D02*
X0063193Y0026421D01*
X0067673Y0026421D02*
X0082937Y0026421D01*
X0087417Y0026421D02*
X0133465Y0026421D01*
X0028653Y0026920D02*
X0004750Y0026920D01*
X0032780Y0026920D02*
X0063193Y0026920D01*
X0067673Y0026920D02*
X0082937Y0026920D01*
X0087417Y0026920D02*
X0133465Y0026920D01*
X0028477Y0027418D02*
X0004750Y0027418D01*
X0032957Y0027418D02*
X0063193Y0027418D01*
X0067673Y0027418D02*
X0082937Y0027418D01*
X0087417Y0027418D02*
X0133465Y0027418D01*
X0028477Y0027917D02*
X0004750Y0027917D01*
X0032957Y0027917D02*
X0063193Y0027917D01*
X0067673Y0027917D02*
X0082937Y0027917D01*
X0087417Y0027917D02*
X0133465Y0027917D01*
X0028477Y0028415D02*
X0004750Y0028415D01*
X0032957Y0028415D02*
X0063480Y0028415D01*
X0067387Y0028415D02*
X0083157Y0028415D01*
X0087198Y0028415D02*
X0133465Y0028415D01*
X0028477Y0028914D02*
X0004750Y0028914D01*
X0032957Y0028914D02*
X0063978Y0028914D01*
X0066888Y0028914D02*
X0083655Y0028914D01*
X0086699Y0028914D02*
X0133465Y0028914D01*
X0028937Y0029412D02*
X0004750Y0029412D01*
X0032496Y0029412D02*
X0064477Y0029412D01*
X0066390Y0029412D02*
X0084154Y0029412D01*
X0086201Y0029412D02*
X0133465Y0029412D01*
X0029436Y0029911D02*
X0004750Y0029911D01*
X0031997Y0029911D02*
X0133465Y0029911D01*
X0133465Y0030409D02*
X0004750Y0030409D01*
X0004750Y0030908D02*
X0133465Y0030908D01*
X0133465Y0031406D02*
X0004750Y0031406D01*
X0004750Y0031905D02*
X0133465Y0031905D01*
X0133465Y0032403D02*
X0004750Y0032403D01*
X0004750Y0032902D02*
X0133465Y0032902D01*
X0133465Y0033400D02*
X0004750Y0033400D01*
X0004750Y0033899D02*
X0029363Y0033899D01*
X0032126Y0033899D02*
X0133465Y0033899D01*
X0028864Y0034397D02*
X0004750Y0034397D01*
X0032624Y0034397D02*
X0133465Y0034397D01*
X0028504Y0034896D02*
X0004750Y0034896D01*
X0032984Y0034896D02*
X0133465Y0034896D01*
X0028504Y0035394D02*
X0004750Y0035394D01*
X0032984Y0035394D02*
X0133465Y0035394D01*
X0028504Y0035893D02*
X0004750Y0035893D01*
X0032984Y0035893D02*
X0133465Y0035893D01*
X0028504Y0036391D02*
X0004750Y0036391D01*
X0032984Y0036391D02*
X0133465Y0036391D01*
X0028781Y0036890D02*
X0004750Y0036890D01*
X0032707Y0036890D02*
X0133465Y0036890D01*
X0029280Y0037388D02*
X0004750Y0037388D01*
X0032209Y0037388D02*
X0133465Y0037388D01*
X0029778Y0037887D02*
X0004750Y0037887D01*
X0031710Y0037887D02*
X0133465Y0037887D01*
X0133465Y0038385D02*
X0004750Y0038385D01*
X0004750Y0038884D02*
X0133465Y0038884D01*
X0133465Y0039382D02*
X0004750Y0039382D01*
X0004750Y0039881D02*
X0069010Y0039881D01*
X0071620Y0039881D02*
X0133465Y0039881D01*
X0068512Y0040379D02*
X0004750Y0040379D01*
X0072118Y0040379D02*
X0133465Y0040379D01*
X0068075Y0040878D02*
X0004750Y0040878D01*
X0072555Y0040878D02*
X0133465Y0040878D01*
X0068075Y0041376D02*
X0004750Y0041376D01*
X0072555Y0041376D02*
X0133465Y0041376D01*
X0068075Y0041875D02*
X0004750Y0041875D01*
X0072555Y0041875D02*
X0133465Y0041875D01*
X0068075Y0042373D02*
X0004750Y0042373D01*
X0072555Y0042373D02*
X0133465Y0042373D01*
X0068275Y0042872D02*
X0004750Y0042872D01*
X0072355Y0042872D02*
X0133465Y0042872D01*
X0068774Y0043370D02*
X0004750Y0043370D01*
X0071856Y0043370D02*
X0133465Y0043370D01*
X0067982Y0043869D02*
X0004750Y0043869D01*
X0081624Y0043869D02*
X0133465Y0043869D01*
X0067860Y0044368D02*
X0004750Y0044368D01*
X0081746Y0044368D02*
X0133465Y0044368D01*
X0067860Y0044866D02*
X0004750Y0044866D01*
X0081746Y0044866D02*
X0133465Y0044866D01*
X0067860Y0045365D02*
X0004750Y0045365D01*
X0081746Y0045365D02*
X0082224Y0045365D01*
X0084406Y0045365D02*
X0133465Y0045365D01*
X0067860Y0045863D02*
X0004750Y0045863D01*
X0084905Y0045863D02*
X0133465Y0045863D01*
X0067860Y0046362D02*
X0004750Y0046362D01*
X0085403Y0046362D02*
X0133465Y0046362D01*
X0067860Y0046860D02*
X0004750Y0046860D01*
X0085555Y0046860D02*
X0133465Y0046860D01*
X0067860Y0047359D02*
X0004750Y0047359D01*
X0085555Y0047359D02*
X0133465Y0047359D01*
X0067860Y0047857D02*
X0004750Y0047857D01*
X0085555Y0047857D02*
X0133465Y0047857D01*
X0067860Y0048356D02*
X0004750Y0048356D01*
X0085555Y0048356D02*
X0133465Y0048356D01*
X0067860Y0048854D02*
X0004750Y0048854D01*
X0085070Y0048854D02*
X0133465Y0048854D01*
X0067860Y0049353D02*
X0004750Y0049353D01*
X0081746Y0049353D02*
X0082059Y0049353D01*
X0084571Y0049353D02*
X0133465Y0049353D01*
X0067860Y0049851D02*
X0004750Y0049851D01*
X0081746Y0049851D02*
X0133465Y0049851D01*
X0067860Y0050350D02*
X0004750Y0050350D01*
X0081746Y0050350D02*
X0133465Y0050350D01*
X0067860Y0050848D02*
X0004750Y0050848D01*
X0081746Y0050848D02*
X0133465Y0050848D01*
X0029411Y0051347D02*
X0004750Y0051347D01*
X0031849Y0051347D02*
X0067860Y0051347D01*
X0081746Y0051347D02*
X0133465Y0051347D01*
X0028912Y0051845D02*
X0004750Y0051845D01*
X0032348Y0051845D02*
X0067860Y0051845D01*
X0081746Y0051845D02*
X0133465Y0051845D01*
X0028414Y0052344D02*
X0004750Y0052344D01*
X0032846Y0052344D02*
X0067860Y0052344D01*
X0081746Y0052344D02*
X0133465Y0052344D01*
X0028390Y0052842D02*
X0004750Y0052842D01*
X0032870Y0052842D02*
X0067860Y0052842D01*
X0081746Y0052842D02*
X0133465Y0052842D01*
X0028390Y0053341D02*
X0004750Y0053341D01*
X0032870Y0053341D02*
X0067860Y0053341D01*
X0081746Y0053341D02*
X0133465Y0053341D01*
X0028390Y0053839D02*
X0004750Y0053839D01*
X0032870Y0053839D02*
X0067860Y0053839D01*
X0081746Y0053839D02*
X0133465Y0053839D01*
X0028505Y0054338D02*
X0004750Y0054338D01*
X0032755Y0054338D02*
X0067860Y0054338D01*
X0081746Y0054338D02*
X0133465Y0054338D01*
X0029003Y0054836D02*
X0004750Y0054836D01*
X0032257Y0054836D02*
X0067860Y0054836D01*
X0081746Y0054836D02*
X0133465Y0054836D01*
X0029502Y0055335D02*
X0004750Y0055335D01*
X0031758Y0055335D02*
X0067860Y0055335D01*
X0081746Y0055335D02*
X0133465Y0055335D01*
X0067860Y0055833D02*
X0004750Y0055833D01*
X0081746Y0055833D02*
X0133465Y0055833D01*
X0027563Y0056332D02*
X0004750Y0056332D01*
X0029720Y0056332D02*
X0067860Y0056332D01*
X0081746Y0056332D02*
X0133465Y0056332D01*
X0027065Y0056830D02*
X0004750Y0056830D01*
X0030219Y0056830D02*
X0053490Y0056830D01*
X0055833Y0056830D02*
X0067860Y0056830D01*
X0081746Y0056830D02*
X0109057Y0056830D01*
X0111455Y0056830D02*
X0133465Y0056830D01*
X0026566Y0057329D02*
X0004750Y0057329D01*
X0030717Y0057329D02*
X0052992Y0057329D01*
X0056331Y0057329D02*
X0067860Y0057329D01*
X0081746Y0057329D02*
X0108558Y0057329D01*
X0111953Y0057329D02*
X0133465Y0057329D01*
X0026402Y0057827D02*
X0004750Y0057827D01*
X0030882Y0057827D02*
X0052493Y0057827D01*
X0056830Y0057827D02*
X0108060Y0057827D01*
X0112452Y0057827D02*
X0133465Y0057827D01*
X0026402Y0058326D02*
X0004750Y0058326D01*
X0030882Y0058326D02*
X0052421Y0058326D01*
X0056901Y0058326D02*
X0108016Y0058326D01*
X0112496Y0058326D02*
X0133465Y0058326D01*
X0026402Y0058824D02*
X0004750Y0058824D01*
X0030882Y0058824D02*
X0052421Y0058824D01*
X0056901Y0058824D02*
X0108016Y0058824D01*
X0112496Y0058824D02*
X0133465Y0058824D01*
X0026402Y0059323D02*
X0004750Y0059323D01*
X0030882Y0059323D02*
X0052421Y0059323D01*
X0056901Y0059323D02*
X0108016Y0059323D01*
X0112496Y0059323D02*
X0133465Y0059323D01*
X0026874Y0059821D02*
X0004750Y0059821D01*
X0030409Y0059821D02*
X0052488Y0059821D01*
X0056835Y0059821D02*
X0108110Y0059821D01*
X0112402Y0059821D02*
X0133465Y0059821D01*
X0027373Y0060320D02*
X0004750Y0060320D01*
X0029911Y0060320D02*
X0052987Y0060320D01*
X0058314Y0060320D02*
X0105434Y0060320D01*
X0107881Y0060320D02*
X0108609Y0060320D01*
X0111903Y0060320D02*
X0133465Y0060320D01*
X0053485Y0060818D02*
X0004750Y0060818D01*
X0058813Y0060818D02*
X0104935Y0060818D01*
X0108380Y0060818D02*
X0109107Y0060818D01*
X0111405Y0060818D02*
X0133465Y0060818D01*
X0054764Y0061317D02*
X0004750Y0061317D01*
X0059244Y0061317D02*
X0104437Y0061317D01*
X0108878Y0061317D02*
X0133465Y0061317D01*
X0054764Y0061815D02*
X0004750Y0061815D01*
X0059244Y0061815D02*
X0104417Y0061815D01*
X0108897Y0061815D02*
X0133465Y0061815D01*
X0054764Y0062314D02*
X0004750Y0062314D01*
X0059244Y0062314D02*
X0104417Y0062314D01*
X0108897Y0062314D02*
X0133465Y0062314D01*
X0054764Y0062812D02*
X0004750Y0062812D01*
X0059244Y0062812D02*
X0104417Y0062812D01*
X0108897Y0062812D02*
X0133465Y0062812D01*
X0020002Y0063311D02*
X0004750Y0063311D01*
X0022833Y0063311D02*
X0054970Y0063311D01*
X0059038Y0063311D02*
X0104537Y0063311D01*
X0108778Y0063311D02*
X0133465Y0063311D01*
X0019503Y0063809D02*
X0004750Y0063809D01*
X0023332Y0063809D02*
X0055468Y0063809D01*
X0058539Y0063809D02*
X0105035Y0063809D01*
X0108280Y0063809D02*
X0133465Y0063809D01*
X0019177Y0064308D02*
X0004750Y0064308D01*
X0023657Y0064308D02*
X0055967Y0064308D01*
X0058041Y0064308D02*
X0105534Y0064308D01*
X0107781Y0064308D02*
X0133465Y0064308D01*
X0019177Y0064806D02*
X0004750Y0064806D01*
X0023657Y0064806D02*
X0133465Y0064806D01*
X0019177Y0065305D02*
X0004750Y0065305D01*
X0023657Y0065305D02*
X0133465Y0065305D01*
X0019177Y0065803D02*
X0004750Y0065803D01*
X0023657Y0065803D02*
X0133465Y0065803D01*
X0019489Y0066302D02*
X0004750Y0066302D01*
X0023346Y0066302D02*
X0133465Y0066302D01*
X0019987Y0066801D02*
X0004750Y0066801D01*
X0022848Y0066801D02*
X0133465Y0066801D01*
X0020486Y0067299D02*
X0004750Y0067299D01*
X0022349Y0067299D02*
X0085942Y0067299D01*
X0088511Y0067299D02*
X0133465Y0067299D01*
X0085444Y0067798D02*
X0004750Y0067798D01*
X0089009Y0067798D02*
X0133465Y0067798D01*
X0084976Y0068296D02*
X0004750Y0068296D01*
X0089476Y0068296D02*
X0133465Y0068296D01*
X0084976Y0068795D02*
X0004750Y0068795D01*
X0089476Y0068795D02*
X0133465Y0068795D01*
X0084976Y0069293D02*
X0004750Y0069293D01*
X0089476Y0069293D02*
X0133465Y0069293D01*
X0084976Y0069792D02*
X0004750Y0069792D01*
X0089476Y0069792D02*
X0133465Y0069792D01*
X0085138Y0070290D02*
X0004750Y0070290D01*
X0089315Y0070290D02*
X0133465Y0070290D01*
X0085636Y0070789D02*
X0004750Y0070789D01*
X0088817Y0070789D02*
X0133465Y0070789D01*
X0086135Y0071287D02*
X0004750Y0071287D01*
X0088318Y0071287D02*
X0133465Y0071287D01*
X0133465Y0071786D02*
X0004750Y0071786D01*
X0004750Y0072284D02*
X0133465Y0072284D01*
X0133465Y0072783D02*
X0004750Y0072783D01*
X0004750Y0073281D02*
X0133465Y0073281D01*
X0133465Y0073780D02*
X0004750Y0073780D01*
X0004750Y0074278D02*
X0133465Y0074278D01*
X0099331Y0074777D02*
X0004750Y0074777D01*
X0101894Y0074777D02*
X0133465Y0074777D01*
X0098832Y0075275D02*
X0004750Y0075275D01*
X0102392Y0075275D02*
X0133465Y0075275D01*
X0098362Y0075774D02*
X0004750Y0075774D01*
X0102862Y0075774D02*
X0133465Y0075774D01*
X0098362Y0076272D02*
X0004750Y0076272D01*
X0102862Y0076272D02*
X0133465Y0076272D01*
X0098362Y0076771D02*
X0004750Y0076771D01*
X0102862Y0076771D02*
X0133465Y0076771D01*
X0098362Y0077269D02*
X0004750Y0077269D01*
X0102862Y0077269D02*
X0133465Y0077269D01*
X0098521Y0077768D02*
X0004750Y0077768D01*
X0102704Y0077768D02*
X0133465Y0077768D01*
X0099019Y0078266D02*
X0004750Y0078266D01*
X0102205Y0078266D02*
X0133465Y0078266D01*
X0099518Y0078765D02*
X0004750Y0078765D01*
X0101707Y0078765D02*
X0133465Y0078765D01*
X0133465Y0079263D02*
X0004750Y0079263D01*
X0004750Y0079762D02*
X0133465Y0079762D01*
X0133465Y0080260D02*
X0004750Y0080260D01*
X0004750Y0080759D02*
X0070120Y0080759D01*
X0072049Y0080759D02*
X0133465Y0080759D01*
X0069622Y0081257D02*
X0004750Y0081257D01*
X0072548Y0081257D02*
X0133465Y0081257D01*
X0069123Y0081756D02*
X0004750Y0081756D01*
X0073046Y0081756D02*
X0116502Y0081756D01*
X0119152Y0081756D02*
X0133465Y0081756D01*
X0068835Y0082254D02*
X0004750Y0082254D01*
X0073335Y0082254D02*
X0116003Y0082254D01*
X0119651Y0082254D02*
X0133465Y0082254D01*
X0068835Y0082753D02*
X0004750Y0082753D01*
X0073335Y0082753D02*
X0115587Y0082753D01*
X0120067Y0082753D02*
X0133465Y0082753D01*
X0068835Y0083251D02*
X0004750Y0083251D01*
X0073335Y0083251D02*
X0112616Y0083251D01*
X0115289Y0083251D02*
X0115587Y0083251D01*
X0120067Y0083251D02*
X0133465Y0083251D01*
X0068835Y0083750D02*
X0004750Y0083750D01*
X0073335Y0083750D02*
X0112118Y0083750D01*
X0120067Y0083750D02*
X0133465Y0083750D01*
X0069175Y0084248D02*
X0004750Y0084248D01*
X0072995Y0084248D02*
X0111713Y0084248D01*
X0120067Y0084248D02*
X0133465Y0084248D01*
X0069673Y0084747D02*
X0004750Y0084747D01*
X0072496Y0084747D02*
X0109152Y0084747D01*
X0111147Y0084747D02*
X0111713Y0084747D01*
X0119846Y0084747D02*
X0133465Y0084747D01*
X0108654Y0085245D02*
X0004750Y0085245D01*
X0111646Y0085245D02*
X0111713Y0085245D01*
X0116193Y0085245D02*
X0116306Y0085245D01*
X0119348Y0085245D02*
X0133465Y0085245D01*
X0108155Y0085744D02*
X0004750Y0085744D01*
X0116193Y0085744D02*
X0116804Y0085744D01*
X0118849Y0085744D02*
X0133465Y0085744D01*
X0107910Y0086242D02*
X0004750Y0086242D01*
X0115961Y0086242D02*
X0133465Y0086242D01*
X0107910Y0086741D02*
X0004750Y0086741D01*
X0112390Y0086741D02*
X0112443Y0086741D01*
X0115462Y0086741D02*
X0133465Y0086741D01*
X0107910Y0087239D02*
X0004750Y0087239D01*
X0112390Y0087239D02*
X0112942Y0087239D01*
X0114964Y0087239D02*
X0133465Y0087239D01*
X0107910Y0087738D02*
X0004750Y0087738D01*
X0112390Y0087738D02*
X0133465Y0087738D01*
X0108301Y0088237D02*
X0004750Y0088237D01*
X0111998Y0088237D02*
X0133465Y0088237D01*
X0108799Y0088735D02*
X0004750Y0088735D01*
X0111500Y0088735D02*
X0133465Y0088735D01*
X0133465Y0089234D02*
X0004750Y0089234D01*
X0004750Y0089732D02*
X0133465Y0089732D01*
X0133465Y0090231D02*
X0004750Y0090231D01*
X0004750Y0090729D02*
X0133465Y0090729D01*
X0133465Y0091228D02*
X0004750Y0091228D01*
X0004750Y0091726D02*
X0133465Y0091726D01*
X0133465Y0092225D02*
X0004750Y0092225D01*
X0004750Y0092723D02*
X0133465Y0092723D01*
X0133465Y0093222D02*
X0004750Y0093222D01*
X0004750Y0093720D02*
X0133465Y0093720D01*
X0133465Y0094219D02*
X0004750Y0094219D01*
X0004750Y0094717D02*
X0133465Y0094717D01*
X0133465Y0095216D02*
X0004750Y0095216D01*
X0004750Y0095714D02*
X0133465Y0095714D01*
X0133465Y0096213D02*
X0004750Y0096213D01*
X0004750Y0096711D02*
X0133465Y0096711D01*
X0133465Y0097210D02*
X0004750Y0097210D01*
X0004750Y0097708D02*
X0133465Y0097708D01*
X0133465Y0098207D02*
X0004750Y0098207D01*
X0004750Y0098705D02*
X0133465Y0098705D01*
X0133465Y0099204D02*
X0004750Y0099204D01*
X0004750Y0099702D02*
X0104720Y0099702D01*
X0106741Y0099702D02*
X0133465Y0099702D01*
X0104222Y0100201D02*
X0004750Y0100201D01*
X0107239Y0100201D02*
X0133465Y0100201D01*
X0103723Y0100699D02*
X0004750Y0100699D01*
X0107738Y0100699D02*
X0133465Y0100699D01*
X0103480Y0101198D02*
X0004750Y0101198D01*
X0107980Y0101198D02*
X0133465Y0101198D01*
X0103480Y0101696D02*
X0004750Y0101696D01*
X0107980Y0101696D02*
X0133465Y0101696D01*
X0103480Y0102195D02*
X0004750Y0102195D01*
X0107980Y0102195D02*
X0133465Y0102195D01*
X0103480Y0102693D02*
X0004750Y0102693D01*
X0107980Y0102693D02*
X0133465Y0102693D01*
X0103866Y0103192D02*
X0004750Y0103192D01*
X0107594Y0103192D02*
X0133465Y0103192D01*
X0104365Y0103690D02*
X0004750Y0103690D01*
X0107096Y0103690D02*
X0133465Y0103690D01*
X0094367Y0104189D02*
X0004750Y0104189D01*
X0096936Y0104189D02*
X0133465Y0104189D01*
X0093869Y0104687D02*
X0004750Y0104687D01*
X0097434Y0104687D02*
X0133465Y0104687D01*
X0093402Y0105186D02*
X0004750Y0105186D01*
X0097902Y0105186D02*
X0133465Y0105186D01*
X0093402Y0105684D02*
X0004750Y0105684D01*
X0097902Y0105684D02*
X0133465Y0105684D01*
X0093402Y0106183D02*
X0004750Y0106183D01*
X0097902Y0106183D02*
X0133465Y0106183D01*
X0093402Y0106681D02*
X0004750Y0106681D01*
X0097902Y0106681D02*
X0133465Y0106681D01*
X0093563Y0107180D02*
X0004750Y0107180D01*
X0097740Y0107180D02*
X0133465Y0107180D01*
X0015032Y0107678D02*
X0004750Y0107678D01*
X0016905Y0107678D02*
X0027540Y0107678D01*
X0029547Y0107678D02*
X0031398Y0107678D01*
X0034098Y0107678D02*
X0035221Y0107678D01*
X0037850Y0107678D02*
X0094061Y0107678D01*
X0097242Y0107678D02*
X0133465Y0107678D01*
X0014533Y0108177D02*
X0004750Y0108177D01*
X0017404Y0108177D02*
X0027041Y0108177D01*
X0030046Y0108177D02*
X0030899Y0108177D01*
X0034597Y0108177D02*
X0034722Y0108177D01*
X0038349Y0108177D02*
X0094560Y0108177D01*
X0096743Y0108177D02*
X0133465Y0108177D01*
X0014035Y0108675D02*
X0004750Y0108675D01*
X0017902Y0108675D02*
X0026543Y0108675D01*
X0038775Y0108675D02*
X0133465Y0108675D01*
X0013729Y0109174D02*
X0004750Y0109174D01*
X0018208Y0109174D02*
X0026303Y0109174D01*
X0038775Y0109174D02*
X0133465Y0109174D01*
X0013729Y0109672D02*
X0004750Y0109672D01*
X0018208Y0109672D02*
X0026303Y0109672D01*
X0038775Y0109672D02*
X0130144Y0109672D01*
X0132069Y0109672D02*
X0133465Y0109672D01*
X0013729Y0110171D02*
X0004750Y0110171D01*
X0018208Y0110171D02*
X0026303Y0110171D01*
X0038775Y0110171D02*
X0129645Y0110171D01*
X0132567Y0110171D02*
X0133465Y0110171D01*
X0013729Y0110670D02*
X0004750Y0110670D01*
X0018208Y0110670D02*
X0026303Y0110670D01*
X0038565Y0110670D02*
X0066553Y0110670D01*
X0069074Y0110670D02*
X0129147Y0110670D01*
X0133066Y0110670D02*
X0133465Y0110670D01*
X0014059Y0111168D02*
X0004750Y0111168D01*
X0017878Y0111168D02*
X0026701Y0111168D01*
X0030386Y0111168D02*
X0031252Y0111168D01*
X0034244Y0111168D02*
X0035004Y0111168D01*
X0038067Y0111168D02*
X0066054Y0111168D01*
X0069573Y0111168D02*
X0128866Y0111168D01*
X0133346Y0111168D02*
X0133465Y0111168D01*
X0014558Y0111667D02*
X0004750Y0111667D01*
X0017379Y0111667D02*
X0027199Y0111667D01*
X0029887Y0111667D02*
X0031751Y0111667D01*
X0033745Y0111667D02*
X0035503Y0111667D01*
X0037568Y0111667D02*
X0065556Y0111667D01*
X0070071Y0111667D02*
X0072283Y0111667D01*
X0074610Y0111667D02*
X0128866Y0111667D01*
X0133346Y0111667D02*
X0133465Y0111667D01*
X0065513Y0112165D02*
X0004750Y0112165D01*
X0070113Y0112165D02*
X0071785Y0112165D01*
X0075109Y0112165D02*
X0128866Y0112165D01*
X0133346Y0112165D02*
X0133465Y0112165D01*
X0044712Y0112664D02*
X0004750Y0112664D01*
X0047398Y0112664D02*
X0065513Y0112664D01*
X0070113Y0112664D02*
X0071286Y0112664D01*
X0075607Y0112664D02*
X0128866Y0112664D01*
X0133346Y0112664D02*
X0133465Y0112664D01*
X0044213Y0113162D02*
X0004750Y0113162D01*
X0047897Y0113162D02*
X0065513Y0113162D01*
X0070113Y0113162D02*
X0071197Y0113162D01*
X0075697Y0113162D02*
X0129223Y0113162D01*
X0132990Y0113162D02*
X0133465Y0113162D01*
X0043815Y0113661D02*
X0004750Y0113661D01*
X0048295Y0113661D02*
X0065560Y0113661D01*
X0070067Y0113661D02*
X0071197Y0113661D01*
X0075697Y0113661D02*
X0129721Y0113661D01*
X0132491Y0113661D02*
X0133465Y0113661D01*
X0043815Y0114159D02*
X0004750Y0114159D01*
X0048295Y0114159D02*
X0066058Y0114159D01*
X0069568Y0114159D02*
X0071197Y0114159D01*
X0075697Y0114159D02*
X0133465Y0114159D01*
X0043815Y0114658D02*
X0004750Y0114658D01*
X0048295Y0114658D02*
X0066557Y0114658D01*
X0069070Y0114658D02*
X0071237Y0114658D01*
X0075656Y0114658D02*
X0115411Y0114658D01*
X0118164Y0114658D02*
X0133465Y0114658D01*
X0041605Y0115156D02*
X0004750Y0115156D01*
X0048295Y0115156D02*
X0071736Y0115156D01*
X0075158Y0115156D02*
X0114912Y0115156D01*
X0118663Y0115156D02*
X0133465Y0115156D01*
X0041107Y0115655D02*
X0004750Y0115655D01*
X0048056Y0115655D02*
X0072234Y0115655D01*
X0074659Y0115655D02*
X0114547Y0115655D01*
X0119027Y0115655D02*
X0133465Y0115655D01*
X0040689Y0116153D02*
X0004750Y0116153D01*
X0047558Y0116153D02*
X0114547Y0116153D01*
X0119027Y0116153D02*
X0133465Y0116153D01*
X0040689Y0116652D02*
X0004750Y0116652D01*
X0047059Y0116652D02*
X0114547Y0116652D01*
X0119027Y0116652D02*
X0133465Y0116652D01*
X0040689Y0117150D02*
X0004750Y0117150D01*
X0045169Y0117150D02*
X0114547Y0117150D01*
X0120361Y0117150D02*
X0133465Y0117150D01*
X0038365Y0117649D02*
X0004750Y0117649D01*
X0045169Y0117649D02*
X0114819Y0117649D01*
X0120860Y0117649D02*
X0133465Y0117649D01*
X0037866Y0118147D02*
X0012528Y0118147D01*
X0044950Y0118147D02*
X0115318Y0118147D01*
X0121358Y0118147D02*
X0133465Y0118147D01*
D12*
X0107874Y0098031D03*
X0111024Y0098031D03*
X0114961Y0101181D03*
X0118898Y0097638D03*
X0122047Y0097638D03*
X0125197Y0097244D03*
X0128740Y0097244D03*
X0132283Y0097244D03*
X0132283Y0091339D03*
X0129134Y0091339D03*
X0125197Y0091339D03*
X0123228Y0088189D03*
X0119685Y0087402D03*
X0116142Y0088583D03*
X0111811Y0090157D03*
X0014283Y0034594D03*
X0017272Y0029409D03*
X0013972Y0059980D03*
X0016961Y0054669D03*
X0056976Y0076488D03*
X0056807Y0073083D03*
X0057602Y0069839D03*
X0081012Y0039811D03*
X0086677Y0053850D03*
X0083717Y0065339D03*
X0025890Y0065539D03*
X0078311Y0144807D03*
X0047902Y0141929D03*
X0081102Y0130673D03*
X0091547Y0130673D03*
X0073390Y0136161D03*
X0063260Y0136161D03*
X0074350Y0154626D03*
X0060217Y0151236D03*
X0050602Y0128323D03*
X0032449Y0138402D03*
X0032378Y0128709D03*
X0062598Y0124173D03*
X0070197Y0124213D03*
X0075709Y0124213D03*
X0057795Y0106417D03*
X0062913Y0106220D03*
X0061811Y0038543D03*
X0085000Y0149488D03*
X0075039Y0172126D03*
X0099803Y0110276D03*
X0100354Y0123976D03*
X0085224Y0130370D03*
X0067461Y0136043D03*
X0076535Y0150638D03*
X0046681Y0126173D03*
X0021417Y0065063D03*
X0006114Y0128681D03*
X0032130Y0134366D03*
X0028642Y0058421D03*
X0030630Y0053295D03*
X0093386Y0135039D03*
X0054661Y0058827D03*
X0110256Y0058799D03*
X0106657Y0062264D03*
X0057004Y0062177D03*
X0078228Y0169646D03*
X0045657Y0134224D03*
X0085469Y0143827D03*
X0067587Y0149543D03*
X0006201Y0124075D03*
X0085177Y0027268D03*
X0065433Y0027201D03*
X0020500Y0023500D03*
X0006185Y0023357D03*
X0117827Y0083598D03*
X0039650Y0119531D03*
X0122016Y0121657D03*
X0113953Y0085083D03*
X0042929Y0117000D03*
X0119382Y0119339D03*
X0110150Y0086917D03*
X0116787Y0116449D03*
X0046055Y0114488D03*
X0030717Y0028024D03*
X0030744Y0035685D03*
X0083315Y0047441D03*
X0070315Y0041744D03*
X0015969Y0109909D03*
X0131106Y0111878D03*
X0036535Y0109531D03*
X0075740Y0133646D03*
X0032748Y0109496D03*
X0059945Y0139303D03*
X0028543Y0109843D03*
X0035654Y0142512D03*
D13*
X0042795Y0145200D02*
X0045500Y0145200D01*
X0048829Y0146282D01*
X0048829Y0146282D01*
X0051661Y0148339D01*
X0051661Y0148339D01*
X0051661Y0148339D01*
X0053718Y0151171D01*
X0053718Y0151171D01*
X0054800Y0154500D01*
X0054800Y0197244D01*
X0059322Y0197244D01*
X0061210Y0196029D01*
X0061210Y0196029D01*
X0064712Y0195106D01*
X0064712Y0195106D01*
X0066385Y0195200D01*
X0083615Y0195200D01*
X0085288Y0195106D01*
X0088790Y0196029D01*
X0088790Y0196029D01*
X0090678Y0197244D01*
X0095200Y0197244D01*
X0095200Y0154500D01*
X0096282Y0151171D01*
X0096282Y0151171D01*
X0098339Y0148339D01*
X0098339Y0148339D01*
X0098339Y0148339D01*
X0101171Y0146282D01*
X0101171Y0146282D01*
X0104500Y0145200D01*
X0130763Y0145200D01*
X0130123Y0144091D01*
X0129401Y0141395D01*
X0129401Y0138605D01*
X0130123Y0135909D01*
X0131519Y0133492D01*
X0133492Y0131519D01*
X0135909Y0130123D01*
X0138605Y0129401D01*
X0141395Y0129401D01*
X0144091Y0130123D01*
X0145200Y0130763D01*
X0145200Y0121654D01*
X0133826Y0121654D01*
X0134647Y0122474D01*
X0135481Y0124488D01*
X0135481Y0126669D01*
X0134647Y0128684D01*
X0133105Y0130225D01*
X0131090Y0131060D01*
X0128910Y0131060D01*
X0126895Y0130225D01*
X0125353Y0128684D01*
X0124519Y0126669D01*
X0124519Y0124488D01*
X0125353Y0122474D01*
X0126174Y0121654D01*
X0124306Y0121654D01*
X0124306Y0122606D01*
X0122964Y0123947D01*
X0121067Y0123947D01*
X0119726Y0122606D01*
X0119726Y0121654D01*
X0040766Y0121654D01*
X0040598Y0121821D01*
X0038701Y0121821D01*
X0038533Y0121654D01*
X0024721Y0121654D01*
X0025481Y0123488D01*
X0025481Y0125669D01*
X0024647Y0127684D01*
X0023105Y0129225D01*
X0021090Y0130060D01*
X0018910Y0130060D01*
X0016895Y0129225D01*
X0015353Y0127684D01*
X0014519Y0125669D01*
X0014519Y0123488D01*
X0015279Y0121654D01*
X0004800Y0121654D01*
X0004800Y0126757D01*
X0005166Y0126391D01*
X0007063Y0126391D01*
X0008404Y0127733D01*
X0008404Y0129454D01*
X0008605Y0129401D01*
X0011395Y0129401D01*
X0014091Y0130123D01*
X0016508Y0131519D01*
X0018481Y0133492D01*
X0019877Y0135909D01*
X0020599Y0138605D01*
X0020599Y0141395D01*
X0019877Y0144091D01*
X0019237Y0145200D01*
X0042795Y0145200D01*
X0080601Y0143859D02*
X0080601Y0145756D01*
X0079260Y0147097D01*
X0077362Y0147097D01*
X0076021Y0145756D01*
X0076021Y0143859D01*
X0077362Y0142517D01*
X0079260Y0142517D01*
X0080601Y0143859D01*
X0050192Y0140981D02*
X0050192Y0142878D01*
X0048850Y0144219D01*
X0046953Y0144219D01*
X0045612Y0142878D01*
X0045612Y0140981D01*
X0046953Y0139639D01*
X0048850Y0139639D01*
X0050192Y0140981D01*
X0082051Y0132963D02*
X0080154Y0132963D01*
X0078812Y0131622D01*
X0078812Y0129725D01*
X0080154Y0128383D01*
X0082051Y0128383D01*
X0083012Y0129344D01*
X0084276Y0128080D01*
X0086173Y0128080D01*
X0087514Y0129422D01*
X0087514Y0131319D01*
X0086173Y0132660D01*
X0084276Y0132660D01*
X0083315Y0131699D01*
X0082051Y0132963D01*
X0093837Y0129725D02*
X0093837Y0131622D01*
X0092710Y0132749D01*
X0094334Y0132749D01*
X0095676Y0134091D01*
X0095676Y0135988D01*
X0094334Y0137329D01*
X0092437Y0137329D01*
X0091096Y0135988D01*
X0091096Y0134091D01*
X0092223Y0132963D01*
X0090599Y0132963D01*
X0089257Y0131622D01*
X0089257Y0129725D01*
X0090599Y0128383D01*
X0092496Y0128383D01*
X0093837Y0129725D01*
X0075680Y0137110D02*
X0074338Y0138451D01*
X0072441Y0138451D01*
X0071100Y0137110D01*
X0071100Y0135213D01*
X0072441Y0133871D01*
X0073450Y0133871D01*
X0073450Y0132697D01*
X0074792Y0131356D01*
X0076689Y0131356D01*
X0078030Y0132697D01*
X0078030Y0134594D01*
X0076689Y0135936D01*
X0075680Y0135936D01*
X0075680Y0137110D01*
X0064208Y0138451D02*
X0062311Y0138451D01*
X0062235Y0138375D01*
X0062235Y0140252D01*
X0060893Y0141593D01*
X0058996Y0141593D01*
X0057655Y0140252D01*
X0057655Y0138355D01*
X0058996Y0137013D01*
X0060893Y0137013D01*
X0060970Y0137090D01*
X0060970Y0135213D01*
X0062311Y0133871D01*
X0064208Y0133871D01*
X0065301Y0134964D01*
X0066512Y0133753D01*
X0068409Y0133753D01*
X0069751Y0135095D01*
X0069751Y0136992D01*
X0068409Y0138333D01*
X0066512Y0138333D01*
X0065419Y0137241D01*
X0064208Y0138451D01*
X0076640Y0153677D02*
X0076640Y0155575D01*
X0075299Y0156916D01*
X0073402Y0156916D01*
X0072060Y0155575D01*
X0072060Y0153677D01*
X0073402Y0152336D01*
X0074995Y0152336D01*
X0074245Y0151586D01*
X0074245Y0149689D01*
X0075587Y0148348D01*
X0077484Y0148348D01*
X0078825Y0149689D01*
X0078825Y0151586D01*
X0077484Y0152928D01*
X0075891Y0152928D01*
X0076640Y0153677D01*
X0062507Y0150288D02*
X0062507Y0152185D01*
X0061165Y0153526D01*
X0059268Y0153526D01*
X0057927Y0152185D01*
X0057927Y0150288D01*
X0059268Y0148946D01*
X0061165Y0148946D01*
X0062507Y0150288D01*
X0052892Y0127374D02*
X0052892Y0129271D01*
X0051551Y0130613D01*
X0049654Y0130613D01*
X0048312Y0129271D01*
X0048312Y0127780D01*
X0047630Y0128463D01*
X0045733Y0128463D01*
X0044391Y0127122D01*
X0044391Y0125225D01*
X0045733Y0123883D01*
X0047630Y0123883D01*
X0048971Y0125225D01*
X0048971Y0126716D01*
X0049654Y0126033D01*
X0051551Y0126033D01*
X0052892Y0127374D01*
X0034739Y0137453D02*
X0034739Y0139350D01*
X0033397Y0140692D01*
X0031500Y0140692D01*
X0030159Y0139350D01*
X0030159Y0137453D01*
X0031069Y0136543D01*
X0029840Y0135315D01*
X0029840Y0133418D01*
X0031181Y0132076D01*
X0033078Y0132076D01*
X0034420Y0133418D01*
X0034420Y0135315D01*
X0033510Y0136224D01*
X0034739Y0137453D01*
X0034668Y0127760D02*
X0034668Y0129657D01*
X0033327Y0130999D01*
X0031429Y0130999D01*
X0030088Y0129657D01*
X0030088Y0127760D01*
X0031429Y0126419D01*
X0033327Y0126419D01*
X0034668Y0127760D01*
X0064888Y0123225D02*
X0064888Y0125122D01*
X0063547Y0126463D01*
X0061650Y0126463D01*
X0060308Y0125122D01*
X0060308Y0123225D01*
X0061650Y0121883D01*
X0063547Y0121883D01*
X0064888Y0123225D01*
X0072487Y0123264D02*
X0072487Y0125161D01*
X0071145Y0126503D01*
X0069248Y0126503D01*
X0067907Y0125161D01*
X0067907Y0123264D01*
X0069248Y0121923D01*
X0071145Y0121923D01*
X0072487Y0123264D01*
X0077999Y0123264D02*
X0077999Y0125161D01*
X0076657Y0126503D01*
X0074760Y0126503D01*
X0073419Y0125161D01*
X0073419Y0123264D01*
X0074760Y0121923D01*
X0076657Y0121923D01*
X0077999Y0123264D01*
X0087290Y0148540D02*
X0087290Y0150437D01*
X0085949Y0151778D01*
X0084051Y0151778D01*
X0082710Y0150437D01*
X0082710Y0148540D01*
X0084051Y0147198D01*
X0085949Y0147198D01*
X0087290Y0148540D01*
X0077329Y0171177D02*
X0077329Y0173075D01*
X0075988Y0174416D01*
X0074091Y0174416D01*
X0072749Y0173075D01*
X0072749Y0171177D01*
X0074091Y0169836D01*
X0075988Y0169836D01*
X0077329Y0171177D01*
X0102644Y0123028D02*
X0102644Y0124925D01*
X0101303Y0126266D01*
X0099406Y0126266D01*
X0098064Y0124925D01*
X0098064Y0123028D01*
X0099406Y0121686D01*
X0101303Y0121686D01*
X0102644Y0123028D01*
X0037944Y0141563D02*
X0037944Y0143460D01*
X0036602Y0144802D01*
X0034705Y0144802D01*
X0033364Y0143460D01*
X0033364Y0141563D01*
X0034705Y0140222D01*
X0036602Y0140222D01*
X0037944Y0141563D01*
X0015096Y0122096D02*
X0004800Y0122096D01*
X0024904Y0122096D02*
X0061437Y0122096D01*
X0063760Y0122096D02*
X0069075Y0122096D01*
X0071319Y0122096D02*
X0074586Y0122096D01*
X0076831Y0122096D02*
X0098996Y0122096D01*
X0101713Y0122096D02*
X0119726Y0122096D01*
X0124306Y0122096D02*
X0125731Y0122096D01*
X0134269Y0122096D02*
X0145200Y0122096D01*
X0014848Y0122695D02*
X0004800Y0122695D01*
X0025152Y0122695D02*
X0060838Y0122695D01*
X0064359Y0122695D02*
X0068476Y0122695D01*
X0071918Y0122695D02*
X0073988Y0122695D01*
X0077429Y0122695D02*
X0098397Y0122695D01*
X0102311Y0122695D02*
X0119815Y0122695D01*
X0124217Y0122695D02*
X0125262Y0122695D01*
X0134738Y0122695D02*
X0145200Y0122695D01*
X0014600Y0123293D02*
X0004800Y0123293D01*
X0025400Y0123293D02*
X0060308Y0123293D01*
X0064888Y0123293D02*
X0067907Y0123293D01*
X0072487Y0123293D02*
X0073419Y0123293D01*
X0077999Y0123293D02*
X0098064Y0123293D01*
X0102644Y0123293D02*
X0120413Y0123293D01*
X0123618Y0123293D02*
X0125014Y0123293D01*
X0134986Y0123293D02*
X0145200Y0123293D01*
X0014519Y0123892D02*
X0004800Y0123892D01*
X0025481Y0123892D02*
X0045724Y0123892D01*
X0047638Y0123892D02*
X0060308Y0123892D01*
X0064888Y0123892D02*
X0067907Y0123892D01*
X0072487Y0123892D02*
X0073419Y0123892D01*
X0077999Y0123892D02*
X0098064Y0123892D01*
X0102644Y0123892D02*
X0121012Y0123892D01*
X0123020Y0123892D02*
X0124766Y0123892D01*
X0135234Y0123892D02*
X0145200Y0123892D01*
X0014519Y0124490D02*
X0004800Y0124490D01*
X0025481Y0124490D02*
X0045125Y0124490D01*
X0048237Y0124490D02*
X0060308Y0124490D01*
X0064888Y0124490D02*
X0067907Y0124490D01*
X0072487Y0124490D02*
X0073419Y0124490D01*
X0077999Y0124490D02*
X0098064Y0124490D01*
X0102644Y0124490D02*
X0124519Y0124490D01*
X0135481Y0124490D02*
X0145200Y0124490D01*
X0014519Y0125089D02*
X0004800Y0125089D01*
X0025481Y0125089D02*
X0044527Y0125089D01*
X0048835Y0125089D02*
X0060308Y0125089D01*
X0064888Y0125089D02*
X0067907Y0125089D01*
X0072487Y0125089D02*
X0073419Y0125089D01*
X0077999Y0125089D02*
X0098228Y0125089D01*
X0102480Y0125089D02*
X0124519Y0125089D01*
X0135481Y0125089D02*
X0145200Y0125089D01*
X0014527Y0125687D02*
X0004800Y0125687D01*
X0025473Y0125687D02*
X0044391Y0125687D01*
X0048971Y0125687D02*
X0060874Y0125687D01*
X0064323Y0125687D02*
X0068433Y0125687D01*
X0071961Y0125687D02*
X0073945Y0125687D01*
X0077472Y0125687D02*
X0098827Y0125687D01*
X0101882Y0125687D02*
X0124519Y0125687D01*
X0135481Y0125687D02*
X0145200Y0125687D01*
X0014774Y0126286D02*
X0004800Y0126286D01*
X0025226Y0126286D02*
X0044391Y0126286D01*
X0048971Y0126286D02*
X0049401Y0126286D01*
X0051804Y0126286D02*
X0061473Y0126286D01*
X0063724Y0126286D02*
X0069032Y0126286D01*
X0071362Y0126286D02*
X0074543Y0126286D01*
X0076874Y0126286D02*
X0124519Y0126286D01*
X0135481Y0126286D02*
X0145200Y0126286D01*
X0015022Y0126884D02*
X0007556Y0126884D01*
X0024978Y0126884D02*
X0030964Y0126884D01*
X0033792Y0126884D02*
X0044391Y0126884D01*
X0052402Y0126884D02*
X0124608Y0126884D01*
X0135392Y0126884D02*
X0145200Y0126884D01*
X0015270Y0127483D02*
X0008155Y0127483D01*
X0024730Y0127483D02*
X0030365Y0127483D01*
X0034391Y0127483D02*
X0044752Y0127483D01*
X0052892Y0127483D02*
X0124856Y0127483D01*
X0135144Y0127483D02*
X0145200Y0127483D01*
X0015751Y0128081D02*
X0008404Y0128081D01*
X0024249Y0128081D02*
X0030088Y0128081D01*
X0034668Y0128081D02*
X0045351Y0128081D01*
X0048011Y0128081D02*
X0048312Y0128081D01*
X0052892Y0128081D02*
X0084275Y0128081D01*
X0086174Y0128081D02*
X0125104Y0128081D01*
X0134896Y0128081D02*
X0145200Y0128081D01*
X0016350Y0128680D02*
X0008404Y0128680D01*
X0023650Y0128680D02*
X0030088Y0128680D01*
X0034668Y0128680D02*
X0048312Y0128680D01*
X0052892Y0128680D02*
X0079857Y0128680D01*
X0082348Y0128680D02*
X0083676Y0128680D01*
X0086773Y0128680D02*
X0090302Y0128680D01*
X0092792Y0128680D02*
X0125352Y0128680D01*
X0134648Y0128680D02*
X0145200Y0128680D01*
X0017023Y0129278D02*
X0008404Y0129278D01*
X0022977Y0129278D02*
X0030088Y0129278D01*
X0034668Y0129278D02*
X0048319Y0129278D01*
X0052885Y0129278D02*
X0079259Y0129278D01*
X0082946Y0129278D02*
X0083077Y0129278D01*
X0087371Y0129278D02*
X0089703Y0129278D01*
X0093391Y0129278D02*
X0125948Y0129278D01*
X0134052Y0129278D02*
X0145200Y0129278D01*
X0018468Y0129877D02*
X0013172Y0129877D01*
X0021532Y0129877D02*
X0030308Y0129877D01*
X0034448Y0129877D02*
X0048918Y0129877D01*
X0052287Y0129877D02*
X0078812Y0129877D01*
X0087514Y0129877D02*
X0089257Y0129877D01*
X0093837Y0129877D02*
X0126547Y0129877D01*
X0133453Y0129877D02*
X0136827Y0129877D01*
X0143172Y0129877D02*
X0145200Y0129877D01*
X0030906Y0130475D02*
X0014701Y0130475D01*
X0033850Y0130475D02*
X0049516Y0130475D01*
X0051688Y0130475D02*
X0078812Y0130475D01*
X0087514Y0130475D02*
X0089257Y0130475D01*
X0093837Y0130475D02*
X0127499Y0130475D01*
X0132501Y0130475D02*
X0135299Y0130475D01*
X0144701Y0130475D02*
X0145200Y0130475D01*
X0078812Y0131074D02*
X0015738Y0131074D01*
X0087514Y0131074D02*
X0089257Y0131074D01*
X0093837Y0131074D02*
X0134262Y0131074D01*
X0074475Y0131672D02*
X0016662Y0131672D01*
X0077006Y0131672D02*
X0078863Y0131672D01*
X0087161Y0131672D02*
X0089308Y0131672D01*
X0093787Y0131672D02*
X0133338Y0131672D01*
X0030987Y0132271D02*
X0017261Y0132271D01*
X0033273Y0132271D02*
X0073876Y0132271D01*
X0077604Y0132271D02*
X0079462Y0132271D01*
X0082743Y0132271D02*
X0083887Y0132271D01*
X0086562Y0132271D02*
X0089906Y0132271D01*
X0093188Y0132271D02*
X0132739Y0132271D01*
X0030388Y0132870D02*
X0017859Y0132870D01*
X0033872Y0132870D02*
X0073450Y0132870D01*
X0078030Y0132870D02*
X0080060Y0132870D01*
X0082145Y0132870D02*
X0090505Y0132870D01*
X0094455Y0132870D02*
X0132141Y0132870D01*
X0029840Y0133468D02*
X0018458Y0133468D01*
X0034420Y0133468D02*
X0073450Y0133468D01*
X0078030Y0133468D02*
X0091719Y0133468D01*
X0095053Y0133468D02*
X0131542Y0133468D01*
X0029840Y0134067D02*
X0018813Y0134067D01*
X0034420Y0134067D02*
X0062116Y0134067D01*
X0064404Y0134067D02*
X0066199Y0134067D01*
X0068722Y0134067D02*
X0072246Y0134067D01*
X0078030Y0134067D02*
X0091120Y0134067D01*
X0095652Y0134067D02*
X0131187Y0134067D01*
X0029840Y0134665D02*
X0019159Y0134665D01*
X0034420Y0134665D02*
X0061518Y0134665D01*
X0065002Y0134665D02*
X0065600Y0134665D01*
X0069321Y0134665D02*
X0071648Y0134665D01*
X0077959Y0134665D02*
X0091096Y0134665D01*
X0095676Y0134665D02*
X0130841Y0134665D01*
X0029840Y0135264D02*
X0019504Y0135264D01*
X0034420Y0135264D02*
X0060970Y0135264D01*
X0069751Y0135264D02*
X0071100Y0135264D01*
X0077361Y0135264D02*
X0091096Y0135264D01*
X0095676Y0135264D02*
X0130496Y0135264D01*
X0030387Y0135862D02*
X0019850Y0135862D01*
X0033873Y0135862D02*
X0060970Y0135862D01*
X0069751Y0135862D02*
X0071100Y0135862D01*
X0076762Y0135862D02*
X0091096Y0135862D01*
X0095676Y0135862D02*
X0130150Y0135862D01*
X0030986Y0136461D02*
X0020025Y0136461D01*
X0033746Y0136461D02*
X0060970Y0136461D01*
X0069751Y0136461D02*
X0071100Y0136461D01*
X0075680Y0136461D02*
X0091568Y0136461D01*
X0095203Y0136461D02*
X0129975Y0136461D01*
X0030553Y0137059D02*
X0020185Y0137059D01*
X0034345Y0137059D02*
X0058950Y0137059D01*
X0060939Y0137059D02*
X0060970Y0137059D01*
X0069683Y0137059D02*
X0071100Y0137059D01*
X0075680Y0137059D02*
X0092167Y0137059D01*
X0094605Y0137059D02*
X0129815Y0137059D01*
X0030159Y0137658D02*
X0020345Y0137658D01*
X0034739Y0137658D02*
X0058352Y0137658D01*
X0065002Y0137658D02*
X0065836Y0137658D01*
X0069085Y0137658D02*
X0071647Y0137658D01*
X0075132Y0137658D02*
X0129655Y0137658D01*
X0030159Y0138256D02*
X0020506Y0138256D01*
X0034739Y0138256D02*
X0057753Y0138256D01*
X0064404Y0138256D02*
X0066435Y0138256D01*
X0068486Y0138256D02*
X0072246Y0138256D01*
X0074534Y0138256D02*
X0129494Y0138256D01*
X0030159Y0138855D02*
X0020599Y0138855D01*
X0034739Y0138855D02*
X0057655Y0138855D01*
X0062235Y0138855D02*
X0129401Y0138855D01*
X0030262Y0139453D02*
X0020599Y0139453D01*
X0034636Y0139453D02*
X0057655Y0139453D01*
X0062235Y0139453D02*
X0129401Y0139453D01*
X0030860Y0140052D02*
X0020599Y0140052D01*
X0034037Y0140052D02*
X0046541Y0140052D01*
X0049263Y0140052D02*
X0057655Y0140052D01*
X0062235Y0140052D02*
X0129401Y0140052D01*
X0031459Y0140650D02*
X0020599Y0140650D01*
X0033439Y0140650D02*
X0034277Y0140650D01*
X0037030Y0140650D02*
X0045942Y0140650D01*
X0049861Y0140650D02*
X0058053Y0140650D01*
X0061836Y0140650D02*
X0129401Y0140650D01*
X0033678Y0141249D02*
X0020599Y0141249D01*
X0037629Y0141249D02*
X0045612Y0141249D01*
X0050192Y0141249D02*
X0058652Y0141249D01*
X0061238Y0141249D02*
X0129401Y0141249D01*
X0033364Y0141847D02*
X0020478Y0141847D01*
X0037944Y0141847D02*
X0045612Y0141847D01*
X0050192Y0141847D02*
X0129522Y0141847D01*
X0033364Y0142446D02*
X0020318Y0142446D01*
X0037944Y0142446D02*
X0045612Y0142446D01*
X0050192Y0142446D02*
X0129682Y0142446D01*
X0033364Y0143044D02*
X0020157Y0143044D01*
X0037944Y0143044D02*
X0045778Y0143044D01*
X0050025Y0143044D02*
X0076835Y0143044D01*
X0079787Y0143044D02*
X0129843Y0143044D01*
X0033546Y0143643D02*
X0019997Y0143643D01*
X0037761Y0143643D02*
X0046377Y0143643D01*
X0049427Y0143643D02*
X0076237Y0143643D01*
X0080385Y0143643D02*
X0130003Y0143643D01*
X0034144Y0144241D02*
X0019790Y0144241D01*
X0037163Y0144241D02*
X0076021Y0144241D01*
X0080601Y0144241D02*
X0130210Y0144241D01*
X0076021Y0144840D02*
X0019445Y0144840D01*
X0080601Y0144840D02*
X0130555Y0144840D01*
X0076021Y0145438D02*
X0046233Y0145438D01*
X0080601Y0145438D02*
X0103767Y0145438D01*
X0076302Y0146037D02*
X0048075Y0146037D01*
X0080320Y0146037D02*
X0101925Y0146037D01*
X0076901Y0146635D02*
X0049316Y0146635D01*
X0079721Y0146635D02*
X0100684Y0146635D01*
X0084016Y0147234D02*
X0050140Y0147234D01*
X0085984Y0147234D02*
X0099860Y0147234D01*
X0083417Y0147832D02*
X0050963Y0147832D01*
X0086583Y0147832D02*
X0099037Y0147832D01*
X0075504Y0148431D02*
X0051728Y0148431D01*
X0077567Y0148431D02*
X0082819Y0148431D01*
X0087181Y0148431D02*
X0098272Y0148431D01*
X0059185Y0149029D02*
X0052162Y0149029D01*
X0061248Y0149029D02*
X0074905Y0149029D01*
X0078166Y0149029D02*
X0082710Y0149029D01*
X0087290Y0149029D02*
X0097838Y0149029D01*
X0058586Y0149628D02*
X0052597Y0149628D01*
X0061847Y0149628D02*
X0074307Y0149628D01*
X0078764Y0149628D02*
X0082710Y0149628D01*
X0087290Y0149628D02*
X0097403Y0149628D01*
X0057988Y0150226D02*
X0053032Y0150226D01*
X0062445Y0150226D02*
X0074245Y0150226D01*
X0078825Y0150226D02*
X0082710Y0150226D01*
X0087290Y0150226D02*
X0096968Y0150226D01*
X0057927Y0150825D02*
X0053467Y0150825D01*
X0062507Y0150825D02*
X0074245Y0150825D01*
X0078825Y0150825D02*
X0083098Y0150825D01*
X0086902Y0150825D02*
X0096533Y0150825D01*
X0057927Y0151423D02*
X0053800Y0151423D01*
X0062507Y0151423D02*
X0074245Y0151423D01*
X0078825Y0151423D02*
X0083697Y0151423D01*
X0086303Y0151423D02*
X0096200Y0151423D01*
X0057927Y0152022D02*
X0053995Y0152022D01*
X0062507Y0152022D02*
X0074681Y0152022D01*
X0078390Y0152022D02*
X0096005Y0152022D01*
X0058362Y0152620D02*
X0054189Y0152620D01*
X0062071Y0152620D02*
X0073117Y0152620D01*
X0077791Y0152620D02*
X0095811Y0152620D01*
X0058961Y0153219D02*
X0054384Y0153219D01*
X0061472Y0153219D02*
X0072519Y0153219D01*
X0076182Y0153219D02*
X0095616Y0153219D01*
X0072060Y0153817D02*
X0054578Y0153817D01*
X0076640Y0153817D02*
X0095422Y0153817D01*
X0072060Y0154416D02*
X0054773Y0154416D01*
X0076640Y0154416D02*
X0095227Y0154416D01*
X0072060Y0155014D02*
X0054800Y0155014D01*
X0076640Y0155014D02*
X0095200Y0155014D01*
X0072099Y0155613D02*
X0054800Y0155613D01*
X0076602Y0155613D02*
X0095200Y0155613D01*
X0072697Y0156211D02*
X0054800Y0156211D01*
X0076003Y0156211D02*
X0095200Y0156211D01*
X0073296Y0156810D02*
X0054800Y0156810D01*
X0075405Y0156810D02*
X0095200Y0156810D01*
X0095200Y0157408D02*
X0054800Y0157408D01*
X0054800Y0158007D02*
X0095200Y0158007D01*
X0095200Y0158605D02*
X0054800Y0158605D01*
X0054800Y0159204D02*
X0095200Y0159204D01*
X0095200Y0159803D02*
X0054800Y0159803D01*
X0054800Y0160401D02*
X0095200Y0160401D01*
X0095200Y0161000D02*
X0054800Y0161000D01*
X0054800Y0161598D02*
X0095200Y0161598D01*
X0095200Y0162197D02*
X0054800Y0162197D01*
X0054800Y0162795D02*
X0095200Y0162795D01*
X0095200Y0163394D02*
X0054800Y0163394D01*
X0054800Y0163992D02*
X0095200Y0163992D01*
X0095200Y0164591D02*
X0054800Y0164591D01*
X0054800Y0165189D02*
X0095200Y0165189D01*
X0095200Y0165788D02*
X0054800Y0165788D01*
X0054800Y0166386D02*
X0095200Y0166386D01*
X0095200Y0166985D02*
X0054800Y0166985D01*
X0054800Y0167583D02*
X0095200Y0167583D01*
X0095200Y0168182D02*
X0054800Y0168182D01*
X0054800Y0168780D02*
X0095200Y0168780D01*
X0095200Y0169379D02*
X0054800Y0169379D01*
X0054800Y0169977D02*
X0073950Y0169977D01*
X0076129Y0169977D02*
X0095200Y0169977D01*
X0073351Y0170576D02*
X0054800Y0170576D01*
X0076728Y0170576D02*
X0095200Y0170576D01*
X0072753Y0171174D02*
X0054800Y0171174D01*
X0077326Y0171174D02*
X0095200Y0171174D01*
X0072749Y0171773D02*
X0054800Y0171773D01*
X0077329Y0171773D02*
X0095200Y0171773D01*
X0072749Y0172371D02*
X0054800Y0172371D01*
X0077329Y0172371D02*
X0095200Y0172371D01*
X0072749Y0172970D02*
X0054800Y0172970D01*
X0077329Y0172970D02*
X0095200Y0172970D01*
X0073243Y0173568D02*
X0054800Y0173568D01*
X0076836Y0173568D02*
X0095200Y0173568D01*
X0073842Y0174167D02*
X0054800Y0174167D01*
X0076237Y0174167D02*
X0095200Y0174167D01*
X0095200Y0174765D02*
X0054800Y0174765D01*
X0054800Y0175364D02*
X0095200Y0175364D01*
X0095200Y0175962D02*
X0054800Y0175962D01*
X0054800Y0176561D02*
X0095200Y0176561D01*
X0095200Y0177159D02*
X0054800Y0177159D01*
X0054800Y0177758D02*
X0095200Y0177758D01*
X0095200Y0178356D02*
X0054800Y0178356D01*
X0054800Y0178955D02*
X0095200Y0178955D01*
X0095200Y0179553D02*
X0054800Y0179553D01*
X0054800Y0180152D02*
X0095200Y0180152D01*
X0095200Y0180750D02*
X0054800Y0180750D01*
X0054800Y0181349D02*
X0095200Y0181349D01*
X0095200Y0181947D02*
X0054800Y0181947D01*
X0054800Y0182546D02*
X0095200Y0182546D01*
X0095200Y0183144D02*
X0054800Y0183144D01*
X0054800Y0183743D02*
X0095200Y0183743D01*
X0095200Y0184341D02*
X0054800Y0184341D01*
X0054800Y0184940D02*
X0095200Y0184940D01*
X0095200Y0185539D02*
X0054800Y0185539D01*
X0054800Y0186137D02*
X0095200Y0186137D01*
X0095200Y0186736D02*
X0054800Y0186736D01*
X0054800Y0187334D02*
X0095200Y0187334D01*
X0095200Y0187933D02*
X0054800Y0187933D01*
X0054800Y0188531D02*
X0095200Y0188531D01*
X0095200Y0189130D02*
X0054800Y0189130D01*
X0054800Y0189728D02*
X0095200Y0189728D01*
X0095200Y0190327D02*
X0054800Y0190327D01*
X0054800Y0190925D02*
X0095200Y0190925D01*
X0095200Y0191524D02*
X0054800Y0191524D01*
X0054800Y0192122D02*
X0095200Y0192122D01*
X0095200Y0192721D02*
X0054800Y0192721D01*
X0054800Y0193319D02*
X0095200Y0193319D01*
X0095200Y0193918D02*
X0054800Y0193918D01*
X0054800Y0194516D02*
X0095200Y0194516D01*
X0064678Y0195115D02*
X0054800Y0195115D01*
X0064875Y0195115D02*
X0085125Y0195115D01*
X0085322Y0195115D02*
X0095200Y0195115D01*
X0062407Y0195713D02*
X0054800Y0195713D01*
X0087593Y0195713D02*
X0095200Y0195713D01*
X0060771Y0196312D02*
X0054800Y0196312D01*
X0089229Y0196312D02*
X0095200Y0196312D01*
X0059841Y0196910D02*
X0054800Y0196910D01*
X0090159Y0196910D02*
X0095200Y0196910D01*
D14*
X0067813Y0112661D03*
M02*
