G75*
%MOIN*%
%OFA0B0*%
%FSLAX25Y25*%
%IPPOS*%
%LPD*%
%AMOC8*
5,1,8,0,0,1.08239X$1,22.5*
%
%ADD10R,0.02756X0.03543*%
%ADD11R,0.02756X0.01969*%
%ADD12C,0.00630*%
%ADD13C,0.00118*%
%ADD14R,0.01772X0.01772*%
%ADD15R,0.08268X0.07874*%
%ADD16R,0.06299X0.07480*%
%ADD17R,0.01575X0.05315*%
%ADD18R,0.01181X0.03150*%
%ADD19R,0.09449X0.08661*%
%ADD20R,0.05118X0.03346*%
%ADD21R,0.06693X0.03937*%
%ADD22R,0.01181X0.01969*%
%ADD23R,0.03937X0.06693*%
%ADD24R,0.01969X0.01181*%
%ADD25R,0.02362X0.01575*%
%ADD26C,0.01181*%
%ADD27R,0.00394X0.00394*%
%ADD28R,0.01969X0.02756*%
%ADD29R,0.10000X0.04000*%
%ADD30R,0.02756X0.03150*%
%ADD31C,0.00787*%
%ADD32R,0.19094X0.19094*%
%ADD33R,0.05118X0.08661*%
%ADD34C,0.00787*%
%ADD35R,0.01575X0.00984*%
%ADD36R,0.01575X0.02756*%
%ADD37R,0.00984X0.01575*%
%ADD38R,0.02756X0.01575*%
%ADD39R,0.05512X0.05512*%
%ADD40C,0.01000*%
%ADD41C,0.02800*%
%ADD42C,0.00600*%
%ADD43C,0.00500*%
%ADD44C,0.02780*%
%ADD45C,0.02900*%
%ADD46C,0.01600*%
%ADD47C,0.01400*%
%ADD48C,0.04000*%
D10*
X0015030Y0023357D03*
X0009912Y0023357D03*
X0062017Y0082949D03*
X0067135Y0082949D03*
X0061717Y0067959D03*
X0066835Y0067959D03*
X0061623Y0077011D03*
X0066741Y0077011D03*
X0061671Y0072272D03*
X0066789Y0072272D03*
X0014677Y0048157D03*
X0009559Y0048157D03*
D11*
X0034734Y0038469D03*
X0034734Y0035319D03*
X0025588Y0038851D03*
X0025588Y0035701D03*
X0102131Y0117510D03*
X0102131Y0114361D03*
X0114302Y0112412D03*
X0114302Y0109263D03*
X0104111Y0097286D03*
X0104111Y0094137D03*
X0114850Y0097286D03*
X0114850Y0094136D03*
X0066013Y0121336D03*
X0066013Y0118187D03*
X0087413Y0061037D03*
X0087413Y0064186D03*
X0100725Y0070420D03*
X0100725Y0073569D03*
X0096223Y0112315D03*
X0096223Y0109166D03*
X0078420Y0109346D03*
X0078420Y0112496D03*
X0075813Y0121336D03*
X0075813Y0118187D03*
X0070813Y0121336D03*
X0070813Y0118187D03*
X0091351Y0114520D03*
X0091351Y0111370D03*
X0119923Y0091016D03*
X0119923Y0094165D03*
X0115823Y0130563D03*
X0115823Y0133713D03*
X0108724Y0130583D03*
X0108724Y0133732D03*
X0112445Y0130567D03*
X0112445Y0133717D03*
X0106693Y0071260D03*
X0106693Y0074409D03*
X0110236Y0071654D03*
X0110236Y0074803D03*
X0086697Y0050602D03*
X0086697Y0047453D03*
X0075642Y0039008D03*
X0075642Y0042157D03*
X0067445Y0142043D03*
X0067445Y0138894D03*
X0085217Y0136512D03*
X0085217Y0133362D03*
X0033248Y0061693D03*
X0033248Y0058543D03*
X0024776Y0061571D03*
X0024776Y0058421D03*
D12*
X0018545Y0027448D02*
X0012877Y0027448D01*
X0012877Y0036266D01*
X0018545Y0036266D01*
X0018545Y0027448D01*
X0018545Y0028077D02*
X0012877Y0028077D01*
X0012877Y0028706D02*
X0018545Y0028706D01*
X0018545Y0029335D02*
X0012877Y0029335D01*
X0012877Y0029964D02*
X0018545Y0029964D01*
X0018545Y0030593D02*
X0012877Y0030593D01*
X0012877Y0031222D02*
X0018545Y0031222D01*
X0018545Y0031851D02*
X0012877Y0031851D01*
X0012877Y0032480D02*
X0018545Y0032480D01*
X0018545Y0033109D02*
X0012877Y0033109D01*
X0012877Y0033738D02*
X0018545Y0033738D01*
X0018545Y0034367D02*
X0012877Y0034367D01*
X0012877Y0034996D02*
X0018545Y0034996D01*
X0018545Y0035625D02*
X0012877Y0035625D01*
X0012877Y0036254D02*
X0018545Y0036254D01*
X0018317Y0052737D02*
X0012649Y0052737D01*
X0012649Y0061555D01*
X0018317Y0061555D01*
X0018317Y0052737D01*
X0018317Y0053366D02*
X0012649Y0053366D01*
X0012649Y0053995D02*
X0018317Y0053995D01*
X0018317Y0054624D02*
X0012649Y0054624D01*
X0012649Y0055253D02*
X0018317Y0055253D01*
X0018317Y0055882D02*
X0012649Y0055882D01*
X0012649Y0056511D02*
X0018317Y0056511D01*
X0018317Y0057140D02*
X0012649Y0057140D01*
X0012649Y0057769D02*
X0018317Y0057769D01*
X0018317Y0058398D02*
X0012649Y0058398D01*
X0012649Y0059027D02*
X0018317Y0059027D01*
X0018317Y0059656D02*
X0012649Y0059656D01*
X0012649Y0060285D02*
X0018317Y0060285D01*
X0018317Y0060914D02*
X0012649Y0060914D01*
X0012649Y0061543D02*
X0018317Y0061543D01*
D13*
X0010731Y0035165D02*
X0008881Y0035165D01*
X0008881Y0036227D01*
X0010731Y0036227D01*
X0010731Y0035165D01*
X0010731Y0035282D02*
X0008881Y0035282D01*
X0008881Y0035399D02*
X0010731Y0035399D01*
X0010731Y0035516D02*
X0008881Y0035516D01*
X0008881Y0035633D02*
X0010731Y0035633D01*
X0010731Y0035750D02*
X0008881Y0035750D01*
X0008881Y0035867D02*
X0010731Y0035867D01*
X0010731Y0035984D02*
X0008881Y0035984D01*
X0008881Y0036101D02*
X0010731Y0036101D01*
X0010731Y0036218D02*
X0008881Y0036218D01*
X0010731Y0032606D02*
X0008881Y0032606D01*
X0008881Y0033668D01*
X0010731Y0033668D01*
X0010731Y0032606D01*
X0010731Y0032723D02*
X0008881Y0032723D01*
X0008881Y0032840D02*
X0010731Y0032840D01*
X0010731Y0032957D02*
X0008881Y0032957D01*
X0008881Y0033074D02*
X0010731Y0033074D01*
X0010731Y0033191D02*
X0008881Y0033191D01*
X0008881Y0033308D02*
X0010731Y0033308D01*
X0010731Y0033425D02*
X0008881Y0033425D01*
X0008881Y0033542D02*
X0010731Y0033542D01*
X0010731Y0033659D02*
X0008881Y0033659D01*
X0010731Y0030047D02*
X0008881Y0030047D01*
X0008881Y0031109D01*
X0010731Y0031109D01*
X0010731Y0030047D01*
X0010731Y0030164D02*
X0008881Y0030164D01*
X0008881Y0030281D02*
X0010731Y0030281D01*
X0010731Y0030398D02*
X0008881Y0030398D01*
X0008881Y0030515D02*
X0010731Y0030515D01*
X0010731Y0030632D02*
X0008881Y0030632D01*
X0008881Y0030749D02*
X0010731Y0030749D01*
X0010731Y0030866D02*
X0008881Y0030866D01*
X0008881Y0030983D02*
X0010731Y0030983D01*
X0010731Y0031100D02*
X0008881Y0031100D01*
X0010731Y0027488D02*
X0008881Y0027488D01*
X0008881Y0028550D01*
X0010731Y0028550D01*
X0010731Y0027488D01*
X0010731Y0027605D02*
X0008881Y0027605D01*
X0008881Y0027722D02*
X0010731Y0027722D01*
X0010731Y0027839D02*
X0008881Y0027839D01*
X0008881Y0027956D02*
X0010731Y0027956D01*
X0010731Y0028073D02*
X0008881Y0028073D01*
X0008881Y0028190D02*
X0010731Y0028190D01*
X0010731Y0028307D02*
X0008881Y0028307D01*
X0008881Y0028424D02*
X0010731Y0028424D01*
X0010731Y0028541D02*
X0008881Y0028541D01*
X0022542Y0027488D02*
X0020692Y0027488D01*
X0020692Y0028550D01*
X0022542Y0028550D01*
X0022542Y0027488D01*
X0022542Y0027605D02*
X0020692Y0027605D01*
X0020692Y0027722D02*
X0022542Y0027722D01*
X0022542Y0027839D02*
X0020692Y0027839D01*
X0020692Y0027956D02*
X0022542Y0027956D01*
X0022542Y0028073D02*
X0020692Y0028073D01*
X0020692Y0028190D02*
X0022542Y0028190D01*
X0022542Y0028307D02*
X0020692Y0028307D01*
X0020692Y0028424D02*
X0022542Y0028424D01*
X0022542Y0028541D02*
X0020692Y0028541D01*
X0022542Y0030047D02*
X0020692Y0030047D01*
X0020692Y0031109D01*
X0022542Y0031109D01*
X0022542Y0030047D01*
X0022542Y0030164D02*
X0020692Y0030164D01*
X0020692Y0030281D02*
X0022542Y0030281D01*
X0022542Y0030398D02*
X0020692Y0030398D01*
X0020692Y0030515D02*
X0022542Y0030515D01*
X0022542Y0030632D02*
X0020692Y0030632D01*
X0020692Y0030749D02*
X0022542Y0030749D01*
X0022542Y0030866D02*
X0020692Y0030866D01*
X0020692Y0030983D02*
X0022542Y0030983D01*
X0022542Y0031100D02*
X0020692Y0031100D01*
X0022542Y0032606D02*
X0020692Y0032606D01*
X0020692Y0033668D01*
X0022542Y0033668D01*
X0022542Y0032606D01*
X0022542Y0032723D02*
X0020692Y0032723D01*
X0020692Y0032840D02*
X0022542Y0032840D01*
X0022542Y0032957D02*
X0020692Y0032957D01*
X0020692Y0033074D02*
X0022542Y0033074D01*
X0022542Y0033191D02*
X0020692Y0033191D01*
X0020692Y0033308D02*
X0022542Y0033308D01*
X0022542Y0033425D02*
X0020692Y0033425D01*
X0020692Y0033542D02*
X0022542Y0033542D01*
X0022542Y0033659D02*
X0020692Y0033659D01*
X0022542Y0035165D02*
X0020692Y0035165D01*
X0020692Y0036227D01*
X0022542Y0036227D01*
X0022542Y0035165D01*
X0022542Y0035282D02*
X0020692Y0035282D01*
X0020692Y0035399D02*
X0022542Y0035399D01*
X0022542Y0035516D02*
X0020692Y0035516D01*
X0020692Y0035633D02*
X0022542Y0035633D01*
X0022542Y0035750D02*
X0020692Y0035750D01*
X0020692Y0035867D02*
X0022542Y0035867D01*
X0022542Y0035984D02*
X0020692Y0035984D01*
X0020692Y0036101D02*
X0022542Y0036101D01*
X0022542Y0036218D02*
X0020692Y0036218D01*
X0010503Y0060453D02*
X0008653Y0060453D01*
X0008653Y0061515D01*
X0010503Y0061515D01*
X0010503Y0060453D01*
X0010503Y0060570D02*
X0008653Y0060570D01*
X0008653Y0060687D02*
X0010503Y0060687D01*
X0010503Y0060804D02*
X0008653Y0060804D01*
X0008653Y0060921D02*
X0010503Y0060921D01*
X0010503Y0061038D02*
X0008653Y0061038D01*
X0008653Y0061155D02*
X0010503Y0061155D01*
X0010503Y0061272D02*
X0008653Y0061272D01*
X0008653Y0061389D02*
X0010503Y0061389D01*
X0010503Y0061506D02*
X0008653Y0061506D01*
X0010503Y0057894D02*
X0008653Y0057894D01*
X0008653Y0058956D01*
X0010503Y0058956D01*
X0010503Y0057894D01*
X0010503Y0058011D02*
X0008653Y0058011D01*
X0008653Y0058128D02*
X0010503Y0058128D01*
X0010503Y0058245D02*
X0008653Y0058245D01*
X0008653Y0058362D02*
X0010503Y0058362D01*
X0010503Y0058479D02*
X0008653Y0058479D01*
X0008653Y0058596D02*
X0010503Y0058596D01*
X0010503Y0058713D02*
X0008653Y0058713D01*
X0008653Y0058830D02*
X0010503Y0058830D01*
X0010503Y0058947D02*
X0008653Y0058947D01*
X0010503Y0055335D02*
X0008653Y0055335D01*
X0008653Y0056397D01*
X0010503Y0056397D01*
X0010503Y0055335D01*
X0010503Y0055452D02*
X0008653Y0055452D01*
X0008653Y0055569D02*
X0010503Y0055569D01*
X0010503Y0055686D02*
X0008653Y0055686D01*
X0008653Y0055803D02*
X0010503Y0055803D01*
X0010503Y0055920D02*
X0008653Y0055920D01*
X0008653Y0056037D02*
X0010503Y0056037D01*
X0010503Y0056154D02*
X0008653Y0056154D01*
X0008653Y0056271D02*
X0010503Y0056271D01*
X0010503Y0056388D02*
X0008653Y0056388D01*
X0010503Y0052776D02*
X0008653Y0052776D01*
X0008653Y0053838D01*
X0010503Y0053838D01*
X0010503Y0052776D01*
X0010503Y0052893D02*
X0008653Y0052893D01*
X0008653Y0053010D02*
X0010503Y0053010D01*
X0010503Y0053127D02*
X0008653Y0053127D01*
X0008653Y0053244D02*
X0010503Y0053244D01*
X0010503Y0053361D02*
X0008653Y0053361D01*
X0008653Y0053478D02*
X0010503Y0053478D01*
X0010503Y0053595D02*
X0008653Y0053595D01*
X0008653Y0053712D02*
X0010503Y0053712D01*
X0010503Y0053829D02*
X0008653Y0053829D01*
X0022314Y0052776D02*
X0020464Y0052776D01*
X0020464Y0053838D01*
X0022314Y0053838D01*
X0022314Y0052776D01*
X0022314Y0052893D02*
X0020464Y0052893D01*
X0020464Y0053010D02*
X0022314Y0053010D01*
X0022314Y0053127D02*
X0020464Y0053127D01*
X0020464Y0053244D02*
X0022314Y0053244D01*
X0022314Y0053361D02*
X0020464Y0053361D01*
X0020464Y0053478D02*
X0022314Y0053478D01*
X0022314Y0053595D02*
X0020464Y0053595D01*
X0020464Y0053712D02*
X0022314Y0053712D01*
X0022314Y0053829D02*
X0020464Y0053829D01*
X0022314Y0055335D02*
X0020464Y0055335D01*
X0020464Y0056397D01*
X0022314Y0056397D01*
X0022314Y0055335D01*
X0022314Y0055452D02*
X0020464Y0055452D01*
X0020464Y0055569D02*
X0022314Y0055569D01*
X0022314Y0055686D02*
X0020464Y0055686D01*
X0020464Y0055803D02*
X0022314Y0055803D01*
X0022314Y0055920D02*
X0020464Y0055920D01*
X0020464Y0056037D02*
X0022314Y0056037D01*
X0022314Y0056154D02*
X0020464Y0056154D01*
X0020464Y0056271D02*
X0022314Y0056271D01*
X0022314Y0056388D02*
X0020464Y0056388D01*
X0022314Y0057894D02*
X0020464Y0057894D01*
X0020464Y0058956D01*
X0022314Y0058956D01*
X0022314Y0057894D01*
X0022314Y0058011D02*
X0020464Y0058011D01*
X0020464Y0058128D02*
X0022314Y0058128D01*
X0022314Y0058245D02*
X0020464Y0058245D01*
X0020464Y0058362D02*
X0022314Y0058362D01*
X0022314Y0058479D02*
X0020464Y0058479D01*
X0020464Y0058596D02*
X0022314Y0058596D01*
X0022314Y0058713D02*
X0020464Y0058713D01*
X0020464Y0058830D02*
X0022314Y0058830D01*
X0022314Y0058947D02*
X0020464Y0058947D01*
X0022314Y0060453D02*
X0020464Y0060453D01*
X0020464Y0061515D01*
X0022314Y0061515D01*
X0022314Y0060453D01*
X0022314Y0060570D02*
X0020464Y0060570D01*
X0020464Y0060687D02*
X0022314Y0060687D01*
X0022314Y0060804D02*
X0020464Y0060804D01*
X0020464Y0060921D02*
X0022314Y0060921D01*
X0022314Y0061038D02*
X0020464Y0061038D01*
X0020464Y0061155D02*
X0022314Y0061155D01*
X0022314Y0061272D02*
X0020464Y0061272D01*
X0020464Y0061389D02*
X0022314Y0061389D01*
X0022314Y0061506D02*
X0020464Y0061506D01*
D14*
X0115810Y0141579D03*
X0115810Y0138232D03*
X0112463Y0138232D03*
X0112463Y0141579D03*
D15*
X0063189Y0019970D03*
X0087598Y0019970D03*
D16*
X0059252Y0010718D03*
X0091535Y0010718D03*
D17*
X0070276Y0021250D03*
X0072835Y0021250D03*
X0075394Y0021250D03*
X0077953Y0021250D03*
X0080512Y0021250D03*
D18*
X0081890Y0165157D03*
X0079921Y0165157D03*
X0077953Y0165157D03*
X0075984Y0165157D03*
X0074016Y0165157D03*
X0072047Y0165157D03*
X0070079Y0165157D03*
X0068110Y0165157D03*
D19*
X0091535Y0171457D03*
X0058465Y0171457D03*
D20*
X0089370Y0177461D03*
X0060630Y0177461D03*
D21*
X0045673Y0134217D03*
D22*
X0042720Y0130476D03*
X0044689Y0130476D03*
X0046657Y0130476D03*
X0048626Y0130476D03*
X0048626Y0137957D03*
X0046657Y0137957D03*
X0044689Y0137957D03*
X0042720Y0137957D03*
D23*
X0067610Y0149583D03*
X0085390Y0143846D03*
D24*
X0071350Y0146630D03*
X0071350Y0148598D03*
X0071350Y0150567D03*
X0071350Y0152535D03*
X0063870Y0152535D03*
X0063870Y0150567D03*
X0063870Y0148598D03*
X0063870Y0146630D03*
X0089130Y0140894D03*
X0089130Y0142862D03*
X0089130Y0144831D03*
X0089130Y0146799D03*
X0081650Y0146799D03*
X0081650Y0144831D03*
X0081650Y0142862D03*
X0081650Y0140894D03*
D25*
X0125768Y0120559D03*
X0125768Y0118000D03*
X0125768Y0115441D03*
X0134232Y0115441D03*
X0134232Y0118000D03*
X0134232Y0120559D03*
D26*
X0127343Y0125579D02*
X0127345Y0125682D01*
X0127351Y0125785D01*
X0127361Y0125887D01*
X0127375Y0125990D01*
X0127393Y0126091D01*
X0127415Y0126192D01*
X0127440Y0126292D01*
X0127470Y0126390D01*
X0127503Y0126488D01*
X0127540Y0126584D01*
X0127581Y0126678D01*
X0127626Y0126771D01*
X0127674Y0126863D01*
X0127725Y0126952D01*
X0127780Y0127039D01*
X0127838Y0127124D01*
X0127900Y0127207D01*
X0127965Y0127287D01*
X0128032Y0127365D01*
X0128103Y0127439D01*
X0128177Y0127512D01*
X0128253Y0127581D01*
X0128332Y0127647D01*
X0128413Y0127710D01*
X0128497Y0127770D01*
X0128583Y0127827D01*
X0128671Y0127880D01*
X0128762Y0127930D01*
X0128854Y0127976D01*
X0128948Y0128019D01*
X0129043Y0128058D01*
X0129140Y0128093D01*
X0129238Y0128124D01*
X0129337Y0128152D01*
X0129438Y0128176D01*
X0129539Y0128196D01*
X0129640Y0128212D01*
X0129743Y0128224D01*
X0129846Y0128232D01*
X0129948Y0128236D01*
X0130052Y0128236D01*
X0130154Y0128232D01*
X0130257Y0128224D01*
X0130360Y0128212D01*
X0130461Y0128196D01*
X0130562Y0128176D01*
X0130663Y0128152D01*
X0130762Y0128124D01*
X0130860Y0128093D01*
X0130957Y0128058D01*
X0131052Y0128019D01*
X0131146Y0127976D01*
X0131238Y0127930D01*
X0131328Y0127880D01*
X0131417Y0127827D01*
X0131503Y0127770D01*
X0131587Y0127710D01*
X0131668Y0127647D01*
X0131747Y0127581D01*
X0131823Y0127512D01*
X0131897Y0127439D01*
X0131968Y0127365D01*
X0132035Y0127287D01*
X0132100Y0127207D01*
X0132162Y0127124D01*
X0132220Y0127039D01*
X0132275Y0126952D01*
X0132326Y0126863D01*
X0132374Y0126771D01*
X0132419Y0126678D01*
X0132460Y0126584D01*
X0132497Y0126488D01*
X0132530Y0126390D01*
X0132560Y0126292D01*
X0132585Y0126192D01*
X0132607Y0126091D01*
X0132625Y0125990D01*
X0132639Y0125887D01*
X0132649Y0125785D01*
X0132655Y0125682D01*
X0132657Y0125579D01*
X0132655Y0125476D01*
X0132649Y0125373D01*
X0132639Y0125271D01*
X0132625Y0125168D01*
X0132607Y0125067D01*
X0132585Y0124966D01*
X0132560Y0124866D01*
X0132530Y0124768D01*
X0132497Y0124670D01*
X0132460Y0124574D01*
X0132419Y0124480D01*
X0132374Y0124387D01*
X0132326Y0124295D01*
X0132275Y0124206D01*
X0132220Y0124119D01*
X0132162Y0124034D01*
X0132100Y0123951D01*
X0132035Y0123871D01*
X0131968Y0123793D01*
X0131897Y0123719D01*
X0131823Y0123646D01*
X0131747Y0123577D01*
X0131668Y0123511D01*
X0131587Y0123448D01*
X0131503Y0123388D01*
X0131417Y0123331D01*
X0131329Y0123278D01*
X0131238Y0123228D01*
X0131146Y0123182D01*
X0131052Y0123139D01*
X0130957Y0123100D01*
X0130860Y0123065D01*
X0130762Y0123034D01*
X0130663Y0123006D01*
X0130562Y0122982D01*
X0130461Y0122962D01*
X0130360Y0122946D01*
X0130257Y0122934D01*
X0130154Y0122926D01*
X0130052Y0122922D01*
X0129948Y0122922D01*
X0129846Y0122926D01*
X0129743Y0122934D01*
X0129640Y0122946D01*
X0129539Y0122962D01*
X0129438Y0122982D01*
X0129337Y0123006D01*
X0129238Y0123034D01*
X0129140Y0123065D01*
X0129043Y0123100D01*
X0128948Y0123139D01*
X0128854Y0123182D01*
X0128762Y0123228D01*
X0128672Y0123278D01*
X0128583Y0123331D01*
X0128497Y0123388D01*
X0128413Y0123448D01*
X0128332Y0123511D01*
X0128253Y0123577D01*
X0128177Y0123646D01*
X0128103Y0123719D01*
X0128032Y0123793D01*
X0127965Y0123871D01*
X0127900Y0123951D01*
X0127838Y0124034D01*
X0127780Y0124119D01*
X0127725Y0124206D01*
X0127674Y0124295D01*
X0127626Y0124387D01*
X0127581Y0124480D01*
X0127540Y0124574D01*
X0127503Y0124670D01*
X0127470Y0124768D01*
X0127440Y0124866D01*
X0127415Y0124966D01*
X0127393Y0125067D01*
X0127375Y0125168D01*
X0127361Y0125271D01*
X0127351Y0125373D01*
X0127345Y0125476D01*
X0127343Y0125579D01*
D27*
X0130000Y0128236D03*
X0130000Y0122724D03*
X0132756Y0125480D03*
X0127244Y0125874D03*
D28*
X0128913Y0108461D03*
X0125764Y0108461D03*
X0106123Y0090346D03*
X0102973Y0090346D03*
X0055112Y0111785D03*
X0051963Y0111785D03*
X0061069Y0111761D03*
X0064219Y0111761D03*
X0113323Y0104410D03*
X0110173Y0104410D03*
X0108293Y0094134D03*
X0111443Y0094134D03*
X0024433Y0028055D03*
X0027583Y0028055D03*
X0062976Y0058799D03*
X0059827Y0058799D03*
X0062992Y0062181D03*
X0059843Y0062181D03*
X0067130Y0038551D03*
X0070280Y0038551D03*
X0038433Y0134303D03*
X0035283Y0134303D03*
X0024720Y0053295D03*
X0027870Y0053295D03*
D29*
X0140225Y0094174D03*
X0140225Y0068174D03*
D30*
X0109902Y0114372D03*
X0105965Y0114372D03*
X0109902Y0109254D03*
X0105965Y0109254D03*
D31*
X0083461Y0103657D03*
X0085429Y0103657D03*
X0081492Y0103657D03*
X0086413Y0101688D03*
X0084445Y0101688D03*
X0082476Y0101688D03*
X0080508Y0101688D03*
X0078539Y0101688D03*
X0076571Y0101688D03*
X0073618Y0101688D03*
X0073618Y0099720D03*
X0075587Y0098735D03*
X0075587Y0096767D03*
X0073618Y0095783D03*
X0075587Y0094798D03*
X0073618Y0093814D03*
X0075587Y0092830D03*
X0073618Y0091846D03*
X0075587Y0090861D03*
X0073618Y0089877D03*
X0075587Y0088893D03*
X0073618Y0087909D03*
X0075587Y0086924D03*
X0073618Y0085940D03*
X0073618Y0083972D03*
X0075587Y0082987D03*
X0075587Y0081019D03*
X0086413Y0080035D03*
X0084445Y0080035D03*
X0082476Y0080035D03*
X0078539Y0080035D03*
X0077555Y0078066D03*
X0075587Y0078066D03*
X0079524Y0078066D03*
X0081492Y0078066D03*
X0083461Y0078066D03*
X0085429Y0078066D03*
X0087398Y0078066D03*
X0088382Y0080035D03*
X0089366Y0078066D03*
X0090350Y0080035D03*
X0091335Y0078066D03*
X0092319Y0080035D03*
X0093303Y0078066D03*
X0094287Y0080035D03*
X0095272Y0078066D03*
X0097240Y0078066D03*
X0099209Y0080035D03*
X0099209Y0082003D03*
X0097240Y0082987D03*
X0099209Y0083972D03*
X0097240Y0084956D03*
X0099209Y0085940D03*
X0097240Y0086924D03*
X0099209Y0087909D03*
X0097240Y0088893D03*
X0099209Y0089877D03*
X0099209Y0091846D03*
X0099209Y0093814D03*
X0097240Y0094798D03*
X0097240Y0096767D03*
X0099209Y0097751D03*
X0097240Y0098735D03*
X0099209Y0101688D03*
X0097240Y0103657D03*
X0095272Y0103657D03*
X0093303Y0103657D03*
X0091335Y0103657D03*
X0089366Y0103657D03*
X0087398Y0103657D03*
X0088382Y0101688D03*
X0090350Y0101688D03*
X0092319Y0101688D03*
D32*
X0086413Y0090861D03*
D33*
X0051946Y0104661D03*
X0068481Y0104661D03*
D34*
X0069685Y0054724D02*
X0069685Y0054724D01*
X0069291Y0054724D01*
X0069291Y0054724D01*
X0069685Y0054724D01*
X0069685Y0053150D02*
X0069685Y0053150D01*
X0069291Y0053150D01*
X0069291Y0053150D01*
X0069685Y0053150D01*
X0069685Y0051575D02*
X0069685Y0051575D01*
X0069291Y0051575D01*
X0069291Y0051575D01*
X0069685Y0051575D01*
X0069685Y0050000D02*
X0069685Y0050000D01*
X0069291Y0050000D01*
X0069291Y0050000D01*
X0069685Y0050000D01*
X0069685Y0048425D02*
X0069685Y0048425D01*
X0069291Y0048425D01*
X0069291Y0048425D01*
X0069685Y0048425D01*
X0069685Y0046850D02*
X0069685Y0046850D01*
X0069291Y0046850D01*
X0069291Y0046850D01*
X0069685Y0046850D01*
X0070866Y0045275D02*
X0070866Y0045275D01*
X0070866Y0045669D01*
X0070866Y0045669D01*
X0070866Y0045275D01*
X0072441Y0045275D02*
X0072441Y0045275D01*
X0072441Y0045669D01*
X0072441Y0045669D01*
X0072441Y0045275D01*
X0074016Y0045275D02*
X0074016Y0045275D01*
X0074016Y0045669D01*
X0074016Y0045669D01*
X0074016Y0045275D01*
X0075591Y0045275D02*
X0075591Y0045275D01*
X0075591Y0045669D01*
X0075591Y0045669D01*
X0075591Y0045275D01*
X0077165Y0045275D02*
X0077165Y0045275D01*
X0077165Y0045669D01*
X0077165Y0045669D01*
X0077165Y0045275D01*
X0078740Y0045275D02*
X0078740Y0045275D01*
X0078740Y0045669D01*
X0078740Y0045669D01*
X0078740Y0045275D01*
X0080315Y0046850D02*
X0080315Y0046850D01*
X0079921Y0046850D01*
X0079921Y0046850D01*
X0080315Y0046850D01*
X0080315Y0048425D02*
X0080315Y0048425D01*
X0079921Y0048425D01*
X0079921Y0048425D01*
X0080315Y0048425D01*
X0080315Y0050000D02*
X0080315Y0050000D01*
X0079921Y0050000D01*
X0079921Y0050000D01*
X0080315Y0050000D01*
X0080315Y0051575D02*
X0080315Y0051575D01*
X0079921Y0051575D01*
X0079921Y0051575D01*
X0080315Y0051575D01*
X0080315Y0053150D02*
X0080315Y0053150D01*
X0079921Y0053150D01*
X0079921Y0053150D01*
X0080315Y0053150D01*
X0080315Y0054724D02*
X0080315Y0054724D01*
X0079921Y0054724D01*
X0079921Y0054724D01*
X0080315Y0054724D01*
X0078740Y0056299D02*
X0078740Y0056299D01*
X0078740Y0055905D01*
X0078740Y0055905D01*
X0078740Y0056299D01*
X0077165Y0055905D02*
X0077165Y0055905D01*
X0077165Y0056299D01*
X0077165Y0056299D01*
X0077165Y0055905D01*
X0075591Y0055905D02*
X0075591Y0055905D01*
X0075591Y0056299D01*
X0075591Y0056299D01*
X0075591Y0055905D01*
X0074016Y0055905D02*
X0074016Y0055905D01*
X0074016Y0056299D01*
X0074016Y0056299D01*
X0074016Y0055905D01*
X0072441Y0055905D02*
X0072441Y0055905D01*
X0072441Y0056299D01*
X0072441Y0056299D01*
X0072441Y0055905D01*
X0070866Y0055905D02*
X0070866Y0055905D01*
X0070866Y0056299D01*
X0070866Y0056299D01*
X0070866Y0055905D01*
D35*
X0035654Y0139472D03*
X0035654Y0137701D03*
X0035677Y0131319D03*
X0035677Y0129547D03*
D36*
X0038409Y0138587D03*
X0038433Y0130433D03*
D37*
X0062602Y0139303D03*
X0064374Y0139303D03*
X0080126Y0133669D03*
X0081898Y0133669D03*
X0070465Y0139307D03*
X0072236Y0139307D03*
X0088295Y0133724D03*
X0090067Y0133724D03*
D38*
X0063488Y0142059D03*
X0081012Y0136425D03*
X0071350Y0142063D03*
X0089181Y0136480D03*
D39*
X0042024Y0046382D03*
X0042024Y0031421D03*
D40*
X0097240Y0096767D02*
X0092319Y0096767D01*
X0086413Y0090861D01*
D41*
X0084413Y0092761D03*
X0088413Y0092761D03*
X0084213Y0088561D03*
X0088313Y0088561D03*
X0071085Y0082976D03*
X0087226Y0069197D03*
X0100612Y0076677D03*
X0095652Y0106087D03*
X0073447Y0113685D03*
X0105730Y0101874D03*
D42*
X0105185Y0123331D02*
X0111163Y0123331D01*
X0111163Y0111729D01*
X0108152Y0111729D01*
X0107624Y0111202D01*
X0107624Y0109394D01*
X0103326Y0109394D01*
X0103326Y0112476D01*
X0103687Y0112476D01*
X0103687Y0112425D01*
X0104215Y0111898D01*
X0107716Y0111898D01*
X0108243Y0112425D01*
X0108243Y0116320D01*
X0107716Y0116847D01*
X0104215Y0116847D01*
X0103687Y0116320D01*
X0103687Y0116245D01*
X0100381Y0116245D01*
X0099854Y0115718D01*
X0099854Y0113004D01*
X0100381Y0112476D01*
X0100926Y0112476D01*
X0100926Y0109394D01*
X0098501Y0109394D01*
X0098501Y0110523D01*
X0097974Y0111050D01*
X0094940Y0111050D01*
X0094940Y0113086D01*
X0105185Y0123331D01*
X0091163Y0113255D02*
X0091163Y0116395D01*
X0098099Y0123331D01*
X0101791Y0123331D01*
X0093243Y0114783D01*
X0092540Y0114080D01*
X0092540Y0113255D01*
X0091163Y0113255D01*
X0098501Y0109528D02*
X0100926Y0109528D01*
X0103326Y0109528D02*
X0107624Y0109528D01*
X0100926Y0110126D02*
X0098501Y0110126D01*
X0103326Y0110126D02*
X0107624Y0110126D01*
X0100926Y0110725D02*
X0098299Y0110725D01*
X0103326Y0110725D02*
X0107624Y0110725D01*
X0100926Y0111323D02*
X0094940Y0111323D01*
X0103326Y0111323D02*
X0107746Y0111323D01*
X0100926Y0111922D02*
X0094940Y0111922D01*
X0103326Y0111922D02*
X0104191Y0111922D01*
X0107740Y0111922D02*
X0111163Y0111922D01*
X0100337Y0112520D02*
X0094940Y0112520D01*
X0108243Y0112520D02*
X0111163Y0112520D01*
X0099854Y0113119D02*
X0094973Y0113119D01*
X0108243Y0113119D02*
X0111163Y0113119D01*
X0092540Y0113717D02*
X0091163Y0113717D01*
X0095572Y0113717D02*
X0099854Y0113717D01*
X0108243Y0113717D02*
X0111163Y0113717D01*
X0092776Y0114316D02*
X0091163Y0114316D01*
X0096170Y0114316D02*
X0099854Y0114316D01*
X0108243Y0114316D02*
X0111163Y0114316D01*
X0093375Y0114914D02*
X0091163Y0114914D01*
X0096769Y0114914D02*
X0099854Y0114914D01*
X0108243Y0114914D02*
X0111163Y0114914D01*
X0093973Y0115513D02*
X0091163Y0115513D01*
X0097367Y0115513D02*
X0099854Y0115513D01*
X0108243Y0115513D02*
X0111163Y0115513D01*
X0094572Y0116111D02*
X0091163Y0116111D01*
X0097966Y0116111D02*
X0100247Y0116111D01*
X0108243Y0116111D02*
X0111163Y0116111D01*
X0095170Y0116710D02*
X0091478Y0116710D01*
X0098564Y0116710D02*
X0104077Y0116710D01*
X0107854Y0116710D02*
X0111163Y0116710D01*
X0095769Y0117308D02*
X0092076Y0117308D01*
X0099163Y0117308D02*
X0111163Y0117308D01*
X0096367Y0117907D02*
X0092675Y0117907D01*
X0099761Y0117907D02*
X0111163Y0117907D01*
X0096966Y0118505D02*
X0093273Y0118505D01*
X0100360Y0118505D02*
X0111163Y0118505D01*
X0097564Y0119104D02*
X0093872Y0119104D01*
X0100958Y0119104D02*
X0111163Y0119104D01*
X0098163Y0119702D02*
X0094470Y0119702D01*
X0101557Y0119702D02*
X0111163Y0119702D01*
X0098761Y0120301D02*
X0095069Y0120301D01*
X0102155Y0120301D02*
X0111163Y0120301D01*
X0099360Y0120899D02*
X0095667Y0120899D01*
X0102754Y0120899D02*
X0111163Y0120899D01*
X0099958Y0121498D02*
X0096266Y0121498D01*
X0103352Y0121498D02*
X0111163Y0121498D01*
X0100557Y0122096D02*
X0096864Y0122096D01*
X0103951Y0122096D02*
X0111163Y0122096D01*
X0101155Y0122695D02*
X0097463Y0122695D01*
X0104549Y0122695D02*
X0111163Y0122695D01*
X0101754Y0123293D02*
X0098061Y0123293D01*
X0105148Y0123293D02*
X0111163Y0123293D01*
X0097240Y0096767D02*
X0097763Y0096362D01*
X0104093Y0097268D02*
X0104111Y0097286D01*
X0060652Y0120693D02*
X0060652Y0125457D01*
X0077148Y0125457D01*
X0077148Y0120693D01*
X0060652Y0120693D01*
X0060652Y0120899D02*
X0077148Y0120899D01*
X0077148Y0121498D02*
X0060652Y0121498D01*
X0060652Y0122096D02*
X0077148Y0122096D01*
X0077148Y0122695D02*
X0060652Y0122695D01*
X0060652Y0123293D02*
X0077148Y0123293D01*
X0077148Y0123892D02*
X0060652Y0123892D01*
X0060652Y0124490D02*
X0077148Y0124490D01*
X0077148Y0125089D02*
X0060652Y0125089D01*
X0097763Y0096362D02*
X0103187Y0096362D01*
X0103245Y0096364D01*
X0103303Y0096369D01*
X0103360Y0096378D01*
X0103417Y0096391D01*
X0103473Y0096407D01*
X0103527Y0096427D01*
X0103580Y0096450D01*
X0103632Y0096476D01*
X0103682Y0096506D01*
X0103730Y0096538D01*
X0103776Y0096574D01*
X0103820Y0096612D01*
X0103861Y0096653D01*
X0103899Y0096697D01*
X0103935Y0096743D01*
X0103967Y0096791D01*
X0103997Y0096841D01*
X0104023Y0096893D01*
X0104046Y0096946D01*
X0104066Y0097000D01*
X0104082Y0097056D01*
X0104095Y0097113D01*
X0104104Y0097170D01*
X0104109Y0097228D01*
X0104111Y0097286D01*
X0080508Y0101688D02*
X0080508Y0102687D01*
X0078959Y0104236D01*
X0078959Y0107823D01*
X0078420Y0109346D01*
X0080508Y0101688D02*
X0080508Y0096667D01*
X0084413Y0092761D01*
X0086697Y0050602D02*
X0086697Y0053303D01*
X0086677Y0053850D01*
X0080118Y0054724D02*
X0085803Y0054724D01*
X0086677Y0053850D01*
X0134232Y0118000D02*
X0130000Y0118000D01*
X0130000Y0122724D01*
X0130103Y0122726D01*
X0130206Y0122732D01*
X0130309Y0122741D01*
X0130411Y0122755D01*
X0130512Y0122772D01*
X0130613Y0122793D01*
X0130713Y0122818D01*
X0130812Y0122846D01*
X0130910Y0122879D01*
X0131007Y0122915D01*
X0131102Y0122954D01*
X0131196Y0122997D01*
X0131288Y0123043D01*
X0131378Y0123093D01*
X0131466Y0123146D01*
X0131553Y0123203D01*
X0131637Y0123263D01*
X0131718Y0123325D01*
X0131798Y0123391D01*
X0131875Y0123460D01*
X0131949Y0123531D01*
X0132020Y0123605D01*
X0132089Y0123682D01*
X0132155Y0123762D01*
X0132217Y0123843D01*
X0132277Y0123927D01*
X0132334Y0124014D01*
X0132387Y0124102D01*
X0132437Y0124192D01*
X0132483Y0124284D01*
X0132526Y0124378D01*
X0132565Y0124473D01*
X0132601Y0124570D01*
X0132634Y0124668D01*
X0132662Y0124767D01*
X0132687Y0124867D01*
X0132708Y0124968D01*
X0132725Y0125069D01*
X0132739Y0125171D01*
X0132748Y0125274D01*
X0132754Y0125377D01*
X0132756Y0125480D01*
X0132754Y0125583D01*
X0132748Y0125686D01*
X0132739Y0125789D01*
X0132725Y0125891D01*
X0132708Y0125992D01*
X0132687Y0126093D01*
X0132662Y0126193D01*
X0132634Y0126292D01*
X0132601Y0126390D01*
X0132565Y0126487D01*
X0132526Y0126582D01*
X0132483Y0126676D01*
X0132437Y0126768D01*
X0132387Y0126858D01*
X0132334Y0126946D01*
X0132277Y0127033D01*
X0132217Y0127117D01*
X0132155Y0127198D01*
X0132089Y0127278D01*
X0132020Y0127355D01*
X0131949Y0127429D01*
X0131875Y0127500D01*
X0131798Y0127569D01*
X0131718Y0127635D01*
X0131637Y0127697D01*
X0131553Y0127757D01*
X0131466Y0127814D01*
X0131378Y0127867D01*
X0131288Y0127917D01*
X0131196Y0127963D01*
X0131102Y0128006D01*
X0131007Y0128045D01*
X0130910Y0128081D01*
X0130812Y0128114D01*
X0130713Y0128142D01*
X0130613Y0128167D01*
X0130512Y0128188D01*
X0130411Y0128205D01*
X0130309Y0128219D01*
X0130206Y0128228D01*
X0130103Y0128234D01*
X0130000Y0128236D01*
X0129606Y0128236D01*
X0129511Y0128234D01*
X0129416Y0128228D01*
X0129321Y0128219D01*
X0129227Y0128205D01*
X0129134Y0128188D01*
X0129041Y0128167D01*
X0128949Y0128143D01*
X0128858Y0128114D01*
X0128768Y0128083D01*
X0128680Y0128047D01*
X0128593Y0128008D01*
X0128508Y0127965D01*
X0128425Y0127920D01*
X0128344Y0127870D01*
X0128264Y0127818D01*
X0128187Y0127762D01*
X0128112Y0127704D01*
X0128040Y0127642D01*
X0127970Y0127577D01*
X0127903Y0127510D01*
X0127838Y0127440D01*
X0127776Y0127368D01*
X0127718Y0127293D01*
X0127662Y0127216D01*
X0127610Y0127136D01*
X0127560Y0127055D01*
X0127515Y0126972D01*
X0127472Y0126887D01*
X0127433Y0126800D01*
X0127397Y0126712D01*
X0127366Y0126622D01*
X0127337Y0126531D01*
X0127313Y0126439D01*
X0127292Y0126346D01*
X0127275Y0126253D01*
X0127261Y0126159D01*
X0127252Y0126064D01*
X0127246Y0125969D01*
X0127244Y0125874D01*
X0081650Y0144831D02*
X0078311Y0144831D01*
X0078311Y0144807D01*
X0046657Y0137957D02*
X0046657Y0141929D01*
X0047902Y0141929D01*
X0081898Y0133669D02*
X0081898Y0131469D01*
X0081102Y0130673D01*
X0090067Y0133724D02*
X0090067Y0132154D01*
X0091547Y0130673D01*
X0072236Y0139307D02*
X0072236Y0137315D01*
X0073390Y0136161D01*
X0064374Y0139303D02*
X0064374Y0137276D01*
X0063260Y0136161D01*
X0071350Y0152535D02*
X0074350Y0152535D01*
X0074350Y0154626D01*
X0063870Y0150567D02*
X0060217Y0150567D01*
X0060217Y0151236D01*
X0048626Y0130476D02*
X0048626Y0128323D01*
X0050602Y0128323D01*
X0035654Y0137701D02*
X0032449Y0137701D01*
X0032449Y0138402D01*
X0035677Y0129547D02*
X0032417Y0129547D01*
X0032378Y0128709D01*
X0089130Y0146799D02*
X0089130Y0149488D01*
X0085000Y0149488D01*
X0074016Y0165157D02*
X0074016Y0171102D01*
X0075039Y0172126D01*
X0085217Y0133362D02*
X0085217Y0130378D01*
X0085224Y0130370D01*
X0067445Y0138894D02*
X0067445Y0136059D01*
X0067461Y0136043D01*
X0071350Y0150567D02*
X0076535Y0150567D01*
X0076535Y0150638D01*
X0046657Y0130476D02*
X0046657Y0126787D01*
X0046681Y0126173D01*
X0024776Y0058421D02*
X0021389Y0058421D01*
X0021389Y0058425D01*
X0021389Y0060984D02*
X0021389Y0065063D01*
X0021417Y0065063D01*
X0008957Y0065063D01*
X0008957Y0128681D01*
X0006114Y0128681D01*
X0024776Y0058421D02*
X0028642Y0058421D01*
X0028642Y0058398D01*
X0027870Y0053295D02*
X0030630Y0053295D01*
X0035283Y0134303D02*
X0035283Y0134366D01*
X0032130Y0134366D01*
X0089130Y0144831D02*
X0092323Y0144831D01*
X0092323Y0135039D01*
X0093386Y0135039D01*
X0075394Y0021250D02*
X0075394Y0031484D01*
X0054661Y0031484D01*
X0054661Y0058827D01*
X0059827Y0058827D01*
X0059827Y0058799D01*
X0110236Y0071654D02*
X0110236Y0058799D01*
X0110256Y0058799D01*
X0077953Y0021250D02*
X0077953Y0031157D01*
X0106657Y0031157D01*
X0106657Y0062264D01*
X0106693Y0066760D01*
X0106693Y0071260D01*
X0059843Y0062181D02*
X0057004Y0062181D01*
X0057004Y0062177D01*
X0021617Y0028019D02*
X0024433Y0028019D01*
X0024433Y0028055D01*
X0021617Y0030578D02*
X0034734Y0030578D01*
X0034734Y0035319D01*
X0112445Y0133717D02*
X0112445Y0138232D01*
X0112463Y0138232D01*
X0112463Y0141579D02*
X0108724Y0141579D01*
X0108724Y0133732D01*
X0115823Y0133713D02*
X0115823Y0138232D01*
X0115810Y0138232D01*
X0042720Y0130476D02*
X0042720Y0134224D01*
X0045657Y0134224D01*
X0089130Y0140894D02*
X0085469Y0140894D01*
X0085469Y0143827D01*
X0071350Y0146630D02*
X0067587Y0146630D01*
X0067587Y0149543D01*
X0009912Y0023357D02*
X0006201Y0023357D01*
X0006201Y0030578D01*
X0006201Y0033137D01*
X0006201Y0035696D01*
X0006201Y0048157D01*
X0006201Y0055866D01*
X0006201Y0058425D01*
X0006201Y0060984D01*
X0006201Y0124075D01*
X0006201Y0030578D02*
X0009806Y0030578D01*
X0009806Y0033137D02*
X0006201Y0033137D01*
X0006201Y0035696D02*
X0009806Y0035696D01*
X0009578Y0060984D02*
X0006201Y0060984D01*
X0006201Y0058425D02*
X0009578Y0058425D01*
X0009578Y0055866D02*
X0006201Y0055866D01*
X0006201Y0048157D02*
X0009559Y0048157D01*
X0080512Y0021250D02*
X0080512Y0027268D01*
X0085177Y0027268D01*
X0009912Y0023357D02*
X0006185Y0023357D01*
X0034437Y0027201D02*
X0041933Y0027201D01*
X0065433Y0027201D01*
X0042024Y0031421D02*
X0041933Y0031421D01*
X0041933Y0027201D01*
X0075984Y0165157D02*
X0075984Y0167402D01*
X0078228Y0169646D01*
X0045673Y0134217D02*
X0045665Y0134224D01*
X0045657Y0134224D01*
X0085469Y0143827D02*
X0085449Y0143846D01*
X0085390Y0143846D01*
X0067587Y0149543D02*
X0067610Y0149567D01*
X0067610Y0149583D01*
X0034437Y0027201D02*
X0034437Y0023500D01*
X0020500Y0023500D01*
X0072047Y0165157D02*
X0072047Y0172756D01*
X0073819Y0174528D01*
X0077874Y0174528D01*
X0096220Y0145433D02*
X0096220Y0131457D01*
X0081492Y0116728D01*
X0081492Y0103657D01*
X0096220Y0145433D02*
X0083583Y0158071D01*
X0077874Y0174528D02*
X0083425Y0168976D01*
X0083425Y0158228D01*
X0083426Y0158228D02*
X0083428Y0158206D01*
X0083432Y0158184D01*
X0083440Y0158163D01*
X0083451Y0158143D01*
X0083464Y0158125D01*
X0083480Y0158109D01*
X0083498Y0158096D01*
X0083518Y0158085D01*
X0083539Y0158077D01*
X0083561Y0158073D01*
X0083583Y0158071D01*
X0070079Y0165157D02*
X0070079Y0172835D01*
X0097559Y0146102D02*
X0097559Y0130906D01*
X0083228Y0116575D01*
X0083228Y0103889D01*
X0083461Y0103657D01*
X0084646Y0169724D02*
X0084646Y0158976D01*
X0088583Y0155118D01*
X0088583Y0155079D01*
X0097559Y0146102D01*
X0070079Y0172835D02*
X0072992Y0175748D01*
X0078701Y0175748D01*
X0084646Y0169724D01*
X0068110Y0165157D02*
X0068110Y0172598D01*
X0072520Y0177008D01*
X0085906Y0159646D02*
X0098858Y0146693D01*
X0098858Y0130354D01*
X0097283Y0128780D01*
X0097283Y0128661D01*
X0085157Y0116535D01*
X0085157Y0103928D01*
X0085429Y0103657D01*
X0079646Y0177008D02*
X0072520Y0177008D01*
X0085906Y0159646D02*
X0085906Y0170748D01*
X0079646Y0177008D01*
X0081650Y0146799D02*
X0081650Y0146776D01*
X0081650Y0142862D02*
X0079720Y0142862D01*
X0079087Y0142228D01*
X0075992Y0142228D01*
X0081650Y0140894D02*
X0075992Y0140933D01*
X0075992Y0142228D01*
X0075992Y0148110D01*
X0081012Y0136425D02*
X0081012Y0138260D01*
X0081630Y0138878D01*
X0081630Y0140874D01*
X0081650Y0140894D01*
X0081945Y0165157D02*
X0081890Y0165157D01*
X0075992Y0148110D02*
X0081650Y0148110D01*
X0081650Y0146799D01*
X0081890Y0165157D02*
X0081890Y0146799D01*
X0081650Y0146799D01*
X0063870Y0146630D02*
X0057657Y0146630D01*
X0057657Y0148598D01*
X0057657Y0153776D01*
X0063870Y0153776D01*
X0063870Y0152535D01*
X0063870Y0148598D02*
X0057657Y0148598D01*
X0063488Y0142059D02*
X0063488Y0144110D01*
X0063862Y0144484D01*
X0063862Y0146622D01*
X0063870Y0146630D01*
X0063870Y0153776D02*
X0063831Y0157165D01*
X0079882Y0157165D01*
X0079921Y0165157D01*
X0042720Y0137957D02*
X0042720Y0144878D01*
X0044689Y0144878D01*
X0050850Y0144878D01*
X0050850Y0137906D01*
X0048626Y0137906D01*
X0048626Y0137957D01*
X0044689Y0137957D02*
X0044689Y0144878D01*
X0077937Y0165142D02*
X0077953Y0165157D01*
X0038409Y0138587D02*
X0040071Y0138587D01*
X0040701Y0137957D01*
X0042720Y0137957D01*
X0050850Y0144878D02*
X0055906Y0144878D01*
X0055906Y0158425D01*
X0077992Y0158425D01*
X0077992Y0165157D01*
X0077953Y0165157D01*
X0085217Y0136512D02*
X0089150Y0136512D01*
X0089181Y0136480D01*
X0089130Y0142862D02*
X0091063Y0142862D01*
X0091063Y0136480D01*
X0089181Y0136480D01*
X0038433Y0134303D02*
X0038433Y0130433D01*
X0044689Y0130476D02*
X0044689Y0127524D01*
X0038433Y0127524D01*
X0038433Y0130433D01*
X0067445Y0142043D02*
X0071331Y0142043D01*
X0071350Y0142063D01*
X0071350Y0148598D02*
X0074362Y0148598D01*
X0074362Y0142063D01*
X0071350Y0142063D01*
X0099209Y0083972D02*
X0107111Y0083972D01*
X0108626Y0082457D01*
X0116685Y0082457D01*
X0117827Y0083598D01*
X0125768Y0120559D02*
X0122016Y0120559D01*
X0122016Y0121657D01*
X0099209Y0085940D02*
X0107599Y0085940D01*
X0109110Y0084429D01*
X0113299Y0084429D01*
X0113953Y0085083D01*
X0125768Y0118000D02*
X0119382Y0118000D01*
X0119382Y0119339D01*
X0099209Y0087909D02*
X0109158Y0087909D01*
X0110150Y0086917D01*
X0125768Y0115441D02*
X0116787Y0115441D01*
X0116787Y0116449D01*
X0125764Y0108461D02*
X0125764Y0115437D01*
X0125765Y0115439D01*
X0125766Y0115440D01*
X0125768Y0115441D01*
X0073618Y0099720D02*
X0072313Y0101024D01*
X0072313Y0109261D02*
X0068913Y0112661D01*
X0067813Y0112661D01*
X0066013Y0114461D01*
X0066013Y0118187D01*
X0072313Y0109261D02*
X0072313Y0101024D01*
X0072080Y0083972D02*
X0073618Y0083972D01*
X0071085Y0082976D02*
X0067162Y0082976D01*
X0067135Y0082949D01*
X0087398Y0078066D02*
X0087398Y0069368D01*
X0087226Y0069197D01*
X0087413Y0069010D01*
X0087413Y0064186D01*
X0097240Y0078066D02*
X0099223Y0078066D01*
X0100612Y0076677D01*
X0100725Y0076564D01*
X0100725Y0073569D01*
X0095272Y0103657D02*
X0095272Y0105640D01*
X0095652Y0106087D01*
X0027583Y0028055D02*
X0030717Y0028055D01*
X0030717Y0028024D01*
X0025588Y0035701D02*
X0030744Y0035701D01*
X0030744Y0035685D01*
X0021617Y0033137D02*
X0025588Y0033137D01*
X0025588Y0035701D01*
X0021617Y0035696D02*
X0025588Y0035696D01*
X0025588Y0035701D01*
X0080118Y0046850D02*
X0082724Y0046850D01*
X0083315Y0047441D01*
X0086685Y0047441D01*
X0086697Y0047453D01*
X0072441Y0045472D02*
X0072441Y0044878D01*
X0070315Y0042752D01*
X0070315Y0041744D01*
X0070280Y0041709D01*
X0070280Y0038551D01*
X0134232Y0115441D02*
X0134197Y0111878D01*
X0131106Y0111878D01*
X0072080Y0083972D02*
X0071085Y0082976D01*
X0095652Y0106087D02*
X0096459Y0106894D01*
X0096223Y0109166D01*
X0115810Y0141579D02*
X0122421Y0141579D01*
X0137500Y0126500D01*
X0137500Y0120559D01*
X0075587Y0082987D02*
X0069610Y0077011D01*
X0066741Y0077011D01*
X0066789Y0072272D02*
X0066741Y0072320D01*
X0066741Y0077011D01*
X0075587Y0078066D02*
X0075587Y0072126D01*
X0068146Y0064685D01*
X0053535Y0064685D01*
X0053535Y0080118D02*
X0066741Y0080118D01*
X0066741Y0077011D01*
X0053535Y0080118D02*
X0053535Y0064685D01*
X0042024Y0046382D02*
X0042024Y0080118D01*
X0053535Y0080118D01*
X0097240Y0094798D02*
X0097741Y0095142D01*
X0103106Y0095142D01*
X0103167Y0095140D01*
X0103227Y0095135D01*
X0103287Y0095126D01*
X0103347Y0095113D01*
X0103405Y0095096D01*
X0103462Y0095077D01*
X0103518Y0095053D01*
X0103573Y0095027D01*
X0103626Y0094997D01*
X0103677Y0094964D01*
X0103726Y0094928D01*
X0103772Y0094889D01*
X0103817Y0094848D01*
X0103858Y0094803D01*
X0103897Y0094757D01*
X0103933Y0094708D01*
X0103966Y0094657D01*
X0103996Y0094604D01*
X0104022Y0094549D01*
X0104046Y0094493D01*
X0104065Y0094436D01*
X0104082Y0094378D01*
X0104095Y0094318D01*
X0104104Y0094258D01*
X0104109Y0094198D01*
X0104111Y0094137D01*
X0073618Y0101688D02*
X0073618Y0110257D01*
X0070813Y0113061D01*
X0070813Y0118187D01*
X0097240Y0103657D02*
X0098263Y0103657D01*
X0102126Y0107520D01*
X0102126Y0114355D01*
X0102131Y0114361D01*
X0105954Y0114361D01*
X0105965Y0114372D01*
X0099209Y0101688D02*
X0103032Y0105512D01*
X0106772Y0105512D01*
X0109902Y0108643D01*
X0109902Y0109254D01*
X0114302Y0109263D02*
X0114294Y0109254D01*
X0109902Y0109254D01*
X0075587Y0096767D02*
X0075192Y0097161D01*
X0072313Y0097161D01*
X0070213Y0099261D01*
X0055713Y0099261D01*
X0054213Y0100761D01*
X0054213Y0102394D01*
X0051946Y0104661D01*
X0051946Y0111768D01*
X0051963Y0111785D01*
X0078539Y0080035D02*
X0077198Y0080035D01*
X0076596Y0079433D01*
X0074628Y0079433D01*
X0073447Y0078252D01*
X0073447Y0072116D01*
X0069287Y0067957D01*
X0066838Y0067957D01*
X0066835Y0067959D01*
X0099209Y0089877D02*
X0099678Y0090346D01*
X0102973Y0090346D01*
X0078539Y0101688D02*
X0078539Y0102687D01*
X0075415Y0105811D01*
X0075415Y0111717D01*
X0073447Y0113685D01*
X0073447Y0115820D01*
X0075813Y0118187D01*
X0099209Y0097751D02*
X0100576Y0099118D01*
X0102187Y0099118D01*
X0104943Y0101874D01*
X0105730Y0101874D01*
X0078420Y0112496D02*
X0078420Y0113685D01*
X0073447Y0113685D01*
X0097240Y0098735D02*
X0098302Y0098735D01*
X0103819Y0104252D01*
X0110015Y0104252D01*
X0110037Y0104254D01*
X0110060Y0104258D01*
X0110081Y0104266D01*
X0110100Y0104277D01*
X0110118Y0104291D01*
X0110134Y0104307D01*
X0110148Y0104325D01*
X0110159Y0104344D01*
X0110167Y0104365D01*
X0110171Y0104388D01*
X0110173Y0104410D01*
X0091335Y0103657D02*
X0091351Y0103673D01*
X0091351Y0111370D01*
X0062992Y0062181D02*
X0067760Y0062181D01*
X0077555Y0071976D01*
X0077555Y0078066D01*
X0062976Y0058799D02*
X0064689Y0058799D01*
X0066638Y0060748D01*
X0068587Y0060748D01*
X0079524Y0071685D01*
X0079524Y0078066D01*
X0075587Y0098735D02*
X0075313Y0098361D01*
X0072913Y0098361D01*
X0068481Y0102794D01*
X0068481Y0104661D01*
X0064219Y0111761D01*
X0104764Y0124606D02*
X0093740Y0113583D01*
X0093740Y0108465D01*
X0093303Y0108028D01*
X0093303Y0103657D01*
X0104764Y0124606D02*
X0112441Y0124606D01*
X0115823Y0127988D01*
X0115823Y0130563D01*
X0108724Y0130583D02*
X0101291Y0130583D01*
X0087398Y0116689D01*
X0087398Y0103657D01*
X0112445Y0130567D02*
X0108453Y0126575D01*
X0099646Y0126575D01*
X0088701Y0115630D01*
X0088701Y0109961D01*
X0089366Y0109295D01*
X0089366Y0103657D01*
X0099209Y0082003D02*
X0105005Y0082003D01*
X0110236Y0076772D01*
X0110236Y0074803D01*
X0099209Y0080035D02*
X0103430Y0080035D01*
X0106693Y0076772D01*
X0106693Y0074409D01*
X0073618Y0095783D02*
X0036535Y0095783D01*
X0036535Y0109531D01*
X0080126Y0133669D02*
X0080126Y0133646D01*
X0075740Y0133646D01*
X0073618Y0093814D02*
X0032748Y0093814D01*
X0032748Y0109496D01*
X0059945Y0139303D02*
X0062602Y0139303D01*
X0073618Y0091846D02*
X0028543Y0091846D01*
X0028543Y0109843D01*
X0035654Y0139472D02*
X0035654Y0142512D01*
X0075591Y0045472D02*
X0075642Y0045421D01*
X0075642Y0042157D01*
X0070866Y0056102D02*
X0070866Y0060744D01*
X0081492Y0071370D01*
X0081492Y0078066D01*
X0072441Y0056102D02*
X0072441Y0060012D01*
X0083461Y0071031D01*
X0083461Y0078066D01*
X0074016Y0056102D02*
X0074016Y0059362D01*
X0085429Y0070776D01*
X0085429Y0078066D01*
X0075591Y0056102D02*
X0075591Y0058295D01*
X0083122Y0058295D01*
X0083122Y0056677D01*
X0090425Y0056677D01*
X0090425Y0069787D01*
X0089346Y0070866D01*
X0089346Y0078046D01*
X0089366Y0078066D01*
X0074016Y0045472D02*
X0074016Y0044335D01*
X0073161Y0043480D01*
X0073161Y0037295D01*
X0074059Y0036398D01*
X0083724Y0036398D01*
X0095272Y0047945D01*
X0095272Y0078066D01*
X0078740Y0045472D02*
X0080122Y0045472D01*
X0081130Y0044465D01*
X0087807Y0044465D01*
X0091890Y0048547D01*
X0091890Y0070504D01*
X0091291Y0071102D01*
X0091291Y0078023D01*
X0091335Y0078066D01*
X0077165Y0045472D02*
X0077165Y0044831D01*
X0078827Y0043169D01*
X0088374Y0043169D01*
X0093217Y0048012D01*
X0093217Y0053213D01*
X0093303Y0053299D01*
X0093303Y0078066D01*
X0073618Y0085940D02*
X0011161Y0085940D01*
X0011161Y0126161D01*
X0016319Y0131319D01*
X0035677Y0131319D01*
X0073618Y0089877D02*
X0026220Y0089877D01*
X0026220Y0122441D01*
X0054941Y0122441D01*
X0054941Y0127402D01*
X0088295Y0127402D01*
X0088295Y0133724D01*
X0021389Y0053307D02*
X0024720Y0053307D01*
X0024720Y0053295D01*
X0021389Y0055866D02*
X0033248Y0055866D01*
X0033248Y0058543D01*
X0013055Y0087909D02*
X0073618Y0087909D01*
X0026256Y0123642D02*
X0053591Y0123642D01*
X0053591Y0131461D01*
X0070465Y0131461D01*
X0070465Y0139307D01*
X0013055Y0087909D02*
X0013055Y0125555D01*
X0017600Y0130100D01*
X0026256Y0130000D02*
X0026256Y0129400D01*
X0026256Y0123642D01*
X0017600Y0130100D02*
X0026256Y0130100D01*
X0026256Y0130000D01*
D43*
X0011290Y0057396D02*
X0015233Y0057396D01*
X0015233Y0056896D01*
X0011290Y0056896D01*
X0011040Y0057146D01*
X0011290Y0057396D01*
X0015733Y0051179D02*
X0015233Y0051179D01*
X0015233Y0056896D01*
X0015733Y0056896D01*
X0015733Y0051179D01*
X0007807Y0118156D02*
X0007807Y0064587D01*
X0008480Y0063913D01*
X0019399Y0063913D01*
X0020239Y0063074D01*
X0020239Y0062425D01*
X0020087Y0062425D01*
X0019786Y0062124D01*
X0019776Y0062159D01*
X0019570Y0062516D01*
X0019279Y0062807D01*
X0018922Y0063013D01*
X0018524Y0063120D01*
X0015733Y0063120D01*
X0015733Y0057396D01*
X0015233Y0057396D01*
X0015233Y0063120D01*
X0012442Y0063120D01*
X0012044Y0063013D01*
X0011688Y0062807D01*
X0011396Y0062516D01*
X0011190Y0062159D01*
X0011181Y0062124D01*
X0010879Y0062425D01*
X0008276Y0062425D01*
X0007985Y0062134D01*
X0007351Y0062134D01*
X0007351Y0118154D01*
X0007807Y0118156D01*
X0019676Y0056896D02*
X0015733Y0056896D01*
X0015733Y0057396D01*
X0019676Y0057396D01*
X0019926Y0057146D01*
X0019676Y0056896D01*
X0035876Y0061451D02*
X0033490Y0061451D01*
X0033490Y0061935D01*
X0035876Y0061935D01*
X0035876Y0062842D01*
X0035791Y0063160D01*
X0035626Y0063445D01*
X0035393Y0063677D01*
X0035108Y0063842D01*
X0034791Y0063927D01*
X0033490Y0063927D01*
X0033490Y0061935D01*
X0033006Y0061935D01*
X0033006Y0063927D01*
X0031705Y0063927D01*
X0031388Y0063842D01*
X0031103Y0063677D01*
X0030870Y0063445D01*
X0030705Y0063160D01*
X0030620Y0062842D01*
X0030620Y0061935D01*
X0033006Y0061935D01*
X0033006Y0061451D01*
X0030620Y0061451D01*
X0030620Y0060544D01*
X0030705Y0060226D01*
X0030870Y0059941D01*
X0031020Y0059791D01*
X0031020Y0057207D01*
X0031211Y0057016D01*
X0030404Y0057016D01*
X0030882Y0057493D01*
X0030882Y0059349D01*
X0029570Y0060661D01*
X0027714Y0060661D01*
X0027377Y0060325D01*
X0027404Y0060422D01*
X0027404Y0061329D01*
X0025018Y0061329D01*
X0025018Y0061813D01*
X0027404Y0061813D01*
X0027404Y0062720D01*
X0027318Y0063038D01*
X0027154Y0063323D01*
X0026921Y0063555D01*
X0026636Y0063720D01*
X0026318Y0063805D01*
X0025018Y0063805D01*
X0025018Y0061813D01*
X0024533Y0061813D01*
X0024533Y0063805D01*
X0023327Y0063805D01*
X0023657Y0064135D01*
X0023657Y0065991D01*
X0022345Y0067303D01*
X0020489Y0067303D01*
X0019399Y0066213D01*
X0010107Y0066213D01*
X0010107Y0085369D01*
X0010685Y0084790D01*
X0059389Y0084790D01*
X0059389Y0083199D01*
X0061766Y0083199D01*
X0061766Y0082699D01*
X0059389Y0082699D01*
X0059389Y0081268D01*
X0041547Y0081268D01*
X0040874Y0080594D01*
X0040874Y0049988D01*
X0038916Y0049988D01*
X0038418Y0049490D01*
X0038418Y0043274D01*
X0038916Y0042776D01*
X0045132Y0042776D01*
X0045630Y0043274D01*
X0045630Y0049490D01*
X0045132Y0049988D01*
X0043174Y0049988D01*
X0043174Y0078968D01*
X0052385Y0078968D01*
X0052385Y0064209D01*
X0053059Y0063535D01*
X0055194Y0063535D01*
X0054764Y0063105D01*
X0054764Y0061249D01*
X0054947Y0061067D01*
X0053734Y0061067D01*
X0052421Y0059755D01*
X0052421Y0057899D01*
X0053511Y0056809D01*
X0053511Y0031008D01*
X0054185Y0030334D01*
X0074244Y0030334D01*
X0074244Y0024747D01*
X0074114Y0024617D01*
X0073974Y0024757D01*
X0071981Y0024757D01*
X0071830Y0024907D01*
X0071545Y0025072D01*
X0071228Y0025157D01*
X0070419Y0025157D01*
X0070419Y0021393D01*
X0070132Y0021393D01*
X0070132Y0025157D01*
X0069324Y0025157D01*
X0069006Y0025072D01*
X0068721Y0024907D01*
X0068488Y0024675D01*
X0068323Y0024390D01*
X0068238Y0024072D01*
X0068238Y0021393D01*
X0070132Y0021393D01*
X0070132Y0021106D01*
X0068238Y0021106D01*
X0068238Y0018842D01*
X0068173Y0018842D01*
X0068173Y0024259D01*
X0067675Y0024757D01*
X0058703Y0024757D01*
X0058205Y0024259D01*
X0058205Y0015681D01*
X0058578Y0015308D01*
X0055750Y0015308D01*
X0055252Y0014810D01*
X0055252Y0006626D01*
X0055750Y0006128D01*
X0060380Y0006128D01*
X0060380Y0004906D01*
X0060526Y0004759D01*
X0064474Y0004759D01*
X0064620Y0004906D01*
X0064620Y0014208D01*
X0067467Y0014208D01*
X0067467Y0004906D01*
X0067613Y0004759D01*
X0083174Y0004759D01*
X0083321Y0004906D01*
X0083321Y0014208D01*
X0086167Y0014208D01*
X0086167Y0004906D01*
X0086314Y0004759D01*
X0090261Y0004759D01*
X0090407Y0004906D01*
X0090407Y0006128D01*
X0095037Y0006128D01*
X0095535Y0006626D01*
X0095535Y0014810D01*
X0095037Y0015308D01*
X0092210Y0015308D01*
X0092582Y0015681D01*
X0092582Y0024259D01*
X0092084Y0024757D01*
X0083112Y0024757D01*
X0082615Y0024259D01*
X0082615Y0018842D01*
X0082149Y0018842D01*
X0082149Y0024259D01*
X0081662Y0024747D01*
X0081662Y0026118D01*
X0083159Y0026118D01*
X0084249Y0025028D01*
X0086105Y0025028D01*
X0087417Y0026340D01*
X0087417Y0028196D01*
X0086105Y0029508D01*
X0084249Y0029508D01*
X0083159Y0028418D01*
X0080035Y0028418D01*
X0079362Y0027744D01*
X0079362Y0024747D01*
X0079232Y0024617D01*
X0079103Y0024747D01*
X0079103Y0030007D01*
X0107134Y0030007D01*
X0107807Y0030681D01*
X0107807Y0060246D01*
X0108897Y0061336D01*
X0108897Y0063192D01*
X0107823Y0064266D01*
X0107839Y0066280D01*
X0107843Y0066283D01*
X0107843Y0066756D01*
X0107847Y0067227D01*
X0107843Y0067231D01*
X0107843Y0069426D01*
X0108423Y0069426D01*
X0108817Y0069819D01*
X0109086Y0069819D01*
X0109086Y0060797D01*
X0108016Y0059727D01*
X0108016Y0057871D01*
X0109328Y0056559D01*
X0111184Y0056559D01*
X0112496Y0057871D01*
X0112496Y0059727D01*
X0111386Y0060837D01*
X0111386Y0069819D01*
X0111966Y0069819D01*
X0112464Y0070317D01*
X0112464Y0072990D01*
X0112226Y0073228D01*
X0112464Y0073467D01*
X0112464Y0076139D01*
X0111966Y0076637D01*
X0111386Y0076637D01*
X0111386Y0077248D01*
X0110713Y0077922D01*
X0105813Y0082822D01*
X0106635Y0082822D01*
X0107476Y0081980D01*
X0108150Y0081307D01*
X0117161Y0081307D01*
X0117213Y0081358D01*
X0118755Y0081358D01*
X0120067Y0082671D01*
X0120067Y0084526D01*
X0118755Y0085838D01*
X0116899Y0085838D01*
X0116193Y0085132D01*
X0116193Y0086011D01*
X0114881Y0087323D01*
X0113025Y0087323D01*
X0112390Y0086687D01*
X0112390Y0087845D01*
X0111077Y0089157D01*
X0109222Y0089157D01*
X0109123Y0089059D01*
X0108357Y0089059D01*
X0108357Y0090104D01*
X0106365Y0090104D01*
X0106365Y0090588D01*
X0108357Y0090588D01*
X0108357Y0091889D01*
X0108353Y0091906D01*
X0109630Y0091906D01*
X0109868Y0092144D01*
X0110107Y0091906D01*
X0112779Y0091906D01*
X0113175Y0092302D01*
X0116580Y0092302D01*
X0116864Y0092586D01*
X0117440Y0092586D01*
X0117380Y0092482D01*
X0117295Y0092165D01*
X0117295Y0091258D01*
X0119681Y0091258D01*
X0119681Y0090774D01*
X0117295Y0090774D01*
X0117295Y0089867D01*
X0117380Y0089549D01*
X0117545Y0089264D01*
X0117778Y0089031D01*
X0118063Y0088867D01*
X0118381Y0088781D01*
X0119681Y0088781D01*
X0119681Y0090774D01*
X0120165Y0090774D01*
X0120165Y0088781D01*
X0121466Y0088781D01*
X0121784Y0088867D01*
X0122069Y0089031D01*
X0122301Y0089264D01*
X0122466Y0089549D01*
X0122551Y0089867D01*
X0122551Y0090774D01*
X0120165Y0090774D01*
X0120165Y0091258D01*
X0122551Y0091258D01*
X0122551Y0092165D01*
X0122466Y0092482D01*
X0122389Y0092615D01*
X0133465Y0092615D01*
X0133465Y0018383D01*
X0131559Y0016477D01*
X0130170Y0014072D01*
X0129451Y0011389D01*
X0129451Y0008611D01*
X0130170Y0005928D01*
X0130850Y0004750D01*
X0019150Y0004750D01*
X0019830Y0005928D01*
X0020549Y0008611D01*
X0020549Y0011389D01*
X0019830Y0014072D01*
X0018441Y0016477D01*
X0016477Y0018441D01*
X0014072Y0019830D01*
X0011389Y0020549D01*
X0008611Y0020549D01*
X0005928Y0019830D01*
X0004750Y0019150D01*
X0004750Y0021624D01*
X0005257Y0021117D01*
X0007113Y0021117D01*
X0007684Y0021688D01*
X0007684Y0021233D01*
X0008182Y0020735D01*
X0011642Y0020735D01*
X0012140Y0021233D01*
X0012140Y0025481D01*
X0011642Y0025979D01*
X0008182Y0025979D01*
X0007684Y0025481D01*
X0007684Y0025026D01*
X0007351Y0025359D01*
X0007351Y0029428D01*
X0007907Y0029428D01*
X0007833Y0029354D01*
X0007661Y0029056D01*
X0007572Y0028723D01*
X0007572Y0028064D01*
X0009761Y0028064D01*
X0009761Y0027974D01*
X0007572Y0027974D01*
X0007572Y0027315D01*
X0007661Y0026982D01*
X0007833Y0026684D01*
X0008077Y0026440D01*
X0008375Y0026268D01*
X0008708Y0026178D01*
X0009761Y0026178D01*
X0009761Y0027974D01*
X0009851Y0027974D01*
X0009851Y0026178D01*
X0010903Y0026178D01*
X0011236Y0026268D01*
X0011535Y0026440D01*
X0011609Y0026514D01*
X0011624Y0026487D01*
X0011916Y0026196D01*
X0012273Y0025990D01*
X0012648Y0025889D01*
X0012487Y0025611D01*
X0012402Y0025293D01*
X0012402Y0023607D01*
X0014780Y0023607D01*
X0014780Y0023107D01*
X0012402Y0023107D01*
X0012402Y0021421D01*
X0012487Y0021103D01*
X0012652Y0020818D01*
X0012884Y0020585D01*
X0013169Y0020421D01*
X0013487Y0020335D01*
X0014780Y0020335D01*
X0014780Y0023107D01*
X0015280Y0023107D01*
X0015280Y0020335D01*
X0016572Y0020335D01*
X0016890Y0020421D01*
X0017175Y0020585D01*
X0017408Y0020818D01*
X0017573Y0021103D01*
X0017658Y0021421D01*
X0017658Y0023107D01*
X0015280Y0023107D01*
X0015280Y0023607D01*
X0017658Y0023607D01*
X0017658Y0025293D01*
X0017573Y0025611D01*
X0017416Y0025883D01*
X0018752Y0025883D01*
X0019150Y0025990D01*
X0019507Y0026196D01*
X0019798Y0026487D01*
X0020004Y0026844D01*
X0020014Y0026880D01*
X0020315Y0026578D01*
X0022599Y0026578D01*
X0022599Y0026325D01*
X0023097Y0025827D01*
X0025769Y0025827D01*
X0026008Y0026066D01*
X0026246Y0025827D01*
X0028919Y0025827D01*
X0029332Y0026240D01*
X0029789Y0025784D01*
X0031644Y0025784D01*
X0032957Y0027096D01*
X0032957Y0028951D01*
X0032480Y0029428D01*
X0035210Y0029428D01*
X0035884Y0030102D01*
X0035884Y0033485D01*
X0036464Y0033485D01*
X0036962Y0033983D01*
X0036962Y0036567D01*
X0037112Y0036717D01*
X0037277Y0037002D01*
X0037362Y0037320D01*
X0037362Y0038227D01*
X0034976Y0038227D01*
X0034976Y0038711D01*
X0037362Y0038711D01*
X0037362Y0039618D01*
X0037277Y0039936D01*
X0037112Y0040221D01*
X0036879Y0040453D01*
X0036594Y0040618D01*
X0036276Y0040703D01*
X0034976Y0040703D01*
X0034976Y0038711D01*
X0034492Y0038711D01*
X0034492Y0040703D01*
X0033191Y0040703D01*
X0032873Y0040618D01*
X0032588Y0040453D01*
X0032356Y0040221D01*
X0032191Y0039936D01*
X0032106Y0039618D01*
X0032106Y0038711D01*
X0034492Y0038711D01*
X0034492Y0038227D01*
X0032106Y0038227D01*
X0032106Y0037491D01*
X0031672Y0037925D01*
X0029816Y0037925D01*
X0028742Y0036851D01*
X0027816Y0036851D01*
X0027816Y0036949D01*
X0027966Y0037099D01*
X0028131Y0037384D01*
X0028216Y0037702D01*
X0028216Y0038609D01*
X0025830Y0038609D01*
X0025830Y0039093D01*
X0028216Y0039093D01*
X0028216Y0040000D01*
X0028131Y0040318D01*
X0027966Y0040603D01*
X0027734Y0040835D01*
X0027449Y0041000D01*
X0027131Y0041085D01*
X0025830Y0041085D01*
X0025830Y0039093D01*
X0025346Y0039093D01*
X0025346Y0041085D01*
X0024046Y0041085D01*
X0023728Y0041000D01*
X0023443Y0040835D01*
X0023210Y0040603D01*
X0023045Y0040318D01*
X0022960Y0040000D01*
X0022960Y0039093D01*
X0025346Y0039093D01*
X0025346Y0038609D01*
X0022960Y0038609D01*
X0022960Y0037702D01*
X0023045Y0037384D01*
X0023210Y0037099D01*
X0023360Y0036949D01*
X0023360Y0036846D01*
X0023209Y0036846D01*
X0022919Y0037137D01*
X0020315Y0037137D01*
X0020014Y0036835D01*
X0020004Y0036871D01*
X0019798Y0037228D01*
X0019507Y0037519D01*
X0019150Y0037725D01*
X0018752Y0037832D01*
X0015961Y0037832D01*
X0015961Y0032108D01*
X0015461Y0032108D01*
X0015461Y0037832D01*
X0012671Y0037832D01*
X0012273Y0037725D01*
X0011916Y0037519D01*
X0011624Y0037228D01*
X0011418Y0036871D01*
X0011409Y0036835D01*
X0011108Y0037137D01*
X0008504Y0037137D01*
X0008214Y0036846D01*
X0007351Y0036846D01*
X0007351Y0046014D01*
X0007829Y0045536D01*
X0011289Y0045536D01*
X0011787Y0046034D01*
X0011787Y0050281D01*
X0011289Y0050779D01*
X0007829Y0050779D01*
X0007351Y0050301D01*
X0007351Y0052575D01*
X0007433Y0052270D01*
X0007605Y0051972D01*
X0007849Y0051728D01*
X0008147Y0051556D01*
X0008480Y0051467D01*
X0009532Y0051467D01*
X0009532Y0053262D01*
X0009623Y0053262D01*
X0009623Y0051467D01*
X0010675Y0051467D01*
X0011008Y0051556D01*
X0011307Y0051728D01*
X0011381Y0051802D01*
X0011396Y0051775D01*
X0011688Y0051484D01*
X0012044Y0051278D01*
X0012442Y0051171D01*
X0013105Y0051171D01*
X0012817Y0051094D01*
X0012532Y0050929D01*
X0012299Y0050697D01*
X0012134Y0050412D01*
X0012049Y0050094D01*
X0012049Y0048407D01*
X0014427Y0048407D01*
X0014427Y0047907D01*
X0012049Y0047907D01*
X0012049Y0046221D01*
X0012134Y0045903D01*
X0012299Y0045618D01*
X0012532Y0045386D01*
X0012817Y0045221D01*
X0013135Y0045136D01*
X0014427Y0045136D01*
X0014427Y0047907D01*
X0014927Y0047907D01*
X0014927Y0045136D01*
X0016220Y0045136D01*
X0016538Y0045221D01*
X0016823Y0045386D01*
X0017055Y0045618D01*
X0017220Y0045903D01*
X0017305Y0046221D01*
X0017305Y0047907D01*
X0014927Y0047907D01*
X0014927Y0048407D01*
X0017305Y0048407D01*
X0017305Y0050094D01*
X0017220Y0050412D01*
X0017055Y0050697D01*
X0016823Y0050929D01*
X0016538Y0051094D01*
X0016249Y0051171D01*
X0018524Y0051171D01*
X0018922Y0051278D01*
X0019279Y0051484D01*
X0019570Y0051775D01*
X0019776Y0052132D01*
X0019786Y0052168D01*
X0020087Y0051867D01*
X0022690Y0051867D01*
X0022886Y0052062D01*
X0022886Y0051565D01*
X0023384Y0051067D01*
X0026057Y0051067D01*
X0026295Y0051306D01*
X0026534Y0051067D01*
X0029206Y0051067D01*
X0029448Y0051309D01*
X0029702Y0051055D01*
X0031558Y0051055D01*
X0032870Y0052367D01*
X0032870Y0054223D01*
X0032377Y0054716D01*
X0033724Y0054716D01*
X0034398Y0055390D01*
X0034398Y0056709D01*
X0034978Y0056709D01*
X0035476Y0057207D01*
X0035476Y0059791D01*
X0035626Y0059941D01*
X0035791Y0060226D01*
X0035876Y0060544D01*
X0035876Y0061451D01*
X0067673Y0026273D02*
X0067673Y0028129D01*
X0066361Y0029441D01*
X0064505Y0029441D01*
X0063415Y0028351D01*
X0045630Y0028351D01*
X0045630Y0034529D01*
X0045132Y0035027D01*
X0038916Y0035027D01*
X0038418Y0034529D01*
X0038418Y0028351D01*
X0033961Y0028351D01*
X0033287Y0027677D01*
X0033287Y0024650D01*
X0022518Y0024650D01*
X0021428Y0025740D01*
X0019572Y0025740D01*
X0018260Y0024428D01*
X0018260Y0022572D01*
X0019572Y0021260D01*
X0021428Y0021260D01*
X0022518Y0022350D01*
X0034913Y0022350D01*
X0035587Y0023024D01*
X0035587Y0026051D01*
X0063415Y0026051D01*
X0064505Y0024961D01*
X0066361Y0024961D01*
X0067673Y0026273D01*
X0037681Y0118333D02*
X0038722Y0117291D01*
X0040577Y0117291D01*
X0040689Y0117403D01*
X0040689Y0116072D01*
X0042001Y0114760D01*
X0043815Y0114760D01*
X0043815Y0113560D01*
X0045127Y0112248D01*
X0046983Y0112248D01*
X0048295Y0113560D01*
X0048295Y0115416D01*
X0046983Y0116728D01*
X0045169Y0116728D01*
X0045169Y0117928D01*
X0044723Y0118374D01*
X0063785Y0118487D01*
X0063785Y0116850D01*
X0064283Y0116352D01*
X0064863Y0116352D01*
X0064863Y0113989D01*
X0062971Y0113989D01*
X0062821Y0114140D01*
X0062536Y0114304D01*
X0062218Y0114389D01*
X0061311Y0114389D01*
X0061311Y0112004D01*
X0060827Y0112004D01*
X0060827Y0114389D01*
X0059920Y0114389D01*
X0059603Y0114304D01*
X0059318Y0114140D01*
X0059085Y0113907D01*
X0058920Y0113622D01*
X0058835Y0113304D01*
X0058835Y0112004D01*
X0060827Y0112004D01*
X0060827Y0111519D01*
X0058835Y0111519D01*
X0058835Y0110219D01*
X0058920Y0109901D01*
X0059085Y0109616D01*
X0059318Y0109383D01*
X0059603Y0109219D01*
X0059920Y0109133D01*
X0060827Y0109133D01*
X0060827Y0111519D01*
X0061311Y0111519D01*
X0061311Y0109133D01*
X0062218Y0109133D01*
X0062536Y0109219D01*
X0062821Y0109383D01*
X0062971Y0109533D01*
X0064215Y0109533D01*
X0065072Y0108106D01*
X0065072Y0100411D01*
X0056190Y0100411D01*
X0055363Y0101238D01*
X0055363Y0102870D01*
X0055355Y0102879D01*
X0055355Y0109157D01*
X0056261Y0109157D01*
X0056579Y0109242D01*
X0056864Y0109406D01*
X0057097Y0109639D01*
X0057261Y0109924D01*
X0057346Y0110242D01*
X0057346Y0111542D01*
X0055354Y0111542D01*
X0055354Y0112027D01*
X0057346Y0112027D01*
X0057346Y0113327D01*
X0057261Y0113645D01*
X0057097Y0113930D01*
X0056864Y0114163D01*
X0056579Y0114327D01*
X0056261Y0114413D01*
X0055354Y0114413D01*
X0055354Y0112027D01*
X0054870Y0112027D01*
X0054870Y0114413D01*
X0053963Y0114413D01*
X0053645Y0114327D01*
X0053360Y0114163D01*
X0053210Y0114013D01*
X0050626Y0114013D01*
X0050128Y0113515D01*
X0050128Y0110055D01*
X0050341Y0109842D01*
X0049035Y0109842D01*
X0048537Y0109344D01*
X0048537Y0099979D01*
X0049035Y0099481D01*
X0053868Y0099481D01*
X0055237Y0098111D01*
X0069737Y0098111D01*
X0070916Y0096933D01*
X0037685Y0096933D01*
X0037685Y0107514D01*
X0038775Y0108604D01*
X0038775Y0110459D01*
X0037463Y0111771D01*
X0035608Y0111771D01*
X0034624Y0110788D01*
X0033676Y0111736D01*
X0031820Y0111736D01*
X0030783Y0110699D01*
X0030783Y0110770D01*
X0029471Y0112083D01*
X0027615Y0112083D01*
X0027370Y0111837D01*
X0027370Y0118272D01*
X0037681Y0118333D01*
X0064907Y0081268D02*
X0064644Y0081268D01*
X0064644Y0082699D01*
X0062267Y0082699D01*
X0062267Y0083199D01*
X0064644Y0083199D01*
X0064644Y0084790D01*
X0064907Y0084790D01*
X0064907Y0081268D01*
X0097818Y0104838D02*
X0097755Y0104900D01*
X0097647Y0104900D01*
X0097902Y0105155D01*
X0097902Y0107019D01*
X0097609Y0107311D01*
X0097609Y0107331D01*
X0097953Y0107331D01*
X0098451Y0107829D01*
X0098451Y0110413D01*
X0098601Y0110564D01*
X0098766Y0110849D01*
X0098851Y0111167D01*
X0098851Y0112073D01*
X0096465Y0112073D01*
X0096465Y0112557D01*
X0098851Y0112557D01*
X0098851Y0113464D01*
X0098766Y0113782D01*
X0098601Y0114067D01*
X0098369Y0114300D01*
X0098084Y0114464D01*
X0097766Y0114550D01*
X0096465Y0114550D01*
X0096465Y0112558D01*
X0095981Y0112558D01*
X0095981Y0114197D01*
X0099536Y0117752D01*
X0101889Y0117752D01*
X0101889Y0117268D01*
X0099504Y0117268D01*
X0099504Y0116361D01*
X0099589Y0116043D01*
X0099753Y0115758D01*
X0099904Y0115608D01*
X0099904Y0113024D01*
X0100401Y0112526D01*
X0100976Y0112526D01*
X0100976Y0107996D01*
X0097818Y0104838D01*
X0093979Y0115669D02*
X0093894Y0115987D01*
X0093729Y0116272D01*
X0093496Y0116505D01*
X0093211Y0116669D01*
X0092893Y0116754D01*
X0091593Y0116754D01*
X0091593Y0114762D01*
X0091109Y0114762D01*
X0091109Y0116411D01*
X0093358Y0118661D01*
X0097215Y0118684D01*
X0093979Y0115448D01*
X0093979Y0115669D01*
X0103276Y0107043D02*
X0103276Y0112526D01*
X0103737Y0112526D01*
X0103737Y0112446D01*
X0104171Y0112012D01*
X0104105Y0111994D01*
X0103820Y0111829D01*
X0103587Y0111597D01*
X0103423Y0111312D01*
X0103337Y0110994D01*
X0103337Y0109504D01*
X0105715Y0109504D01*
X0105715Y0109004D01*
X0103337Y0109004D01*
X0103337Y0107515D01*
X0103423Y0107197D01*
X0103587Y0106912D01*
X0103820Y0106679D01*
X0103850Y0106662D01*
X0102894Y0106662D01*
X0103276Y0107043D01*
X0108339Y0102680D02*
X0108837Y0102182D01*
X0111421Y0102182D01*
X0111571Y0102032D01*
X0111856Y0101867D01*
X0112174Y0101782D01*
X0113081Y0101782D01*
X0113081Y0104168D01*
X0113565Y0104168D01*
X0113565Y0101782D01*
X0114472Y0101782D01*
X0114790Y0101867D01*
X0115075Y0102032D01*
X0115307Y0102265D01*
X0115472Y0102550D01*
X0115557Y0102868D01*
X0115557Y0104168D01*
X0113565Y0104168D01*
X0113565Y0104652D01*
X0115557Y0104652D01*
X0115557Y0105953D01*
X0115472Y0106271D01*
X0115307Y0106556D01*
X0115075Y0106788D01*
X0114790Y0106953D01*
X0114472Y0107038D01*
X0113565Y0107038D01*
X0113565Y0104652D01*
X0113081Y0104652D01*
X0113081Y0107038D01*
X0112174Y0107038D01*
X0111856Y0106953D01*
X0111571Y0106788D01*
X0111421Y0106638D01*
X0109524Y0106638D01*
X0109716Y0106830D01*
X0111632Y0106830D01*
X0112130Y0107327D01*
X0112130Y0107870D01*
X0112572Y0107428D01*
X0116032Y0107428D01*
X0116530Y0107926D01*
X0116530Y0110510D01*
X0116680Y0110660D01*
X0116845Y0110945D01*
X0116930Y0111263D01*
X0116930Y0112170D01*
X0114544Y0112170D01*
X0114544Y0112654D01*
X0116930Y0112654D01*
X0116930Y0113561D01*
X0116845Y0113879D01*
X0116680Y0114164D01*
X0116635Y0114209D01*
X0117715Y0114209D01*
X0117797Y0114291D01*
X0123747Y0114291D01*
X0124235Y0113804D01*
X0124614Y0113804D01*
X0124614Y0110689D01*
X0124427Y0110689D01*
X0123930Y0110191D01*
X0123930Y0106731D01*
X0124427Y0106233D01*
X0127011Y0106233D01*
X0127162Y0106082D01*
X0127447Y0105918D01*
X0127765Y0105833D01*
X0128671Y0105833D01*
X0128671Y0108218D01*
X0129156Y0108218D01*
X0129156Y0105833D01*
X0130062Y0105833D01*
X0130380Y0105918D01*
X0130665Y0106082D01*
X0130898Y0106315D01*
X0131062Y0106600D01*
X0131148Y0106918D01*
X0131148Y0108218D01*
X0129156Y0108218D01*
X0129156Y0108703D01*
X0131148Y0108703D01*
X0131148Y0109638D01*
X0132034Y0109638D01*
X0133124Y0110728D01*
X0133465Y0110728D01*
X0133465Y0095715D01*
X0121938Y0095715D01*
X0121653Y0096000D01*
X0118193Y0096000D01*
X0117879Y0095686D01*
X0117316Y0095686D01*
X0117393Y0095819D01*
X0117478Y0096137D01*
X0117478Y0097043D01*
X0115092Y0097043D01*
X0115092Y0097528D01*
X0117478Y0097528D01*
X0117478Y0098434D01*
X0117393Y0098752D01*
X0117228Y0099037D01*
X0116995Y0099270D01*
X0116710Y0099435D01*
X0116392Y0099520D01*
X0115092Y0099520D01*
X0115092Y0097528D01*
X0114608Y0097528D01*
X0114608Y0099520D01*
X0113307Y0099520D01*
X0112989Y0099435D01*
X0112704Y0099270D01*
X0112472Y0099037D01*
X0112307Y0098752D01*
X0112222Y0098434D01*
X0112222Y0097528D01*
X0114608Y0097528D01*
X0114608Y0097043D01*
X0112222Y0097043D01*
X0112222Y0096362D01*
X0110107Y0096362D01*
X0109868Y0096123D01*
X0109630Y0096362D01*
X0106957Y0096362D01*
X0106739Y0096144D01*
X0106739Y0097044D01*
X0104353Y0097044D01*
X0104353Y0097528D01*
X0106739Y0097528D01*
X0106739Y0098435D01*
X0106654Y0098753D01*
X0106489Y0099038D01*
X0106256Y0099271D01*
X0105971Y0099435D01*
X0105654Y0099520D01*
X0104353Y0099520D01*
X0104353Y0097528D01*
X0103869Y0097528D01*
X0103869Y0099174D01*
X0104559Y0099864D01*
X0104798Y0099624D01*
X0106662Y0099624D01*
X0107980Y0100942D01*
X0107980Y0102806D01*
X0107684Y0103102D01*
X0108339Y0103102D01*
X0108339Y0102680D01*
X0101483Y0097528D02*
X0103869Y0097528D01*
X0103869Y0097044D01*
X0101483Y0097044D01*
X0101483Y0096292D01*
X0098814Y0096292D01*
X0098872Y0096507D01*
X0099724Y0096507D01*
X0100452Y0097236D01*
X0100452Y0097369D01*
X0101052Y0097968D01*
X0101483Y0097968D01*
X0101483Y0097528D01*
X0080508Y0102882D02*
X0080508Y0102882D01*
X0080508Y0101688D01*
X0080508Y0101688D01*
X0080508Y0102882D01*
X0097965Y0093299D02*
X0098434Y0092830D01*
X0097965Y0092361D01*
X0097965Y0091330D01*
X0098434Y0090861D01*
X0097965Y0090392D01*
X0097965Y0089927D01*
X0097755Y0090137D01*
X0097211Y0090137D01*
X0097211Y0090611D01*
X0086663Y0090611D01*
X0086663Y0091111D01*
X0097211Y0091111D01*
X0097211Y0093555D01*
X0097755Y0093555D01*
X0097965Y0093764D01*
X0097965Y0093299D01*
X0061967Y0068209D02*
X0061467Y0068209D01*
X0061467Y0070981D01*
X0061421Y0070981D01*
X0061421Y0072022D01*
X0061921Y0072022D01*
X0061921Y0069250D01*
X0061967Y0069250D01*
X0061967Y0068209D01*
X0064513Y0074887D02*
X0064783Y0074617D01*
X0064561Y0074395D01*
X0064561Y0070148D01*
X0064617Y0070092D01*
X0064607Y0070083D01*
X0064607Y0065835D01*
X0064608Y0065835D01*
X0064295Y0065835D01*
X0064345Y0066023D01*
X0064345Y0067709D01*
X0061967Y0067709D01*
X0061967Y0068209D01*
X0064345Y0068209D01*
X0064345Y0069895D01*
X0064263Y0070201D01*
X0064299Y0070335D01*
X0064299Y0072022D01*
X0061921Y0072022D01*
X0061921Y0072522D01*
X0064299Y0072522D01*
X0064299Y0074208D01*
X0064214Y0074526D01*
X0064123Y0074683D01*
X0064166Y0074757D01*
X0064251Y0075075D01*
X0064251Y0076761D01*
X0061873Y0076761D01*
X0061873Y0077261D01*
X0064251Y0077261D01*
X0064251Y0078947D01*
X0064245Y0078968D01*
X0064513Y0078968D01*
X0064513Y0074887D01*
X0059043Y0072022D02*
X0059043Y0070335D01*
X0059125Y0070029D01*
X0059089Y0069895D01*
X0059089Y0068209D01*
X0061467Y0068209D01*
X0061467Y0067709D01*
X0059089Y0067709D01*
X0059089Y0066023D01*
X0059140Y0065835D01*
X0054685Y0065835D01*
X0054685Y0078968D01*
X0059000Y0078968D01*
X0058995Y0078947D01*
X0058995Y0077261D01*
X0061373Y0077261D01*
X0061373Y0076761D01*
X0058995Y0076761D01*
X0058995Y0075075D01*
X0059080Y0074757D01*
X0059171Y0074599D01*
X0059128Y0074526D01*
X0059043Y0074208D01*
X0059043Y0072522D01*
X0061421Y0072522D01*
X0061421Y0072022D01*
X0059043Y0072022D01*
X0061421Y0075293D02*
X0061373Y0075293D01*
X0061373Y0076761D01*
X0061873Y0076761D01*
X0061873Y0073989D01*
X0061921Y0073989D01*
X0061921Y0072522D01*
X0061421Y0072522D01*
X0061421Y0075293D01*
X0011519Y0032107D02*
X0015461Y0032107D01*
X0015461Y0031607D01*
X0011519Y0031607D01*
X0011269Y0031857D01*
X0011519Y0032107D01*
X0019904Y0031607D02*
X0015961Y0031607D01*
X0015961Y0032107D01*
X0019904Y0032107D01*
X0020154Y0031857D01*
X0019904Y0031607D01*
X0015961Y0026379D02*
X0015461Y0026379D01*
X0015461Y0031607D01*
X0015961Y0031607D01*
X0015961Y0026379D01*
X0076878Y0107112D02*
X0078178Y0107112D01*
X0078178Y0109104D01*
X0078662Y0109104D01*
X0078662Y0107112D01*
X0079963Y0107112D01*
X0080281Y0107197D01*
X0080342Y0107233D01*
X0080342Y0104266D01*
X0080248Y0104172D01*
X0080248Y0103320D01*
X0079873Y0103220D01*
X0079689Y0103114D01*
X0079689Y0103163D01*
X0076565Y0106287D01*
X0076565Y0107195D01*
X0076878Y0107112D01*
X0129156Y0108703D02*
X0128671Y0108703D01*
X0128671Y0111089D01*
X0127765Y0111089D01*
X0127447Y0111003D01*
X0127162Y0110839D01*
X0127011Y0110689D01*
X0126914Y0110689D01*
X0126914Y0113804D01*
X0127301Y0113804D01*
X0127799Y0114301D01*
X0127799Y0116580D01*
X0127659Y0116720D01*
X0127799Y0116861D01*
X0127799Y0118864D01*
X0131801Y0118888D01*
X0131801Y0118144D01*
X0133465Y0118144D01*
X0133465Y0117856D01*
X0131801Y0117856D01*
X0131801Y0117048D01*
X0131886Y0116730D01*
X0132051Y0116445D01*
X0132201Y0116295D01*
X0132201Y0114301D01*
X0132699Y0113804D01*
X0133066Y0113804D01*
X0133059Y0113093D01*
X0132034Y0114118D01*
X0130178Y0114118D01*
X0128866Y0112806D01*
X0128866Y0110950D01*
X0129156Y0110661D01*
X0129156Y0108703D01*
X0114544Y0114646D02*
X0114544Y0112654D01*
X0114060Y0112654D01*
X0114060Y0114646D01*
X0112759Y0114646D01*
X0112442Y0114561D01*
X0112156Y0114397D01*
X0111924Y0114164D01*
X0111900Y0114122D01*
X0110152Y0114122D01*
X0110152Y0114622D01*
X0112530Y0114622D01*
X0112530Y0116112D01*
X0112445Y0116430D01*
X0112281Y0116715D01*
X0112048Y0116947D01*
X0111763Y0117112D01*
X0111445Y0117197D01*
X0110152Y0117197D01*
X0110152Y0114622D01*
X0109652Y0114622D01*
X0109652Y0117197D01*
X0108360Y0117197D01*
X0108042Y0117112D01*
X0107757Y0116947D01*
X0107607Y0116797D01*
X0104759Y0116797D01*
X0104759Y0117268D01*
X0102374Y0117268D01*
X0102374Y0117752D01*
X0104759Y0117752D01*
X0104759Y0118659D01*
X0104741Y0118728D01*
X0117142Y0118801D01*
X0117142Y0118689D01*
X0115860Y0118689D01*
X0114547Y0117377D01*
X0114547Y0115521D01*
X0115422Y0114646D01*
X0114544Y0114646D01*
X0083248Y0037548D02*
X0078186Y0037548D01*
X0078270Y0037859D01*
X0078270Y0038766D01*
X0075884Y0038766D01*
X0075884Y0039250D01*
X0078270Y0039250D01*
X0078270Y0040157D01*
X0078184Y0040475D01*
X0078020Y0040760D01*
X0077870Y0040910D01*
X0077870Y0042500D01*
X0078350Y0042019D01*
X0087720Y0042019D01*
X0083248Y0037548D01*
X0089325Y0050360D02*
X0086939Y0050360D01*
X0086939Y0050844D01*
X0089325Y0050844D01*
X0089325Y0051751D01*
X0089240Y0052069D01*
X0089075Y0052354D01*
X0088842Y0052587D01*
X0088557Y0052751D01*
X0088239Y0052837D01*
X0086939Y0052837D01*
X0086939Y0050845D01*
X0086455Y0050845D01*
X0086455Y0052837D01*
X0085154Y0052837D01*
X0084836Y0052751D01*
X0084551Y0052587D01*
X0084319Y0052354D01*
X0084154Y0052069D01*
X0084069Y0051751D01*
X0084069Y0050844D01*
X0086455Y0050844D01*
X0086455Y0050360D01*
X0084069Y0050360D01*
X0084069Y0049681D01*
X0082387Y0049681D01*
X0081746Y0049040D01*
X0081746Y0053916D01*
X0081847Y0054090D01*
X0081959Y0054508D01*
X0081959Y0054724D01*
X0081746Y0054724D01*
X0081746Y0054724D01*
X0081959Y0054724D01*
X0081959Y0054941D01*
X0081847Y0055359D01*
X0081746Y0055533D01*
X0081746Y0057145D01*
X0081972Y0057145D01*
X0081972Y0056201D01*
X0082646Y0055527D01*
X0090740Y0055527D01*
X0090740Y0049024D01*
X0088925Y0047209D01*
X0088925Y0048700D01*
X0089075Y0048851D01*
X0089240Y0049136D01*
X0089325Y0049454D01*
X0089325Y0050360D01*
X0096725Y0076822D02*
X0097755Y0076822D01*
X0097849Y0076916D01*
X0098362Y0076916D01*
X0098362Y0075745D01*
X0098849Y0075258D01*
X0098497Y0074906D01*
X0098497Y0072322D01*
X0098347Y0072172D01*
X0098182Y0071887D01*
X0098097Y0071569D01*
X0098097Y0070662D01*
X0100483Y0070662D01*
X0100483Y0070178D01*
X0098097Y0070178D01*
X0098097Y0069271D01*
X0098182Y0068953D01*
X0098347Y0068668D01*
X0098580Y0068435D01*
X0098865Y0068271D01*
X0099183Y0068186D01*
X0100483Y0068186D01*
X0100483Y0070178D01*
X0100967Y0070178D01*
X0100967Y0068186D01*
X0102268Y0068186D01*
X0102586Y0068271D01*
X0102871Y0068435D01*
X0103103Y0068668D01*
X0103268Y0068953D01*
X0103353Y0069271D01*
X0103353Y0070178D01*
X0100967Y0070178D01*
X0100967Y0070662D01*
X0103353Y0070662D01*
X0103353Y0071569D01*
X0103268Y0071887D01*
X0103103Y0072172D01*
X0102953Y0072322D01*
X0102953Y0074906D01*
X0102488Y0075371D01*
X0102862Y0075745D01*
X0102862Y0077609D01*
X0101587Y0078885D01*
X0102954Y0078885D01*
X0105543Y0076295D01*
X0105543Y0076244D01*
X0104963Y0076244D01*
X0104465Y0075746D01*
X0104465Y0073073D01*
X0104703Y0072835D01*
X0104465Y0072596D01*
X0104465Y0069923D01*
X0104963Y0069426D01*
X0105543Y0069426D01*
X0105543Y0066764D01*
X0105523Y0064298D01*
X0104417Y0063192D01*
X0104417Y0061336D01*
X0105507Y0060246D01*
X0105507Y0032307D01*
X0077476Y0032307D01*
X0076803Y0031634D01*
X0076803Y0024747D01*
X0076673Y0024617D01*
X0076544Y0024747D01*
X0076544Y0031961D01*
X0075870Y0032634D01*
X0055811Y0032634D01*
X0055811Y0056809D01*
X0056679Y0057677D01*
X0057993Y0057677D01*
X0057993Y0057069D01*
X0058490Y0056571D01*
X0061163Y0056571D01*
X0061402Y0056810D01*
X0061640Y0056571D01*
X0064313Y0056571D01*
X0064811Y0057069D01*
X0064811Y0057649D01*
X0065165Y0057649D01*
X0067114Y0059598D01*
X0069063Y0059598D01*
X0069716Y0060251D01*
X0069716Y0057730D01*
X0068007Y0057730D01*
X0067860Y0057584D01*
X0067860Y0043991D01*
X0068007Y0043844D01*
X0069248Y0043844D01*
X0068075Y0042672D01*
X0068075Y0041179D01*
X0067372Y0041179D01*
X0067372Y0038793D01*
X0066888Y0038793D01*
X0066888Y0041179D01*
X0065981Y0041179D01*
X0065663Y0041094D01*
X0065378Y0040929D01*
X0065145Y0040697D01*
X0064981Y0040412D01*
X0064896Y0040094D01*
X0064896Y0038793D01*
X0066888Y0038793D01*
X0066888Y0038309D01*
X0064896Y0038309D01*
X0064896Y0037009D01*
X0064981Y0036691D01*
X0065145Y0036406D01*
X0065378Y0036173D01*
X0065663Y0036008D01*
X0065981Y0035923D01*
X0066888Y0035923D01*
X0066888Y0038309D01*
X0067372Y0038309D01*
X0067372Y0035923D01*
X0068279Y0035923D01*
X0068597Y0036008D01*
X0068882Y0036173D01*
X0069032Y0036323D01*
X0071616Y0036323D01*
X0072061Y0036769D01*
X0072909Y0035921D01*
X0073583Y0035248D01*
X0084201Y0035248D01*
X0095748Y0046795D01*
X0096422Y0047469D01*
X0096422Y0077126D01*
X0096725Y0076822D01*
X0084272Y0057827D02*
X0084272Y0058772D01*
X0083598Y0059445D01*
X0075725Y0059445D01*
X0084976Y0068697D01*
X0084976Y0068265D01*
X0086263Y0066978D01*
X0086263Y0066020D01*
X0085683Y0066020D01*
X0085185Y0065523D01*
X0085185Y0062939D01*
X0085035Y0062788D01*
X0084871Y0062503D01*
X0084785Y0062185D01*
X0084785Y0061279D01*
X0087171Y0061279D01*
X0087171Y0060794D01*
X0084785Y0060794D01*
X0084785Y0059888D01*
X0084871Y0059570D01*
X0085035Y0059285D01*
X0085268Y0059052D01*
X0085553Y0058888D01*
X0085871Y0058802D01*
X0087171Y0058802D01*
X0087171Y0060794D01*
X0087656Y0060794D01*
X0087656Y0058802D01*
X0088956Y0058802D01*
X0089274Y0058888D01*
X0089275Y0058888D01*
X0089275Y0057827D01*
X0084272Y0057827D01*
X0060380Y0004985D02*
X0019286Y0004985D01*
X0064620Y0004985D02*
X0067467Y0004985D01*
X0083321Y0004985D02*
X0086167Y0004985D01*
X0090407Y0004985D02*
X0130714Y0004985D01*
X0060380Y0005484D02*
X0019574Y0005484D01*
X0064620Y0005484D02*
X0067467Y0005484D01*
X0083321Y0005484D02*
X0086167Y0005484D01*
X0090407Y0005484D02*
X0130426Y0005484D01*
X0060380Y0005982D02*
X0019845Y0005982D01*
X0064620Y0005982D02*
X0067467Y0005982D01*
X0083321Y0005982D02*
X0086167Y0005982D01*
X0090407Y0005982D02*
X0130155Y0005982D01*
X0055398Y0006481D02*
X0019978Y0006481D01*
X0064620Y0006481D02*
X0067467Y0006481D01*
X0083321Y0006481D02*
X0086167Y0006481D01*
X0095390Y0006481D02*
X0130022Y0006481D01*
X0055252Y0006979D02*
X0020112Y0006979D01*
X0064620Y0006979D02*
X0067467Y0006979D01*
X0083321Y0006979D02*
X0086167Y0006979D01*
X0095535Y0006979D02*
X0129888Y0006979D01*
X0055252Y0007478D02*
X0020245Y0007478D01*
X0064620Y0007478D02*
X0067467Y0007478D01*
X0083321Y0007478D02*
X0086167Y0007478D01*
X0095535Y0007478D02*
X0129755Y0007478D01*
X0055252Y0007976D02*
X0020379Y0007976D01*
X0064620Y0007976D02*
X0067467Y0007976D01*
X0083321Y0007976D02*
X0086167Y0007976D01*
X0095535Y0007976D02*
X0129621Y0007976D01*
X0055252Y0008475D02*
X0020513Y0008475D01*
X0064620Y0008475D02*
X0067467Y0008475D01*
X0083321Y0008475D02*
X0086167Y0008475D01*
X0095535Y0008475D02*
X0129487Y0008475D01*
X0055252Y0008973D02*
X0020549Y0008973D01*
X0064620Y0008973D02*
X0067467Y0008973D01*
X0083321Y0008973D02*
X0086167Y0008973D01*
X0095535Y0008973D02*
X0129451Y0008973D01*
X0055252Y0009472D02*
X0020549Y0009472D01*
X0064620Y0009472D02*
X0067467Y0009472D01*
X0083321Y0009472D02*
X0086167Y0009472D01*
X0095535Y0009472D02*
X0129451Y0009472D01*
X0055252Y0009970D02*
X0020549Y0009970D01*
X0064620Y0009970D02*
X0067467Y0009970D01*
X0083321Y0009970D02*
X0086167Y0009970D01*
X0095535Y0009970D02*
X0129451Y0009970D01*
X0055252Y0010469D02*
X0020549Y0010469D01*
X0064620Y0010469D02*
X0067467Y0010469D01*
X0083321Y0010469D02*
X0086167Y0010469D01*
X0095535Y0010469D02*
X0129451Y0010469D01*
X0055252Y0010967D02*
X0020549Y0010967D01*
X0064620Y0010967D02*
X0067467Y0010967D01*
X0083321Y0010967D02*
X0086167Y0010967D01*
X0095535Y0010967D02*
X0129451Y0010967D01*
X0055252Y0011466D02*
X0020529Y0011466D01*
X0064620Y0011466D02*
X0067467Y0011466D01*
X0083321Y0011466D02*
X0086167Y0011466D01*
X0095535Y0011466D02*
X0129471Y0011466D01*
X0055252Y0011964D02*
X0020395Y0011964D01*
X0064620Y0011964D02*
X0067467Y0011964D01*
X0083321Y0011964D02*
X0086167Y0011964D01*
X0095535Y0011964D02*
X0129605Y0011964D01*
X0055252Y0012463D02*
X0020261Y0012463D01*
X0064620Y0012463D02*
X0067467Y0012463D01*
X0083321Y0012463D02*
X0086167Y0012463D01*
X0095535Y0012463D02*
X0129739Y0012463D01*
X0055252Y0012961D02*
X0020128Y0012961D01*
X0064620Y0012961D02*
X0067467Y0012961D01*
X0083321Y0012961D02*
X0086167Y0012961D01*
X0095535Y0012961D02*
X0129872Y0012961D01*
X0055252Y0013460D02*
X0019994Y0013460D01*
X0064620Y0013460D02*
X0067467Y0013460D01*
X0083321Y0013460D02*
X0086167Y0013460D01*
X0095535Y0013460D02*
X0130006Y0013460D01*
X0055252Y0013958D02*
X0019861Y0013958D01*
X0064620Y0013958D02*
X0067467Y0013958D01*
X0083321Y0013958D02*
X0086167Y0013958D01*
X0095535Y0013958D02*
X0130139Y0013958D01*
X0055252Y0014457D02*
X0019608Y0014457D01*
X0095535Y0014457D02*
X0130392Y0014457D01*
X0055397Y0014955D02*
X0019320Y0014955D01*
X0095390Y0014955D02*
X0130680Y0014955D01*
X0058432Y0015454D02*
X0019032Y0015454D01*
X0092355Y0015454D02*
X0130968Y0015454D01*
X0058205Y0015952D02*
X0018745Y0015952D01*
X0092582Y0015952D02*
X0131255Y0015952D01*
X0058205Y0016451D02*
X0018457Y0016451D01*
X0092582Y0016451D02*
X0131543Y0016451D01*
X0058205Y0016949D02*
X0017969Y0016949D01*
X0092582Y0016949D02*
X0132031Y0016949D01*
X0058205Y0017448D02*
X0017471Y0017448D01*
X0092582Y0017448D02*
X0132529Y0017448D01*
X0058205Y0017946D02*
X0016972Y0017946D01*
X0092582Y0017946D02*
X0133028Y0017946D01*
X0058205Y0018445D02*
X0016471Y0018445D01*
X0092582Y0018445D02*
X0133465Y0018445D01*
X0058205Y0018943D02*
X0015608Y0018943D01*
X0068173Y0018943D02*
X0068238Y0018943D01*
X0082149Y0018943D02*
X0082615Y0018943D01*
X0092582Y0018943D02*
X0133465Y0018943D01*
X0005256Y0019442D02*
X0004750Y0019442D01*
X0014744Y0019442D02*
X0058205Y0019442D01*
X0068173Y0019442D02*
X0068238Y0019442D01*
X0082149Y0019442D02*
X0082615Y0019442D01*
X0092582Y0019442D02*
X0133465Y0019442D01*
X0006339Y0019940D02*
X0004750Y0019940D01*
X0013661Y0019940D02*
X0058205Y0019940D01*
X0068173Y0019940D02*
X0068238Y0019940D01*
X0082149Y0019940D02*
X0082615Y0019940D01*
X0092582Y0019940D02*
X0133465Y0019940D01*
X0008200Y0020439D02*
X0004750Y0020439D01*
X0011800Y0020439D02*
X0013138Y0020439D01*
X0014780Y0020439D02*
X0015280Y0020439D01*
X0016922Y0020439D02*
X0058205Y0020439D01*
X0068173Y0020439D02*
X0068238Y0020439D01*
X0082149Y0020439D02*
X0082615Y0020439D01*
X0092582Y0020439D02*
X0133465Y0020439D01*
X0007980Y0020937D02*
X0004750Y0020937D01*
X0011844Y0020937D02*
X0012583Y0020937D01*
X0014780Y0020937D02*
X0015280Y0020937D01*
X0017477Y0020937D02*
X0058205Y0020937D01*
X0068173Y0020937D02*
X0068238Y0020937D01*
X0082149Y0020937D02*
X0082615Y0020937D01*
X0092582Y0020937D02*
X0133465Y0020937D01*
X0004938Y0021436D02*
X0004750Y0021436D01*
X0007432Y0021436D02*
X0007684Y0021436D01*
X0012140Y0021436D02*
X0012402Y0021436D01*
X0014780Y0021436D02*
X0015280Y0021436D01*
X0017658Y0021436D02*
X0019396Y0021436D01*
X0021604Y0021436D02*
X0058205Y0021436D01*
X0068173Y0021436D02*
X0068238Y0021436D01*
X0070132Y0021436D02*
X0070419Y0021436D01*
X0082149Y0021436D02*
X0082615Y0021436D01*
X0092582Y0021436D02*
X0133465Y0021436D01*
X0012402Y0021934D02*
X0012140Y0021934D01*
X0014780Y0021934D02*
X0015280Y0021934D01*
X0017658Y0021934D02*
X0018898Y0021934D01*
X0022102Y0021934D02*
X0058205Y0021934D01*
X0068173Y0021934D02*
X0068238Y0021934D01*
X0070132Y0021934D02*
X0070419Y0021934D01*
X0082149Y0021934D02*
X0082615Y0021934D01*
X0092582Y0021934D02*
X0133465Y0021934D01*
X0012402Y0022433D02*
X0012140Y0022433D01*
X0014780Y0022433D02*
X0015280Y0022433D01*
X0017658Y0022433D02*
X0018399Y0022433D01*
X0034996Y0022433D02*
X0058205Y0022433D01*
X0068173Y0022433D02*
X0068238Y0022433D01*
X0070132Y0022433D02*
X0070419Y0022433D01*
X0082149Y0022433D02*
X0082615Y0022433D01*
X0092582Y0022433D02*
X0133465Y0022433D01*
X0012402Y0022932D02*
X0012140Y0022932D01*
X0014780Y0022932D02*
X0015280Y0022932D01*
X0017658Y0022932D02*
X0018260Y0022932D01*
X0035495Y0022932D02*
X0058205Y0022932D01*
X0068173Y0022932D02*
X0068238Y0022932D01*
X0070132Y0022932D02*
X0070419Y0022932D01*
X0082149Y0022932D02*
X0082615Y0022932D01*
X0092582Y0022932D02*
X0133465Y0022932D01*
X0014780Y0023430D02*
X0012140Y0023430D01*
X0015280Y0023430D02*
X0018260Y0023430D01*
X0035587Y0023430D02*
X0058205Y0023430D01*
X0068173Y0023430D02*
X0068238Y0023430D01*
X0070132Y0023430D02*
X0070419Y0023430D01*
X0082149Y0023430D02*
X0082615Y0023430D01*
X0092582Y0023430D02*
X0133465Y0023430D01*
X0012402Y0023929D02*
X0012140Y0023929D01*
X0017658Y0023929D02*
X0018260Y0023929D01*
X0035587Y0023929D02*
X0058205Y0023929D01*
X0068173Y0023929D02*
X0068238Y0023929D01*
X0070132Y0023929D02*
X0070419Y0023929D01*
X0082149Y0023929D02*
X0082615Y0023929D01*
X0092582Y0023929D02*
X0133465Y0023929D01*
X0012402Y0024427D02*
X0012140Y0024427D01*
X0017658Y0024427D02*
X0018260Y0024427D01*
X0035587Y0024427D02*
X0058373Y0024427D01*
X0068005Y0024427D02*
X0068345Y0024427D01*
X0070132Y0024427D02*
X0070419Y0024427D01*
X0081981Y0024427D02*
X0082782Y0024427D01*
X0092414Y0024427D02*
X0133465Y0024427D01*
X0012402Y0024926D02*
X0012140Y0024926D01*
X0017658Y0024926D02*
X0018758Y0024926D01*
X0022242Y0024926D02*
X0033287Y0024926D01*
X0035587Y0024926D02*
X0068752Y0024926D01*
X0070132Y0024926D02*
X0070419Y0024926D01*
X0071799Y0024926D02*
X0074244Y0024926D01*
X0076544Y0024926D02*
X0076803Y0024926D01*
X0079103Y0024926D02*
X0079362Y0024926D01*
X0081662Y0024926D02*
X0133465Y0024926D01*
X0007684Y0025424D02*
X0007351Y0025424D01*
X0012140Y0025424D02*
X0012437Y0025424D01*
X0017623Y0025424D02*
X0019256Y0025424D01*
X0021744Y0025424D02*
X0033287Y0025424D01*
X0035587Y0025424D02*
X0064042Y0025424D01*
X0066824Y0025424D02*
X0074244Y0025424D01*
X0076544Y0025424D02*
X0076803Y0025424D01*
X0079103Y0025424D02*
X0079362Y0025424D01*
X0081662Y0025424D02*
X0083853Y0025424D01*
X0086501Y0025424D02*
X0133465Y0025424D01*
X0008126Y0025923D02*
X0007351Y0025923D01*
X0011698Y0025923D02*
X0012523Y0025923D01*
X0018900Y0025923D02*
X0023001Y0025923D01*
X0025865Y0025923D02*
X0026151Y0025923D01*
X0029014Y0025923D02*
X0029650Y0025923D01*
X0031783Y0025923D02*
X0033287Y0025923D01*
X0035587Y0025923D02*
X0063543Y0025923D01*
X0067323Y0025923D02*
X0074244Y0025923D01*
X0076544Y0025923D02*
X0076803Y0025923D01*
X0079103Y0025923D02*
X0079362Y0025923D01*
X0081662Y0025923D02*
X0083354Y0025923D01*
X0087000Y0025923D02*
X0133465Y0025923D01*
X0008109Y0026421D02*
X0007351Y0026421D01*
X0009761Y0026421D02*
X0009851Y0026421D01*
X0011502Y0026421D02*
X0011691Y0026421D01*
X0015461Y0026421D02*
X0015961Y0026421D01*
X0019732Y0026421D02*
X0022599Y0026421D01*
X0032282Y0026421D02*
X0033287Y0026421D01*
X0067673Y0026421D02*
X0074244Y0026421D01*
X0076544Y0026421D02*
X0076803Y0026421D01*
X0079103Y0026421D02*
X0079362Y0026421D01*
X0087417Y0026421D02*
X0133465Y0026421D01*
X0007697Y0026920D02*
X0007351Y0026920D01*
X0009761Y0026920D02*
X0009851Y0026920D01*
X0015461Y0026920D02*
X0015961Y0026920D01*
X0032780Y0026920D02*
X0033287Y0026920D01*
X0067673Y0026920D02*
X0074244Y0026920D01*
X0076544Y0026920D02*
X0076803Y0026920D01*
X0079103Y0026920D02*
X0079362Y0026920D01*
X0087417Y0026920D02*
X0133465Y0026920D01*
X0007572Y0027418D02*
X0007351Y0027418D01*
X0009761Y0027418D02*
X0009851Y0027418D01*
X0015461Y0027418D02*
X0015961Y0027418D01*
X0032957Y0027418D02*
X0033287Y0027418D01*
X0067673Y0027418D02*
X0074244Y0027418D01*
X0076544Y0027418D02*
X0076803Y0027418D01*
X0079103Y0027418D02*
X0079362Y0027418D01*
X0087417Y0027418D02*
X0133465Y0027418D01*
X0007572Y0027917D02*
X0007351Y0027917D01*
X0009761Y0027917D02*
X0009851Y0027917D01*
X0015461Y0027917D02*
X0015961Y0027917D01*
X0032957Y0027917D02*
X0033527Y0027917D01*
X0067673Y0027917D02*
X0074244Y0027917D01*
X0076544Y0027917D02*
X0076803Y0027917D01*
X0079103Y0027917D02*
X0079534Y0027917D01*
X0087417Y0027917D02*
X0133465Y0027917D01*
X0007572Y0028415D02*
X0007351Y0028415D01*
X0015461Y0028415D02*
X0015961Y0028415D01*
X0032957Y0028415D02*
X0038418Y0028415D01*
X0045630Y0028415D02*
X0063480Y0028415D01*
X0067387Y0028415D02*
X0074244Y0028415D01*
X0076544Y0028415D02*
X0076803Y0028415D01*
X0079103Y0028415D02*
X0080033Y0028415D01*
X0087198Y0028415D02*
X0133465Y0028415D01*
X0007623Y0028914D02*
X0007351Y0028914D01*
X0015461Y0028914D02*
X0015961Y0028914D01*
X0032957Y0028914D02*
X0038418Y0028914D01*
X0045630Y0028914D02*
X0063978Y0028914D01*
X0066888Y0028914D02*
X0074244Y0028914D01*
X0076544Y0028914D02*
X0076803Y0028914D01*
X0079103Y0028914D02*
X0083655Y0028914D01*
X0086699Y0028914D02*
X0133465Y0028914D01*
X0007891Y0029412D02*
X0007351Y0029412D01*
X0015461Y0029412D02*
X0015961Y0029412D01*
X0032496Y0029412D02*
X0038418Y0029412D01*
X0045630Y0029412D02*
X0064477Y0029412D01*
X0066390Y0029412D02*
X0074244Y0029412D01*
X0076544Y0029412D02*
X0076803Y0029412D01*
X0079103Y0029412D02*
X0084154Y0029412D01*
X0086201Y0029412D02*
X0133465Y0029412D01*
X0015961Y0029911D02*
X0015461Y0029911D01*
X0035693Y0029911D02*
X0038418Y0029911D01*
X0045630Y0029911D02*
X0074244Y0029911D01*
X0076544Y0029911D02*
X0076803Y0029911D01*
X0079103Y0029911D02*
X0133465Y0029911D01*
X0015961Y0030409D02*
X0015461Y0030409D01*
X0035884Y0030409D02*
X0038418Y0030409D01*
X0045630Y0030409D02*
X0054110Y0030409D01*
X0076544Y0030409D02*
X0076803Y0030409D01*
X0107536Y0030409D02*
X0133465Y0030409D01*
X0015961Y0030908D02*
X0015461Y0030908D01*
X0035884Y0030908D02*
X0038418Y0030908D01*
X0045630Y0030908D02*
X0053612Y0030908D01*
X0076544Y0030908D02*
X0076803Y0030908D01*
X0107807Y0030908D02*
X0133465Y0030908D01*
X0015961Y0031406D02*
X0015461Y0031406D01*
X0035884Y0031406D02*
X0038418Y0031406D01*
X0045630Y0031406D02*
X0053511Y0031406D01*
X0076544Y0031406D02*
X0076803Y0031406D01*
X0107807Y0031406D02*
X0133465Y0031406D01*
X0015461Y0031905D02*
X0011316Y0031905D01*
X0015961Y0031905D02*
X0020107Y0031905D01*
X0035884Y0031905D02*
X0038418Y0031905D01*
X0045630Y0031905D02*
X0053511Y0031905D01*
X0076544Y0031905D02*
X0077074Y0031905D01*
X0107807Y0031905D02*
X0133465Y0031905D01*
X0015961Y0032403D02*
X0015461Y0032403D01*
X0035884Y0032403D02*
X0038418Y0032403D01*
X0045630Y0032403D02*
X0053511Y0032403D01*
X0076101Y0032403D02*
X0105507Y0032403D01*
X0107807Y0032403D02*
X0133465Y0032403D01*
X0015961Y0032902D02*
X0015461Y0032902D01*
X0035884Y0032902D02*
X0038418Y0032902D01*
X0045630Y0032902D02*
X0053511Y0032902D01*
X0055811Y0032902D02*
X0105507Y0032902D01*
X0107807Y0032902D02*
X0133465Y0032902D01*
X0015961Y0033400D02*
X0015461Y0033400D01*
X0035884Y0033400D02*
X0038418Y0033400D01*
X0045630Y0033400D02*
X0053511Y0033400D01*
X0055811Y0033400D02*
X0105507Y0033400D01*
X0107807Y0033400D02*
X0133465Y0033400D01*
X0015961Y0033899D02*
X0015461Y0033899D01*
X0036878Y0033899D02*
X0038418Y0033899D01*
X0045630Y0033899D02*
X0053511Y0033899D01*
X0055811Y0033899D02*
X0105507Y0033899D01*
X0107807Y0033899D02*
X0133465Y0033899D01*
X0015961Y0034397D02*
X0015461Y0034397D01*
X0036962Y0034397D02*
X0038418Y0034397D01*
X0045630Y0034397D02*
X0053511Y0034397D01*
X0055811Y0034397D02*
X0105507Y0034397D01*
X0107807Y0034397D02*
X0133465Y0034397D01*
X0015961Y0034896D02*
X0015461Y0034896D01*
X0036962Y0034896D02*
X0038784Y0034896D01*
X0045263Y0034896D02*
X0053511Y0034896D01*
X0055811Y0034896D02*
X0105507Y0034896D01*
X0107807Y0034896D02*
X0133465Y0034896D01*
X0015961Y0035394D02*
X0015461Y0035394D01*
X0036962Y0035394D02*
X0053511Y0035394D01*
X0055811Y0035394D02*
X0073436Y0035394D01*
X0084347Y0035394D02*
X0105507Y0035394D01*
X0107807Y0035394D02*
X0133465Y0035394D01*
X0015961Y0035893D02*
X0015461Y0035893D01*
X0036962Y0035893D02*
X0053511Y0035893D01*
X0055811Y0035893D02*
X0072938Y0035893D01*
X0084846Y0035893D02*
X0105507Y0035893D01*
X0107807Y0035893D02*
X0133465Y0035893D01*
X0015961Y0036391D02*
X0015461Y0036391D01*
X0036962Y0036391D02*
X0053511Y0036391D01*
X0055811Y0036391D02*
X0065160Y0036391D01*
X0066888Y0036391D02*
X0067372Y0036391D01*
X0071684Y0036391D02*
X0072439Y0036391D01*
X0085344Y0036391D02*
X0105507Y0036391D01*
X0107807Y0036391D02*
X0133465Y0036391D01*
X0008257Y0036890D02*
X0007351Y0036890D01*
X0011354Y0036890D02*
X0011429Y0036890D01*
X0015461Y0036890D02*
X0015961Y0036890D01*
X0019993Y0036890D02*
X0020068Y0036890D01*
X0023165Y0036890D02*
X0023360Y0036890D01*
X0027816Y0036890D02*
X0028781Y0036890D01*
X0037212Y0036890D02*
X0053511Y0036890D01*
X0055811Y0036890D02*
X0064927Y0036890D01*
X0066888Y0036890D02*
X0067372Y0036890D01*
X0085843Y0036890D02*
X0105507Y0036890D01*
X0107807Y0036890D02*
X0133465Y0036890D01*
X0011785Y0037388D02*
X0007351Y0037388D01*
X0015461Y0037388D02*
X0015961Y0037388D01*
X0019638Y0037388D02*
X0023044Y0037388D01*
X0028132Y0037388D02*
X0029280Y0037388D01*
X0037362Y0037388D02*
X0053511Y0037388D01*
X0055811Y0037388D02*
X0064896Y0037388D01*
X0066888Y0037388D02*
X0067372Y0037388D01*
X0086341Y0037388D02*
X0105507Y0037388D01*
X0107807Y0037388D02*
X0133465Y0037388D01*
X0022960Y0037887D02*
X0007351Y0037887D01*
X0028216Y0037887D02*
X0029778Y0037887D01*
X0031710Y0037887D02*
X0032106Y0037887D01*
X0037362Y0037887D02*
X0053511Y0037887D01*
X0055811Y0037887D02*
X0064896Y0037887D01*
X0066888Y0037887D02*
X0067372Y0037887D01*
X0078270Y0037887D02*
X0083587Y0037887D01*
X0086840Y0037887D02*
X0105507Y0037887D01*
X0107807Y0037887D02*
X0133465Y0037887D01*
X0022960Y0038385D02*
X0007351Y0038385D01*
X0028216Y0038385D02*
X0034492Y0038385D01*
X0034976Y0038385D02*
X0053511Y0038385D01*
X0055811Y0038385D02*
X0066888Y0038385D01*
X0078270Y0038385D02*
X0084086Y0038385D01*
X0087338Y0038385D02*
X0105507Y0038385D01*
X0107807Y0038385D02*
X0133465Y0038385D01*
X0025346Y0038884D02*
X0007351Y0038884D01*
X0025830Y0038884D02*
X0032106Y0038884D01*
X0034492Y0038884D02*
X0034976Y0038884D01*
X0037362Y0038884D02*
X0053511Y0038884D01*
X0055811Y0038884D02*
X0064896Y0038884D01*
X0066888Y0038884D02*
X0067372Y0038884D01*
X0075884Y0038884D02*
X0084584Y0038884D01*
X0087837Y0038884D02*
X0105507Y0038884D01*
X0107807Y0038884D02*
X0133465Y0038884D01*
X0022960Y0039382D02*
X0007351Y0039382D01*
X0025346Y0039382D02*
X0025830Y0039382D01*
X0028216Y0039382D02*
X0032106Y0039382D01*
X0034492Y0039382D02*
X0034976Y0039382D01*
X0037362Y0039382D02*
X0053511Y0039382D01*
X0055811Y0039382D02*
X0064896Y0039382D01*
X0066888Y0039382D02*
X0067372Y0039382D01*
X0078270Y0039382D02*
X0085083Y0039382D01*
X0088336Y0039382D02*
X0105507Y0039382D01*
X0107807Y0039382D02*
X0133465Y0039382D01*
X0022960Y0039881D02*
X0007351Y0039881D01*
X0025346Y0039881D02*
X0025830Y0039881D01*
X0028216Y0039881D02*
X0032176Y0039881D01*
X0034492Y0039881D02*
X0034976Y0039881D01*
X0037291Y0039881D02*
X0053511Y0039881D01*
X0055811Y0039881D02*
X0064896Y0039881D01*
X0066888Y0039881D02*
X0067372Y0039881D01*
X0078270Y0039881D02*
X0085581Y0039881D01*
X0088834Y0039881D02*
X0105507Y0039881D01*
X0107807Y0039881D02*
X0133465Y0039881D01*
X0023081Y0040379D02*
X0007351Y0040379D01*
X0025346Y0040379D02*
X0025830Y0040379D01*
X0028095Y0040379D02*
X0032514Y0040379D01*
X0034492Y0040379D02*
X0034976Y0040379D01*
X0036953Y0040379D02*
X0053511Y0040379D01*
X0055811Y0040379D02*
X0064972Y0040379D01*
X0066888Y0040379D02*
X0067372Y0040379D01*
X0078210Y0040379D02*
X0086080Y0040379D01*
X0089333Y0040379D02*
X0105507Y0040379D01*
X0107807Y0040379D02*
X0133465Y0040379D01*
X0023517Y0040878D02*
X0007351Y0040878D01*
X0025346Y0040878D02*
X0025830Y0040878D01*
X0027660Y0040878D02*
X0053511Y0040878D01*
X0055811Y0040878D02*
X0065327Y0040878D01*
X0066888Y0040878D02*
X0067372Y0040878D01*
X0077902Y0040878D02*
X0086578Y0040878D01*
X0089831Y0040878D02*
X0105507Y0040878D01*
X0107807Y0040878D02*
X0133465Y0040878D01*
X0053511Y0041376D02*
X0007351Y0041376D01*
X0055811Y0041376D02*
X0068075Y0041376D01*
X0077870Y0041376D02*
X0087077Y0041376D01*
X0090330Y0041376D02*
X0105507Y0041376D01*
X0107807Y0041376D02*
X0133465Y0041376D01*
X0053511Y0041875D02*
X0007351Y0041875D01*
X0055811Y0041875D02*
X0068075Y0041875D01*
X0077870Y0041875D02*
X0087575Y0041875D01*
X0090828Y0041875D02*
X0105507Y0041875D01*
X0107807Y0041875D02*
X0133465Y0041875D01*
X0053511Y0042373D02*
X0007351Y0042373D01*
X0055811Y0042373D02*
X0068075Y0042373D01*
X0077870Y0042373D02*
X0077996Y0042373D01*
X0091327Y0042373D02*
X0105507Y0042373D01*
X0107807Y0042373D02*
X0133465Y0042373D01*
X0038820Y0042872D02*
X0007351Y0042872D01*
X0045228Y0042872D02*
X0053511Y0042872D01*
X0055811Y0042872D02*
X0068275Y0042872D01*
X0091825Y0042872D02*
X0105507Y0042872D01*
X0107807Y0042872D02*
X0133465Y0042872D01*
X0038418Y0043370D02*
X0007351Y0043370D01*
X0045630Y0043370D02*
X0053511Y0043370D01*
X0055811Y0043370D02*
X0068774Y0043370D01*
X0092324Y0043370D02*
X0105507Y0043370D01*
X0107807Y0043370D02*
X0133465Y0043370D01*
X0038418Y0043869D02*
X0007351Y0043869D01*
X0045630Y0043869D02*
X0053511Y0043869D01*
X0055811Y0043869D02*
X0067982Y0043869D01*
X0092822Y0043869D02*
X0105507Y0043869D01*
X0107807Y0043869D02*
X0133465Y0043869D01*
X0038418Y0044368D02*
X0007351Y0044368D01*
X0045630Y0044368D02*
X0053511Y0044368D01*
X0055811Y0044368D02*
X0067860Y0044368D01*
X0093321Y0044368D02*
X0105507Y0044368D01*
X0107807Y0044368D02*
X0133465Y0044368D01*
X0038418Y0044866D02*
X0007351Y0044866D01*
X0045630Y0044866D02*
X0053511Y0044866D01*
X0055811Y0044866D02*
X0067860Y0044866D01*
X0093819Y0044866D02*
X0105507Y0044866D01*
X0107807Y0044866D02*
X0133465Y0044866D01*
X0012568Y0045365D02*
X0007351Y0045365D01*
X0014427Y0045365D02*
X0014927Y0045365D01*
X0016786Y0045365D02*
X0038418Y0045365D01*
X0045630Y0045365D02*
X0053511Y0045365D01*
X0055811Y0045365D02*
X0067860Y0045365D01*
X0094318Y0045365D02*
X0105507Y0045365D01*
X0107807Y0045365D02*
X0133465Y0045365D01*
X0007502Y0045863D02*
X0007351Y0045863D01*
X0011616Y0045863D02*
X0012158Y0045863D01*
X0014427Y0045863D02*
X0014927Y0045863D01*
X0017197Y0045863D02*
X0038418Y0045863D01*
X0045630Y0045863D02*
X0053511Y0045863D01*
X0055811Y0045863D02*
X0067860Y0045863D01*
X0094816Y0045863D02*
X0105507Y0045863D01*
X0107807Y0045863D02*
X0133465Y0045863D01*
X0012049Y0046362D02*
X0011787Y0046362D01*
X0014427Y0046362D02*
X0014927Y0046362D01*
X0017305Y0046362D02*
X0038418Y0046362D01*
X0045630Y0046362D02*
X0053511Y0046362D01*
X0055811Y0046362D02*
X0067860Y0046362D01*
X0095315Y0046362D02*
X0105507Y0046362D01*
X0107807Y0046362D02*
X0133465Y0046362D01*
X0012049Y0046860D02*
X0011787Y0046860D01*
X0014427Y0046860D02*
X0014927Y0046860D01*
X0017305Y0046860D02*
X0038418Y0046860D01*
X0045630Y0046860D02*
X0053511Y0046860D01*
X0055811Y0046860D02*
X0067860Y0046860D01*
X0095813Y0046860D02*
X0105507Y0046860D01*
X0107807Y0046860D02*
X0133465Y0046860D01*
X0012049Y0047359D02*
X0011787Y0047359D01*
X0014427Y0047359D02*
X0014927Y0047359D01*
X0017305Y0047359D02*
X0038418Y0047359D01*
X0045630Y0047359D02*
X0053511Y0047359D01*
X0055811Y0047359D02*
X0067860Y0047359D01*
X0088925Y0047359D02*
X0089075Y0047359D01*
X0096312Y0047359D02*
X0105507Y0047359D01*
X0107807Y0047359D02*
X0133465Y0047359D01*
X0012049Y0047857D02*
X0011787Y0047857D01*
X0014427Y0047857D02*
X0014927Y0047857D01*
X0017305Y0047857D02*
X0038418Y0047857D01*
X0045630Y0047857D02*
X0053511Y0047857D01*
X0055811Y0047857D02*
X0067860Y0047857D01*
X0088925Y0047857D02*
X0089573Y0047857D01*
X0096422Y0047857D02*
X0105507Y0047857D01*
X0107807Y0047857D02*
X0133465Y0047857D01*
X0014427Y0048356D02*
X0011787Y0048356D01*
X0014927Y0048356D02*
X0038418Y0048356D01*
X0045630Y0048356D02*
X0053511Y0048356D01*
X0055811Y0048356D02*
X0067860Y0048356D01*
X0088925Y0048356D02*
X0090072Y0048356D01*
X0096422Y0048356D02*
X0105507Y0048356D01*
X0107807Y0048356D02*
X0133465Y0048356D01*
X0012049Y0048854D02*
X0011787Y0048854D01*
X0017305Y0048854D02*
X0038418Y0048854D01*
X0045630Y0048854D02*
X0053511Y0048854D01*
X0055811Y0048854D02*
X0067860Y0048854D01*
X0089077Y0048854D02*
X0090570Y0048854D01*
X0096422Y0048854D02*
X0105507Y0048854D01*
X0107807Y0048854D02*
X0133465Y0048854D01*
X0012049Y0049353D02*
X0011787Y0049353D01*
X0017305Y0049353D02*
X0038418Y0049353D01*
X0045630Y0049353D02*
X0053511Y0049353D01*
X0055811Y0049353D02*
X0067860Y0049353D01*
X0081746Y0049353D02*
X0082059Y0049353D01*
X0089298Y0049353D02*
X0090740Y0049353D01*
X0096422Y0049353D02*
X0105507Y0049353D01*
X0107807Y0049353D02*
X0133465Y0049353D01*
X0012049Y0049851D02*
X0011787Y0049851D01*
X0017305Y0049851D02*
X0038779Y0049851D01*
X0045268Y0049851D02*
X0053511Y0049851D01*
X0055811Y0049851D02*
X0067860Y0049851D01*
X0081746Y0049851D02*
X0084069Y0049851D01*
X0089325Y0049851D02*
X0090740Y0049851D01*
X0096422Y0049851D02*
X0105507Y0049851D01*
X0107807Y0049851D02*
X0133465Y0049851D01*
X0007400Y0050350D02*
X0007351Y0050350D01*
X0011719Y0050350D02*
X0012118Y0050350D01*
X0017237Y0050350D02*
X0040874Y0050350D01*
X0043174Y0050350D02*
X0053511Y0050350D01*
X0055811Y0050350D02*
X0067860Y0050350D01*
X0081746Y0050350D02*
X0084069Y0050350D01*
X0089325Y0050350D02*
X0090740Y0050350D01*
X0096422Y0050350D02*
X0105507Y0050350D01*
X0107807Y0050350D02*
X0133465Y0050350D01*
X0012450Y0050848D02*
X0007351Y0050848D01*
X0016904Y0050848D02*
X0040874Y0050848D01*
X0043174Y0050848D02*
X0053511Y0050848D01*
X0055811Y0050848D02*
X0067860Y0050848D01*
X0081746Y0050848D02*
X0084069Y0050848D01*
X0086455Y0050848D02*
X0086939Y0050848D01*
X0089325Y0050848D02*
X0090740Y0050848D01*
X0096422Y0050848D02*
X0105507Y0050848D01*
X0107807Y0050848D02*
X0133465Y0050848D01*
X0011925Y0051347D02*
X0007351Y0051347D01*
X0015233Y0051347D02*
X0015733Y0051347D01*
X0019041Y0051347D02*
X0023105Y0051347D01*
X0031849Y0051347D02*
X0040874Y0051347D01*
X0043174Y0051347D02*
X0053511Y0051347D01*
X0055811Y0051347D02*
X0067860Y0051347D01*
X0081746Y0051347D02*
X0084069Y0051347D01*
X0086455Y0051347D02*
X0086939Y0051347D01*
X0089325Y0051347D02*
X0090740Y0051347D01*
X0096422Y0051347D02*
X0105507Y0051347D01*
X0107807Y0051347D02*
X0133465Y0051347D01*
X0007731Y0051845D02*
X0007351Y0051845D01*
X0009532Y0051845D02*
X0009623Y0051845D01*
X0015233Y0051845D02*
X0015733Y0051845D01*
X0019610Y0051845D02*
X0022886Y0051845D01*
X0032348Y0051845D02*
X0040874Y0051845D01*
X0043174Y0051845D02*
X0053511Y0051845D01*
X0055811Y0051845D02*
X0067860Y0051845D01*
X0081746Y0051845D02*
X0084094Y0051845D01*
X0086455Y0051845D02*
X0086939Y0051845D01*
X0089300Y0051845D02*
X0090740Y0051845D01*
X0096422Y0051845D02*
X0105507Y0051845D01*
X0107807Y0051845D02*
X0133465Y0051845D01*
X0007413Y0052344D02*
X0007351Y0052344D01*
X0009532Y0052344D02*
X0009623Y0052344D01*
X0015233Y0052344D02*
X0015733Y0052344D01*
X0032846Y0052344D02*
X0040874Y0052344D01*
X0043174Y0052344D02*
X0053511Y0052344D01*
X0055811Y0052344D02*
X0067860Y0052344D01*
X0081746Y0052344D02*
X0084313Y0052344D01*
X0086455Y0052344D02*
X0086939Y0052344D01*
X0089081Y0052344D02*
X0090740Y0052344D01*
X0096422Y0052344D02*
X0105507Y0052344D01*
X0107807Y0052344D02*
X0133465Y0052344D01*
X0009623Y0052842D02*
X0009532Y0052842D01*
X0015233Y0052842D02*
X0015733Y0052842D01*
X0032870Y0052842D02*
X0040874Y0052842D01*
X0043174Y0052842D02*
X0053511Y0052842D01*
X0055811Y0052842D02*
X0067860Y0052842D01*
X0081746Y0052842D02*
X0090740Y0052842D01*
X0096422Y0052842D02*
X0105507Y0052842D01*
X0107807Y0052842D02*
X0133465Y0052842D01*
X0015733Y0053341D02*
X0015233Y0053341D01*
X0032870Y0053341D02*
X0040874Y0053341D01*
X0043174Y0053341D02*
X0053511Y0053341D01*
X0055811Y0053341D02*
X0067860Y0053341D01*
X0081746Y0053341D02*
X0090740Y0053341D01*
X0096422Y0053341D02*
X0105507Y0053341D01*
X0107807Y0053341D02*
X0133465Y0053341D01*
X0015733Y0053839D02*
X0015233Y0053839D01*
X0032870Y0053839D02*
X0040874Y0053839D01*
X0043174Y0053839D02*
X0053511Y0053839D01*
X0055811Y0053839D02*
X0067860Y0053839D01*
X0081746Y0053839D02*
X0090740Y0053839D01*
X0096422Y0053839D02*
X0105507Y0053839D01*
X0107807Y0053839D02*
X0133465Y0053839D01*
X0015733Y0054338D02*
X0015233Y0054338D01*
X0032755Y0054338D02*
X0040874Y0054338D01*
X0043174Y0054338D02*
X0053511Y0054338D01*
X0055811Y0054338D02*
X0067860Y0054338D01*
X0081913Y0054338D02*
X0090740Y0054338D01*
X0096422Y0054338D02*
X0105507Y0054338D01*
X0107807Y0054338D02*
X0133465Y0054338D01*
X0015733Y0054836D02*
X0015233Y0054836D01*
X0033844Y0054836D02*
X0040874Y0054836D01*
X0043174Y0054836D02*
X0053511Y0054836D01*
X0055811Y0054836D02*
X0067860Y0054836D01*
X0081959Y0054836D02*
X0090740Y0054836D01*
X0096422Y0054836D02*
X0105507Y0054836D01*
X0107807Y0054836D02*
X0133465Y0054836D01*
X0015733Y0055335D02*
X0015233Y0055335D01*
X0034343Y0055335D02*
X0040874Y0055335D01*
X0043174Y0055335D02*
X0053511Y0055335D01*
X0055811Y0055335D02*
X0067860Y0055335D01*
X0081853Y0055335D02*
X0090740Y0055335D01*
X0096422Y0055335D02*
X0105507Y0055335D01*
X0107807Y0055335D02*
X0133465Y0055335D01*
X0015733Y0055833D02*
X0015233Y0055833D01*
X0034398Y0055833D02*
X0040874Y0055833D01*
X0043174Y0055833D02*
X0053511Y0055833D01*
X0055811Y0055833D02*
X0067860Y0055833D01*
X0081746Y0055833D02*
X0082340Y0055833D01*
X0096422Y0055833D02*
X0105507Y0055833D01*
X0107807Y0055833D02*
X0133465Y0055833D01*
X0015733Y0056332D02*
X0015233Y0056332D01*
X0034398Y0056332D02*
X0040874Y0056332D01*
X0043174Y0056332D02*
X0053511Y0056332D01*
X0055811Y0056332D02*
X0067860Y0056332D01*
X0081746Y0056332D02*
X0081972Y0056332D01*
X0096422Y0056332D02*
X0105507Y0056332D01*
X0107807Y0056332D02*
X0133465Y0056332D01*
X0015733Y0056830D02*
X0015233Y0056830D01*
X0035099Y0056830D02*
X0040874Y0056830D01*
X0043174Y0056830D02*
X0053490Y0056830D01*
X0055833Y0056830D02*
X0058231Y0056830D01*
X0064572Y0056830D02*
X0067860Y0056830D01*
X0081746Y0056830D02*
X0081972Y0056830D01*
X0096422Y0056830D02*
X0105507Y0056830D01*
X0107807Y0056830D02*
X0109057Y0056830D01*
X0111455Y0056830D02*
X0133465Y0056830D01*
X0015233Y0057329D02*
X0011223Y0057329D01*
X0015733Y0057329D02*
X0019743Y0057329D01*
X0030717Y0057329D02*
X0031020Y0057329D01*
X0035476Y0057329D02*
X0040874Y0057329D01*
X0043174Y0057329D02*
X0052992Y0057329D01*
X0056331Y0057329D02*
X0057993Y0057329D01*
X0064811Y0057329D02*
X0067860Y0057329D01*
X0096422Y0057329D02*
X0105507Y0057329D01*
X0107807Y0057329D02*
X0108558Y0057329D01*
X0111953Y0057329D02*
X0133465Y0057329D01*
X0015733Y0057827D02*
X0015233Y0057827D01*
X0030882Y0057827D02*
X0031020Y0057827D01*
X0035476Y0057827D02*
X0040874Y0057827D01*
X0043174Y0057827D02*
X0052493Y0057827D01*
X0065343Y0057827D02*
X0069716Y0057827D01*
X0084272Y0057827D02*
X0089275Y0057827D01*
X0096422Y0057827D02*
X0105507Y0057827D01*
X0107807Y0057827D02*
X0108060Y0057827D01*
X0112452Y0057827D02*
X0133465Y0057827D01*
X0015733Y0058326D02*
X0015233Y0058326D01*
X0030882Y0058326D02*
X0031020Y0058326D01*
X0035476Y0058326D02*
X0040874Y0058326D01*
X0043174Y0058326D02*
X0052421Y0058326D01*
X0065842Y0058326D02*
X0069716Y0058326D01*
X0084272Y0058326D02*
X0089275Y0058326D01*
X0096422Y0058326D02*
X0105507Y0058326D01*
X0107807Y0058326D02*
X0108016Y0058326D01*
X0112496Y0058326D02*
X0133465Y0058326D01*
X0015733Y0058824D02*
X0015233Y0058824D01*
X0030882Y0058824D02*
X0031020Y0058824D01*
X0035476Y0058824D02*
X0040874Y0058824D01*
X0043174Y0058824D02*
X0052421Y0058824D01*
X0066340Y0058824D02*
X0069716Y0058824D01*
X0084219Y0058824D02*
X0085789Y0058824D01*
X0087171Y0058824D02*
X0087656Y0058824D01*
X0089038Y0058824D02*
X0089275Y0058824D01*
X0096422Y0058824D02*
X0105507Y0058824D01*
X0107807Y0058824D02*
X0108016Y0058824D01*
X0112496Y0058824D02*
X0133465Y0058824D01*
X0015733Y0059323D02*
X0015233Y0059323D01*
X0030882Y0059323D02*
X0031020Y0059323D01*
X0035476Y0059323D02*
X0040874Y0059323D01*
X0043174Y0059323D02*
X0052421Y0059323D01*
X0066839Y0059323D02*
X0069716Y0059323D01*
X0083721Y0059323D02*
X0085013Y0059323D01*
X0087171Y0059323D02*
X0087656Y0059323D01*
X0096422Y0059323D02*
X0105507Y0059323D01*
X0107807Y0059323D02*
X0108016Y0059323D01*
X0112496Y0059323D02*
X0133465Y0059323D01*
X0015733Y0059821D02*
X0015233Y0059821D01*
X0030409Y0059821D02*
X0030990Y0059821D01*
X0035506Y0059821D02*
X0040874Y0059821D01*
X0043174Y0059821D02*
X0052488Y0059821D01*
X0069286Y0059821D02*
X0069716Y0059821D01*
X0076101Y0059821D02*
X0084803Y0059821D01*
X0087171Y0059821D02*
X0087656Y0059821D01*
X0096422Y0059821D02*
X0105507Y0059821D01*
X0107807Y0059821D02*
X0108110Y0059821D01*
X0112402Y0059821D02*
X0133465Y0059821D01*
X0015733Y0060320D02*
X0015233Y0060320D01*
X0029911Y0060320D02*
X0030680Y0060320D01*
X0035816Y0060320D02*
X0040874Y0060320D01*
X0043174Y0060320D02*
X0052987Y0060320D01*
X0076600Y0060320D02*
X0084785Y0060320D01*
X0087171Y0060320D02*
X0087656Y0060320D01*
X0096422Y0060320D02*
X0105434Y0060320D01*
X0107881Y0060320D02*
X0108609Y0060320D01*
X0111903Y0060320D02*
X0133465Y0060320D01*
X0015733Y0060818D02*
X0015233Y0060818D01*
X0027404Y0060818D02*
X0030620Y0060818D01*
X0035876Y0060818D02*
X0040874Y0060818D01*
X0043174Y0060818D02*
X0053485Y0060818D01*
X0077098Y0060818D02*
X0087171Y0060818D01*
X0096422Y0060818D02*
X0104935Y0060818D01*
X0108380Y0060818D02*
X0109086Y0060818D01*
X0111405Y0060818D02*
X0133465Y0060818D01*
X0015733Y0061317D02*
X0015233Y0061317D01*
X0027404Y0061317D02*
X0030620Y0061317D01*
X0035876Y0061317D02*
X0040874Y0061317D01*
X0043174Y0061317D02*
X0054764Y0061317D01*
X0077597Y0061317D02*
X0084785Y0061317D01*
X0096422Y0061317D02*
X0104437Y0061317D01*
X0108878Y0061317D02*
X0109086Y0061317D01*
X0111386Y0061317D02*
X0133465Y0061317D01*
X0015733Y0061815D02*
X0015233Y0061815D01*
X0024533Y0061815D02*
X0025018Y0061815D01*
X0027404Y0061815D02*
X0033006Y0061815D01*
X0033490Y0061815D02*
X0040874Y0061815D01*
X0043174Y0061815D02*
X0054764Y0061815D01*
X0078095Y0061815D02*
X0084785Y0061815D01*
X0096422Y0061815D02*
X0104417Y0061815D01*
X0108897Y0061815D02*
X0109086Y0061815D01*
X0111386Y0061815D02*
X0133465Y0061815D01*
X0008165Y0062314D02*
X0007351Y0062314D01*
X0010990Y0062314D02*
X0011279Y0062314D01*
X0015233Y0062314D02*
X0015733Y0062314D01*
X0019687Y0062314D02*
X0019976Y0062314D01*
X0024533Y0062314D02*
X0025018Y0062314D01*
X0027404Y0062314D02*
X0030620Y0062314D01*
X0033006Y0062314D02*
X0033490Y0062314D01*
X0035876Y0062314D02*
X0040874Y0062314D01*
X0043174Y0062314D02*
X0054764Y0062314D01*
X0078594Y0062314D02*
X0084820Y0062314D01*
X0096422Y0062314D02*
X0104417Y0062314D01*
X0108897Y0062314D02*
X0109086Y0062314D01*
X0111386Y0062314D02*
X0133465Y0062314D01*
X0011696Y0062812D02*
X0007351Y0062812D01*
X0015233Y0062812D02*
X0015733Y0062812D01*
X0019270Y0062812D02*
X0020239Y0062812D01*
X0024533Y0062812D02*
X0025018Y0062812D01*
X0027379Y0062812D02*
X0030620Y0062812D01*
X0033006Y0062812D02*
X0033490Y0062812D01*
X0035876Y0062812D02*
X0040874Y0062812D01*
X0043174Y0062812D02*
X0054764Y0062812D01*
X0079092Y0062812D02*
X0085059Y0062812D01*
X0096422Y0062812D02*
X0104417Y0062812D01*
X0108897Y0062812D02*
X0109086Y0062812D01*
X0111386Y0062812D02*
X0133465Y0062812D01*
X0020002Y0063311D02*
X0007351Y0063311D01*
X0024533Y0063311D02*
X0025018Y0063311D01*
X0027161Y0063311D02*
X0030793Y0063311D01*
X0033006Y0063311D02*
X0033490Y0063311D01*
X0035703Y0063311D02*
X0040874Y0063311D01*
X0043174Y0063311D02*
X0054970Y0063311D01*
X0079591Y0063311D02*
X0085185Y0063311D01*
X0096422Y0063311D02*
X0104537Y0063311D01*
X0108778Y0063311D02*
X0109086Y0063311D01*
X0111386Y0063311D02*
X0133465Y0063311D01*
X0019503Y0063809D02*
X0007351Y0063809D01*
X0023332Y0063809D02*
X0031331Y0063809D01*
X0033006Y0063809D02*
X0033490Y0063809D01*
X0035165Y0063809D02*
X0040874Y0063809D01*
X0043174Y0063809D02*
X0052785Y0063809D01*
X0080089Y0063809D02*
X0085185Y0063809D01*
X0096422Y0063809D02*
X0105035Y0063809D01*
X0108280Y0063809D02*
X0109086Y0063809D01*
X0111386Y0063809D02*
X0133465Y0063809D01*
X0008085Y0064308D02*
X0007351Y0064308D01*
X0023657Y0064308D02*
X0040874Y0064308D01*
X0043174Y0064308D02*
X0052385Y0064308D01*
X0080588Y0064308D02*
X0085185Y0064308D01*
X0096422Y0064308D02*
X0105524Y0064308D01*
X0107824Y0064308D02*
X0109086Y0064308D01*
X0111386Y0064308D02*
X0133465Y0064308D01*
X0007807Y0064806D02*
X0007351Y0064806D01*
X0023657Y0064806D02*
X0040874Y0064806D01*
X0043174Y0064806D02*
X0052385Y0064806D01*
X0081086Y0064806D02*
X0085185Y0064806D01*
X0096422Y0064806D02*
X0105527Y0064806D01*
X0107828Y0064806D02*
X0109086Y0064806D01*
X0111386Y0064806D02*
X0133465Y0064806D01*
X0007807Y0065305D02*
X0007351Y0065305D01*
X0023657Y0065305D02*
X0040874Y0065305D01*
X0043174Y0065305D02*
X0052385Y0065305D01*
X0081585Y0065305D02*
X0085185Y0065305D01*
X0096422Y0065305D02*
X0105531Y0065305D01*
X0107831Y0065305D02*
X0109086Y0065305D01*
X0111386Y0065305D02*
X0133465Y0065305D01*
X0007807Y0065803D02*
X0007351Y0065803D01*
X0023657Y0065803D02*
X0040874Y0065803D01*
X0043174Y0065803D02*
X0052385Y0065803D01*
X0082083Y0065803D02*
X0085466Y0065803D01*
X0096422Y0065803D02*
X0105535Y0065803D01*
X0107835Y0065803D02*
X0109086Y0065803D01*
X0111386Y0065803D02*
X0133465Y0065803D01*
X0007807Y0066302D02*
X0007351Y0066302D01*
X0010107Y0066302D02*
X0019489Y0066302D01*
X0023346Y0066302D02*
X0040874Y0066302D01*
X0043174Y0066302D02*
X0052385Y0066302D01*
X0054685Y0066302D02*
X0059089Y0066302D01*
X0064345Y0066302D02*
X0064607Y0066302D01*
X0082582Y0066302D02*
X0086263Y0066302D01*
X0096422Y0066302D02*
X0105539Y0066302D01*
X0107843Y0066302D02*
X0109086Y0066302D01*
X0111386Y0066302D02*
X0133465Y0066302D01*
X0007807Y0066801D02*
X0007351Y0066801D01*
X0010107Y0066801D02*
X0019987Y0066801D01*
X0022848Y0066801D02*
X0040874Y0066801D01*
X0043174Y0066801D02*
X0052385Y0066801D01*
X0054685Y0066801D02*
X0059089Y0066801D01*
X0064345Y0066801D02*
X0064607Y0066801D01*
X0083080Y0066801D02*
X0086263Y0066801D01*
X0096422Y0066801D02*
X0105543Y0066801D01*
X0107843Y0066801D02*
X0109086Y0066801D01*
X0111386Y0066801D02*
X0133465Y0066801D01*
X0007807Y0067299D02*
X0007351Y0067299D01*
X0010107Y0067299D02*
X0020486Y0067299D01*
X0022349Y0067299D02*
X0040874Y0067299D01*
X0043174Y0067299D02*
X0052385Y0067299D01*
X0054685Y0067299D02*
X0059089Y0067299D01*
X0064345Y0067299D02*
X0064607Y0067299D01*
X0083579Y0067299D02*
X0085942Y0067299D01*
X0096422Y0067299D02*
X0105543Y0067299D01*
X0107843Y0067299D02*
X0109086Y0067299D01*
X0111386Y0067299D02*
X0133465Y0067299D01*
X0007807Y0067798D02*
X0007351Y0067798D01*
X0010107Y0067798D02*
X0040874Y0067798D01*
X0043174Y0067798D02*
X0052385Y0067798D01*
X0054685Y0067798D02*
X0061467Y0067798D01*
X0061967Y0067798D02*
X0064607Y0067798D01*
X0084077Y0067798D02*
X0085444Y0067798D01*
X0096422Y0067798D02*
X0105543Y0067798D01*
X0107843Y0067798D02*
X0109086Y0067798D01*
X0111386Y0067798D02*
X0133465Y0067798D01*
X0007807Y0068296D02*
X0007351Y0068296D01*
X0010107Y0068296D02*
X0040874Y0068296D01*
X0043174Y0068296D02*
X0052385Y0068296D01*
X0054685Y0068296D02*
X0059089Y0068296D01*
X0061467Y0068296D02*
X0061967Y0068296D01*
X0064345Y0068296D02*
X0064607Y0068296D01*
X0084576Y0068296D02*
X0084976Y0068296D01*
X0096422Y0068296D02*
X0098821Y0068296D01*
X0100483Y0068296D02*
X0100967Y0068296D01*
X0102629Y0068296D02*
X0105543Y0068296D01*
X0107843Y0068296D02*
X0109086Y0068296D01*
X0111386Y0068296D02*
X0133465Y0068296D01*
X0007807Y0068795D02*
X0007351Y0068795D01*
X0010107Y0068795D02*
X0040874Y0068795D01*
X0043174Y0068795D02*
X0052385Y0068795D01*
X0054685Y0068795D02*
X0059089Y0068795D01*
X0061467Y0068795D02*
X0061967Y0068795D01*
X0064345Y0068795D02*
X0064607Y0068795D01*
X0096422Y0068795D02*
X0098274Y0068795D01*
X0100483Y0068795D02*
X0100967Y0068795D01*
X0103176Y0068795D02*
X0105543Y0068795D01*
X0107843Y0068795D02*
X0109086Y0068795D01*
X0111386Y0068795D02*
X0133465Y0068795D01*
X0007807Y0069293D02*
X0007351Y0069293D01*
X0010107Y0069293D02*
X0040874Y0069293D01*
X0043174Y0069293D02*
X0052385Y0069293D01*
X0054685Y0069293D02*
X0059089Y0069293D01*
X0061467Y0069293D02*
X0061921Y0069293D01*
X0064345Y0069293D02*
X0064607Y0069293D01*
X0096422Y0069293D02*
X0098097Y0069293D01*
X0100483Y0069293D02*
X0100967Y0069293D01*
X0103353Y0069293D02*
X0105543Y0069293D01*
X0107843Y0069293D02*
X0109086Y0069293D01*
X0111386Y0069293D02*
X0133465Y0069293D01*
X0007807Y0069792D02*
X0007351Y0069792D01*
X0010107Y0069792D02*
X0040874Y0069792D01*
X0043174Y0069792D02*
X0052385Y0069792D01*
X0054685Y0069792D02*
X0059089Y0069792D01*
X0061467Y0069792D02*
X0061921Y0069792D01*
X0064345Y0069792D02*
X0064607Y0069792D01*
X0096422Y0069792D02*
X0098097Y0069792D01*
X0100483Y0069792D02*
X0100967Y0069792D01*
X0103353Y0069792D02*
X0104597Y0069792D01*
X0108789Y0069792D02*
X0109086Y0069792D01*
X0111386Y0069792D02*
X0133465Y0069792D01*
X0007807Y0070290D02*
X0007351Y0070290D01*
X0010107Y0070290D02*
X0040874Y0070290D01*
X0043174Y0070290D02*
X0052385Y0070290D01*
X0054685Y0070290D02*
X0059055Y0070290D01*
X0061467Y0070290D02*
X0061921Y0070290D01*
X0064287Y0070290D02*
X0064561Y0070290D01*
X0096422Y0070290D02*
X0100483Y0070290D01*
X0100967Y0070290D02*
X0104465Y0070290D01*
X0112437Y0070290D02*
X0133465Y0070290D01*
X0007807Y0070789D02*
X0007351Y0070789D01*
X0010107Y0070789D02*
X0040874Y0070789D01*
X0043174Y0070789D02*
X0052385Y0070789D01*
X0054685Y0070789D02*
X0059043Y0070789D01*
X0061467Y0070789D02*
X0061921Y0070789D01*
X0064299Y0070789D02*
X0064561Y0070789D01*
X0096422Y0070789D02*
X0098097Y0070789D01*
X0103353Y0070789D02*
X0104465Y0070789D01*
X0112464Y0070789D02*
X0133465Y0070789D01*
X0007807Y0071287D02*
X0007351Y0071287D01*
X0010107Y0071287D02*
X0040874Y0071287D01*
X0043174Y0071287D02*
X0052385Y0071287D01*
X0054685Y0071287D02*
X0059043Y0071287D01*
X0061421Y0071287D02*
X0061921Y0071287D01*
X0064299Y0071287D02*
X0064561Y0071287D01*
X0096422Y0071287D02*
X0098097Y0071287D01*
X0103353Y0071287D02*
X0104465Y0071287D01*
X0112464Y0071287D02*
X0133465Y0071287D01*
X0007807Y0071786D02*
X0007351Y0071786D01*
X0010107Y0071786D02*
X0040874Y0071786D01*
X0043174Y0071786D02*
X0052385Y0071786D01*
X0054685Y0071786D02*
X0059043Y0071786D01*
X0061421Y0071786D02*
X0061921Y0071786D01*
X0064299Y0071786D02*
X0064561Y0071786D01*
X0096422Y0071786D02*
X0098155Y0071786D01*
X0103295Y0071786D02*
X0104465Y0071786D01*
X0112464Y0071786D02*
X0133465Y0071786D01*
X0007807Y0072284D02*
X0007351Y0072284D01*
X0010107Y0072284D02*
X0040874Y0072284D01*
X0043174Y0072284D02*
X0052385Y0072284D01*
X0054685Y0072284D02*
X0061421Y0072284D01*
X0061921Y0072284D02*
X0064561Y0072284D01*
X0096422Y0072284D02*
X0098460Y0072284D01*
X0102991Y0072284D02*
X0104465Y0072284D01*
X0112464Y0072284D02*
X0133465Y0072284D01*
X0007807Y0072783D02*
X0007351Y0072783D01*
X0010107Y0072783D02*
X0040874Y0072783D01*
X0043174Y0072783D02*
X0052385Y0072783D01*
X0054685Y0072783D02*
X0059043Y0072783D01*
X0061421Y0072783D02*
X0061921Y0072783D01*
X0064299Y0072783D02*
X0064561Y0072783D01*
X0096422Y0072783D02*
X0098497Y0072783D01*
X0102953Y0072783D02*
X0104651Y0072783D01*
X0112464Y0072783D02*
X0133465Y0072783D01*
X0007807Y0073281D02*
X0007351Y0073281D01*
X0010107Y0073281D02*
X0040874Y0073281D01*
X0043174Y0073281D02*
X0052385Y0073281D01*
X0054685Y0073281D02*
X0059043Y0073281D01*
X0061421Y0073281D02*
X0061921Y0073281D01*
X0064299Y0073281D02*
X0064561Y0073281D01*
X0096422Y0073281D02*
X0098497Y0073281D01*
X0102953Y0073281D02*
X0104465Y0073281D01*
X0112279Y0073281D02*
X0133465Y0073281D01*
X0007807Y0073780D02*
X0007351Y0073780D01*
X0010107Y0073780D02*
X0040874Y0073780D01*
X0043174Y0073780D02*
X0052385Y0073780D01*
X0054685Y0073780D02*
X0059043Y0073780D01*
X0061421Y0073780D02*
X0061921Y0073780D01*
X0064299Y0073780D02*
X0064561Y0073780D01*
X0096422Y0073780D02*
X0098497Y0073780D01*
X0102953Y0073780D02*
X0104465Y0073780D01*
X0112464Y0073780D02*
X0133465Y0073780D01*
X0007807Y0074278D02*
X0007351Y0074278D01*
X0010107Y0074278D02*
X0040874Y0074278D01*
X0043174Y0074278D02*
X0052385Y0074278D01*
X0054685Y0074278D02*
X0059062Y0074278D01*
X0061421Y0074278D02*
X0061873Y0074278D01*
X0064280Y0074278D02*
X0064561Y0074278D01*
X0096422Y0074278D02*
X0098497Y0074278D01*
X0102953Y0074278D02*
X0104465Y0074278D01*
X0112464Y0074278D02*
X0133465Y0074278D01*
X0007807Y0074777D02*
X0007351Y0074777D01*
X0010107Y0074777D02*
X0040874Y0074777D01*
X0043174Y0074777D02*
X0052385Y0074777D01*
X0054685Y0074777D02*
X0059075Y0074777D01*
X0061421Y0074777D02*
X0061873Y0074777D01*
X0064171Y0074777D02*
X0064624Y0074777D01*
X0096422Y0074777D02*
X0098497Y0074777D01*
X0102953Y0074777D02*
X0104465Y0074777D01*
X0112464Y0074777D02*
X0133465Y0074777D01*
X0007807Y0075275D02*
X0007351Y0075275D01*
X0010107Y0075275D02*
X0040874Y0075275D01*
X0043174Y0075275D02*
X0052385Y0075275D01*
X0054685Y0075275D02*
X0058995Y0075275D01*
X0061421Y0075275D02*
X0061873Y0075275D01*
X0064251Y0075275D02*
X0064513Y0075275D01*
X0096422Y0075275D02*
X0098832Y0075275D01*
X0102584Y0075275D02*
X0104465Y0075275D01*
X0112464Y0075275D02*
X0133465Y0075275D01*
X0007807Y0075774D02*
X0007351Y0075774D01*
X0010107Y0075774D02*
X0040874Y0075774D01*
X0043174Y0075774D02*
X0052385Y0075774D01*
X0054685Y0075774D02*
X0058995Y0075774D01*
X0061373Y0075774D02*
X0061873Y0075774D01*
X0064251Y0075774D02*
X0064513Y0075774D01*
X0096422Y0075774D02*
X0098362Y0075774D01*
X0102862Y0075774D02*
X0104493Y0075774D01*
X0112464Y0075774D02*
X0133465Y0075774D01*
X0007807Y0076272D02*
X0007351Y0076272D01*
X0010107Y0076272D02*
X0040874Y0076272D01*
X0043174Y0076272D02*
X0052385Y0076272D01*
X0054685Y0076272D02*
X0058995Y0076272D01*
X0061373Y0076272D02*
X0061873Y0076272D01*
X0064251Y0076272D02*
X0064513Y0076272D01*
X0096422Y0076272D02*
X0098362Y0076272D01*
X0102862Y0076272D02*
X0105543Y0076272D01*
X0112331Y0076272D02*
X0133465Y0076272D01*
X0007807Y0076771D02*
X0007351Y0076771D01*
X0010107Y0076771D02*
X0040874Y0076771D01*
X0043174Y0076771D02*
X0052385Y0076771D01*
X0054685Y0076771D02*
X0061373Y0076771D01*
X0061873Y0076771D02*
X0064513Y0076771D01*
X0096422Y0076771D02*
X0098362Y0076771D01*
X0102862Y0076771D02*
X0105067Y0076771D01*
X0111386Y0076771D02*
X0133465Y0076771D01*
X0007807Y0077269D02*
X0007351Y0077269D01*
X0010107Y0077269D02*
X0040874Y0077269D01*
X0043174Y0077269D02*
X0052385Y0077269D01*
X0054685Y0077269D02*
X0058995Y0077269D01*
X0064251Y0077269D02*
X0064513Y0077269D01*
X0102862Y0077269D02*
X0104569Y0077269D01*
X0111365Y0077269D02*
X0133465Y0077269D01*
X0007807Y0077768D02*
X0007351Y0077768D01*
X0010107Y0077768D02*
X0040874Y0077768D01*
X0043174Y0077768D02*
X0052385Y0077768D01*
X0054685Y0077768D02*
X0058995Y0077768D01*
X0064251Y0077768D02*
X0064513Y0077768D01*
X0102704Y0077768D02*
X0104070Y0077768D01*
X0110866Y0077768D02*
X0133465Y0077768D01*
X0007807Y0078266D02*
X0007351Y0078266D01*
X0010107Y0078266D02*
X0040874Y0078266D01*
X0043174Y0078266D02*
X0052385Y0078266D01*
X0054685Y0078266D02*
X0058995Y0078266D01*
X0064251Y0078266D02*
X0064513Y0078266D01*
X0102205Y0078266D02*
X0103572Y0078266D01*
X0110368Y0078266D02*
X0133465Y0078266D01*
X0007807Y0078765D02*
X0007351Y0078765D01*
X0010107Y0078765D02*
X0040874Y0078765D01*
X0043174Y0078765D02*
X0052385Y0078765D01*
X0054685Y0078765D02*
X0058995Y0078765D01*
X0064251Y0078765D02*
X0064513Y0078765D01*
X0101707Y0078765D02*
X0103073Y0078765D01*
X0109869Y0078765D02*
X0133465Y0078765D01*
X0007807Y0079263D02*
X0007351Y0079263D01*
X0010107Y0079263D02*
X0040874Y0079263D01*
X0109371Y0079263D02*
X0133465Y0079263D01*
X0007807Y0079762D02*
X0007351Y0079762D01*
X0010107Y0079762D02*
X0040874Y0079762D01*
X0108872Y0079762D02*
X0133465Y0079762D01*
X0007807Y0080260D02*
X0007351Y0080260D01*
X0010107Y0080260D02*
X0040874Y0080260D01*
X0108374Y0080260D02*
X0133465Y0080260D01*
X0007807Y0080759D02*
X0007351Y0080759D01*
X0010107Y0080759D02*
X0041038Y0080759D01*
X0107875Y0080759D02*
X0133465Y0080759D01*
X0007807Y0081257D02*
X0007351Y0081257D01*
X0010107Y0081257D02*
X0041537Y0081257D01*
X0107377Y0081257D02*
X0133465Y0081257D01*
X0007807Y0081756D02*
X0007351Y0081756D01*
X0010107Y0081756D02*
X0059389Y0081756D01*
X0064644Y0081756D02*
X0064907Y0081756D01*
X0106878Y0081756D02*
X0107700Y0081756D01*
X0119152Y0081756D02*
X0133465Y0081756D01*
X0007807Y0082254D02*
X0007351Y0082254D01*
X0010107Y0082254D02*
X0059389Y0082254D01*
X0064644Y0082254D02*
X0064907Y0082254D01*
X0106380Y0082254D02*
X0107202Y0082254D01*
X0119651Y0082254D02*
X0133465Y0082254D01*
X0007807Y0082753D02*
X0007351Y0082753D01*
X0010107Y0082753D02*
X0061766Y0082753D01*
X0062267Y0082753D02*
X0064907Y0082753D01*
X0105881Y0082753D02*
X0106703Y0082753D01*
X0120067Y0082753D02*
X0133465Y0082753D01*
X0007807Y0083251D02*
X0007351Y0083251D01*
X0010107Y0083251D02*
X0059389Y0083251D01*
X0064644Y0083251D02*
X0064907Y0083251D01*
X0120067Y0083251D02*
X0133465Y0083251D01*
X0007807Y0083750D02*
X0007351Y0083750D01*
X0010107Y0083750D02*
X0059389Y0083750D01*
X0064644Y0083750D02*
X0064907Y0083750D01*
X0120067Y0083750D02*
X0133465Y0083750D01*
X0007807Y0084248D02*
X0007351Y0084248D01*
X0010107Y0084248D02*
X0059389Y0084248D01*
X0064644Y0084248D02*
X0064907Y0084248D01*
X0120067Y0084248D02*
X0133465Y0084248D01*
X0007807Y0084747D02*
X0007351Y0084747D01*
X0010107Y0084747D02*
X0059389Y0084747D01*
X0064644Y0084747D02*
X0064907Y0084747D01*
X0119846Y0084747D02*
X0133465Y0084747D01*
X0007807Y0085245D02*
X0007351Y0085245D01*
X0010107Y0085245D02*
X0010230Y0085245D01*
X0116193Y0085245D02*
X0116306Y0085245D01*
X0119348Y0085245D02*
X0133465Y0085245D01*
X0007807Y0085744D02*
X0007351Y0085744D01*
X0116193Y0085744D02*
X0116804Y0085744D01*
X0118849Y0085744D02*
X0133465Y0085744D01*
X0007807Y0086242D02*
X0007351Y0086242D01*
X0115961Y0086242D02*
X0133465Y0086242D01*
X0007807Y0086741D02*
X0007351Y0086741D01*
X0112390Y0086741D02*
X0112443Y0086741D01*
X0115462Y0086741D02*
X0133465Y0086741D01*
X0007807Y0087239D02*
X0007351Y0087239D01*
X0112390Y0087239D02*
X0112942Y0087239D01*
X0114964Y0087239D02*
X0133465Y0087239D01*
X0007807Y0087738D02*
X0007351Y0087738D01*
X0112390Y0087738D02*
X0133465Y0087738D01*
X0007807Y0088237D02*
X0007351Y0088237D01*
X0111998Y0088237D02*
X0133465Y0088237D01*
X0007807Y0088735D02*
X0007351Y0088735D01*
X0111500Y0088735D02*
X0133465Y0088735D01*
X0007807Y0089234D02*
X0007351Y0089234D01*
X0108357Y0089234D02*
X0117575Y0089234D01*
X0119681Y0089234D02*
X0120165Y0089234D01*
X0122271Y0089234D02*
X0133465Y0089234D01*
X0007807Y0089732D02*
X0007351Y0089732D01*
X0108357Y0089732D02*
X0117331Y0089732D01*
X0119681Y0089732D02*
X0120165Y0089732D01*
X0122515Y0089732D02*
X0133465Y0089732D01*
X0007807Y0090231D02*
X0007351Y0090231D01*
X0097211Y0090231D02*
X0097965Y0090231D01*
X0106365Y0090231D02*
X0117295Y0090231D01*
X0119681Y0090231D02*
X0120165Y0090231D01*
X0122551Y0090231D02*
X0133465Y0090231D01*
X0007807Y0090729D02*
X0007351Y0090729D01*
X0086663Y0090729D02*
X0098302Y0090729D01*
X0108357Y0090729D02*
X0117295Y0090729D01*
X0119681Y0090729D02*
X0120165Y0090729D01*
X0122551Y0090729D02*
X0133465Y0090729D01*
X0007807Y0091228D02*
X0007351Y0091228D01*
X0097211Y0091228D02*
X0098068Y0091228D01*
X0108357Y0091228D02*
X0119681Y0091228D01*
X0120165Y0091228D02*
X0133465Y0091228D01*
X0007807Y0091726D02*
X0007351Y0091726D01*
X0097211Y0091726D02*
X0097965Y0091726D01*
X0108357Y0091726D02*
X0117295Y0091726D01*
X0122551Y0091726D02*
X0133465Y0091726D01*
X0007807Y0092225D02*
X0007351Y0092225D01*
X0097211Y0092225D02*
X0097965Y0092225D01*
X0113098Y0092225D02*
X0117311Y0092225D01*
X0122535Y0092225D02*
X0133465Y0092225D01*
X0007807Y0092723D02*
X0007351Y0092723D01*
X0097211Y0092723D02*
X0098327Y0092723D01*
X0007807Y0093222D02*
X0007351Y0093222D01*
X0097211Y0093222D02*
X0098042Y0093222D01*
X0007807Y0093720D02*
X0007351Y0093720D01*
X0097921Y0093720D02*
X0097965Y0093720D01*
X0007807Y0094219D02*
X0007351Y0094219D01*
X0007351Y0094717D02*
X0007807Y0094717D01*
X0007807Y0095216D02*
X0007351Y0095216D01*
X0007351Y0095714D02*
X0007807Y0095714D01*
X0117332Y0095714D02*
X0117908Y0095714D01*
X0007807Y0096213D02*
X0007351Y0096213D01*
X0106739Y0096213D02*
X0106808Y0096213D01*
X0109779Y0096213D02*
X0109957Y0096213D01*
X0117478Y0096213D02*
X0133465Y0096213D01*
X0007807Y0096711D02*
X0007351Y0096711D01*
X0099928Y0096711D02*
X0101483Y0096711D01*
X0106739Y0096711D02*
X0112222Y0096711D01*
X0117478Y0096711D02*
X0133465Y0096711D01*
X0007807Y0097210D02*
X0007351Y0097210D01*
X0037685Y0097210D02*
X0070639Y0097210D01*
X0100426Y0097210D02*
X0103869Y0097210D01*
X0104353Y0097210D02*
X0114608Y0097210D01*
X0115092Y0097210D02*
X0133465Y0097210D01*
X0007807Y0097708D02*
X0007351Y0097708D01*
X0037685Y0097708D02*
X0070140Y0097708D01*
X0100792Y0097708D02*
X0101483Y0097708D01*
X0103869Y0097708D02*
X0104353Y0097708D01*
X0106739Y0097708D02*
X0112222Y0097708D01*
X0114608Y0097708D02*
X0115092Y0097708D01*
X0117478Y0097708D02*
X0133465Y0097708D01*
X0007807Y0098207D02*
X0007351Y0098207D01*
X0037685Y0098207D02*
X0055142Y0098207D01*
X0103869Y0098207D02*
X0104353Y0098207D01*
X0106739Y0098207D02*
X0112222Y0098207D01*
X0114608Y0098207D02*
X0115092Y0098207D01*
X0117478Y0098207D02*
X0133465Y0098207D01*
X0007807Y0098705D02*
X0007351Y0098705D01*
X0037685Y0098705D02*
X0054643Y0098705D01*
X0103869Y0098705D02*
X0104353Y0098705D01*
X0106667Y0098705D02*
X0112294Y0098705D01*
X0114608Y0098705D02*
X0115092Y0098705D01*
X0117405Y0098705D02*
X0133465Y0098705D01*
X0007807Y0099204D02*
X0007351Y0099204D01*
X0037685Y0099204D02*
X0054145Y0099204D01*
X0103899Y0099204D02*
X0104353Y0099204D01*
X0106323Y0099204D02*
X0112638Y0099204D01*
X0114608Y0099204D02*
X0115092Y0099204D01*
X0117061Y0099204D02*
X0133465Y0099204D01*
X0007807Y0099702D02*
X0007351Y0099702D01*
X0037685Y0099702D02*
X0048813Y0099702D01*
X0104397Y0099702D02*
X0104720Y0099702D01*
X0106741Y0099702D02*
X0133465Y0099702D01*
X0007807Y0100201D02*
X0007351Y0100201D01*
X0037685Y0100201D02*
X0048537Y0100201D01*
X0107239Y0100201D02*
X0133465Y0100201D01*
X0007807Y0100699D02*
X0007351Y0100699D01*
X0037685Y0100699D02*
X0048537Y0100699D01*
X0055902Y0100699D02*
X0065072Y0100699D01*
X0107738Y0100699D02*
X0133465Y0100699D01*
X0007807Y0101198D02*
X0007351Y0101198D01*
X0037685Y0101198D02*
X0048537Y0101198D01*
X0055403Y0101198D02*
X0065072Y0101198D01*
X0107980Y0101198D02*
X0133465Y0101198D01*
X0007807Y0101696D02*
X0007351Y0101696D01*
X0037685Y0101696D02*
X0048537Y0101696D01*
X0055363Y0101696D02*
X0065072Y0101696D01*
X0080508Y0101696D02*
X0080508Y0101696D01*
X0107980Y0101696D02*
X0133465Y0101696D01*
X0007807Y0102195D02*
X0007351Y0102195D01*
X0037685Y0102195D02*
X0048537Y0102195D01*
X0055363Y0102195D02*
X0065072Y0102195D01*
X0080508Y0102195D02*
X0080508Y0102195D01*
X0107980Y0102195D02*
X0108824Y0102195D01*
X0113081Y0102195D02*
X0113565Y0102195D01*
X0115238Y0102195D02*
X0133465Y0102195D01*
X0007807Y0102693D02*
X0007351Y0102693D01*
X0037685Y0102693D02*
X0048537Y0102693D01*
X0055363Y0102693D02*
X0065072Y0102693D01*
X0080508Y0102693D02*
X0080508Y0102693D01*
X0107980Y0102693D02*
X0108339Y0102693D01*
X0113081Y0102693D02*
X0113565Y0102693D01*
X0115510Y0102693D02*
X0133465Y0102693D01*
X0007807Y0103192D02*
X0007351Y0103192D01*
X0037685Y0103192D02*
X0048537Y0103192D01*
X0055355Y0103192D02*
X0065072Y0103192D01*
X0079661Y0103192D02*
X0079825Y0103192D01*
X0113081Y0103192D02*
X0113565Y0103192D01*
X0115557Y0103192D02*
X0133465Y0103192D01*
X0007807Y0103690D02*
X0007351Y0103690D01*
X0037685Y0103690D02*
X0048537Y0103690D01*
X0055355Y0103690D02*
X0065072Y0103690D01*
X0079162Y0103690D02*
X0080248Y0103690D01*
X0113081Y0103690D02*
X0113565Y0103690D01*
X0115557Y0103690D02*
X0133465Y0103690D01*
X0007807Y0104189D02*
X0007351Y0104189D01*
X0037685Y0104189D02*
X0048537Y0104189D01*
X0055355Y0104189D02*
X0065072Y0104189D01*
X0078664Y0104189D02*
X0080265Y0104189D01*
X0113565Y0104189D02*
X0133465Y0104189D01*
X0007807Y0104687D02*
X0007351Y0104687D01*
X0037685Y0104687D02*
X0048537Y0104687D01*
X0055355Y0104687D02*
X0065072Y0104687D01*
X0078165Y0104687D02*
X0080342Y0104687D01*
X0113081Y0104687D02*
X0113565Y0104687D01*
X0115557Y0104687D02*
X0133465Y0104687D01*
X0007807Y0105186D02*
X0007351Y0105186D01*
X0037685Y0105186D02*
X0048537Y0105186D01*
X0055355Y0105186D02*
X0065072Y0105186D01*
X0077667Y0105186D02*
X0080342Y0105186D01*
X0097902Y0105186D02*
X0098166Y0105186D01*
X0113081Y0105186D02*
X0113565Y0105186D01*
X0115557Y0105186D02*
X0133465Y0105186D01*
X0007807Y0105684D02*
X0007351Y0105684D01*
X0037685Y0105684D02*
X0048537Y0105684D01*
X0055355Y0105684D02*
X0065072Y0105684D01*
X0077168Y0105684D02*
X0080342Y0105684D01*
X0097902Y0105684D02*
X0098664Y0105684D01*
X0113081Y0105684D02*
X0113565Y0105684D01*
X0115557Y0105684D02*
X0133465Y0105684D01*
X0007807Y0106183D02*
X0007351Y0106183D01*
X0037685Y0106183D02*
X0048537Y0106183D01*
X0055355Y0106183D02*
X0065072Y0106183D01*
X0076670Y0106183D02*
X0080342Y0106183D01*
X0097902Y0106183D02*
X0099163Y0106183D01*
X0113081Y0106183D02*
X0113565Y0106183D01*
X0115495Y0106183D02*
X0127061Y0106183D01*
X0128671Y0106183D02*
X0129156Y0106183D01*
X0130766Y0106183D02*
X0133465Y0106183D01*
X0007807Y0106681D02*
X0007351Y0106681D01*
X0037685Y0106681D02*
X0048537Y0106681D01*
X0055355Y0106681D02*
X0065072Y0106681D01*
X0076565Y0106681D02*
X0080342Y0106681D01*
X0097902Y0106681D02*
X0099661Y0106681D01*
X0102914Y0106681D02*
X0103818Y0106681D01*
X0109568Y0106681D02*
X0111464Y0106681D01*
X0113081Y0106681D02*
X0113565Y0106681D01*
X0115181Y0106681D02*
X0123979Y0106681D01*
X0128671Y0106681D02*
X0129156Y0106681D01*
X0131084Y0106681D02*
X0133465Y0106681D01*
X0007807Y0107180D02*
X0007351Y0107180D01*
X0037685Y0107180D02*
X0048537Y0107180D01*
X0055355Y0107180D02*
X0065072Y0107180D01*
X0076565Y0107180D02*
X0076623Y0107180D01*
X0078178Y0107180D02*
X0078662Y0107180D01*
X0080217Y0107180D02*
X0080342Y0107180D01*
X0097740Y0107180D02*
X0100160Y0107180D01*
X0103276Y0107180D02*
X0103432Y0107180D01*
X0111983Y0107180D02*
X0123930Y0107180D01*
X0128671Y0107180D02*
X0129156Y0107180D01*
X0131148Y0107180D02*
X0133465Y0107180D01*
X0007807Y0107678D02*
X0007351Y0107678D01*
X0037850Y0107678D02*
X0048537Y0107678D01*
X0055355Y0107678D02*
X0065072Y0107678D01*
X0078178Y0107678D02*
X0078662Y0107678D01*
X0098300Y0107678D02*
X0100658Y0107678D01*
X0103276Y0107678D02*
X0103337Y0107678D01*
X0112130Y0107678D02*
X0112322Y0107678D01*
X0116282Y0107678D02*
X0123930Y0107678D01*
X0128671Y0107678D02*
X0129156Y0107678D01*
X0131148Y0107678D02*
X0133465Y0107678D01*
X0007807Y0108177D02*
X0007351Y0108177D01*
X0038349Y0108177D02*
X0048537Y0108177D01*
X0055355Y0108177D02*
X0065029Y0108177D01*
X0078178Y0108177D02*
X0078662Y0108177D01*
X0098451Y0108177D02*
X0100976Y0108177D01*
X0103276Y0108177D02*
X0103337Y0108177D01*
X0116530Y0108177D02*
X0123930Y0108177D01*
X0128671Y0108177D02*
X0129156Y0108177D01*
X0131148Y0108177D02*
X0133465Y0108177D01*
X0007807Y0108675D02*
X0007351Y0108675D01*
X0038775Y0108675D02*
X0048537Y0108675D01*
X0055355Y0108675D02*
X0064730Y0108675D01*
X0078178Y0108675D02*
X0078662Y0108675D01*
X0098451Y0108675D02*
X0100976Y0108675D01*
X0103276Y0108675D02*
X0103337Y0108675D01*
X0116530Y0108675D02*
X0123930Y0108675D01*
X0129156Y0108675D02*
X0133465Y0108675D01*
X0007807Y0109174D02*
X0007351Y0109174D01*
X0038775Y0109174D02*
X0048537Y0109174D01*
X0056326Y0109174D02*
X0059769Y0109174D01*
X0060827Y0109174D02*
X0061311Y0109174D01*
X0062369Y0109174D02*
X0064431Y0109174D01*
X0098451Y0109174D02*
X0100976Y0109174D01*
X0103276Y0109174D02*
X0105715Y0109174D01*
X0116530Y0109174D02*
X0123930Y0109174D01*
X0128671Y0109174D02*
X0129156Y0109174D01*
X0131148Y0109174D02*
X0133465Y0109174D01*
X0007807Y0109672D02*
X0007351Y0109672D01*
X0038775Y0109672D02*
X0048865Y0109672D01*
X0057116Y0109672D02*
X0059052Y0109672D01*
X0060827Y0109672D02*
X0061311Y0109672D01*
X0098451Y0109672D02*
X0100976Y0109672D01*
X0103276Y0109672D02*
X0103337Y0109672D01*
X0116530Y0109672D02*
X0123930Y0109672D01*
X0128671Y0109672D02*
X0129156Y0109672D01*
X0132069Y0109672D02*
X0133465Y0109672D01*
X0007807Y0110171D02*
X0007351Y0110171D01*
X0038775Y0110171D02*
X0050128Y0110171D01*
X0057327Y0110171D02*
X0058848Y0110171D01*
X0060827Y0110171D02*
X0061311Y0110171D01*
X0098451Y0110171D02*
X0100976Y0110171D01*
X0103276Y0110171D02*
X0103337Y0110171D01*
X0116530Y0110171D02*
X0123930Y0110171D01*
X0128671Y0110171D02*
X0129156Y0110171D01*
X0132567Y0110171D02*
X0133465Y0110171D01*
X0007807Y0110670D02*
X0007351Y0110670D01*
X0038565Y0110670D02*
X0050128Y0110670D01*
X0057346Y0110670D02*
X0058835Y0110670D01*
X0060827Y0110670D02*
X0061311Y0110670D01*
X0098663Y0110670D02*
X0100976Y0110670D01*
X0103276Y0110670D02*
X0103337Y0110670D01*
X0116685Y0110670D02*
X0124408Y0110670D01*
X0128671Y0110670D02*
X0129147Y0110670D01*
X0133066Y0110670D02*
X0133465Y0110670D01*
X0007807Y0111168D02*
X0007351Y0111168D01*
X0030386Y0111168D02*
X0031252Y0111168D01*
X0034244Y0111168D02*
X0035004Y0111168D01*
X0038067Y0111168D02*
X0050128Y0111168D01*
X0057346Y0111168D02*
X0058835Y0111168D01*
X0060827Y0111168D02*
X0061311Y0111168D01*
X0098851Y0111168D02*
X0100976Y0111168D01*
X0103276Y0111168D02*
X0103384Y0111168D01*
X0116904Y0111168D02*
X0124614Y0111168D01*
X0126914Y0111168D02*
X0128866Y0111168D01*
X0007807Y0111667D02*
X0007351Y0111667D01*
X0029887Y0111667D02*
X0031751Y0111667D01*
X0033745Y0111667D02*
X0035503Y0111667D01*
X0037568Y0111667D02*
X0050128Y0111667D01*
X0055354Y0111667D02*
X0060827Y0111667D01*
X0098851Y0111667D02*
X0100976Y0111667D01*
X0103276Y0111667D02*
X0103657Y0111667D01*
X0116930Y0111667D02*
X0124614Y0111667D01*
X0126914Y0111667D02*
X0128866Y0111667D01*
X0007807Y0112165D02*
X0007351Y0112165D01*
X0027370Y0112165D02*
X0050128Y0112165D01*
X0054870Y0112165D02*
X0055354Y0112165D01*
X0057346Y0112165D02*
X0058835Y0112165D01*
X0060827Y0112165D02*
X0061311Y0112165D01*
X0096465Y0112165D02*
X0100976Y0112165D01*
X0103276Y0112165D02*
X0104018Y0112165D01*
X0116930Y0112165D02*
X0124614Y0112165D01*
X0126914Y0112165D02*
X0128866Y0112165D01*
X0007807Y0112664D02*
X0007351Y0112664D01*
X0027370Y0112664D02*
X0044712Y0112664D01*
X0047398Y0112664D02*
X0050128Y0112664D01*
X0054870Y0112664D02*
X0055354Y0112664D01*
X0057346Y0112664D02*
X0058835Y0112664D01*
X0060827Y0112664D02*
X0061311Y0112664D01*
X0095981Y0112664D02*
X0096465Y0112664D01*
X0098851Y0112664D02*
X0100264Y0112664D01*
X0114060Y0112664D02*
X0114544Y0112664D01*
X0116930Y0112664D02*
X0124614Y0112664D01*
X0126914Y0112664D02*
X0128866Y0112664D01*
X0007807Y0113162D02*
X0007351Y0113162D01*
X0027370Y0113162D02*
X0044213Y0113162D01*
X0047897Y0113162D02*
X0050128Y0113162D01*
X0054870Y0113162D02*
X0055354Y0113162D01*
X0057346Y0113162D02*
X0058835Y0113162D01*
X0060827Y0113162D02*
X0061311Y0113162D01*
X0095981Y0113162D02*
X0096465Y0113162D01*
X0098851Y0113162D02*
X0099904Y0113162D01*
X0114060Y0113162D02*
X0114544Y0113162D01*
X0116930Y0113162D02*
X0124614Y0113162D01*
X0126914Y0113162D02*
X0129223Y0113162D01*
X0132990Y0113162D02*
X0133060Y0113162D01*
X0007807Y0113661D02*
X0007351Y0113661D01*
X0027370Y0113661D02*
X0043815Y0113661D01*
X0048295Y0113661D02*
X0050274Y0113661D01*
X0054870Y0113661D02*
X0055354Y0113661D01*
X0057252Y0113661D02*
X0058943Y0113661D01*
X0060827Y0113661D02*
X0061311Y0113661D01*
X0095981Y0113661D02*
X0096465Y0113661D01*
X0098799Y0113661D02*
X0099904Y0113661D01*
X0114060Y0113661D02*
X0114544Y0113661D01*
X0116903Y0113661D02*
X0124614Y0113661D01*
X0126914Y0113661D02*
X0129721Y0113661D01*
X0132491Y0113661D02*
X0133065Y0113661D01*
X0007807Y0114159D02*
X0007351Y0114159D01*
X0027370Y0114159D02*
X0043815Y0114159D01*
X0048295Y0114159D02*
X0053357Y0114159D01*
X0054870Y0114159D02*
X0055354Y0114159D01*
X0056868Y0114159D02*
X0059351Y0114159D01*
X0060827Y0114159D02*
X0061311Y0114159D01*
X0062787Y0114159D02*
X0064863Y0114159D01*
X0095981Y0114159D02*
X0096465Y0114159D01*
X0098509Y0114159D02*
X0099904Y0114159D01*
X0110152Y0114159D02*
X0111921Y0114159D01*
X0114060Y0114159D02*
X0114544Y0114159D01*
X0116683Y0114159D02*
X0123879Y0114159D01*
X0127656Y0114159D02*
X0132344Y0114159D01*
X0007807Y0114658D02*
X0007351Y0114658D01*
X0027370Y0114658D02*
X0043815Y0114658D01*
X0048295Y0114658D02*
X0064863Y0114658D01*
X0096441Y0114658D02*
X0099904Y0114658D01*
X0109652Y0114658D02*
X0110152Y0114658D01*
X0112530Y0114658D02*
X0115411Y0114658D01*
X0127799Y0114658D02*
X0132201Y0114658D01*
X0007807Y0115156D02*
X0007351Y0115156D01*
X0027370Y0115156D02*
X0041605Y0115156D01*
X0048295Y0115156D02*
X0064863Y0115156D01*
X0091109Y0115156D02*
X0091593Y0115156D01*
X0096940Y0115156D02*
X0099904Y0115156D01*
X0109652Y0115156D02*
X0110152Y0115156D01*
X0112530Y0115156D02*
X0114912Y0115156D01*
X0127799Y0115156D02*
X0132201Y0115156D01*
X0007807Y0115655D02*
X0007351Y0115655D01*
X0027370Y0115655D02*
X0041107Y0115655D01*
X0048056Y0115655D02*
X0064863Y0115655D01*
X0091109Y0115655D02*
X0091593Y0115655D01*
X0093979Y0115655D02*
X0094186Y0115655D01*
X0097438Y0115655D02*
X0099857Y0115655D01*
X0109652Y0115655D02*
X0110152Y0115655D01*
X0112530Y0115655D02*
X0114547Y0115655D01*
X0127799Y0115655D02*
X0132201Y0115655D01*
X0007807Y0116153D02*
X0007351Y0116153D01*
X0027370Y0116153D02*
X0040689Y0116153D01*
X0047558Y0116153D02*
X0064863Y0116153D01*
X0091109Y0116153D02*
X0091593Y0116153D01*
X0093798Y0116153D02*
X0094684Y0116153D01*
X0097937Y0116153D02*
X0099559Y0116153D01*
X0109652Y0116153D02*
X0110152Y0116153D01*
X0112519Y0116153D02*
X0114547Y0116153D01*
X0127799Y0116153D02*
X0132201Y0116153D01*
X0007807Y0116652D02*
X0007351Y0116652D01*
X0027370Y0116652D02*
X0040689Y0116652D01*
X0047059Y0116652D02*
X0063984Y0116652D01*
X0091349Y0116652D02*
X0091593Y0116652D01*
X0093242Y0116652D02*
X0095183Y0116652D01*
X0098435Y0116652D02*
X0099504Y0116652D01*
X0109652Y0116652D02*
X0110152Y0116652D01*
X0112317Y0116652D02*
X0114547Y0116652D01*
X0127728Y0116652D02*
X0131932Y0116652D01*
X0007807Y0117150D02*
X0007351Y0117150D01*
X0027370Y0117150D02*
X0040689Y0117150D01*
X0045169Y0117150D02*
X0063785Y0117150D01*
X0091847Y0117150D02*
X0095681Y0117150D01*
X0098934Y0117150D02*
X0099504Y0117150D01*
X0104759Y0117150D02*
X0108184Y0117150D01*
X0109652Y0117150D02*
X0110152Y0117150D01*
X0111621Y0117150D02*
X0114547Y0117150D01*
X0127799Y0117150D02*
X0131801Y0117150D01*
X0007807Y0117649D02*
X0007351Y0117649D01*
X0027370Y0117649D02*
X0038365Y0117649D01*
X0045169Y0117649D02*
X0063785Y0117649D01*
X0092346Y0117649D02*
X0096180Y0117649D01*
X0099432Y0117649D02*
X0101889Y0117649D01*
X0102374Y0117649D02*
X0114819Y0117649D01*
X0127799Y0117649D02*
X0131801Y0117649D01*
X0007807Y0118147D02*
X0007351Y0118147D01*
X0027370Y0118147D02*
X0037866Y0118147D01*
X0044950Y0118147D02*
X0063785Y0118147D01*
X0092844Y0118147D02*
X0096678Y0118147D01*
X0104759Y0118147D02*
X0115318Y0118147D01*
X0127799Y0118147D02*
X0131801Y0118147D01*
X0097177Y0118646D02*
X0093343Y0118646D01*
X0104759Y0118646D02*
X0115816Y0118646D01*
X0127799Y0118646D02*
X0131801Y0118646D01*
X0134232Y0115441D02*
X0137500Y0115441D01*
X0137500Y0120559D01*
X0134232Y0120559D01*
D44*
X0107874Y0098031D03*
X0111024Y0098031D03*
X0114961Y0101181D03*
X0118898Y0097638D03*
X0122047Y0097638D03*
X0125197Y0097244D03*
X0128740Y0097244D03*
X0132283Y0097244D03*
X0132283Y0091339D03*
X0129134Y0091339D03*
X0125197Y0091339D03*
X0123228Y0088189D03*
X0119685Y0087402D03*
X0116142Y0088583D03*
X0111811Y0090157D03*
X0014283Y0034594D03*
X0017272Y0029409D03*
X0013972Y0059980D03*
X0016961Y0054669D03*
X0056976Y0076488D03*
X0056807Y0073083D03*
X0057602Y0069839D03*
X0081012Y0039811D03*
X0086677Y0053850D03*
X0083717Y0065339D03*
X0025890Y0065539D03*
X0078311Y0144807D03*
X0047902Y0141929D03*
X0081102Y0130673D03*
X0091547Y0130673D03*
X0073390Y0136161D03*
X0063260Y0136161D03*
X0074350Y0154626D03*
X0060217Y0151236D03*
X0050602Y0128323D03*
X0032449Y0138402D03*
X0032378Y0128709D03*
X0062598Y0124173D03*
X0070197Y0124213D03*
X0075709Y0124213D03*
X0057795Y0106417D03*
X0062913Y0106220D03*
X0061811Y0038543D03*
X0085000Y0149488D03*
X0075039Y0172126D03*
X0099803Y0110276D03*
X0100354Y0123976D03*
X0085224Y0130370D03*
X0067461Y0136043D03*
X0076535Y0150638D03*
X0046681Y0126173D03*
X0021417Y0065063D03*
X0006114Y0128681D03*
X0032130Y0134366D03*
X0028642Y0058421D03*
X0030630Y0053295D03*
X0093386Y0135039D03*
X0054661Y0058827D03*
X0110256Y0058799D03*
X0106657Y0062264D03*
X0057004Y0062177D03*
X0078228Y0169646D03*
X0045657Y0134224D03*
X0085469Y0143827D03*
X0067587Y0149543D03*
X0006201Y0124075D03*
X0085177Y0027268D03*
X0065433Y0027201D03*
X0020500Y0023500D03*
X0006185Y0023357D03*
X0117827Y0083598D03*
X0039650Y0119531D03*
X0122016Y0121657D03*
X0113953Y0085083D03*
X0042929Y0117000D03*
X0119382Y0119339D03*
X0110150Y0086917D03*
X0116787Y0116449D03*
X0046055Y0114488D03*
X0030717Y0028024D03*
X0030744Y0035685D03*
X0083315Y0047441D03*
X0070315Y0041744D03*
X0015969Y0109909D03*
X0131106Y0111878D03*
X0036535Y0109531D03*
X0075740Y0133646D03*
X0032748Y0109496D03*
X0059945Y0139303D03*
X0028543Y0109843D03*
X0035654Y0142512D03*
D45*
X0067813Y0112661D03*
D46*
X0104111Y0094137D02*
X0104120Y0094146D01*
D47*
X0104111Y0094137D02*
X0108293Y0094137D01*
X0108293Y0094134D01*
X0111443Y0094134D02*
X0114850Y0094134D01*
X0114850Y0094136D01*
X0119923Y0094136D01*
X0119923Y0094165D01*
X0140725Y0094165D01*
X0140225Y0094174D01*
D48*
X0140725Y0094146D01*
M02*
