G75*
%MOIN*%
%OFA0B0*%
%FSLAX25Y25*%
%IPPOS*%
%LPD*%
%AMOC8*
5,1,8,0,0,1.08239X$1,22.5*
%
%ADD10C,0.00200*%
%ADD11C,0.00400*%
%ADD12C,0.00500*%
%ADD13C,0.00800*%
%ADD14C,0.00197*%
%ADD15R,0.01181X0.01181*%
%ADD16C,0.00100*%
%ADD17C,0.00246*%
%ADD18C,0.00394*%
D10*
X0018270Y0021456D02*
X0006672Y0021456D01*
X0006672Y0025259D01*
X0018270Y0025259D01*
X0018270Y0021456D01*
X0058776Y0084850D02*
X0070375Y0084850D01*
X0070375Y0081047D01*
X0058776Y0081047D01*
X0058776Y0084850D01*
X0058477Y0069861D02*
X0070076Y0069861D01*
X0070076Y0066057D01*
X0058477Y0066057D01*
X0058477Y0069861D01*
X0058383Y0078913D02*
X0069981Y0078913D01*
X0069981Y0075109D01*
X0058383Y0075109D01*
X0058383Y0078913D01*
X0058431Y0074173D02*
X0070030Y0074173D01*
X0070030Y0070370D01*
X0058431Y0070370D01*
X0058431Y0074173D01*
X0017917Y0046256D02*
X0006319Y0046256D01*
X0006319Y0050059D01*
X0017917Y0050059D01*
X0017917Y0046256D01*
D11*
X0011821Y0018885D02*
X0011054Y0019653D01*
X0009519Y0019653D01*
X0008752Y0018885D01*
X0008752Y0015816D01*
X0009519Y0015049D01*
X0011054Y0015049D01*
X0011821Y0015816D01*
X0013356Y0018885D02*
X0014123Y0019653D01*
X0015658Y0019653D01*
X0016425Y0018885D01*
X0016425Y0018118D01*
X0015658Y0017351D01*
X0014891Y0017351D01*
X0015658Y0017351D02*
X0016425Y0016583D01*
X0016425Y0015816D01*
X0015658Y0015049D01*
X0014123Y0015049D01*
X0013356Y0015816D01*
X0017960Y0018118D02*
X0019494Y0019653D01*
X0019494Y0015049D01*
X0017960Y0015049D02*
X0021029Y0015049D01*
X0030209Y0044163D02*
X0029441Y0044930D01*
X0027907Y0044930D01*
X0027139Y0044163D01*
X0027139Y0041094D01*
X0027907Y0040326D01*
X0029441Y0040326D01*
X0030209Y0041094D01*
X0031743Y0044163D02*
X0032511Y0044930D01*
X0034045Y0044930D01*
X0034813Y0044163D01*
X0034813Y0043396D01*
X0034045Y0042628D01*
X0033278Y0042628D01*
X0034045Y0042628D02*
X0034813Y0041861D01*
X0034813Y0041094D01*
X0034045Y0040326D01*
X0032511Y0040326D01*
X0031743Y0041094D01*
X0039416Y0040326D02*
X0036347Y0040326D01*
X0039416Y0043396D01*
X0039416Y0044163D01*
X0038649Y0044930D01*
X0037115Y0044930D01*
X0036347Y0044163D01*
X0016008Y0043704D02*
X0015241Y0044471D01*
X0013706Y0044471D01*
X0012939Y0043704D01*
X0012939Y0040634D01*
X0013706Y0039867D01*
X0015241Y0039867D01*
X0016008Y0040634D01*
X0017543Y0043704D02*
X0018310Y0044471D01*
X0019844Y0044471D01*
X0020612Y0043704D01*
X0020612Y0042936D01*
X0019844Y0042169D01*
X0019077Y0042169D01*
X0019844Y0042169D02*
X0020612Y0041402D01*
X0020612Y0040634D01*
X0019844Y0039867D01*
X0018310Y0039867D01*
X0017543Y0040634D01*
X0022146Y0043704D02*
X0022914Y0044471D01*
X0024448Y0044471D01*
X0025216Y0043704D01*
X0025216Y0042936D01*
X0024448Y0042169D01*
X0023681Y0042169D01*
X0024448Y0042169D02*
X0025216Y0041402D01*
X0025216Y0040634D01*
X0024448Y0039867D01*
X0022914Y0039867D01*
X0022146Y0040634D01*
X0119587Y0144457D02*
X0119587Y0139854D01*
X0122656Y0139854D01*
X0127260Y0144457D02*
X0124191Y0144457D01*
X0124191Y0139854D01*
X0127260Y0139854D01*
X0125726Y0142155D02*
X0124191Y0142155D01*
X0128795Y0144457D02*
X0128795Y0139854D01*
X0131097Y0139854D01*
X0131864Y0140621D01*
X0131864Y0143690D01*
X0131097Y0144457D01*
X0128795Y0144457D01*
X0094723Y0011847D02*
X0094723Y0008011D01*
X0095490Y0007243D01*
X0097025Y0007243D01*
X0097792Y0008011D01*
X0097792Y0011847D01*
X0102396Y0011080D02*
X0101629Y0011847D01*
X0100094Y0011847D01*
X0099327Y0011080D01*
X0099327Y0010313D01*
X0100094Y0009545D01*
X0101629Y0009545D01*
X0102396Y0008778D01*
X0102396Y0008011D01*
X0101629Y0007243D01*
X0100094Y0007243D01*
X0099327Y0008011D01*
X0103931Y0007243D02*
X0103931Y0011847D01*
X0106233Y0011847D01*
X0107000Y0011080D01*
X0107000Y0010313D01*
X0106233Y0009545D01*
X0107000Y0008778D01*
X0107000Y0008011D01*
X0106233Y0007243D01*
X0103931Y0007243D01*
X0103931Y0009545D02*
X0106233Y0009545D01*
X0108535Y0007243D02*
X0111604Y0011847D01*
X0116208Y0011080D02*
X0115441Y0011847D01*
X0113906Y0011847D01*
X0113139Y0011080D01*
X0113139Y0010313D01*
X0113906Y0009545D01*
X0115441Y0009545D01*
X0116208Y0008778D01*
X0116208Y0008011D01*
X0115441Y0007243D01*
X0113906Y0007243D01*
X0113139Y0008011D01*
X0117742Y0011847D02*
X0117742Y0007243D01*
X0119277Y0008778D01*
X0120812Y0007243D01*
X0120812Y0011847D01*
X0122346Y0011847D02*
X0122346Y0007243D01*
X0124648Y0007243D01*
X0125416Y0008011D01*
X0125416Y0011080D01*
X0124648Y0011847D01*
X0122346Y0011847D01*
X0083071Y0187205D02*
X0083071Y0188780D01*
X0082087Y0187795D01*
X0082087Y0187205D01*
X0067913Y0187205D02*
X0067913Y0187795D01*
X0066929Y0188780D01*
X0066929Y0187205D01*
X0085992Y0161930D02*
X0089061Y0157326D01*
X0085992Y0157326D02*
X0089061Y0161930D01*
X0090596Y0160395D02*
X0092131Y0161930D01*
X0092131Y0157326D01*
X0093665Y0157326D02*
X0090596Y0157326D01*
X0083858Y0179921D02*
X0083858Y0179724D01*
X0082874Y0178346D01*
X0081890Y0179724D01*
X0081890Y0179921D01*
X0083858Y0179921D01*
X0083007Y0178533D02*
X0082741Y0178533D01*
X0082456Y0178932D02*
X0083292Y0178932D01*
X0083577Y0179330D02*
X0082171Y0179330D01*
X0081890Y0179729D02*
X0083858Y0179729D01*
X0130791Y0104428D02*
X0130791Y0109032D01*
X0133093Y0109032D01*
X0133861Y0108265D01*
X0133861Y0106730D01*
X0133093Y0105963D01*
X0130791Y0105963D01*
X0132326Y0105963D02*
X0133861Y0104428D01*
X0138465Y0104428D02*
X0135395Y0104428D01*
X0138465Y0107498D01*
X0138465Y0108265D01*
X0137697Y0109032D01*
X0136163Y0109032D01*
X0135395Y0108265D01*
X0106605Y0121345D02*
X0105838Y0122113D01*
X0104304Y0122113D01*
X0103536Y0121345D01*
X0103536Y0118276D01*
X0104304Y0117509D01*
X0105838Y0117509D01*
X0106605Y0118276D01*
X0111209Y0117509D02*
X0108140Y0117509D01*
X0111209Y0120578D01*
X0111209Y0121345D01*
X0110442Y0122113D01*
X0108907Y0122113D01*
X0108140Y0121345D01*
X0120247Y0113673D02*
X0119480Y0114441D01*
X0117945Y0114441D01*
X0117178Y0113673D01*
X0117178Y0110604D01*
X0117945Y0109837D01*
X0119480Y0109837D01*
X0120247Y0110604D01*
X0121781Y0112906D02*
X0123316Y0114441D01*
X0123316Y0109837D01*
X0121781Y0109837D02*
X0124851Y0109837D01*
X0105333Y0103404D02*
X0104566Y0104171D01*
X0103031Y0104171D01*
X0102264Y0103404D01*
X0102264Y0100334D01*
X0103031Y0099567D01*
X0104566Y0099567D01*
X0105333Y0100334D01*
X0106868Y0103404D02*
X0107635Y0104171D01*
X0109170Y0104171D01*
X0109937Y0103404D01*
X0109937Y0102636D01*
X0109170Y0101869D01*
X0108403Y0101869D01*
X0109170Y0101869D02*
X0109937Y0101102D01*
X0109937Y0100334D01*
X0109170Y0099567D01*
X0107635Y0099567D01*
X0106868Y0100334D01*
X0115248Y0102662D02*
X0114163Y0102662D01*
X0113077Y0101576D01*
X0113077Y0100491D01*
X0115248Y0098321D01*
X0116333Y0098321D01*
X0117418Y0099406D01*
X0117418Y0100491D01*
X0120674Y0102662D02*
X0117418Y0105917D01*
X0117418Y0102662D01*
X0119588Y0104832D01*
X0056087Y0125503D02*
X0055319Y0126270D01*
X0053785Y0126270D01*
X0053017Y0125503D01*
X0053017Y0122433D01*
X0053785Y0121666D01*
X0055319Y0121666D01*
X0056087Y0122433D01*
X0057621Y0124735D02*
X0059156Y0126270D01*
X0059156Y0121666D01*
X0057621Y0121666D02*
X0060691Y0121666D01*
X0062225Y0122433D02*
X0062225Y0125503D01*
X0062992Y0126270D01*
X0064527Y0126270D01*
X0065294Y0125503D01*
X0065294Y0122433D01*
X0064527Y0121666D01*
X0062992Y0121666D01*
X0062225Y0122433D01*
X0065294Y0125503D01*
X0063376Y0089761D02*
X0062609Y0090528D01*
X0061074Y0090528D01*
X0060307Y0089761D01*
X0060307Y0086692D01*
X0061074Y0085924D01*
X0062609Y0085924D01*
X0063376Y0086692D01*
X0067980Y0090528D02*
X0066446Y0089761D01*
X0064911Y0088226D01*
X0064911Y0086692D01*
X0065678Y0085924D01*
X0067213Y0085924D01*
X0067980Y0086692D01*
X0067980Y0087459D01*
X0067213Y0088226D01*
X0064911Y0088226D01*
X0093026Y0061958D02*
X0092259Y0062725D01*
X0090724Y0062725D01*
X0089957Y0061958D01*
X0089957Y0058889D01*
X0090724Y0058121D01*
X0092259Y0058121D01*
X0093026Y0058889D01*
X0094561Y0062725D02*
X0097630Y0062725D01*
X0097630Y0061958D01*
X0094561Y0058889D01*
X0094561Y0058121D01*
X0099339Y0067741D02*
X0098571Y0068508D01*
X0097037Y0068508D01*
X0096269Y0067741D01*
X0096269Y0064671D01*
X0097037Y0063904D01*
X0098571Y0063904D01*
X0099339Y0064671D01*
X0100873Y0067741D02*
X0101641Y0068508D01*
X0103175Y0068508D01*
X0103943Y0067741D01*
X0103943Y0066973D01*
X0103175Y0066206D01*
X0103943Y0065439D01*
X0103943Y0064671D01*
X0103175Y0063904D01*
X0101641Y0063904D01*
X0100873Y0064671D01*
X0100873Y0065439D01*
X0101641Y0066206D01*
X0100873Y0066973D01*
X0100873Y0067741D01*
X0101641Y0066206D02*
X0103175Y0066206D01*
X0102842Y0087473D02*
X0102074Y0088241D01*
X0100540Y0088241D01*
X0099772Y0087473D01*
X0099772Y0084404D01*
X0100540Y0083637D01*
X0102074Y0083637D01*
X0102842Y0084404D01*
X0104376Y0084404D02*
X0105144Y0083637D01*
X0106678Y0083637D01*
X0107446Y0084404D01*
X0107446Y0087473D01*
X0106678Y0088241D01*
X0105144Y0088241D01*
X0104376Y0087473D01*
X0104376Y0086706D01*
X0105144Y0085939D01*
X0107446Y0085939D01*
X0098860Y0103446D02*
X0098093Y0102679D01*
X0098093Y0101144D01*
X0098860Y0100377D01*
X0101929Y0100377D01*
X0102696Y0101144D01*
X0102696Y0102679D01*
X0101929Y0103446D01*
X0099627Y0104981D02*
X0098093Y0106515D01*
X0102696Y0106515D01*
X0102696Y0104981D02*
X0102696Y0108050D01*
X0102696Y0112654D02*
X0102696Y0109585D01*
X0099627Y0112654D01*
X0098860Y0112654D01*
X0098093Y0111887D01*
X0098093Y0110352D01*
X0098860Y0109585D01*
X0071254Y0108265D02*
X0070486Y0107498D01*
X0070486Y0105963D01*
X0071254Y0105196D01*
X0074323Y0105196D01*
X0075090Y0105963D01*
X0075090Y0107498D01*
X0074323Y0108265D01*
X0072021Y0109800D02*
X0070486Y0111334D01*
X0075090Y0111334D01*
X0075090Y0109800D02*
X0075090Y0112869D01*
X0070486Y0117473D02*
X0070486Y0114404D01*
X0072788Y0114404D01*
X0072021Y0115938D01*
X0072021Y0116705D01*
X0072788Y0117473D01*
X0074323Y0117473D01*
X0075090Y0116705D01*
X0075090Y0115171D01*
X0074323Y0114404D01*
X0081526Y0117283D02*
X0081526Y0118368D01*
X0080441Y0119453D01*
X0079355Y0119453D01*
X0077185Y0117283D01*
X0077185Y0116198D01*
X0078270Y0115113D01*
X0079355Y0115112D01*
X0082068Y0115655D02*
X0084239Y0115655D01*
X0080983Y0112400D01*
X0079898Y0113485D02*
X0082068Y0111314D01*
X0085866Y0112942D02*
X0086952Y0112942D01*
X0088037Y0111857D01*
X0088037Y0110772D01*
X0087494Y0110229D01*
X0086409Y0110229D01*
X0085866Y0110772D01*
X0086409Y0110229D02*
X0086409Y0109144D01*
X0085866Y0108602D01*
X0084781Y0108602D01*
X0083696Y0109687D01*
X0083696Y0110772D01*
X0074984Y0124752D02*
X0074217Y0125519D01*
X0072682Y0125519D01*
X0071915Y0124752D01*
X0071915Y0121682D01*
X0072682Y0120915D01*
X0074217Y0120915D01*
X0074984Y0121682D01*
X0076519Y0123984D02*
X0078054Y0125519D01*
X0078054Y0120915D01*
X0079588Y0120915D02*
X0076519Y0120915D01*
X0083425Y0120915D02*
X0083425Y0125519D01*
X0081123Y0123217D01*
X0084192Y0123217D01*
X0044317Y0102030D02*
X0043549Y0101263D01*
X0043549Y0099728D01*
X0044317Y0098961D01*
X0047386Y0098961D01*
X0048153Y0099728D01*
X0048153Y0101263D01*
X0047386Y0102030D01*
X0045084Y0103565D02*
X0043549Y0105100D01*
X0048153Y0105100D01*
X0048153Y0106634D02*
X0048153Y0103565D01*
X0044317Y0108169D02*
X0043549Y0108936D01*
X0043549Y0110471D01*
X0044317Y0111238D01*
X0045084Y0111238D01*
X0045851Y0110471D01*
X0046619Y0111238D01*
X0047386Y0111238D01*
X0048153Y0110471D01*
X0048153Y0108936D01*
X0047386Y0108169D01*
X0046619Y0108169D01*
X0045851Y0108936D01*
X0045084Y0108169D01*
X0044317Y0108169D01*
X0045851Y0108936D02*
X0045851Y0110471D01*
X0055106Y0117983D02*
X0054339Y0118750D01*
X0052804Y0118750D01*
X0052037Y0117983D01*
X0052037Y0114914D01*
X0052804Y0114146D01*
X0054339Y0114146D01*
X0055106Y0114914D01*
X0056641Y0117216D02*
X0058176Y0118750D01*
X0058176Y0114146D01*
X0059710Y0114146D02*
X0056641Y0114146D01*
X0061245Y0118750D02*
X0064314Y0118750D01*
X0064314Y0117983D01*
X0061245Y0114914D01*
X0061245Y0114146D01*
X0073471Y0067803D02*
X0072704Y0068570D01*
X0071169Y0068570D01*
X0070402Y0067803D01*
X0070402Y0064733D01*
X0071169Y0063966D01*
X0072704Y0063966D01*
X0073471Y0064733D01*
X0078075Y0063966D02*
X0075005Y0063966D01*
X0078075Y0067035D01*
X0078075Y0067803D01*
X0077307Y0068570D01*
X0075773Y0068570D01*
X0075005Y0067803D01*
X0079609Y0064733D02*
X0079609Y0067803D01*
X0080377Y0068570D01*
X0081911Y0068570D01*
X0082679Y0067803D01*
X0082679Y0064733D01*
X0081911Y0063966D01*
X0080377Y0063966D01*
X0079609Y0064733D01*
X0082679Y0067803D01*
X0047195Y0079059D02*
X0046428Y0079827D01*
X0044893Y0079827D01*
X0044126Y0079059D01*
X0044126Y0075990D01*
X0044893Y0075223D01*
X0046428Y0075223D01*
X0047195Y0075990D01*
X0048730Y0078292D02*
X0050265Y0079827D01*
X0050265Y0075223D01*
X0051799Y0075223D02*
X0048730Y0075223D01*
X0053334Y0075990D02*
X0054101Y0075223D01*
X0055636Y0075223D01*
X0056403Y0075990D01*
X0056403Y0079059D01*
X0055636Y0079827D01*
X0054101Y0079827D01*
X0053334Y0079059D01*
X0053334Y0078292D01*
X0054101Y0077525D01*
X0056403Y0077525D01*
X0117089Y0107600D02*
X0116322Y0108368D01*
X0114787Y0108368D01*
X0114020Y0107600D01*
X0114020Y0104531D01*
X0114787Y0103764D01*
X0116322Y0103764D01*
X0117089Y0104531D01*
X0121693Y0108368D02*
X0118624Y0108368D01*
X0118624Y0106066D01*
X0120158Y0106833D01*
X0120926Y0106833D01*
X0121693Y0106066D01*
X0121693Y0104531D01*
X0120926Y0103764D01*
X0119391Y0103764D01*
X0118624Y0104531D01*
X0094086Y0120710D02*
X0093001Y0120710D01*
X0091916Y0119625D01*
X0091916Y0118540D01*
X0094086Y0116369D01*
X0095171Y0116369D01*
X0096257Y0117455D01*
X0096257Y0118540D01*
X0095714Y0121253D02*
X0095714Y0123423D01*
X0098969Y0120167D01*
X0097884Y0119082D02*
X0100055Y0121253D01*
X0100055Y0127764D02*
X0099512Y0126136D01*
X0099512Y0123965D01*
X0100597Y0122880D01*
X0101682Y0122880D01*
X0102767Y0123965D01*
X0102767Y0125051D01*
X0102225Y0125593D01*
X0101140Y0125593D01*
X0099512Y0123965D01*
X0123635Y0103031D02*
X0122868Y0103798D01*
X0121333Y0103798D01*
X0120566Y0103031D01*
X0120566Y0099961D01*
X0121333Y0099194D01*
X0122868Y0099194D01*
X0123635Y0099961D01*
X0128239Y0099194D02*
X0125170Y0099194D01*
X0128239Y0102263D01*
X0128239Y0103031D01*
X0127472Y0103798D01*
X0125937Y0103798D01*
X0125170Y0103031D01*
X0132076Y0099194D02*
X0132076Y0103798D01*
X0129774Y0101496D01*
X0132843Y0101496D01*
X0073307Y0073611D02*
X0072539Y0074379D01*
X0071005Y0074379D01*
X0070237Y0073611D01*
X0070237Y0070542D01*
X0071005Y0069775D01*
X0072539Y0069775D01*
X0073307Y0070542D01*
X0077911Y0069775D02*
X0074841Y0069775D01*
X0077911Y0072844D01*
X0077911Y0073611D01*
X0077143Y0074379D01*
X0075609Y0074379D01*
X0074841Y0073611D01*
X0082515Y0074379D02*
X0079445Y0074379D01*
X0079445Y0072077D01*
X0080980Y0072844D01*
X0081747Y0072844D01*
X0082515Y0072077D01*
X0082515Y0070542D01*
X0081747Y0069775D01*
X0080213Y0069775D01*
X0079445Y0070542D01*
X0108631Y0092343D02*
X0108631Y0087739D01*
X0111700Y0087739D01*
X0113235Y0090809D02*
X0114770Y0092343D01*
X0114770Y0087739D01*
X0116304Y0087739D02*
X0113235Y0087739D01*
X0122784Y0127960D02*
X0118180Y0127960D01*
X0118180Y0130262D01*
X0118948Y0131029D01*
X0120482Y0131029D01*
X0121250Y0130262D01*
X0121250Y0127960D01*
X0121250Y0129494D02*
X0122784Y0131029D01*
X0118948Y0132564D02*
X0118180Y0133331D01*
X0118180Y0134866D01*
X0118948Y0135633D01*
X0119715Y0135633D01*
X0120482Y0134866D01*
X0120482Y0134098D01*
X0120482Y0134866D02*
X0121250Y0135633D01*
X0122017Y0135633D01*
X0122784Y0134866D01*
X0122784Y0133331D01*
X0122017Y0132564D01*
X0106863Y0126976D02*
X0102259Y0126976D01*
X0102259Y0129278D01*
X0103026Y0130046D01*
X0104561Y0130046D01*
X0105328Y0129278D01*
X0105328Y0126976D01*
X0105328Y0128511D02*
X0106863Y0130046D01*
X0106863Y0133882D02*
X0102259Y0133882D01*
X0104561Y0131580D01*
X0104561Y0134650D01*
X0114489Y0121771D02*
X0109885Y0121771D01*
X0109885Y0124073D01*
X0110652Y0124840D01*
X0112187Y0124840D01*
X0112954Y0124073D01*
X0112954Y0121771D01*
X0112954Y0123305D02*
X0114489Y0124840D01*
X0109885Y0129444D02*
X0109885Y0126375D01*
X0112187Y0126375D01*
X0111420Y0127909D01*
X0111420Y0128677D01*
X0112187Y0129444D01*
X0113722Y0129444D01*
X0114489Y0128677D01*
X0114489Y0127142D01*
X0113722Y0126375D01*
X0075959Y0058369D02*
X0074424Y0058369D01*
X0075192Y0058369D02*
X0075192Y0062973D01*
X0075959Y0062973D02*
X0074424Y0062973D01*
X0080563Y0062206D02*
X0079796Y0062973D01*
X0078261Y0062973D01*
X0077494Y0062206D01*
X0077494Y0059137D01*
X0078261Y0058369D01*
X0079796Y0058369D01*
X0080563Y0059137D01*
X0085167Y0058369D02*
X0082098Y0058369D01*
X0085167Y0061439D01*
X0085167Y0062206D01*
X0084400Y0062973D01*
X0082865Y0062973D01*
X0082098Y0062206D01*
X0083204Y0040192D02*
X0084739Y0040192D01*
X0083971Y0040192D02*
X0083971Y0044796D01*
X0083204Y0044796D02*
X0084739Y0044796D01*
X0089342Y0044029D02*
X0088575Y0044796D01*
X0087041Y0044796D01*
X0086273Y0044029D01*
X0086273Y0040959D01*
X0087041Y0040192D01*
X0088575Y0040192D01*
X0089342Y0040959D01*
X0090877Y0040192D02*
X0090877Y0044796D01*
X0092412Y0043261D01*
X0093946Y0044796D01*
X0093946Y0040192D01*
X0098550Y0040192D02*
X0095481Y0040192D01*
X0098550Y0043261D01*
X0098550Y0044029D01*
X0097783Y0044796D01*
X0096248Y0044796D01*
X0095481Y0044029D01*
X0100085Y0040959D02*
X0100085Y0044029D01*
X0100852Y0044796D01*
X0102387Y0044796D01*
X0103154Y0044029D01*
X0103154Y0040959D01*
X0102387Y0040192D01*
X0100852Y0040192D01*
X0100085Y0040959D01*
X0103154Y0044029D01*
X0104689Y0040959D02*
X0105456Y0040192D01*
X0106991Y0040192D01*
X0107758Y0040959D01*
X0107758Y0044029D01*
X0106991Y0044796D01*
X0105456Y0044796D01*
X0104689Y0044029D01*
X0104689Y0043261D01*
X0105456Y0042494D01*
X0107758Y0042494D01*
X0111595Y0040192D02*
X0111595Y0044796D01*
X0109293Y0042494D01*
X0112362Y0042494D01*
X0113897Y0044029D02*
X0114664Y0044796D01*
X0116199Y0044796D01*
X0116966Y0044029D01*
X0116966Y0043261D01*
X0116199Y0042494D01*
X0116966Y0041727D01*
X0116966Y0040959D01*
X0116199Y0040192D01*
X0114664Y0040192D01*
X0113897Y0040959D01*
X0113897Y0041727D01*
X0114664Y0042494D01*
X0113897Y0043261D01*
X0113897Y0044029D01*
X0114664Y0042494D02*
X0116199Y0042494D01*
X0027763Y0029023D02*
X0027763Y0033627D01*
X0030065Y0033627D01*
X0030832Y0032859D01*
X0030832Y0031325D01*
X0030065Y0030557D01*
X0027763Y0030557D01*
X0029298Y0030557D02*
X0030832Y0029023D01*
X0032367Y0032859D02*
X0033134Y0033627D01*
X0034669Y0033627D01*
X0035436Y0032859D01*
X0035436Y0032092D01*
X0034669Y0031325D01*
X0033902Y0031325D01*
X0034669Y0031325D02*
X0035436Y0030557D01*
X0035436Y0029790D01*
X0034669Y0029023D01*
X0033134Y0029023D01*
X0032367Y0029790D01*
X0036971Y0032092D02*
X0038505Y0033627D01*
X0038505Y0029023D01*
X0036971Y0029023D02*
X0040040Y0029023D01*
X0058122Y0051657D02*
X0058122Y0056261D01*
X0060424Y0056261D01*
X0061191Y0055493D01*
X0061191Y0053959D01*
X0060424Y0053191D01*
X0058122Y0053191D01*
X0059657Y0053191D02*
X0061191Y0051657D01*
X0065795Y0056261D02*
X0064261Y0055493D01*
X0062726Y0053959D01*
X0062726Y0052424D01*
X0063493Y0051657D01*
X0065028Y0051657D01*
X0065795Y0052424D01*
X0065795Y0053191D01*
X0065028Y0053959D01*
X0062726Y0053959D01*
X0045972Y0060314D02*
X0045972Y0064918D01*
X0048274Y0064918D01*
X0049042Y0064151D01*
X0049042Y0062616D01*
X0048274Y0061849D01*
X0045972Y0061849D01*
X0047507Y0061849D02*
X0049042Y0060314D01*
X0050576Y0064918D02*
X0053646Y0064918D01*
X0053646Y0064151D01*
X0050576Y0061081D01*
X0050576Y0060314D01*
X0103768Y0063763D02*
X0103768Y0068367D01*
X0106070Y0068367D01*
X0106837Y0067600D01*
X0106837Y0066065D01*
X0106070Y0065298D01*
X0103768Y0065298D01*
X0105302Y0065298D02*
X0106837Y0063763D01*
X0108372Y0067600D02*
X0109139Y0068367D01*
X0110674Y0068367D01*
X0111441Y0067600D01*
X0111441Y0066832D01*
X0110674Y0066065D01*
X0111441Y0065298D01*
X0111441Y0064530D01*
X0110674Y0063763D01*
X0109139Y0063763D01*
X0108372Y0064530D01*
X0108372Y0065298D01*
X0109139Y0066065D01*
X0108372Y0066832D01*
X0108372Y0067600D01*
X0109139Y0066065D02*
X0110674Y0066065D01*
X0112976Y0072464D02*
X0112976Y0077068D01*
X0115278Y0077068D01*
X0116045Y0076300D01*
X0116045Y0074766D01*
X0115278Y0073998D01*
X0112976Y0073998D01*
X0114510Y0073998D02*
X0116045Y0072464D01*
X0117580Y0073231D02*
X0118347Y0072464D01*
X0119881Y0072464D01*
X0120649Y0073231D01*
X0120649Y0076300D01*
X0119881Y0077068D01*
X0118347Y0077068D01*
X0117580Y0076300D01*
X0117580Y0075533D01*
X0118347Y0074766D01*
X0120649Y0074766D01*
X0093671Y0053155D02*
X0092904Y0053922D01*
X0091369Y0053922D01*
X0090602Y0053155D01*
X0090602Y0050085D01*
X0091369Y0049318D01*
X0092904Y0049318D01*
X0093671Y0050085D01*
X0098275Y0049318D02*
X0095205Y0049318D01*
X0098275Y0052387D01*
X0098275Y0053155D01*
X0097507Y0053922D01*
X0095973Y0053922D01*
X0095205Y0053155D01*
X0099809Y0052387D02*
X0101344Y0053922D01*
X0101344Y0049318D01*
X0099809Y0049318D02*
X0102879Y0049318D01*
X0064789Y0035167D02*
X0064022Y0035934D01*
X0062487Y0035934D01*
X0061720Y0035167D01*
X0061720Y0032097D01*
X0062487Y0031330D01*
X0064022Y0031330D01*
X0064789Y0032097D01*
X0069393Y0031330D02*
X0066324Y0031330D01*
X0069393Y0034399D01*
X0069393Y0035167D01*
X0068626Y0035934D01*
X0067091Y0035934D01*
X0066324Y0035167D01*
X0073997Y0031330D02*
X0070928Y0031330D01*
X0073997Y0034399D01*
X0073997Y0035167D01*
X0073229Y0035934D01*
X0071695Y0035934D01*
X0070928Y0035167D01*
X0078163Y0034911D02*
X0077396Y0035678D01*
X0075861Y0035678D01*
X0075094Y0034911D01*
X0075094Y0031841D01*
X0075861Y0031074D01*
X0077396Y0031074D01*
X0078163Y0031841D01*
X0082767Y0031074D02*
X0079698Y0031074D01*
X0082767Y0034143D01*
X0082767Y0034911D01*
X0082000Y0035678D01*
X0080465Y0035678D01*
X0079698Y0034911D01*
X0084302Y0034911D02*
X0085069Y0035678D01*
X0086604Y0035678D01*
X0087371Y0034911D01*
X0087371Y0034143D01*
X0086604Y0033376D01*
X0085836Y0033376D01*
X0086604Y0033376D02*
X0087371Y0032609D01*
X0087371Y0031841D01*
X0086604Y0031074D01*
X0085069Y0031074D01*
X0084302Y0031841D01*
X0024712Y0141385D02*
X0024712Y0145989D01*
X0026246Y0144454D01*
X0027781Y0145989D01*
X0027781Y0141385D01*
X0029316Y0145222D02*
X0030083Y0145989D01*
X0031618Y0145989D01*
X0032385Y0145222D01*
X0032385Y0144454D01*
X0031618Y0143687D01*
X0030850Y0143687D01*
X0031618Y0143687D02*
X0032385Y0142920D01*
X0032385Y0142152D01*
X0031618Y0141385D01*
X0030083Y0141385D01*
X0029316Y0142152D01*
X0063170Y0128322D02*
X0058566Y0128322D01*
X0060101Y0129857D01*
X0058566Y0131391D01*
X0063170Y0131391D01*
X0063170Y0135995D02*
X0063170Y0132926D01*
X0060101Y0135995D01*
X0059333Y0135995D01*
X0058566Y0135228D01*
X0058566Y0133693D01*
X0059333Y0132926D01*
X0082072Y0124342D02*
X0077468Y0124342D01*
X0079002Y0125876D01*
X0077468Y0127411D01*
X0082072Y0127411D01*
X0079002Y0128946D02*
X0077468Y0130480D01*
X0082072Y0130480D01*
X0082072Y0128946D02*
X0082072Y0132015D01*
X0032739Y0122574D02*
X0032739Y0127178D01*
X0034274Y0125643D01*
X0035809Y0127178D01*
X0035809Y0122574D01*
X0040413Y0127178D02*
X0038878Y0126411D01*
X0037343Y0124876D01*
X0037343Y0123341D01*
X0038111Y0122574D01*
X0039645Y0122574D01*
X0040413Y0123341D01*
X0040413Y0124109D01*
X0039645Y0124876D01*
X0037343Y0124876D01*
X0075402Y0125649D02*
X0070798Y0125649D01*
X0072333Y0127183D01*
X0070798Y0128718D01*
X0075402Y0128718D01*
X0070798Y0133322D02*
X0070798Y0130253D01*
X0073100Y0130253D01*
X0072333Y0131787D01*
X0072333Y0132555D01*
X0073100Y0133322D01*
X0074635Y0133322D01*
X0075402Y0132555D01*
X0075402Y0131020D01*
X0074635Y0130253D01*
X0093548Y0120381D02*
X0088944Y0120381D01*
X0090479Y0121916D01*
X0088944Y0123450D01*
X0093548Y0123450D01*
X0093548Y0127287D02*
X0088944Y0127287D01*
X0091246Y0124985D01*
X0091246Y0128054D01*
X0017128Y0130905D02*
X0017128Y0135509D01*
X0019430Y0135509D01*
X0020198Y0134741D01*
X0020198Y0133207D01*
X0019430Y0132439D01*
X0017128Y0132439D01*
X0018663Y0132439D02*
X0020198Y0130905D01*
X0021732Y0133974D02*
X0023267Y0135509D01*
X0023267Y0130905D01*
X0021732Y0130905D02*
X0024802Y0130905D01*
X0026336Y0131672D02*
X0026336Y0134741D01*
X0027104Y0135509D01*
X0028638Y0135509D01*
X0029405Y0134741D01*
X0029405Y0131672D01*
X0028638Y0130905D01*
X0027104Y0130905D01*
X0026336Y0131672D01*
X0029405Y0134741D01*
X0069391Y0121483D02*
X0064787Y0121483D01*
X0064787Y0123785D01*
X0065554Y0124552D01*
X0067089Y0124552D01*
X0067856Y0123785D01*
X0067856Y0121483D01*
X0067856Y0123017D02*
X0069391Y0124552D01*
X0066321Y0126087D02*
X0064787Y0127621D01*
X0069391Y0127621D01*
X0069391Y0126087D02*
X0069391Y0129156D01*
X0066321Y0130691D02*
X0064787Y0132225D01*
X0069391Y0132225D01*
X0069391Y0130691D02*
X0069391Y0133760D01*
X0088816Y0113156D02*
X0084212Y0113156D01*
X0084212Y0115458D01*
X0084979Y0116225D01*
X0086514Y0116225D01*
X0087281Y0115458D01*
X0087281Y0113156D01*
X0087281Y0114691D02*
X0088816Y0116225D01*
X0085746Y0117760D02*
X0084212Y0119294D01*
X0088816Y0119294D01*
X0088816Y0117760D02*
X0088816Y0120829D01*
X0088816Y0125433D02*
X0088816Y0122364D01*
X0085746Y0125433D01*
X0084979Y0125433D01*
X0084212Y0124666D01*
X0084212Y0123131D01*
X0084979Y0122364D01*
X0020572Y0048946D02*
X0019804Y0049713D01*
X0018270Y0049713D01*
X0017502Y0048946D01*
X0017502Y0045877D01*
X0018270Y0045109D01*
X0019804Y0045109D01*
X0020572Y0045877D01*
X0022106Y0049713D02*
X0025176Y0049713D01*
X0025176Y0048946D01*
X0022106Y0045877D01*
X0022106Y0045109D01*
X0026710Y0048179D02*
X0028245Y0049713D01*
X0028245Y0045109D01*
X0026710Y0045109D02*
X0029780Y0045109D01*
X0037108Y0068013D02*
X0036341Y0068780D01*
X0034806Y0068780D01*
X0034039Y0068013D01*
X0034039Y0064944D01*
X0034806Y0064176D01*
X0036341Y0064176D01*
X0037108Y0064944D01*
X0038643Y0068780D02*
X0041712Y0068780D01*
X0041712Y0068013D01*
X0038643Y0064944D01*
X0038643Y0064176D01*
X0046316Y0064176D02*
X0043246Y0064176D01*
X0046316Y0067246D01*
X0046316Y0068013D01*
X0045548Y0068780D01*
X0044014Y0068780D01*
X0043246Y0068013D01*
X0024435Y0071745D02*
X0023667Y0072513D01*
X0022133Y0072513D01*
X0021365Y0071745D01*
X0021365Y0068676D01*
X0022133Y0067909D01*
X0023667Y0067909D01*
X0024435Y0068676D01*
X0025969Y0072513D02*
X0029039Y0072513D01*
X0029039Y0071745D01*
X0025969Y0068676D01*
X0025969Y0067909D01*
X0030573Y0071745D02*
X0031341Y0072513D01*
X0032875Y0072513D01*
X0033642Y0071745D01*
X0033642Y0070978D01*
X0032875Y0070211D01*
X0032108Y0070211D01*
X0032875Y0070211D02*
X0033642Y0069443D01*
X0033642Y0068676D01*
X0032875Y0067909D01*
X0031341Y0067909D01*
X0030573Y0068676D01*
X0032814Y0050523D02*
X0032814Y0055127D01*
X0035116Y0055127D01*
X0035883Y0054359D01*
X0035883Y0052825D01*
X0035116Y0052057D01*
X0032814Y0052057D01*
X0034349Y0052057D02*
X0035883Y0050523D01*
X0037418Y0055127D02*
X0040487Y0055127D01*
X0040487Y0054359D01*
X0037418Y0051290D01*
X0037418Y0050523D01*
X0042022Y0053592D02*
X0043557Y0055127D01*
X0043557Y0050523D01*
X0045091Y0050523D02*
X0042022Y0050523D01*
X0046731Y0048520D02*
X0046731Y0043917D01*
X0049033Y0043917D01*
X0049801Y0044684D01*
X0049801Y0047753D01*
X0049033Y0048520D01*
X0046731Y0048520D01*
X0051335Y0046986D02*
X0052870Y0048520D01*
X0052870Y0043917D01*
X0051335Y0043917D02*
X0054405Y0043917D01*
D12*
X0021617Y0025952D02*
X0009806Y0025952D01*
X0021617Y0037763D02*
X0009806Y0037763D01*
X0009806Y0036582D01*
X0021617Y0036582D02*
X0021617Y0037763D01*
X0021617Y0027133D02*
X0021617Y0025952D01*
X0009806Y0025952D02*
X0009806Y0027133D01*
X0007674Y0038157D02*
X0007676Y0038204D01*
X0007682Y0038250D01*
X0007691Y0038296D01*
X0007705Y0038340D01*
X0007722Y0038384D01*
X0007743Y0038425D01*
X0007767Y0038465D01*
X0007794Y0038503D01*
X0007825Y0038538D01*
X0007858Y0038571D01*
X0007894Y0038601D01*
X0007933Y0038627D01*
X0007973Y0038651D01*
X0008015Y0038670D01*
X0008059Y0038687D01*
X0008104Y0038699D01*
X0008150Y0038708D01*
X0008196Y0038713D01*
X0008243Y0038714D01*
X0008289Y0038711D01*
X0008335Y0038704D01*
X0008381Y0038693D01*
X0008425Y0038679D01*
X0008468Y0038661D01*
X0008509Y0038639D01*
X0008549Y0038614D01*
X0008586Y0038586D01*
X0008621Y0038555D01*
X0008653Y0038521D01*
X0008682Y0038484D01*
X0008707Y0038446D01*
X0008730Y0038405D01*
X0008749Y0038362D01*
X0008764Y0038318D01*
X0008776Y0038273D01*
X0008784Y0038227D01*
X0008788Y0038180D01*
X0008788Y0038134D01*
X0008784Y0038087D01*
X0008776Y0038041D01*
X0008764Y0037996D01*
X0008749Y0037952D01*
X0008730Y0037909D01*
X0008707Y0037868D01*
X0008682Y0037830D01*
X0008653Y0037793D01*
X0008621Y0037759D01*
X0008586Y0037728D01*
X0008549Y0037700D01*
X0008510Y0037675D01*
X0008468Y0037653D01*
X0008425Y0037635D01*
X0008381Y0037621D01*
X0008335Y0037610D01*
X0008289Y0037603D01*
X0008243Y0037600D01*
X0008196Y0037601D01*
X0008150Y0037606D01*
X0008104Y0037615D01*
X0008059Y0037627D01*
X0008015Y0037644D01*
X0007973Y0037663D01*
X0007933Y0037687D01*
X0007894Y0037713D01*
X0007858Y0037743D01*
X0007825Y0037776D01*
X0007794Y0037811D01*
X0007767Y0037849D01*
X0007743Y0037889D01*
X0007722Y0037930D01*
X0007705Y0037974D01*
X0007691Y0038018D01*
X0007682Y0038064D01*
X0007676Y0038110D01*
X0007674Y0038157D01*
X0110200Y0143843D02*
X0117089Y0143843D01*
X0118074Y0143843D01*
X0118074Y0142858D01*
X0118074Y0135969D01*
X0110200Y0135969D01*
X0110200Y0143843D01*
X0117089Y0143843D02*
X0117089Y0142858D01*
X0118074Y0142858D01*
X0090157Y0006978D02*
X0090157Y0005009D01*
X0085728Y0005009D01*
X0081791Y0005009D02*
X0077362Y0005009D01*
X0073425Y0005009D02*
X0068996Y0005009D01*
X0065059Y0005009D02*
X0060630Y0005009D01*
X0060630Y0006978D01*
X0090157Y0014458D02*
X0090157Y0016033D01*
X0060630Y0016033D02*
X0060630Y0014458D01*
X0081299Y0023907D02*
X0083465Y0023907D01*
X0069488Y0023907D02*
X0067323Y0023907D01*
X0041343Y0128705D02*
X0041343Y0139728D01*
X0050004Y0139728D01*
X0050004Y0128705D01*
X0041343Y0128705D01*
X0041967Y0127524D02*
X0041969Y0127571D01*
X0041975Y0127617D01*
X0041984Y0127663D01*
X0041998Y0127707D01*
X0042015Y0127751D01*
X0042036Y0127792D01*
X0042060Y0127832D01*
X0042087Y0127870D01*
X0042118Y0127905D01*
X0042151Y0127938D01*
X0042187Y0127968D01*
X0042226Y0127994D01*
X0042266Y0128018D01*
X0042308Y0128037D01*
X0042352Y0128054D01*
X0042397Y0128066D01*
X0042443Y0128075D01*
X0042489Y0128080D01*
X0042536Y0128081D01*
X0042582Y0128078D01*
X0042628Y0128071D01*
X0042674Y0128060D01*
X0042718Y0128046D01*
X0042761Y0128028D01*
X0042802Y0128006D01*
X0042842Y0127981D01*
X0042879Y0127953D01*
X0042914Y0127922D01*
X0042946Y0127888D01*
X0042975Y0127851D01*
X0043000Y0127813D01*
X0043023Y0127772D01*
X0043042Y0127729D01*
X0043057Y0127685D01*
X0043069Y0127640D01*
X0043077Y0127594D01*
X0043081Y0127547D01*
X0043081Y0127501D01*
X0043077Y0127454D01*
X0043069Y0127408D01*
X0043057Y0127363D01*
X0043042Y0127319D01*
X0043023Y0127276D01*
X0043000Y0127235D01*
X0042975Y0127197D01*
X0042946Y0127160D01*
X0042914Y0127126D01*
X0042879Y0127095D01*
X0042842Y0127067D01*
X0042803Y0127042D01*
X0042761Y0127020D01*
X0042718Y0127002D01*
X0042674Y0126988D01*
X0042628Y0126977D01*
X0042582Y0126970D01*
X0042536Y0126967D01*
X0042489Y0126968D01*
X0042443Y0126973D01*
X0042397Y0126982D01*
X0042352Y0126994D01*
X0042308Y0127011D01*
X0042266Y0127030D01*
X0042226Y0127054D01*
X0042187Y0127080D01*
X0042151Y0127110D01*
X0042118Y0127143D01*
X0042087Y0127178D01*
X0042060Y0127216D01*
X0042036Y0127256D01*
X0042015Y0127297D01*
X0041998Y0127341D01*
X0041984Y0127385D01*
X0041975Y0127431D01*
X0041969Y0127477D01*
X0041967Y0127524D01*
X0073122Y0145252D02*
X0062098Y0145252D01*
X0062098Y0153913D01*
X0073122Y0153913D01*
X0073122Y0145252D01*
X0073746Y0146433D02*
X0073748Y0146480D01*
X0073754Y0146526D01*
X0073763Y0146572D01*
X0073777Y0146616D01*
X0073794Y0146660D01*
X0073815Y0146701D01*
X0073839Y0146741D01*
X0073866Y0146779D01*
X0073897Y0146814D01*
X0073930Y0146847D01*
X0073966Y0146877D01*
X0074005Y0146903D01*
X0074045Y0146927D01*
X0074087Y0146946D01*
X0074131Y0146963D01*
X0074176Y0146975D01*
X0074222Y0146984D01*
X0074268Y0146989D01*
X0074315Y0146990D01*
X0074361Y0146987D01*
X0074407Y0146980D01*
X0074453Y0146969D01*
X0074497Y0146955D01*
X0074540Y0146937D01*
X0074581Y0146915D01*
X0074621Y0146890D01*
X0074658Y0146862D01*
X0074693Y0146831D01*
X0074725Y0146797D01*
X0074754Y0146760D01*
X0074779Y0146722D01*
X0074802Y0146681D01*
X0074821Y0146638D01*
X0074836Y0146594D01*
X0074848Y0146549D01*
X0074856Y0146503D01*
X0074860Y0146456D01*
X0074860Y0146410D01*
X0074856Y0146363D01*
X0074848Y0146317D01*
X0074836Y0146272D01*
X0074821Y0146228D01*
X0074802Y0146185D01*
X0074779Y0146144D01*
X0074754Y0146106D01*
X0074725Y0146069D01*
X0074693Y0146035D01*
X0074658Y0146004D01*
X0074621Y0145976D01*
X0074582Y0145951D01*
X0074540Y0145929D01*
X0074497Y0145911D01*
X0074453Y0145897D01*
X0074407Y0145886D01*
X0074361Y0145879D01*
X0074315Y0145876D01*
X0074268Y0145877D01*
X0074222Y0145882D01*
X0074176Y0145891D01*
X0074131Y0145903D01*
X0074087Y0145920D01*
X0074045Y0145939D01*
X0074005Y0145963D01*
X0073966Y0145989D01*
X0073930Y0146019D01*
X0073897Y0146052D01*
X0073866Y0146087D01*
X0073839Y0146125D01*
X0073815Y0146165D01*
X0073794Y0146206D01*
X0073777Y0146250D01*
X0073763Y0146294D01*
X0073754Y0146340D01*
X0073748Y0146386D01*
X0073746Y0146433D01*
X0090902Y0139516D02*
X0079878Y0139516D01*
X0079878Y0148177D01*
X0090902Y0148177D01*
X0090902Y0139516D01*
X0091526Y0140697D02*
X0091528Y0140744D01*
X0091534Y0140790D01*
X0091543Y0140836D01*
X0091557Y0140880D01*
X0091574Y0140924D01*
X0091595Y0140965D01*
X0091619Y0141005D01*
X0091646Y0141043D01*
X0091677Y0141078D01*
X0091710Y0141111D01*
X0091746Y0141141D01*
X0091785Y0141167D01*
X0091825Y0141191D01*
X0091867Y0141210D01*
X0091911Y0141227D01*
X0091956Y0141239D01*
X0092002Y0141248D01*
X0092048Y0141253D01*
X0092095Y0141254D01*
X0092141Y0141251D01*
X0092187Y0141244D01*
X0092233Y0141233D01*
X0092277Y0141219D01*
X0092320Y0141201D01*
X0092361Y0141179D01*
X0092401Y0141154D01*
X0092438Y0141126D01*
X0092473Y0141095D01*
X0092505Y0141061D01*
X0092534Y0141024D01*
X0092559Y0140986D01*
X0092582Y0140945D01*
X0092601Y0140902D01*
X0092616Y0140858D01*
X0092628Y0140813D01*
X0092636Y0140767D01*
X0092640Y0140720D01*
X0092640Y0140674D01*
X0092636Y0140627D01*
X0092628Y0140581D01*
X0092616Y0140536D01*
X0092601Y0140492D01*
X0092582Y0140449D01*
X0092559Y0140408D01*
X0092534Y0140370D01*
X0092505Y0140333D01*
X0092473Y0140299D01*
X0092438Y0140268D01*
X0092401Y0140240D01*
X0092362Y0140215D01*
X0092320Y0140193D01*
X0092277Y0140175D01*
X0092233Y0140161D01*
X0092187Y0140150D01*
X0092141Y0140143D01*
X0092095Y0140140D01*
X0092048Y0140141D01*
X0092002Y0140146D01*
X0091956Y0140155D01*
X0091911Y0140167D01*
X0091867Y0140184D01*
X0091825Y0140203D01*
X0091785Y0140227D01*
X0091746Y0140253D01*
X0091710Y0140283D01*
X0091677Y0140316D01*
X0091646Y0140351D01*
X0091619Y0140389D01*
X0091595Y0140429D01*
X0091574Y0140470D01*
X0091557Y0140514D01*
X0091543Y0140558D01*
X0091534Y0140604D01*
X0091528Y0140650D01*
X0091526Y0140697D01*
X0072634Y0104641D02*
X0072634Y0077082D01*
X0100193Y0077082D01*
X0100193Y0104641D01*
X0072634Y0104641D01*
X0073413Y0103361D02*
X0073415Y0103405D01*
X0073421Y0103449D01*
X0073431Y0103492D01*
X0073444Y0103534D01*
X0073461Y0103575D01*
X0073482Y0103614D01*
X0073506Y0103651D01*
X0073533Y0103686D01*
X0073563Y0103718D01*
X0073596Y0103748D01*
X0073632Y0103774D01*
X0073669Y0103798D01*
X0073709Y0103817D01*
X0073750Y0103834D01*
X0073793Y0103846D01*
X0073836Y0103855D01*
X0073880Y0103860D01*
X0073924Y0103861D01*
X0073968Y0103858D01*
X0074012Y0103851D01*
X0074055Y0103840D01*
X0074097Y0103826D01*
X0074137Y0103808D01*
X0074176Y0103786D01*
X0074212Y0103762D01*
X0074246Y0103734D01*
X0074278Y0103703D01*
X0074307Y0103669D01*
X0074333Y0103633D01*
X0074355Y0103595D01*
X0074374Y0103555D01*
X0074389Y0103513D01*
X0074401Y0103471D01*
X0074409Y0103427D01*
X0074413Y0103383D01*
X0074413Y0103339D01*
X0074409Y0103295D01*
X0074401Y0103251D01*
X0074389Y0103209D01*
X0074374Y0103167D01*
X0074355Y0103127D01*
X0074333Y0103089D01*
X0074307Y0103053D01*
X0074278Y0103019D01*
X0074246Y0102988D01*
X0074212Y0102960D01*
X0074176Y0102936D01*
X0074137Y0102914D01*
X0074097Y0102896D01*
X0074055Y0102882D01*
X0074012Y0102871D01*
X0073968Y0102864D01*
X0073924Y0102861D01*
X0073880Y0102862D01*
X0073836Y0102867D01*
X0073793Y0102876D01*
X0073750Y0102888D01*
X0073709Y0102905D01*
X0073669Y0102924D01*
X0073632Y0102948D01*
X0073596Y0102974D01*
X0073563Y0103004D01*
X0073533Y0103036D01*
X0073506Y0103071D01*
X0073482Y0103108D01*
X0073461Y0103147D01*
X0073444Y0103188D01*
X0073431Y0103230D01*
X0073421Y0103273D01*
X0073415Y0103317D01*
X0073413Y0103361D01*
X0065627Y0108598D02*
X0054800Y0108598D01*
X0054800Y0100724D02*
X0065627Y0100724D01*
X0034276Y0140555D02*
X0035457Y0140555D01*
X0039787Y0140555D01*
X0039787Y0136618D01*
X0035457Y0136618D01*
X0034276Y0136618D01*
X0034276Y0140555D01*
X0035457Y0140555D02*
X0035457Y0140161D01*
X0035457Y0138980D02*
X0035457Y0138193D01*
X0035457Y0137012D02*
X0035457Y0136618D01*
X0061520Y0137925D02*
X0061520Y0139106D01*
X0061520Y0143437D01*
X0065457Y0143437D01*
X0065457Y0139106D01*
X0065457Y0137925D01*
X0061520Y0137925D01*
X0061520Y0139106D02*
X0061913Y0139106D01*
X0063094Y0139106D02*
X0063882Y0139106D01*
X0065063Y0139106D02*
X0065457Y0139106D01*
X0079043Y0132291D02*
X0079043Y0133472D01*
X0079043Y0137803D01*
X0082980Y0137803D01*
X0082980Y0133472D01*
X0082980Y0132291D01*
X0079043Y0132291D01*
X0079043Y0133472D02*
X0079437Y0133472D01*
X0080618Y0133472D02*
X0081406Y0133472D01*
X0082587Y0133472D02*
X0082980Y0133472D01*
X0034299Y0132402D02*
X0035480Y0132402D01*
X0039811Y0132402D01*
X0039811Y0128465D01*
X0035480Y0128465D01*
X0034299Y0128465D01*
X0034299Y0132402D01*
X0035480Y0132402D02*
X0035480Y0132008D01*
X0035480Y0130827D02*
X0035480Y0130039D01*
X0035480Y0128858D02*
X0035480Y0128465D01*
X0069382Y0137929D02*
X0069382Y0139110D01*
X0069382Y0143441D01*
X0073319Y0143441D01*
X0073319Y0139110D01*
X0073319Y0137929D01*
X0069382Y0137929D01*
X0069382Y0139110D02*
X0069776Y0139110D01*
X0070957Y0139110D02*
X0071744Y0139110D01*
X0072925Y0139110D02*
X0073319Y0139110D01*
X0087213Y0132346D02*
X0087213Y0133528D01*
X0087213Y0137858D01*
X0091150Y0137858D01*
X0091150Y0133528D01*
X0091150Y0132346D01*
X0087213Y0132346D01*
X0087213Y0133528D02*
X0087606Y0133528D01*
X0088787Y0133528D02*
X0089575Y0133528D01*
X0090756Y0133528D02*
X0091150Y0133528D01*
X0021389Y0051240D02*
X0009578Y0051240D01*
X0021389Y0063051D02*
X0009578Y0063051D01*
X0009578Y0061870D01*
X0021389Y0061870D02*
X0021389Y0063051D01*
X0021389Y0052421D02*
X0021389Y0051240D01*
X0009578Y0051240D02*
X0009578Y0052421D01*
X0007446Y0063445D02*
X0007448Y0063492D01*
X0007454Y0063538D01*
X0007463Y0063584D01*
X0007477Y0063628D01*
X0007494Y0063672D01*
X0007515Y0063713D01*
X0007539Y0063753D01*
X0007566Y0063791D01*
X0007597Y0063826D01*
X0007630Y0063859D01*
X0007666Y0063889D01*
X0007705Y0063915D01*
X0007745Y0063939D01*
X0007787Y0063958D01*
X0007831Y0063975D01*
X0007876Y0063987D01*
X0007922Y0063996D01*
X0007968Y0064001D01*
X0008015Y0064002D01*
X0008061Y0063999D01*
X0008107Y0063992D01*
X0008153Y0063981D01*
X0008197Y0063967D01*
X0008240Y0063949D01*
X0008281Y0063927D01*
X0008321Y0063902D01*
X0008358Y0063874D01*
X0008393Y0063843D01*
X0008425Y0063809D01*
X0008454Y0063772D01*
X0008479Y0063734D01*
X0008502Y0063693D01*
X0008521Y0063650D01*
X0008536Y0063606D01*
X0008548Y0063561D01*
X0008556Y0063515D01*
X0008560Y0063468D01*
X0008560Y0063422D01*
X0008556Y0063375D01*
X0008548Y0063329D01*
X0008536Y0063284D01*
X0008521Y0063240D01*
X0008502Y0063197D01*
X0008479Y0063156D01*
X0008454Y0063118D01*
X0008425Y0063081D01*
X0008393Y0063047D01*
X0008358Y0063016D01*
X0008321Y0062988D01*
X0008282Y0062963D01*
X0008240Y0062941D01*
X0008197Y0062923D01*
X0008153Y0062909D01*
X0008107Y0062898D01*
X0008061Y0062891D01*
X0008015Y0062888D01*
X0007968Y0062889D01*
X0007922Y0062894D01*
X0007876Y0062903D01*
X0007831Y0062915D01*
X0007787Y0062932D01*
X0007745Y0062951D01*
X0007705Y0062975D01*
X0007666Y0063001D01*
X0007630Y0063031D01*
X0007597Y0063064D01*
X0007566Y0063099D01*
X0007539Y0063137D01*
X0007515Y0063177D01*
X0007494Y0063218D01*
X0007477Y0063262D01*
X0007463Y0063306D01*
X0007454Y0063352D01*
X0007448Y0063398D01*
X0007446Y0063445D01*
D13*
X0094488Y0186811D02*
X0094488Y0188780D01*
X0094094Y0189173D01*
X0055906Y0189173D01*
X0055512Y0188780D01*
X0055512Y0186811D01*
X0094488Y0186811D01*
X0090945Y0180512D02*
X0059055Y0180512D01*
X0088780Y0180906D02*
X0088780Y0186417D01*
X0061220Y0186417D02*
X0061220Y0180906D01*
X0085433Y0179921D02*
X0085433Y0171063D01*
X0085431Y0171030D01*
X0085426Y0170997D01*
X0085416Y0170966D01*
X0085404Y0170935D01*
X0085388Y0170906D01*
X0085369Y0170879D01*
X0085347Y0170854D01*
X0085322Y0170832D01*
X0085295Y0170813D01*
X0085266Y0170797D01*
X0085235Y0170785D01*
X0085204Y0170775D01*
X0085171Y0170770D01*
X0085138Y0170768D01*
X0085105Y0170770D01*
X0085072Y0170775D01*
X0085041Y0170785D01*
X0085010Y0170797D01*
X0084981Y0170813D01*
X0084954Y0170832D01*
X0084929Y0170854D01*
X0084907Y0170879D01*
X0084888Y0170906D01*
X0084872Y0170935D01*
X0084860Y0170966D01*
X0084850Y0170997D01*
X0084845Y0171030D01*
X0084843Y0171063D01*
X0084843Y0179921D01*
X0065157Y0179921D02*
X0065157Y0171063D01*
X0065155Y0171030D01*
X0065150Y0170997D01*
X0065140Y0170966D01*
X0065128Y0170935D01*
X0065112Y0170906D01*
X0065093Y0170879D01*
X0065071Y0170854D01*
X0065046Y0170832D01*
X0065019Y0170813D01*
X0064990Y0170797D01*
X0064959Y0170785D01*
X0064928Y0170775D01*
X0064895Y0170770D01*
X0064862Y0170768D01*
X0064829Y0170770D01*
X0064796Y0170775D01*
X0064765Y0170785D01*
X0064734Y0170797D01*
X0064705Y0170813D01*
X0064678Y0170832D01*
X0064653Y0170854D01*
X0064631Y0170879D01*
X0064612Y0170906D01*
X0064596Y0170935D01*
X0064584Y0170966D01*
X0064574Y0170997D01*
X0064569Y0171030D01*
X0064567Y0171063D01*
X0064567Y0179921D01*
X0135725Y0090674D02*
X0135725Y0071674D01*
X0144725Y0071674D02*
X0144725Y0090674D01*
X0140225Y0076174D02*
X0140225Y0072674D01*
X0141725Y0074174D01*
X0140225Y0072674D02*
X0138725Y0074174D01*
D14*
X0123701Y0129811D02*
X0136299Y0129811D01*
X0136299Y0114063D01*
X0123701Y0114063D01*
X0123701Y0129811D01*
D15*
X0127339Y0108461D03*
X0115823Y0132138D03*
X0108724Y0132157D03*
X0112445Y0132142D03*
X0026008Y0028055D03*
X0061402Y0058799D03*
X0061417Y0062181D03*
X0106693Y0072835D03*
X0110236Y0073228D03*
X0036858Y0134303D03*
X0067445Y0140469D03*
X0085217Y0134937D03*
X0026295Y0053295D03*
D16*
X0143275Y0085331D02*
X0142274Y0085331D01*
X0141774Y0085832D01*
X0142274Y0086332D01*
X0143275Y0086332D01*
X0142524Y0086332D02*
X0142524Y0085331D01*
X0143275Y0086805D02*
X0141774Y0086805D01*
X0143275Y0087805D01*
X0141774Y0087805D01*
X0141774Y0088778D02*
X0143275Y0088778D01*
X0141774Y0088278D02*
X0141774Y0089279D01*
X0142274Y0089751D02*
X0141774Y0090252D01*
X0143275Y0090252D01*
X0143275Y0090752D02*
X0143275Y0089751D01*
X0072984Y0105675D02*
X0072684Y0105675D01*
X0072834Y0105675D02*
X0072834Y0106576D01*
X0072684Y0106576D02*
X0072984Y0106576D01*
X0073898Y0106426D02*
X0073748Y0106576D01*
X0073448Y0106576D01*
X0073298Y0106426D01*
X0073298Y0105825D01*
X0073448Y0105675D01*
X0073748Y0105675D01*
X0073898Y0105825D01*
X0074218Y0106276D02*
X0074519Y0106576D01*
X0074519Y0105675D01*
X0074819Y0105675D02*
X0074218Y0105675D01*
X0072684Y0075163D02*
X0072684Y0076064D01*
X0073284Y0075163D01*
X0073284Y0076064D01*
X0073605Y0075163D02*
X0073605Y0076064D01*
X0074055Y0076064D01*
X0074205Y0075914D01*
X0074205Y0075614D01*
X0074055Y0075464D01*
X0073605Y0075464D01*
X0073905Y0075464D02*
X0074205Y0075163D01*
X0074525Y0075163D02*
X0074525Y0076064D01*
X0075126Y0076064D01*
X0074826Y0075614D02*
X0074525Y0075614D01*
X0076047Y0076064D02*
X0075446Y0076064D01*
X0075446Y0075614D01*
X0075746Y0075764D01*
X0075897Y0075764D01*
X0076047Y0075614D01*
X0076047Y0075314D01*
X0075897Y0075163D01*
X0075596Y0075163D01*
X0075446Y0075314D01*
X0076967Y0075163D02*
X0076367Y0075163D01*
X0076967Y0075764D01*
X0076967Y0075914D01*
X0076817Y0076064D01*
X0076517Y0076064D01*
X0076367Y0075914D01*
X0077288Y0075914D02*
X0077438Y0076064D01*
X0077738Y0076064D01*
X0077888Y0075914D01*
X0077888Y0075764D01*
X0077738Y0075614D01*
X0077888Y0075464D01*
X0077888Y0075314D01*
X0077738Y0075163D01*
X0077438Y0075163D01*
X0077288Y0075314D01*
X0077288Y0075464D01*
X0077438Y0075614D01*
X0077288Y0075764D01*
X0077288Y0075914D01*
X0077438Y0075614D02*
X0077738Y0075614D01*
X0078659Y0075163D02*
X0078659Y0076064D01*
X0078209Y0075614D01*
X0078809Y0075614D01*
X0079129Y0075314D02*
X0079129Y0075914D01*
X0079279Y0076064D01*
X0079580Y0076064D01*
X0079730Y0075914D01*
X0079730Y0075314D01*
X0079580Y0075163D01*
X0079279Y0075163D01*
X0079129Y0075314D01*
X0079730Y0075914D01*
D17*
X0111871Y0116538D02*
X0111871Y0107089D01*
X0107934Y0107089D01*
X0103997Y0107089D01*
X0103997Y0111188D01*
X0103997Y0116538D01*
X0111871Y0116538D01*
X0103997Y0111188D02*
X0107934Y0111188D01*
X0107934Y0107089D01*
D18*
X0068303Y0057287D02*
X0081303Y0057287D01*
X0081303Y0044287D01*
X0068303Y0044287D01*
X0068303Y0057287D01*
X0068596Y0056287D02*
X0068598Y0056340D01*
X0068604Y0056392D01*
X0068614Y0056444D01*
X0068627Y0056495D01*
X0068645Y0056545D01*
X0068666Y0056594D01*
X0068691Y0056641D01*
X0068719Y0056685D01*
X0068750Y0056728D01*
X0068785Y0056768D01*
X0068822Y0056805D01*
X0068862Y0056840D01*
X0068905Y0056871D01*
X0068950Y0056899D01*
X0068996Y0056924D01*
X0069045Y0056945D01*
X0069095Y0056963D01*
X0069146Y0056976D01*
X0069198Y0056986D01*
X0069250Y0056992D01*
X0069303Y0056994D01*
X0069356Y0056992D01*
X0069408Y0056986D01*
X0069460Y0056976D01*
X0069511Y0056963D01*
X0069561Y0056945D01*
X0069610Y0056924D01*
X0069657Y0056899D01*
X0069701Y0056871D01*
X0069744Y0056840D01*
X0069784Y0056805D01*
X0069821Y0056768D01*
X0069856Y0056728D01*
X0069887Y0056685D01*
X0069915Y0056640D01*
X0069940Y0056594D01*
X0069961Y0056545D01*
X0069979Y0056495D01*
X0069992Y0056444D01*
X0070002Y0056392D01*
X0070008Y0056340D01*
X0070010Y0056287D01*
X0070008Y0056234D01*
X0070002Y0056182D01*
X0069992Y0056130D01*
X0069979Y0056079D01*
X0069961Y0056029D01*
X0069940Y0055980D01*
X0069915Y0055933D01*
X0069887Y0055889D01*
X0069856Y0055846D01*
X0069821Y0055806D01*
X0069784Y0055769D01*
X0069744Y0055734D01*
X0069701Y0055703D01*
X0069656Y0055675D01*
X0069610Y0055650D01*
X0069561Y0055629D01*
X0069511Y0055611D01*
X0069460Y0055598D01*
X0069408Y0055588D01*
X0069356Y0055582D01*
X0069303Y0055580D01*
X0069250Y0055582D01*
X0069198Y0055588D01*
X0069146Y0055598D01*
X0069095Y0055611D01*
X0069045Y0055629D01*
X0068996Y0055650D01*
X0068949Y0055675D01*
X0068905Y0055703D01*
X0068862Y0055734D01*
X0068822Y0055769D01*
X0068785Y0055806D01*
X0068750Y0055846D01*
X0068719Y0055889D01*
X0068691Y0055934D01*
X0068666Y0055980D01*
X0068645Y0056029D01*
X0068627Y0056079D01*
X0068614Y0056130D01*
X0068604Y0056182D01*
X0068598Y0056234D01*
X0068596Y0056287D01*
M02*
