G75*
%MOIN*%
%OFA0B0*%
%FSLAX25Y25*%
%IPPOS*%
%LPD*%
%AMOC8*
5,1,8,0,0,1.08239X$1,22.5*
%
%ADD10R,0.05906X0.05118*%
%ADD11R,0.02756X0.03543*%
%ADD12R,0.03543X0.02756*%
%ADD13R,0.03898X0.02717*%
%ADD14R,0.03937X0.06693*%
%ADD15R,0.01969X0.01181*%
%ADD16R,0.02362X0.01575*%
%ADD17C,0.01181*%
%ADD18R,0.00394X0.00394*%
D10*
X0061500Y0055510D03*
X0061500Y0062990D03*
D11*
X0059097Y0068472D03*
X0053979Y0068472D03*
D12*
X0048400Y0057491D03*
X0048400Y0062609D03*
X0123300Y0114441D03*
X0123300Y0119559D03*
D13*
X0044882Y0121260D03*
X0044882Y0125000D03*
X0044882Y0128740D03*
X0055118Y0128740D03*
X0055118Y0125000D03*
X0055118Y0121260D03*
X0069882Y0121260D03*
X0069882Y0125000D03*
X0069882Y0128740D03*
X0080118Y0128740D03*
X0080118Y0125000D03*
X0080118Y0121260D03*
X0094882Y0121260D03*
X0094882Y0125000D03*
X0094882Y0128740D03*
X0105118Y0128740D03*
X0105118Y0125000D03*
X0105118Y0121260D03*
D14*
X0050000Y0140000D03*
X0075000Y0140000D03*
X0100000Y0140000D03*
D15*
X0046260Y0137047D03*
X0046260Y0139016D03*
X0046260Y0140984D03*
X0046260Y0142953D03*
X0053740Y0142953D03*
X0053740Y0140984D03*
X0053740Y0139016D03*
X0053740Y0137047D03*
X0071260Y0137047D03*
X0071260Y0139016D03*
X0071260Y0140984D03*
X0071260Y0142953D03*
X0078740Y0142953D03*
X0078740Y0140984D03*
X0078740Y0139016D03*
X0078740Y0137047D03*
X0096260Y0137047D03*
X0096260Y0139016D03*
X0096260Y0140984D03*
X0096260Y0142953D03*
X0103740Y0142953D03*
X0103740Y0140984D03*
X0103740Y0139016D03*
X0103740Y0137047D03*
D16*
X0024232Y0119559D03*
X0024232Y0117000D03*
X0024232Y0114441D03*
X0015768Y0114441D03*
X0015768Y0117000D03*
X0015768Y0119559D03*
D17*
X0022639Y0124559D02*
X0022644Y0124654D01*
X0022646Y0124749D01*
X0022644Y0124843D01*
X0022638Y0124938D01*
X0022628Y0125032D01*
X0022615Y0125126D01*
X0022597Y0125219D01*
X0022576Y0125311D01*
X0022551Y0125403D01*
X0022522Y0125493D01*
X0022490Y0125582D01*
X0022454Y0125669D01*
X0022414Y0125756D01*
X0022371Y0125840D01*
X0022325Y0125923D01*
X0022275Y0126003D01*
X0022222Y0126082D01*
X0022166Y0126158D01*
X0022107Y0126232D01*
X0022045Y0126303D01*
X0021980Y0126372D01*
X0021912Y0126439D01*
X0021842Y0126502D01*
X0021769Y0126562D01*
X0021693Y0126620D01*
X0021616Y0126674D01*
X0021536Y0126725D01*
X0022166Y0123063D02*
X0022115Y0122983D01*
X0022061Y0122906D01*
X0022003Y0122830D01*
X0021943Y0122757D01*
X0021880Y0122687D01*
X0021813Y0122619D01*
X0021744Y0122554D01*
X0021673Y0122492D01*
X0021599Y0122433D01*
X0021523Y0122377D01*
X0021444Y0122324D01*
X0021364Y0122274D01*
X0021281Y0122228D01*
X0021197Y0122185D01*
X0021110Y0122145D01*
X0021023Y0122109D01*
X0020934Y0122077D01*
X0020844Y0122048D01*
X0020752Y0122023D01*
X0020660Y0122002D01*
X0020567Y0121984D01*
X0020473Y0121971D01*
X0020379Y0121961D01*
X0020284Y0121955D01*
X0020190Y0121953D01*
X0020095Y0121955D01*
X0020000Y0121960D01*
X0017874Y0126095D02*
X0017925Y0126175D01*
X0017979Y0126252D01*
X0018037Y0126328D01*
X0018097Y0126401D01*
X0018160Y0126471D01*
X0018227Y0126539D01*
X0018296Y0126604D01*
X0018367Y0126666D01*
X0018441Y0126725D01*
X0018517Y0126781D01*
X0018596Y0126834D01*
X0018676Y0126884D01*
X0018759Y0126930D01*
X0018843Y0126973D01*
X0018930Y0127013D01*
X0019017Y0127049D01*
X0019106Y0127081D01*
X0019196Y0127110D01*
X0019288Y0127135D01*
X0019380Y0127156D01*
X0019473Y0127174D01*
X0019567Y0127187D01*
X0019661Y0127197D01*
X0019756Y0127203D01*
X0019850Y0127205D01*
X0019945Y0127203D01*
X0020040Y0127198D01*
X0017361Y0124599D02*
X0017356Y0124504D01*
X0017354Y0124409D01*
X0017356Y0124315D01*
X0017362Y0124220D01*
X0017372Y0124126D01*
X0017385Y0124032D01*
X0017403Y0123939D01*
X0017424Y0123847D01*
X0017449Y0123755D01*
X0017478Y0123665D01*
X0017510Y0123576D01*
X0017546Y0123489D01*
X0017586Y0123402D01*
X0017629Y0123318D01*
X0017675Y0123235D01*
X0017725Y0123155D01*
X0017778Y0123076D01*
X0017834Y0123000D01*
X0017893Y0122926D01*
X0017955Y0122855D01*
X0018020Y0122786D01*
X0018088Y0122719D01*
X0018158Y0122656D01*
X0018231Y0122596D01*
X0018307Y0122538D01*
X0018384Y0122484D01*
X0018464Y0122433D01*
D18*
X0020000Y0127236D03*
X0020000Y0121724D03*
X0017244Y0124480D03*
X0022756Y0124874D03*
M02*
