G75*
%MOIN*%
%OFA0B0*%
%FSLAX25Y25*%
%IPPOS*%
%LPD*%
%AMOC8*
5,1,8,0,0,1.08239X$1,22.5*
%
%ADD10R,0.06706X0.05918*%
%ADD11R,0.03556X0.04343*%
%ADD12R,0.04343X0.03556*%
%ADD13R,0.04698X0.03517*%
%ADD14R,0.04737X0.07493*%
%ADD15R,0.02769X0.01981*%
%ADD16R,0.03162X0.02375*%
%ADD17C,0.03162*%
%ADD18C,0.01772*%
%ADD19R,0.01194X0.01194*%
%ADD20C,0.02781*%
%ADD21C,0.03581*%
%ADD22C,0.02780*%
%ADD23C,0.03580*%
D10*
X0061500Y0055510D03*
X0061500Y0062990D03*
D11*
X0059097Y0068472D03*
X0053979Y0068472D03*
D12*
X0048400Y0057491D03*
X0048400Y0062609D03*
X0123300Y0114441D03*
X0123300Y0119559D03*
D13*
X0044882Y0121260D03*
X0044882Y0125000D03*
X0044882Y0128740D03*
X0055118Y0128740D03*
X0055118Y0125000D03*
X0055118Y0121260D03*
X0069882Y0121260D03*
X0069882Y0125000D03*
X0069882Y0128740D03*
X0080118Y0128740D03*
X0080118Y0125000D03*
X0080118Y0121260D03*
X0094882Y0121260D03*
X0094882Y0125000D03*
X0094882Y0128740D03*
X0105118Y0128740D03*
X0105118Y0125000D03*
X0105118Y0121260D03*
D14*
X0050000Y0140000D03*
X0075000Y0140000D03*
X0100000Y0140000D03*
D15*
X0046260Y0137047D03*
X0046260Y0139016D03*
X0046260Y0140984D03*
X0046260Y0142953D03*
X0053740Y0142953D03*
X0053740Y0140984D03*
X0053740Y0139016D03*
X0053740Y0137047D03*
X0071260Y0137047D03*
X0071260Y0139016D03*
X0071260Y0140984D03*
X0071260Y0142953D03*
X0078740Y0142953D03*
X0078740Y0140984D03*
X0078740Y0139016D03*
X0078740Y0137047D03*
X0096260Y0137047D03*
X0096260Y0139016D03*
X0096260Y0140984D03*
X0096260Y0142953D03*
X0103740Y0142953D03*
X0103740Y0140984D03*
X0103740Y0139016D03*
X0103740Y0137047D03*
D16*
X0024232Y0119559D03*
X0024232Y0117000D03*
X0024232Y0114441D03*
X0015768Y0114441D03*
X0015768Y0117000D03*
X0015768Y0119559D03*
D17*
X0020000Y0124579D03*
X0130000Y0125579D03*
D18*
X0017343Y0124579D02*
X0017345Y0124682D01*
X0017351Y0124785D01*
X0017361Y0124887D01*
X0017375Y0124990D01*
X0017393Y0125091D01*
X0017415Y0125192D01*
X0017440Y0125292D01*
X0017470Y0125390D01*
X0017503Y0125488D01*
X0017540Y0125584D01*
X0017581Y0125678D01*
X0017626Y0125771D01*
X0017674Y0125863D01*
X0017725Y0125952D01*
X0017780Y0126039D01*
X0017838Y0126124D01*
X0017900Y0126207D01*
X0017965Y0126287D01*
X0018032Y0126365D01*
X0018103Y0126439D01*
X0018177Y0126512D01*
X0018253Y0126581D01*
X0018332Y0126647D01*
X0018413Y0126710D01*
X0018497Y0126770D01*
X0018583Y0126827D01*
X0018671Y0126880D01*
X0018762Y0126930D01*
X0018854Y0126976D01*
X0018948Y0127019D01*
X0019043Y0127058D01*
X0019140Y0127093D01*
X0019238Y0127124D01*
X0019337Y0127152D01*
X0019438Y0127176D01*
X0019539Y0127196D01*
X0019640Y0127212D01*
X0019743Y0127224D01*
X0019846Y0127232D01*
X0019948Y0127236D01*
X0020052Y0127236D01*
X0020154Y0127232D01*
X0020257Y0127224D01*
X0020360Y0127212D01*
X0020461Y0127196D01*
X0020562Y0127176D01*
X0020663Y0127152D01*
X0020762Y0127124D01*
X0020860Y0127093D01*
X0020957Y0127058D01*
X0021052Y0127019D01*
X0021146Y0126976D01*
X0021238Y0126930D01*
X0021328Y0126880D01*
X0021417Y0126827D01*
X0021503Y0126770D01*
X0021587Y0126710D01*
X0021668Y0126647D01*
X0021747Y0126581D01*
X0021823Y0126512D01*
X0021897Y0126439D01*
X0021968Y0126365D01*
X0022035Y0126287D01*
X0022100Y0126207D01*
X0022162Y0126124D01*
X0022220Y0126039D01*
X0022275Y0125952D01*
X0022326Y0125863D01*
X0022374Y0125771D01*
X0022419Y0125678D01*
X0022460Y0125584D01*
X0022497Y0125488D01*
X0022530Y0125390D01*
X0022560Y0125292D01*
X0022585Y0125192D01*
X0022607Y0125091D01*
X0022625Y0124990D01*
X0022639Y0124887D01*
X0022649Y0124785D01*
X0022655Y0124682D01*
X0022657Y0124579D01*
X0022655Y0124476D01*
X0022649Y0124373D01*
X0022639Y0124271D01*
X0022625Y0124168D01*
X0022607Y0124067D01*
X0022585Y0123966D01*
X0022560Y0123866D01*
X0022530Y0123768D01*
X0022497Y0123670D01*
X0022460Y0123574D01*
X0022419Y0123480D01*
X0022374Y0123387D01*
X0022326Y0123295D01*
X0022275Y0123206D01*
X0022220Y0123119D01*
X0022162Y0123034D01*
X0022100Y0122951D01*
X0022035Y0122871D01*
X0021968Y0122793D01*
X0021897Y0122719D01*
X0021823Y0122646D01*
X0021747Y0122577D01*
X0021668Y0122511D01*
X0021587Y0122448D01*
X0021503Y0122388D01*
X0021417Y0122331D01*
X0021329Y0122278D01*
X0021238Y0122228D01*
X0021146Y0122182D01*
X0021052Y0122139D01*
X0020957Y0122100D01*
X0020860Y0122065D01*
X0020762Y0122034D01*
X0020663Y0122006D01*
X0020562Y0121982D01*
X0020461Y0121962D01*
X0020360Y0121946D01*
X0020257Y0121934D01*
X0020154Y0121926D01*
X0020052Y0121922D01*
X0019948Y0121922D01*
X0019846Y0121926D01*
X0019743Y0121934D01*
X0019640Y0121946D01*
X0019539Y0121962D01*
X0019438Y0121982D01*
X0019337Y0122006D01*
X0019238Y0122034D01*
X0019140Y0122065D01*
X0019043Y0122100D01*
X0018948Y0122139D01*
X0018854Y0122182D01*
X0018762Y0122228D01*
X0018672Y0122278D01*
X0018583Y0122331D01*
X0018497Y0122388D01*
X0018413Y0122448D01*
X0018332Y0122511D01*
X0018253Y0122577D01*
X0018177Y0122646D01*
X0018103Y0122719D01*
X0018032Y0122793D01*
X0017965Y0122871D01*
X0017900Y0122951D01*
X0017838Y0123034D01*
X0017780Y0123119D01*
X0017725Y0123206D01*
X0017674Y0123295D01*
X0017626Y0123387D01*
X0017581Y0123480D01*
X0017540Y0123574D01*
X0017503Y0123670D01*
X0017470Y0123768D01*
X0017440Y0123866D01*
X0017415Y0123966D01*
X0017393Y0124067D01*
X0017375Y0124168D01*
X0017361Y0124271D01*
X0017351Y0124373D01*
X0017345Y0124476D01*
X0017343Y0124579D01*
D19*
X0020000Y0127236D03*
X0020000Y0121724D03*
X0017244Y0124480D03*
X0022756Y0124874D03*
D20*
X0052900Y0056050D03*
X0061800Y0036150D03*
X0061800Y0033050D03*
X0063000Y0076750D03*
X0068000Y0076750D03*
X0063000Y0071750D03*
X0068000Y0071750D03*
X0089400Y0091550D03*
X0101200Y0086450D03*
X0103100Y0078150D03*
X0081900Y0030650D03*
X0084500Y0057750D03*
X0079900Y0039350D03*
X0055800Y0033050D03*
X0093000Y0067250D03*
X0096000Y0064750D03*
X0098000Y0061750D03*
X0054300Y0085250D03*
X0076600Y0085250D03*
X0054000Y0062850D03*
X0051900Y0040450D03*
X0068900Y0043050D03*
X0084500Y0046050D03*
X0068700Y0057150D03*
X0067700Y0033950D03*
X0079900Y0060050D03*
X0079900Y0069750D03*
X0060100Y0043450D03*
X0046200Y0045150D03*
D21*
X0052900Y0056050D03*
X0061800Y0036150D03*
X0061800Y0033050D03*
X0063000Y0076750D03*
X0068000Y0076750D03*
X0063000Y0071750D03*
X0068000Y0071750D03*
X0089400Y0091550D03*
X0101200Y0086450D03*
X0103100Y0078150D03*
X0081900Y0030650D03*
X0084500Y0057750D03*
X0079900Y0039350D03*
X0055800Y0033050D03*
X0093000Y0067250D03*
X0096000Y0064750D03*
X0098000Y0061750D03*
X0054300Y0085250D03*
X0076600Y0085250D03*
X0054000Y0062850D03*
X0051900Y0040450D03*
X0068900Y0043050D03*
X0084500Y0046050D03*
X0068700Y0057150D03*
X0067700Y0033950D03*
X0079900Y0060050D03*
X0079900Y0069750D03*
X0060100Y0043450D03*
X0046200Y0045150D03*
D22*
X0052600Y0106550D03*
X0057250Y0140000D03*
X0082750Y0141000D03*
X0107750Y0140250D03*
X0074000Y0169500D03*
X0043800Y0134300D03*
X0101900Y0133200D03*
X0055600Y0021800D03*
X0079000Y0134000D03*
X0091000Y0076000D03*
X0095000Y0076000D03*
X0099000Y0074500D03*
X0107500Y0070000D03*
X0107000Y0066000D03*
X0107500Y0062000D03*
X0028500Y0131500D03*
X0123500Y0108000D03*
X0089000Y0141500D03*
X0064000Y0141500D03*
X0056000Y0108000D03*
X0123000Y0143000D03*
X0027000Y0141000D03*
X0080750Y0018000D03*
X0070250Y0021500D03*
X0037000Y0136600D03*
X0094000Y0135500D03*
X0071000Y0134500D03*
X0074600Y0147700D03*
X0065800Y0128700D03*
X0040700Y0114700D03*
X0089000Y0154500D03*
X0085000Y0152000D03*
X0078000Y0150500D03*
X0091100Y0138400D03*
X0038000Y0117900D03*
X0065700Y0132500D03*
X0088300Y0128800D03*
X0090000Y0103500D03*
X0079250Y0094000D03*
X0120500Y0097000D03*
D23*
X0052600Y0106550D03*
X0057250Y0140000D03*
X0082750Y0141000D03*
X0107750Y0140250D03*
X0074000Y0169500D03*
X0043800Y0134300D03*
X0101900Y0133200D03*
X0055600Y0021800D03*
X0079000Y0134000D03*
X0091000Y0076000D03*
X0095000Y0076000D03*
X0099000Y0074500D03*
X0107500Y0070000D03*
X0107000Y0066000D03*
X0107500Y0062000D03*
X0028500Y0131500D03*
X0123500Y0108000D03*
X0089000Y0141500D03*
X0064000Y0141500D03*
X0056000Y0108000D03*
X0123000Y0143000D03*
X0027000Y0141000D03*
X0080750Y0018000D03*
X0070250Y0021500D03*
X0037000Y0136600D03*
X0094000Y0135500D03*
X0071000Y0134500D03*
X0074600Y0147700D03*
X0065800Y0128700D03*
X0040700Y0114700D03*
X0089000Y0154500D03*
X0085000Y0152000D03*
X0078000Y0150500D03*
X0091100Y0138400D03*
X0038000Y0117900D03*
X0065700Y0132500D03*
X0088300Y0128800D03*
X0090000Y0103500D03*
X0079250Y0094000D03*
X0120500Y0097000D03*
M02*
