G75*
%MOIN*%
%OFA0B0*%
%FSLAX25Y25*%
%IPPOS*%
%LPD*%
%AMOC8*
5,1,8,0,0,1.08239X$1,22.5*
%
%ADD10C,0.00300*%
%ADD11C,0.00500*%
%ADD12C,0.00600*%
%ADD13C,0.00200*%
%ADD14C,0.00400*%
%ADD15C,0.00800*%
%ADD16C,0.01414*%
%ADD17C,0.00197*%
D10*
X0101184Y0010800D02*
X0102419Y0010800D01*
X0103036Y0011417D01*
X0103036Y0012652D01*
X0102419Y0013269D01*
X0101184Y0013269D01*
X0100567Y0012652D01*
X0100567Y0012034D01*
X0103036Y0012034D01*
X0099353Y0014503D02*
X0098735Y0014503D01*
X0098735Y0010800D01*
X0098118Y0010800D02*
X0099353Y0010800D01*
X0095046Y0010800D02*
X0096280Y0010800D01*
X0096897Y0011417D01*
X0096897Y0012652D01*
X0096280Y0013269D01*
X0095046Y0013269D01*
X0094428Y0012652D01*
X0094428Y0012034D01*
X0096897Y0012034D01*
X0090745Y0013269D02*
X0092597Y0013269D01*
X0093214Y0012652D01*
X0093214Y0011417D01*
X0092597Y0010800D01*
X0090745Y0010800D01*
X0089531Y0012652D02*
X0087062Y0012652D01*
X0085848Y0013269D02*
X0085848Y0010800D01*
X0085848Y0012034D02*
X0084613Y0013269D01*
X0083996Y0013269D01*
X0080927Y0010800D02*
X0082161Y0010800D01*
X0082779Y0011417D01*
X0082779Y0012652D01*
X0082161Y0013269D01*
X0080927Y0013269D01*
X0080310Y0012652D01*
X0080310Y0012034D01*
X0082779Y0012034D01*
X0078478Y0013269D02*
X0077244Y0013269D01*
X0076627Y0012652D01*
X0076627Y0010800D01*
X0078478Y0010800D01*
X0079095Y0011417D01*
X0078478Y0012034D01*
X0076627Y0012034D01*
X0075412Y0014503D02*
X0074795Y0014503D01*
X0074795Y0010800D01*
X0075412Y0010800D02*
X0074178Y0010800D01*
X0072957Y0010800D02*
X0072957Y0011417D01*
X0072340Y0011417D01*
X0072340Y0010800D01*
X0072957Y0010800D01*
X0068646Y0013269D02*
X0070498Y0013269D01*
X0071115Y0012652D01*
X0071115Y0011417D01*
X0070498Y0010800D01*
X0068646Y0010800D01*
X0066815Y0010800D02*
X0065580Y0010800D01*
X0064963Y0011417D01*
X0064963Y0012652D01*
X0065580Y0013269D01*
X0066815Y0013269D01*
X0067432Y0012652D01*
X0067432Y0011417D01*
X0066815Y0010800D01*
X0063749Y0010800D02*
X0063749Y0013269D01*
X0063132Y0013269D01*
X0062515Y0012652D01*
X0062515Y0010800D01*
X0062515Y0012652D02*
X0061897Y0013269D01*
X0061280Y0012652D01*
X0061280Y0010800D01*
X0054531Y0010800D02*
X0054531Y0014503D01*
X0056383Y0012652D01*
X0053914Y0012652D01*
X0052699Y0010800D02*
X0050231Y0014503D01*
X0049016Y0013269D02*
X0047782Y0014503D01*
X0047782Y0010800D01*
X0049016Y0010800D02*
X0046548Y0010800D01*
X0045333Y0013886D02*
X0044716Y0014503D01*
X0043482Y0014503D01*
X0042864Y0013886D01*
X0042864Y0013269D01*
X0043482Y0012652D01*
X0042864Y0012034D01*
X0042864Y0011417D01*
X0043482Y0010800D01*
X0044716Y0010800D01*
X0045333Y0011417D01*
X0045333Y0012034D01*
X0044716Y0012652D01*
X0045333Y0013269D01*
X0045333Y0013886D01*
X0044716Y0012652D02*
X0043482Y0012652D01*
X0100567Y0008503D02*
X0103036Y0008503D01*
X0103036Y0004800D01*
X0100567Y0004800D01*
X0101801Y0006652D02*
X0103036Y0006652D01*
X0099353Y0004800D02*
X0099353Y0008503D01*
X0097501Y0008503D01*
X0096884Y0007886D01*
X0096884Y0006652D01*
X0097501Y0006034D01*
X0099353Y0006034D01*
X0098118Y0006034D02*
X0096884Y0004800D01*
X0095670Y0005417D02*
X0095052Y0004800D01*
X0093818Y0004800D01*
X0093201Y0005417D01*
X0093201Y0007886D01*
X0093818Y0008503D01*
X0095052Y0008503D01*
X0095670Y0007886D01*
X0095670Y0007269D01*
X0095052Y0006652D01*
X0093201Y0006652D01*
X0091986Y0004800D02*
X0091986Y0007269D01*
X0091369Y0007269D01*
X0090752Y0006652D01*
X0090752Y0004800D01*
X0090752Y0006652D02*
X0090135Y0007269D01*
X0089518Y0006652D01*
X0089518Y0004800D01*
X0088303Y0007269D02*
X0087686Y0007269D01*
X0087686Y0004800D01*
X0088303Y0004800D02*
X0087069Y0004800D01*
X0087686Y0008503D02*
X0087686Y0009120D01*
X0085848Y0004800D02*
X0085848Y0007269D01*
X0083996Y0007269D01*
X0083379Y0006652D01*
X0083379Y0004800D01*
X0082165Y0007269D02*
X0081547Y0007269D01*
X0081547Y0004800D01*
X0080930Y0004800D02*
X0082165Y0004800D01*
X0081547Y0008503D02*
X0081547Y0009120D01*
X0076026Y0008503D02*
X0076026Y0006034D01*
X0074792Y0004800D01*
X0073557Y0006034D01*
X0073557Y0008503D01*
X0072343Y0007269D02*
X0071109Y0008503D01*
X0071109Y0004800D01*
X0072343Y0004800D02*
X0069874Y0004800D01*
X0068660Y0004800D02*
X0068660Y0005417D01*
X0068043Y0005417D01*
X0068043Y0004800D01*
X0068660Y0004800D01*
X0066818Y0005417D02*
X0066818Y0007886D01*
X0066201Y0008503D01*
X0064967Y0008503D01*
X0064349Y0007886D01*
X0064349Y0005417D01*
X0064967Y0004800D01*
X0066201Y0004800D01*
X0066818Y0005417D01*
X0064349Y0007886D01*
D11*
X0075000Y0050750D02*
X0102000Y0050750D01*
X0100000Y0052750D01*
X0102000Y0050750D02*
X0100000Y0048750D01*
X0075000Y0050750D02*
X0075000Y0073750D01*
X0073000Y0071750D01*
X0075000Y0073750D02*
X0077000Y0071750D01*
X0072172Y0050750D02*
X0072174Y0050856D01*
X0072180Y0050961D01*
X0072190Y0051067D01*
X0072204Y0051171D01*
X0072221Y0051276D01*
X0072243Y0051379D01*
X0072268Y0051482D01*
X0072298Y0051584D01*
X0072331Y0051684D01*
X0072367Y0051783D01*
X0072408Y0051881D01*
X0072452Y0051977D01*
X0072500Y0052071D01*
X0072551Y0052164D01*
X0072605Y0052255D01*
X0072663Y0052343D01*
X0072725Y0052429D01*
X0072789Y0052513D01*
X0072856Y0052595D01*
X0072927Y0052674D01*
X0073000Y0052750D01*
X0073076Y0052823D01*
X0073155Y0052894D01*
X0073237Y0052961D01*
X0073321Y0053025D01*
X0073407Y0053087D01*
X0073495Y0053145D01*
X0073586Y0053199D01*
X0073679Y0053250D01*
X0073773Y0053298D01*
X0073869Y0053342D01*
X0073967Y0053383D01*
X0074066Y0053419D01*
X0074166Y0053452D01*
X0074268Y0053482D01*
X0074371Y0053507D01*
X0074474Y0053529D01*
X0074579Y0053546D01*
X0074683Y0053560D01*
X0074789Y0053570D01*
X0074894Y0053576D01*
X0075000Y0053578D01*
X0075106Y0053576D01*
X0075211Y0053570D01*
X0075317Y0053560D01*
X0075421Y0053546D01*
X0075526Y0053529D01*
X0075629Y0053507D01*
X0075732Y0053482D01*
X0075834Y0053452D01*
X0075934Y0053419D01*
X0076033Y0053383D01*
X0076131Y0053342D01*
X0076227Y0053298D01*
X0076321Y0053250D01*
X0076414Y0053199D01*
X0076505Y0053145D01*
X0076593Y0053087D01*
X0076679Y0053025D01*
X0076763Y0052961D01*
X0076845Y0052894D01*
X0076924Y0052823D01*
X0077000Y0052750D01*
X0077073Y0052674D01*
X0077144Y0052595D01*
X0077211Y0052513D01*
X0077275Y0052429D01*
X0077337Y0052343D01*
X0077395Y0052255D01*
X0077449Y0052164D01*
X0077500Y0052071D01*
X0077548Y0051977D01*
X0077592Y0051881D01*
X0077633Y0051783D01*
X0077669Y0051684D01*
X0077702Y0051584D01*
X0077732Y0051482D01*
X0077757Y0051379D01*
X0077779Y0051276D01*
X0077796Y0051171D01*
X0077810Y0051067D01*
X0077820Y0050961D01*
X0077826Y0050856D01*
X0077828Y0050750D01*
X0077826Y0050644D01*
X0077820Y0050539D01*
X0077810Y0050433D01*
X0077796Y0050329D01*
X0077779Y0050224D01*
X0077757Y0050121D01*
X0077732Y0050018D01*
X0077702Y0049916D01*
X0077669Y0049816D01*
X0077633Y0049717D01*
X0077592Y0049619D01*
X0077548Y0049523D01*
X0077500Y0049429D01*
X0077449Y0049336D01*
X0077395Y0049245D01*
X0077337Y0049157D01*
X0077275Y0049071D01*
X0077211Y0048987D01*
X0077144Y0048905D01*
X0077073Y0048826D01*
X0077000Y0048750D01*
X0076924Y0048677D01*
X0076845Y0048606D01*
X0076763Y0048539D01*
X0076679Y0048475D01*
X0076593Y0048413D01*
X0076505Y0048355D01*
X0076414Y0048301D01*
X0076321Y0048250D01*
X0076227Y0048202D01*
X0076131Y0048158D01*
X0076033Y0048117D01*
X0075934Y0048081D01*
X0075834Y0048048D01*
X0075732Y0048018D01*
X0075629Y0047993D01*
X0075526Y0047971D01*
X0075421Y0047954D01*
X0075317Y0047940D01*
X0075211Y0047930D01*
X0075106Y0047924D01*
X0075000Y0047922D01*
X0074894Y0047924D01*
X0074789Y0047930D01*
X0074683Y0047940D01*
X0074579Y0047954D01*
X0074474Y0047971D01*
X0074371Y0047993D01*
X0074268Y0048018D01*
X0074166Y0048048D01*
X0074066Y0048081D01*
X0073967Y0048117D01*
X0073869Y0048158D01*
X0073773Y0048202D01*
X0073679Y0048250D01*
X0073586Y0048301D01*
X0073495Y0048355D01*
X0073407Y0048413D01*
X0073321Y0048475D01*
X0073237Y0048539D01*
X0073155Y0048606D01*
X0073076Y0048677D01*
X0073000Y0048750D01*
X0072927Y0048826D01*
X0072856Y0048905D01*
X0072789Y0048987D01*
X0072725Y0049071D01*
X0072663Y0049157D01*
X0072605Y0049245D01*
X0072551Y0049336D01*
X0072500Y0049429D01*
X0072452Y0049523D01*
X0072408Y0049619D01*
X0072367Y0049717D01*
X0072331Y0049816D01*
X0072298Y0049916D01*
X0072268Y0050018D01*
X0072243Y0050121D01*
X0072221Y0050224D01*
X0072204Y0050329D01*
X0072190Y0050433D01*
X0072180Y0050539D01*
X0072174Y0050644D01*
X0072172Y0050750D01*
X0044488Y0135669D02*
X0055512Y0135669D01*
X0055512Y0144331D01*
X0044488Y0144331D01*
X0044488Y0135669D01*
X0042750Y0136850D02*
X0042752Y0136897D01*
X0042758Y0136943D01*
X0042767Y0136989D01*
X0042781Y0137033D01*
X0042798Y0137077D01*
X0042819Y0137118D01*
X0042843Y0137158D01*
X0042870Y0137196D01*
X0042901Y0137231D01*
X0042934Y0137264D01*
X0042970Y0137294D01*
X0043009Y0137320D01*
X0043049Y0137344D01*
X0043091Y0137363D01*
X0043135Y0137380D01*
X0043180Y0137392D01*
X0043226Y0137401D01*
X0043272Y0137406D01*
X0043319Y0137407D01*
X0043365Y0137404D01*
X0043411Y0137397D01*
X0043457Y0137386D01*
X0043501Y0137372D01*
X0043544Y0137354D01*
X0043585Y0137332D01*
X0043625Y0137307D01*
X0043662Y0137279D01*
X0043697Y0137248D01*
X0043729Y0137214D01*
X0043758Y0137177D01*
X0043783Y0137139D01*
X0043806Y0137098D01*
X0043825Y0137055D01*
X0043840Y0137011D01*
X0043852Y0136966D01*
X0043860Y0136920D01*
X0043864Y0136873D01*
X0043864Y0136827D01*
X0043860Y0136780D01*
X0043852Y0136734D01*
X0043840Y0136689D01*
X0043825Y0136645D01*
X0043806Y0136602D01*
X0043783Y0136561D01*
X0043758Y0136523D01*
X0043729Y0136486D01*
X0043697Y0136452D01*
X0043662Y0136421D01*
X0043625Y0136393D01*
X0043586Y0136368D01*
X0043544Y0136346D01*
X0043501Y0136328D01*
X0043457Y0136314D01*
X0043411Y0136303D01*
X0043365Y0136296D01*
X0043319Y0136293D01*
X0043272Y0136294D01*
X0043226Y0136299D01*
X0043180Y0136308D01*
X0043135Y0136320D01*
X0043091Y0136337D01*
X0043049Y0136356D01*
X0043009Y0136380D01*
X0042970Y0136406D01*
X0042934Y0136436D01*
X0042901Y0136469D01*
X0042870Y0136504D01*
X0042843Y0136542D01*
X0042819Y0136582D01*
X0042798Y0136623D01*
X0042781Y0136667D01*
X0042767Y0136711D01*
X0042758Y0136757D01*
X0042752Y0136803D01*
X0042750Y0136850D01*
X0069488Y0135669D02*
X0080512Y0135669D01*
X0080512Y0144331D01*
X0069488Y0144331D01*
X0069488Y0135669D01*
X0067750Y0136850D02*
X0067752Y0136897D01*
X0067758Y0136943D01*
X0067767Y0136989D01*
X0067781Y0137033D01*
X0067798Y0137077D01*
X0067819Y0137118D01*
X0067843Y0137158D01*
X0067870Y0137196D01*
X0067901Y0137231D01*
X0067934Y0137264D01*
X0067970Y0137294D01*
X0068009Y0137320D01*
X0068049Y0137344D01*
X0068091Y0137363D01*
X0068135Y0137380D01*
X0068180Y0137392D01*
X0068226Y0137401D01*
X0068272Y0137406D01*
X0068319Y0137407D01*
X0068365Y0137404D01*
X0068411Y0137397D01*
X0068457Y0137386D01*
X0068501Y0137372D01*
X0068544Y0137354D01*
X0068585Y0137332D01*
X0068625Y0137307D01*
X0068662Y0137279D01*
X0068697Y0137248D01*
X0068729Y0137214D01*
X0068758Y0137177D01*
X0068783Y0137139D01*
X0068806Y0137098D01*
X0068825Y0137055D01*
X0068840Y0137011D01*
X0068852Y0136966D01*
X0068860Y0136920D01*
X0068864Y0136873D01*
X0068864Y0136827D01*
X0068860Y0136780D01*
X0068852Y0136734D01*
X0068840Y0136689D01*
X0068825Y0136645D01*
X0068806Y0136602D01*
X0068783Y0136561D01*
X0068758Y0136523D01*
X0068729Y0136486D01*
X0068697Y0136452D01*
X0068662Y0136421D01*
X0068625Y0136393D01*
X0068586Y0136368D01*
X0068544Y0136346D01*
X0068501Y0136328D01*
X0068457Y0136314D01*
X0068411Y0136303D01*
X0068365Y0136296D01*
X0068319Y0136293D01*
X0068272Y0136294D01*
X0068226Y0136299D01*
X0068180Y0136308D01*
X0068135Y0136320D01*
X0068091Y0136337D01*
X0068049Y0136356D01*
X0068009Y0136380D01*
X0067970Y0136406D01*
X0067934Y0136436D01*
X0067901Y0136469D01*
X0067870Y0136504D01*
X0067843Y0136542D01*
X0067819Y0136582D01*
X0067798Y0136623D01*
X0067781Y0136667D01*
X0067767Y0136711D01*
X0067758Y0136757D01*
X0067752Y0136803D01*
X0067750Y0136850D01*
X0094488Y0135669D02*
X0105512Y0135669D01*
X0105512Y0144331D01*
X0094488Y0144331D01*
X0094488Y0135669D01*
X0092750Y0136850D02*
X0092752Y0136897D01*
X0092758Y0136943D01*
X0092767Y0136989D01*
X0092781Y0137033D01*
X0092798Y0137077D01*
X0092819Y0137118D01*
X0092843Y0137158D01*
X0092870Y0137196D01*
X0092901Y0137231D01*
X0092934Y0137264D01*
X0092970Y0137294D01*
X0093009Y0137320D01*
X0093049Y0137344D01*
X0093091Y0137363D01*
X0093135Y0137380D01*
X0093180Y0137392D01*
X0093226Y0137401D01*
X0093272Y0137406D01*
X0093319Y0137407D01*
X0093365Y0137404D01*
X0093411Y0137397D01*
X0093457Y0137386D01*
X0093501Y0137372D01*
X0093544Y0137354D01*
X0093585Y0137332D01*
X0093625Y0137307D01*
X0093662Y0137279D01*
X0093697Y0137248D01*
X0093729Y0137214D01*
X0093758Y0137177D01*
X0093783Y0137139D01*
X0093806Y0137098D01*
X0093825Y0137055D01*
X0093840Y0137011D01*
X0093852Y0136966D01*
X0093860Y0136920D01*
X0093864Y0136873D01*
X0093864Y0136827D01*
X0093860Y0136780D01*
X0093852Y0136734D01*
X0093840Y0136689D01*
X0093825Y0136645D01*
X0093806Y0136602D01*
X0093783Y0136561D01*
X0093758Y0136523D01*
X0093729Y0136486D01*
X0093697Y0136452D01*
X0093662Y0136421D01*
X0093625Y0136393D01*
X0093586Y0136368D01*
X0093544Y0136346D01*
X0093501Y0136328D01*
X0093457Y0136314D01*
X0093411Y0136303D01*
X0093365Y0136296D01*
X0093319Y0136293D01*
X0093272Y0136294D01*
X0093226Y0136299D01*
X0093180Y0136308D01*
X0093135Y0136320D01*
X0093091Y0136337D01*
X0093049Y0136356D01*
X0093009Y0136380D01*
X0092970Y0136406D01*
X0092934Y0136436D01*
X0092901Y0136469D01*
X0092870Y0136504D01*
X0092843Y0136542D01*
X0092819Y0136582D01*
X0092798Y0136623D01*
X0092781Y0136667D01*
X0092767Y0136711D01*
X0092758Y0136757D01*
X0092752Y0136803D01*
X0092750Y0136850D01*
D12*
X0109700Y0053455D02*
X0105430Y0047050D01*
X0109700Y0047050D02*
X0105430Y0053455D01*
X0077700Y0082455D02*
X0077700Y0081388D01*
X0075565Y0079253D01*
X0073430Y0081388D01*
X0073430Y0082455D01*
X0075565Y0079253D02*
X0075565Y0076050D01*
X0069700Y0051253D02*
X0065430Y0051253D01*
X0063255Y0054455D02*
X0058984Y0054455D01*
X0058984Y0053388D01*
X0063255Y0049118D01*
X0063255Y0048050D01*
X0058984Y0048050D01*
D13*
X0067352Y0059785D02*
X0067719Y0060152D01*
X0068453Y0060152D01*
X0068820Y0059785D01*
X0068820Y0058317D01*
X0068453Y0057950D01*
X0067719Y0057950D01*
X0067352Y0058317D01*
X0066610Y0058317D02*
X0066243Y0057950D01*
X0065509Y0057950D01*
X0065142Y0058317D01*
X0065142Y0059785D01*
X0065509Y0060152D01*
X0066243Y0060152D01*
X0066610Y0059785D01*
X0066610Y0059418D01*
X0066243Y0059051D01*
X0065142Y0059051D01*
D14*
X0051609Y0069344D02*
X0052376Y0068576D01*
X0052376Y0067042D01*
X0051609Y0066274D01*
X0048539Y0066274D01*
X0047772Y0067042D01*
X0047772Y0068576D01*
X0048539Y0069344D01*
X0052376Y0073948D02*
X0052376Y0070878D01*
X0050074Y0070878D01*
X0050841Y0072413D01*
X0050841Y0073180D01*
X0050074Y0073948D01*
X0048539Y0073948D01*
X0047772Y0073180D01*
X0047772Y0071646D01*
X0048539Y0070878D01*
X0053237Y0051811D02*
X0054004Y0051044D01*
X0054004Y0049509D01*
X0053237Y0048742D01*
X0050167Y0048742D01*
X0049400Y0049509D01*
X0049400Y0051044D01*
X0050167Y0051811D01*
X0053237Y0053346D02*
X0054004Y0054113D01*
X0054004Y0055648D01*
X0053237Y0056415D01*
X0052469Y0056415D01*
X0051702Y0055648D01*
X0050935Y0056415D01*
X0050167Y0056415D01*
X0049400Y0055648D01*
X0049400Y0054113D01*
X0050167Y0053346D01*
X0050935Y0053346D01*
X0051702Y0054113D01*
X0052469Y0053346D01*
X0053237Y0053346D01*
X0051702Y0054113D02*
X0051702Y0055648D01*
X0057700Y0117700D02*
X0062304Y0117700D01*
X0060769Y0119235D01*
X0062304Y0120769D01*
X0057700Y0120769D01*
X0062304Y0122304D02*
X0057700Y0122304D01*
X0057700Y0124606D01*
X0058467Y0125373D01*
X0061537Y0125373D01*
X0062304Y0124606D01*
X0062304Y0122304D01*
X0060769Y0126908D02*
X0062304Y0128442D01*
X0057700Y0128442D01*
X0057700Y0126908D02*
X0057700Y0129977D01*
X0057700Y0134581D02*
X0057700Y0131512D01*
X0060769Y0134581D01*
X0061537Y0134581D01*
X0062304Y0133814D01*
X0062304Y0132279D01*
X0061537Y0131512D01*
X0082700Y0117700D02*
X0087304Y0117700D01*
X0085769Y0119235D01*
X0087304Y0120769D01*
X0082700Y0120769D01*
X0087304Y0122304D02*
X0082700Y0122304D01*
X0082700Y0124606D01*
X0083467Y0125373D01*
X0086537Y0125373D01*
X0087304Y0124606D01*
X0087304Y0122304D01*
X0082700Y0129977D02*
X0082700Y0126908D01*
X0085769Y0129977D01*
X0086537Y0129977D01*
X0087304Y0129210D01*
X0087304Y0127675D01*
X0086537Y0126908D01*
X0082700Y0134581D02*
X0082700Y0131512D01*
X0085769Y0134581D01*
X0086537Y0134581D01*
X0087304Y0133814D01*
X0087304Y0132279D01*
X0086537Y0131512D01*
X0107700Y0117700D02*
X0112304Y0117700D01*
X0110769Y0119235D01*
X0112304Y0120769D01*
X0107700Y0120769D01*
X0112304Y0122304D02*
X0107700Y0122304D01*
X0107700Y0124606D01*
X0108467Y0125373D01*
X0111537Y0125373D01*
X0112304Y0124606D01*
X0112304Y0122304D01*
X0111537Y0126908D02*
X0112304Y0127675D01*
X0112304Y0129210D01*
X0111537Y0129977D01*
X0110769Y0129977D01*
X0110002Y0129210D01*
X0110002Y0128442D01*
X0110002Y0129210D02*
X0109235Y0129977D01*
X0108467Y0129977D01*
X0107700Y0129210D01*
X0107700Y0127675D01*
X0108467Y0126908D01*
X0107700Y0134581D02*
X0107700Y0131512D01*
X0110769Y0134581D01*
X0111537Y0134581D01*
X0112304Y0133814D01*
X0112304Y0132279D01*
X0111537Y0131512D01*
X0126000Y0114700D02*
X0130604Y0114700D01*
X0130604Y0117002D01*
X0129837Y0117769D01*
X0128302Y0117769D01*
X0127535Y0117002D01*
X0127535Y0114700D01*
X0127535Y0116235D02*
X0126000Y0117769D01*
X0129069Y0119304D02*
X0130604Y0120839D01*
X0126000Y0120839D01*
X0126000Y0122373D02*
X0126000Y0119304D01*
D15*
X0052953Y0130512D02*
X0047047Y0130512D01*
X0047047Y0119488D02*
X0052953Y0119488D01*
X0072047Y0130512D02*
X0077953Y0130512D01*
X0077953Y0119488D02*
X0072047Y0119488D01*
X0097047Y0130512D02*
X0102953Y0130512D01*
X0102953Y0119488D02*
X0097047Y0119488D01*
D16*
X0048500Y0121000D03*
X0073500Y0121000D03*
X0098500Y0121000D03*
D17*
X0026299Y0128811D02*
X0013701Y0128811D01*
X0013701Y0113063D01*
X0026299Y0113063D01*
X0026299Y0128811D01*
M02*
