G75*
%MOIN*%
%OFA0B0*%
%FSLAX25Y25*%
%IPPOS*%
%LPD*%
%AMOC8*
5,1,8,0,0,1.08239X$1,22.5*
%
%ADD10R,0.05906X0.05118*%
%ADD11R,0.02756X0.03543*%
%ADD12R,0.03543X0.02756*%
%ADD13R,0.03898X0.02717*%
%ADD14R,0.03937X0.06693*%
%ADD15R,0.01969X0.01181*%
%ADD16R,0.02362X0.01575*%
%ADD17C,0.01181*%
%ADD18R,0.00394X0.00394*%
%ADD19C,0.02781*%
%ADD20C,0.00500*%
%ADD21C,0.02780*%
%ADD22C,0.01000*%
%ADD23C,0.01200*%
D10*
X0061500Y0055510D03*
X0061500Y0062990D03*
D11*
X0059097Y0068472D03*
X0053979Y0068472D03*
D12*
X0048400Y0057491D03*
X0048400Y0062609D03*
X0123300Y0114441D03*
X0123300Y0119559D03*
D13*
X0044882Y0121260D03*
X0044882Y0125000D03*
X0044882Y0128740D03*
X0055118Y0128740D03*
X0055118Y0125000D03*
X0055118Y0121260D03*
X0069882Y0121260D03*
X0069882Y0125000D03*
X0069882Y0128740D03*
X0080118Y0128740D03*
X0080118Y0125000D03*
X0080118Y0121260D03*
X0094882Y0121260D03*
X0094882Y0125000D03*
X0094882Y0128740D03*
X0105118Y0128740D03*
X0105118Y0125000D03*
X0105118Y0121260D03*
D14*
X0050000Y0140000D03*
X0075000Y0140000D03*
X0100000Y0140000D03*
D15*
X0046260Y0137047D03*
X0046260Y0139016D03*
X0046260Y0140984D03*
X0046260Y0142953D03*
X0053740Y0142953D03*
X0053740Y0140984D03*
X0053740Y0139016D03*
X0053740Y0137047D03*
X0071260Y0137047D03*
X0071260Y0139016D03*
X0071260Y0140984D03*
X0071260Y0142953D03*
X0078740Y0142953D03*
X0078740Y0140984D03*
X0078740Y0139016D03*
X0078740Y0137047D03*
X0096260Y0137047D03*
X0096260Y0139016D03*
X0096260Y0140984D03*
X0096260Y0142953D03*
X0103740Y0142953D03*
X0103740Y0140984D03*
X0103740Y0139016D03*
X0103740Y0137047D03*
D16*
X0024232Y0119559D03*
X0024232Y0117000D03*
X0024232Y0114441D03*
X0015768Y0114441D03*
X0015768Y0117000D03*
X0015768Y0119559D03*
D17*
X0017343Y0124579D02*
X0017345Y0124682D01*
X0017351Y0124785D01*
X0017361Y0124887D01*
X0017375Y0124990D01*
X0017393Y0125091D01*
X0017415Y0125192D01*
X0017440Y0125292D01*
X0017470Y0125390D01*
X0017503Y0125488D01*
X0017540Y0125584D01*
X0017581Y0125678D01*
X0017626Y0125771D01*
X0017674Y0125863D01*
X0017725Y0125952D01*
X0017780Y0126039D01*
X0017838Y0126124D01*
X0017900Y0126207D01*
X0017965Y0126287D01*
X0018032Y0126365D01*
X0018103Y0126439D01*
X0018177Y0126512D01*
X0018253Y0126581D01*
X0018332Y0126647D01*
X0018413Y0126710D01*
X0018497Y0126770D01*
X0018583Y0126827D01*
X0018671Y0126880D01*
X0018762Y0126930D01*
X0018854Y0126976D01*
X0018948Y0127019D01*
X0019043Y0127058D01*
X0019140Y0127093D01*
X0019238Y0127124D01*
X0019337Y0127152D01*
X0019438Y0127176D01*
X0019539Y0127196D01*
X0019640Y0127212D01*
X0019743Y0127224D01*
X0019846Y0127232D01*
X0019948Y0127236D01*
X0020052Y0127236D01*
X0020154Y0127232D01*
X0020257Y0127224D01*
X0020360Y0127212D01*
X0020461Y0127196D01*
X0020562Y0127176D01*
X0020663Y0127152D01*
X0020762Y0127124D01*
X0020860Y0127093D01*
X0020957Y0127058D01*
X0021052Y0127019D01*
X0021146Y0126976D01*
X0021238Y0126930D01*
X0021328Y0126880D01*
X0021417Y0126827D01*
X0021503Y0126770D01*
X0021587Y0126710D01*
X0021668Y0126647D01*
X0021747Y0126581D01*
X0021823Y0126512D01*
X0021897Y0126439D01*
X0021968Y0126365D01*
X0022035Y0126287D01*
X0022100Y0126207D01*
X0022162Y0126124D01*
X0022220Y0126039D01*
X0022275Y0125952D01*
X0022326Y0125863D01*
X0022374Y0125771D01*
X0022419Y0125678D01*
X0022460Y0125584D01*
X0022497Y0125488D01*
X0022530Y0125390D01*
X0022560Y0125292D01*
X0022585Y0125192D01*
X0022607Y0125091D01*
X0022625Y0124990D01*
X0022639Y0124887D01*
X0022649Y0124785D01*
X0022655Y0124682D01*
X0022657Y0124579D01*
X0022655Y0124476D01*
X0022649Y0124373D01*
X0022639Y0124271D01*
X0022625Y0124168D01*
X0022607Y0124067D01*
X0022585Y0123966D01*
X0022560Y0123866D01*
X0022530Y0123768D01*
X0022497Y0123670D01*
X0022460Y0123574D01*
X0022419Y0123480D01*
X0022374Y0123387D01*
X0022326Y0123295D01*
X0022275Y0123206D01*
X0022220Y0123119D01*
X0022162Y0123034D01*
X0022100Y0122951D01*
X0022035Y0122871D01*
X0021968Y0122793D01*
X0021897Y0122719D01*
X0021823Y0122646D01*
X0021747Y0122577D01*
X0021668Y0122511D01*
X0021587Y0122448D01*
X0021503Y0122388D01*
X0021417Y0122331D01*
X0021329Y0122278D01*
X0021238Y0122228D01*
X0021146Y0122182D01*
X0021052Y0122139D01*
X0020957Y0122100D01*
X0020860Y0122065D01*
X0020762Y0122034D01*
X0020663Y0122006D01*
X0020562Y0121982D01*
X0020461Y0121962D01*
X0020360Y0121946D01*
X0020257Y0121934D01*
X0020154Y0121926D01*
X0020052Y0121922D01*
X0019948Y0121922D01*
X0019846Y0121926D01*
X0019743Y0121934D01*
X0019640Y0121946D01*
X0019539Y0121962D01*
X0019438Y0121982D01*
X0019337Y0122006D01*
X0019238Y0122034D01*
X0019140Y0122065D01*
X0019043Y0122100D01*
X0018948Y0122139D01*
X0018854Y0122182D01*
X0018762Y0122228D01*
X0018672Y0122278D01*
X0018583Y0122331D01*
X0018497Y0122388D01*
X0018413Y0122448D01*
X0018332Y0122511D01*
X0018253Y0122577D01*
X0018177Y0122646D01*
X0018103Y0122719D01*
X0018032Y0122793D01*
X0017965Y0122871D01*
X0017900Y0122951D01*
X0017838Y0123034D01*
X0017780Y0123119D01*
X0017725Y0123206D01*
X0017674Y0123295D01*
X0017626Y0123387D01*
X0017581Y0123480D01*
X0017540Y0123574D01*
X0017503Y0123670D01*
X0017470Y0123768D01*
X0017440Y0123866D01*
X0017415Y0123966D01*
X0017393Y0124067D01*
X0017375Y0124168D01*
X0017361Y0124271D01*
X0017351Y0124373D01*
X0017345Y0124476D01*
X0017343Y0124579D01*
D18*
X0020000Y0127236D03*
X0020000Y0121724D03*
X0017244Y0124480D03*
X0022756Y0124874D03*
D19*
X0052900Y0056050D03*
X0061800Y0036150D03*
X0061800Y0033050D03*
X0063000Y0076750D03*
X0068000Y0076750D03*
X0063000Y0071750D03*
X0068000Y0071750D03*
X0089400Y0091550D03*
X0101200Y0086450D03*
X0103100Y0078150D03*
X0081900Y0030650D03*
X0084500Y0057750D03*
X0079900Y0039350D03*
X0055800Y0033050D03*
X0093000Y0067250D03*
X0096000Y0064750D03*
X0098000Y0061750D03*
X0054300Y0085250D03*
X0076600Y0085250D03*
X0054000Y0062850D03*
X0051900Y0040450D03*
X0068900Y0043050D03*
X0084500Y0046050D03*
X0068700Y0057150D03*
X0067700Y0033950D03*
X0079900Y0060050D03*
X0079900Y0069750D03*
X0060100Y0043450D03*
X0046200Y0045150D03*
D20*
X0125000Y0115750D02*
X0125000Y0058750D01*
X0091000Y0058750D01*
X0091000Y0004750D01*
X0025000Y0004750D01*
X0025000Y0112804D01*
X0025765Y0112804D01*
X0026263Y0113301D01*
X0026263Y0113341D01*
X0026400Y0113341D01*
X0026400Y0108544D01*
X0027044Y0107900D01*
X0047456Y0107900D01*
X0048100Y0108544D01*
X0048100Y0110900D01*
X0075400Y0110900D01*
X0075400Y0091044D01*
X0076044Y0090400D01*
X0086456Y0090400D01*
X0087100Y0091044D01*
X0087100Y0095900D01*
X0118432Y0095900D01*
X0119572Y0094760D01*
X0121428Y0094760D01*
X0122740Y0096072D01*
X0122740Y0097928D01*
X0121428Y0099240D01*
X0119572Y0099240D01*
X0118432Y0098100D01*
X0085544Y0098100D01*
X0084900Y0097456D01*
X0084900Y0092600D01*
X0081018Y0092600D01*
X0081490Y0093072D01*
X0081490Y0094928D01*
X0080350Y0096068D01*
X0080350Y0113900D01*
X0088900Y0113900D01*
X0088900Y0105568D01*
X0087760Y0104428D01*
X0087760Y0102572D01*
X0089072Y0101260D01*
X0090928Y0101260D01*
X0092240Y0102572D01*
X0092240Y0104428D01*
X0091100Y0105568D01*
X0091100Y0115456D01*
X0090806Y0115750D01*
X0125000Y0115750D01*
X0062341Y0042522D02*
X0062341Y0044378D01*
X0061028Y0045691D01*
X0059172Y0045691D01*
X0058031Y0044550D01*
X0048441Y0044550D01*
X0048441Y0046078D01*
X0047128Y0047391D01*
X0045272Y0047391D01*
X0043959Y0046078D01*
X0043959Y0044222D01*
X0045100Y0043081D01*
X0045100Y0042994D01*
X0045744Y0042350D01*
X0050631Y0042350D01*
X0049659Y0041378D01*
X0049659Y0039522D01*
X0050972Y0038209D01*
X0052828Y0038209D01*
X0054141Y0039522D01*
X0054141Y0041378D01*
X0053169Y0042350D01*
X0058031Y0042350D01*
X0059172Y0041209D01*
X0061028Y0041209D01*
X0062341Y0042522D01*
X0058240Y0107072D02*
X0058240Y0108928D01*
X0056928Y0110240D01*
X0055072Y0110240D01*
X0053760Y0108928D01*
X0053760Y0107072D01*
X0055072Y0105760D01*
X0056928Y0105760D01*
X0058240Y0107072D01*
X0051751Y0070596D02*
X0051751Y0066348D01*
X0052249Y0065851D01*
X0052900Y0065851D01*
X0052900Y0064919D01*
X0051931Y0063950D01*
X0051022Y0063950D01*
X0051022Y0064339D01*
X0050524Y0064837D01*
X0046276Y0064837D01*
X0045778Y0064339D01*
X0045778Y0060879D01*
X0046276Y0060381D01*
X0050524Y0060381D01*
X0051022Y0060879D01*
X0051022Y0061750D01*
X0051931Y0061750D01*
X0053072Y0060609D01*
X0054928Y0060609D01*
X0056069Y0061750D01*
X0057697Y0061750D01*
X0057697Y0060079D01*
X0058195Y0059581D01*
X0064805Y0059581D01*
X0065303Y0060079D01*
X0065303Y0065901D01*
X0064805Y0066399D01*
X0058195Y0066399D01*
X0057697Y0065901D01*
X0057697Y0063950D01*
X0056069Y0063950D01*
X0055100Y0064919D01*
X0055100Y0065851D01*
X0055709Y0065851D01*
X0056207Y0066348D01*
X0056207Y0070596D01*
X0055709Y0071094D01*
X0052249Y0071094D01*
X0051751Y0070596D01*
X0056541Y0084322D02*
X0056541Y0086178D01*
X0055228Y0087491D01*
X0053372Y0087491D01*
X0052059Y0086178D01*
X0052059Y0084322D01*
X0053372Y0083009D01*
X0055228Y0083009D01*
X0056541Y0084322D01*
X0078841Y0084322D02*
X0078841Y0086178D01*
X0077528Y0087491D01*
X0075672Y0087491D01*
X0074359Y0086178D01*
X0074359Y0084322D01*
X0075672Y0083009D01*
X0077528Y0083009D01*
X0078841Y0084322D01*
X0071141Y0042122D02*
X0071141Y0043500D01*
X0082104Y0043500D01*
X0082250Y0043646D01*
X0082250Y0057854D01*
X0082104Y0058000D01*
X0081019Y0058000D01*
X0082141Y0059122D01*
X0082141Y0060978D01*
X0081000Y0062119D01*
X0081000Y0067681D01*
X0082141Y0068822D01*
X0082141Y0070678D01*
X0080828Y0071991D01*
X0078972Y0071991D01*
X0077659Y0070678D01*
X0077659Y0068822D01*
X0078800Y0067681D01*
X0078800Y0062119D01*
X0077659Y0060978D01*
X0077659Y0059122D01*
X0078781Y0058000D01*
X0070941Y0058000D01*
X0070941Y0058078D01*
X0069628Y0059391D01*
X0067772Y0059391D01*
X0066459Y0058078D01*
X0066459Y0056222D01*
X0067750Y0054931D01*
X0067750Y0045069D01*
X0066659Y0043978D01*
X0066659Y0042122D01*
X0067972Y0040809D01*
X0069828Y0040809D01*
X0071141Y0042122D01*
X0086741Y0045122D02*
X0086741Y0046978D01*
X0085428Y0048291D01*
X0083572Y0048291D01*
X0082259Y0046978D01*
X0082259Y0045122D01*
X0083572Y0043809D01*
X0085428Y0043809D01*
X0086741Y0045122D01*
X0069941Y0033022D02*
X0069941Y0034878D01*
X0068628Y0036191D01*
X0066772Y0036191D01*
X0065459Y0034878D01*
X0065459Y0033022D01*
X0066772Y0031709D01*
X0068628Y0031709D01*
X0069941Y0033022D01*
X0082990Y0017072D02*
X0082990Y0018928D01*
X0081850Y0020068D01*
X0081850Y0021956D01*
X0081206Y0022600D01*
X0072318Y0022600D01*
X0071178Y0023740D01*
X0069322Y0023740D01*
X0068010Y0022428D01*
X0068010Y0020572D01*
X0069322Y0019260D01*
X0071178Y0019260D01*
X0072318Y0020400D01*
X0079650Y0020400D01*
X0079650Y0020068D01*
X0078510Y0018928D01*
X0078510Y0017072D01*
X0079822Y0015760D01*
X0081678Y0015760D01*
X0082990Y0017072D01*
X0091000Y0004985D02*
X0025000Y0004985D01*
X0025000Y0005484D02*
X0091000Y0005484D01*
X0091000Y0005982D02*
X0025000Y0005982D01*
X0025000Y0006481D02*
X0091000Y0006481D01*
X0091000Y0006979D02*
X0025000Y0006979D01*
X0025000Y0007478D02*
X0091000Y0007478D01*
X0091000Y0007976D02*
X0025000Y0007976D01*
X0025000Y0008475D02*
X0091000Y0008475D01*
X0091000Y0008973D02*
X0025000Y0008973D01*
X0025000Y0009472D02*
X0091000Y0009472D01*
X0091000Y0009970D02*
X0025000Y0009970D01*
X0025000Y0010469D02*
X0091000Y0010469D01*
X0091000Y0010967D02*
X0025000Y0010967D01*
X0025000Y0011466D02*
X0091000Y0011466D01*
X0091000Y0011964D02*
X0025000Y0011964D01*
X0025000Y0012463D02*
X0091000Y0012463D01*
X0091000Y0012961D02*
X0025000Y0012961D01*
X0025000Y0013460D02*
X0091000Y0013460D01*
X0091000Y0013958D02*
X0025000Y0013958D01*
X0025000Y0014457D02*
X0091000Y0014457D01*
X0091000Y0014955D02*
X0025000Y0014955D01*
X0025000Y0015454D02*
X0091000Y0015454D01*
X0079630Y0015952D02*
X0025000Y0015952D01*
X0081870Y0015952D02*
X0091000Y0015952D01*
X0079131Y0016451D02*
X0025000Y0016451D01*
X0082369Y0016451D02*
X0091000Y0016451D01*
X0078633Y0016949D02*
X0025000Y0016949D01*
X0082867Y0016949D02*
X0091000Y0016949D01*
X0078510Y0017448D02*
X0025000Y0017448D01*
X0082990Y0017448D02*
X0091000Y0017448D01*
X0078510Y0017946D02*
X0025000Y0017946D01*
X0082990Y0017946D02*
X0091000Y0017946D01*
X0078510Y0018445D02*
X0025000Y0018445D01*
X0082990Y0018445D02*
X0091000Y0018445D01*
X0078526Y0018943D02*
X0025000Y0018943D01*
X0082974Y0018943D02*
X0091000Y0018943D01*
X0069140Y0019442D02*
X0025000Y0019442D01*
X0071360Y0019442D02*
X0079024Y0019442D01*
X0082476Y0019442D02*
X0091000Y0019442D01*
X0068642Y0019940D02*
X0025000Y0019940D01*
X0071858Y0019940D02*
X0079523Y0019940D01*
X0081977Y0019940D02*
X0091000Y0019940D01*
X0068143Y0020439D02*
X0025000Y0020439D01*
X0081850Y0020439D02*
X0091000Y0020439D01*
X0068010Y0020937D02*
X0025000Y0020937D01*
X0081850Y0020937D02*
X0091000Y0020937D01*
X0068010Y0021436D02*
X0025000Y0021436D01*
X0081850Y0021436D02*
X0091000Y0021436D01*
X0068010Y0021934D02*
X0025000Y0021934D01*
X0081850Y0021934D02*
X0091000Y0021934D01*
X0068015Y0022433D02*
X0025000Y0022433D01*
X0081373Y0022433D02*
X0091000Y0022433D01*
X0068514Y0022932D02*
X0025000Y0022932D01*
X0071986Y0022932D02*
X0091000Y0022932D01*
X0069012Y0023430D02*
X0025000Y0023430D01*
X0071488Y0023430D02*
X0091000Y0023430D01*
X0091000Y0023929D02*
X0025000Y0023929D01*
X0025000Y0024427D02*
X0091000Y0024427D01*
X0091000Y0024926D02*
X0025000Y0024926D01*
X0025000Y0025424D02*
X0091000Y0025424D01*
X0091000Y0025923D02*
X0025000Y0025923D01*
X0025000Y0026421D02*
X0091000Y0026421D01*
X0091000Y0026920D02*
X0025000Y0026920D01*
X0025000Y0027418D02*
X0091000Y0027418D01*
X0091000Y0027917D02*
X0025000Y0027917D01*
X0025000Y0028415D02*
X0091000Y0028415D01*
X0091000Y0028914D02*
X0025000Y0028914D01*
X0025000Y0029412D02*
X0091000Y0029412D01*
X0091000Y0029911D02*
X0025000Y0029911D01*
X0025000Y0030409D02*
X0091000Y0030409D01*
X0091000Y0030908D02*
X0025000Y0030908D01*
X0025000Y0031406D02*
X0091000Y0031406D01*
X0066577Y0031905D02*
X0025000Y0031905D01*
X0068823Y0031905D02*
X0091000Y0031905D01*
X0066078Y0032403D02*
X0025000Y0032403D01*
X0069322Y0032403D02*
X0091000Y0032403D01*
X0065580Y0032902D02*
X0025000Y0032902D01*
X0069820Y0032902D02*
X0091000Y0032902D01*
X0065459Y0033400D02*
X0025000Y0033400D01*
X0069941Y0033400D02*
X0091000Y0033400D01*
X0065459Y0033899D02*
X0025000Y0033899D01*
X0069941Y0033899D02*
X0091000Y0033899D01*
X0065459Y0034397D02*
X0025000Y0034397D01*
X0069941Y0034397D02*
X0091000Y0034397D01*
X0065477Y0034896D02*
X0025000Y0034896D01*
X0069923Y0034896D02*
X0091000Y0034896D01*
X0065976Y0035394D02*
X0025000Y0035394D01*
X0069424Y0035394D02*
X0091000Y0035394D01*
X0066474Y0035893D02*
X0025000Y0035893D01*
X0068926Y0035893D02*
X0091000Y0035893D01*
X0091000Y0036391D02*
X0025000Y0036391D01*
X0025000Y0036890D02*
X0091000Y0036890D01*
X0091000Y0037388D02*
X0025000Y0037388D01*
X0025000Y0037887D02*
X0091000Y0037887D01*
X0050796Y0038385D02*
X0025000Y0038385D01*
X0053004Y0038385D02*
X0091000Y0038385D01*
X0050297Y0038884D02*
X0025000Y0038884D01*
X0053502Y0038884D02*
X0091000Y0038884D01*
X0049799Y0039382D02*
X0025000Y0039382D01*
X0054001Y0039382D02*
X0091000Y0039382D01*
X0049659Y0039881D02*
X0025000Y0039881D01*
X0054141Y0039881D02*
X0091000Y0039881D01*
X0049659Y0040379D02*
X0025000Y0040379D01*
X0054141Y0040379D02*
X0091000Y0040379D01*
X0049659Y0040878D02*
X0025000Y0040878D01*
X0054141Y0040878D02*
X0067903Y0040878D01*
X0069897Y0040878D02*
X0091000Y0040878D01*
X0049659Y0041376D02*
X0025000Y0041376D01*
X0054141Y0041376D02*
X0059005Y0041376D01*
X0061195Y0041376D02*
X0067405Y0041376D01*
X0070395Y0041376D02*
X0091000Y0041376D01*
X0050156Y0041875D02*
X0025000Y0041875D01*
X0053644Y0041875D02*
X0058506Y0041875D01*
X0061694Y0041875D02*
X0066906Y0041875D01*
X0070894Y0041875D02*
X0091000Y0041875D01*
X0045721Y0042373D02*
X0025000Y0042373D01*
X0062192Y0042373D02*
X0066659Y0042373D01*
X0071141Y0042373D02*
X0091000Y0042373D01*
X0045222Y0042872D02*
X0025000Y0042872D01*
X0062341Y0042872D02*
X0066659Y0042872D01*
X0071141Y0042872D02*
X0091000Y0042872D01*
X0044811Y0043370D02*
X0025000Y0043370D01*
X0062341Y0043370D02*
X0066659Y0043370D01*
X0071141Y0043370D02*
X0091000Y0043370D01*
X0044312Y0043869D02*
X0025000Y0043869D01*
X0062341Y0043869D02*
X0066659Y0043869D01*
X0082250Y0043869D02*
X0083512Y0043869D01*
X0085488Y0043869D02*
X0091000Y0043869D01*
X0043959Y0044368D02*
X0025000Y0044368D01*
X0062341Y0044368D02*
X0067049Y0044368D01*
X0082250Y0044368D02*
X0083014Y0044368D01*
X0085986Y0044368D02*
X0091000Y0044368D01*
X0043959Y0044866D02*
X0025000Y0044866D01*
X0048441Y0044866D02*
X0058347Y0044866D01*
X0061853Y0044866D02*
X0067547Y0044866D01*
X0082250Y0044866D02*
X0082515Y0044866D01*
X0086485Y0044866D02*
X0091000Y0044866D01*
X0043959Y0045365D02*
X0025000Y0045365D01*
X0048441Y0045365D02*
X0058846Y0045365D01*
X0061354Y0045365D02*
X0067750Y0045365D01*
X0082250Y0045365D02*
X0082259Y0045365D01*
X0086741Y0045365D02*
X0091000Y0045365D01*
X0043959Y0045863D02*
X0025000Y0045863D01*
X0048441Y0045863D02*
X0067750Y0045863D01*
X0082250Y0045863D02*
X0082259Y0045863D01*
X0086741Y0045863D02*
X0091000Y0045863D01*
X0044243Y0046362D02*
X0025000Y0046362D01*
X0048157Y0046362D02*
X0067750Y0046362D01*
X0082250Y0046362D02*
X0082259Y0046362D01*
X0086741Y0046362D02*
X0091000Y0046362D01*
X0044741Y0046860D02*
X0025000Y0046860D01*
X0047659Y0046860D02*
X0067750Y0046860D01*
X0082250Y0046860D02*
X0082259Y0046860D01*
X0086741Y0046860D02*
X0091000Y0046860D01*
X0045240Y0047359D02*
X0025000Y0047359D01*
X0047160Y0047359D02*
X0067750Y0047359D01*
X0082250Y0047359D02*
X0082640Y0047359D01*
X0086360Y0047359D02*
X0091000Y0047359D01*
X0067750Y0047857D02*
X0025000Y0047857D01*
X0082250Y0047857D02*
X0083138Y0047857D01*
X0085862Y0047857D02*
X0091000Y0047857D01*
X0067750Y0048356D02*
X0025000Y0048356D01*
X0082250Y0048356D02*
X0091000Y0048356D01*
X0067750Y0048854D02*
X0025000Y0048854D01*
X0082250Y0048854D02*
X0091000Y0048854D01*
X0067750Y0049353D02*
X0025000Y0049353D01*
X0082250Y0049353D02*
X0091000Y0049353D01*
X0067750Y0049851D02*
X0025000Y0049851D01*
X0082250Y0049851D02*
X0091000Y0049851D01*
X0067750Y0050350D02*
X0025000Y0050350D01*
X0082250Y0050350D02*
X0091000Y0050350D01*
X0067750Y0050848D02*
X0025000Y0050848D01*
X0082250Y0050848D02*
X0091000Y0050848D01*
X0067750Y0051347D02*
X0025000Y0051347D01*
X0082250Y0051347D02*
X0091000Y0051347D01*
X0067750Y0051845D02*
X0025000Y0051845D01*
X0082250Y0051845D02*
X0091000Y0051845D01*
X0067750Y0052344D02*
X0025000Y0052344D01*
X0082250Y0052344D02*
X0091000Y0052344D01*
X0067750Y0052842D02*
X0025000Y0052842D01*
X0082250Y0052842D02*
X0091000Y0052842D01*
X0067750Y0053341D02*
X0025000Y0053341D01*
X0082250Y0053341D02*
X0091000Y0053341D01*
X0067750Y0053839D02*
X0025000Y0053839D01*
X0082250Y0053839D02*
X0091000Y0053839D01*
X0067750Y0054338D02*
X0025000Y0054338D01*
X0082250Y0054338D02*
X0091000Y0054338D01*
X0067750Y0054836D02*
X0025000Y0054836D01*
X0082250Y0054836D02*
X0091000Y0054836D01*
X0067347Y0055335D02*
X0025000Y0055335D01*
X0082250Y0055335D02*
X0091000Y0055335D01*
X0066848Y0055833D02*
X0025000Y0055833D01*
X0082250Y0055833D02*
X0091000Y0055833D01*
X0066459Y0056332D02*
X0025000Y0056332D01*
X0082250Y0056332D02*
X0091000Y0056332D01*
X0066459Y0056830D02*
X0025000Y0056830D01*
X0082250Y0056830D02*
X0091000Y0056830D01*
X0066459Y0057329D02*
X0025000Y0057329D01*
X0082250Y0057329D02*
X0091000Y0057329D01*
X0066459Y0057827D02*
X0025000Y0057827D01*
X0082250Y0057827D02*
X0091000Y0057827D01*
X0066707Y0058326D02*
X0025000Y0058326D01*
X0070693Y0058326D02*
X0078456Y0058326D01*
X0081344Y0058326D02*
X0091000Y0058326D01*
X0067206Y0058824D02*
X0025000Y0058824D01*
X0070194Y0058824D02*
X0077957Y0058824D01*
X0081843Y0058824D02*
X0125000Y0058824D01*
X0067704Y0059323D02*
X0025000Y0059323D01*
X0069696Y0059323D02*
X0077659Y0059323D01*
X0082141Y0059323D02*
X0125000Y0059323D01*
X0057955Y0059821D02*
X0025000Y0059821D01*
X0065045Y0059821D02*
X0077659Y0059821D01*
X0082141Y0059821D02*
X0125000Y0059821D01*
X0057697Y0060320D02*
X0025000Y0060320D01*
X0065303Y0060320D02*
X0077659Y0060320D01*
X0082141Y0060320D02*
X0125000Y0060320D01*
X0045839Y0060818D02*
X0025000Y0060818D01*
X0050961Y0060818D02*
X0052863Y0060818D01*
X0055137Y0060818D02*
X0057697Y0060818D01*
X0065303Y0060818D02*
X0077659Y0060818D01*
X0082141Y0060818D02*
X0125000Y0060818D01*
X0045778Y0061317D02*
X0025000Y0061317D01*
X0051022Y0061317D02*
X0052364Y0061317D01*
X0055635Y0061317D02*
X0057697Y0061317D01*
X0065303Y0061317D02*
X0077998Y0061317D01*
X0081802Y0061317D02*
X0125000Y0061317D01*
X0045778Y0061815D02*
X0025000Y0061815D01*
X0065303Y0061815D02*
X0078497Y0061815D01*
X0081303Y0061815D02*
X0125000Y0061815D01*
X0045778Y0062314D02*
X0025000Y0062314D01*
X0065303Y0062314D02*
X0078800Y0062314D01*
X0081000Y0062314D02*
X0125000Y0062314D01*
X0045778Y0062812D02*
X0025000Y0062812D01*
X0065303Y0062812D02*
X0078800Y0062812D01*
X0081000Y0062812D02*
X0125000Y0062812D01*
X0045778Y0063311D02*
X0025000Y0063311D01*
X0065303Y0063311D02*
X0078800Y0063311D01*
X0081000Y0063311D02*
X0125000Y0063311D01*
X0045778Y0063809D02*
X0025000Y0063809D01*
X0065303Y0063809D02*
X0078800Y0063809D01*
X0081000Y0063809D02*
X0125000Y0063809D01*
X0045778Y0064308D02*
X0025000Y0064308D01*
X0051022Y0064308D02*
X0052289Y0064308D01*
X0055711Y0064308D02*
X0057697Y0064308D01*
X0065303Y0064308D02*
X0078800Y0064308D01*
X0081000Y0064308D02*
X0125000Y0064308D01*
X0046246Y0064806D02*
X0025000Y0064806D01*
X0050554Y0064806D02*
X0052788Y0064806D01*
X0055212Y0064806D02*
X0057697Y0064806D01*
X0065303Y0064806D02*
X0078800Y0064806D01*
X0081000Y0064806D02*
X0125000Y0064806D01*
X0052900Y0065305D02*
X0025000Y0065305D01*
X0055100Y0065305D02*
X0057697Y0065305D01*
X0065303Y0065305D02*
X0078800Y0065305D01*
X0081000Y0065305D02*
X0125000Y0065305D01*
X0052900Y0065803D02*
X0025000Y0065803D01*
X0055100Y0065803D02*
X0057697Y0065803D01*
X0065303Y0065803D02*
X0078800Y0065803D01*
X0081000Y0065803D02*
X0125000Y0065803D01*
X0051797Y0066302D02*
X0025000Y0066302D01*
X0056160Y0066302D02*
X0058098Y0066302D01*
X0064902Y0066302D02*
X0078800Y0066302D01*
X0081000Y0066302D02*
X0125000Y0066302D01*
X0051751Y0066801D02*
X0025000Y0066801D01*
X0056207Y0066801D02*
X0078800Y0066801D01*
X0081000Y0066801D02*
X0125000Y0066801D01*
X0051751Y0067299D02*
X0025000Y0067299D01*
X0056207Y0067299D02*
X0078800Y0067299D01*
X0081000Y0067299D02*
X0125000Y0067299D01*
X0051751Y0067798D02*
X0025000Y0067798D01*
X0056207Y0067798D02*
X0078684Y0067798D01*
X0081116Y0067798D02*
X0125000Y0067798D01*
X0051751Y0068296D02*
X0025000Y0068296D01*
X0056207Y0068296D02*
X0078185Y0068296D01*
X0081615Y0068296D02*
X0125000Y0068296D01*
X0051751Y0068795D02*
X0025000Y0068795D01*
X0056207Y0068795D02*
X0077687Y0068795D01*
X0082113Y0068795D02*
X0125000Y0068795D01*
X0051751Y0069293D02*
X0025000Y0069293D01*
X0056207Y0069293D02*
X0077659Y0069293D01*
X0082141Y0069293D02*
X0125000Y0069293D01*
X0051751Y0069792D02*
X0025000Y0069792D01*
X0056207Y0069792D02*
X0077659Y0069792D01*
X0082141Y0069792D02*
X0125000Y0069792D01*
X0051751Y0070290D02*
X0025000Y0070290D01*
X0056207Y0070290D02*
X0077659Y0070290D01*
X0082141Y0070290D02*
X0125000Y0070290D01*
X0051944Y0070789D02*
X0025000Y0070789D01*
X0056014Y0070789D02*
X0077770Y0070789D01*
X0082030Y0070789D02*
X0125000Y0070789D01*
X0078269Y0071287D02*
X0025000Y0071287D01*
X0081531Y0071287D02*
X0125000Y0071287D01*
X0078767Y0071786D02*
X0025000Y0071786D01*
X0081033Y0071786D02*
X0125000Y0071786D01*
X0125000Y0072284D02*
X0025000Y0072284D01*
X0025000Y0072783D02*
X0125000Y0072783D01*
X0125000Y0073281D02*
X0025000Y0073281D01*
X0025000Y0073780D02*
X0125000Y0073780D01*
X0125000Y0074278D02*
X0025000Y0074278D01*
X0025000Y0074777D02*
X0125000Y0074777D01*
X0125000Y0075275D02*
X0025000Y0075275D01*
X0025000Y0075774D02*
X0125000Y0075774D01*
X0125000Y0076272D02*
X0025000Y0076272D01*
X0025000Y0076771D02*
X0125000Y0076771D01*
X0125000Y0077269D02*
X0025000Y0077269D01*
X0025000Y0077768D02*
X0125000Y0077768D01*
X0125000Y0078266D02*
X0025000Y0078266D01*
X0025000Y0078765D02*
X0125000Y0078765D01*
X0125000Y0079263D02*
X0025000Y0079263D01*
X0025000Y0079762D02*
X0125000Y0079762D01*
X0125000Y0080260D02*
X0025000Y0080260D01*
X0025000Y0080759D02*
X0125000Y0080759D01*
X0125000Y0081257D02*
X0025000Y0081257D01*
X0025000Y0081756D02*
X0125000Y0081756D01*
X0125000Y0082254D02*
X0025000Y0082254D01*
X0025000Y0082753D02*
X0125000Y0082753D01*
X0053130Y0083251D02*
X0025000Y0083251D01*
X0055470Y0083251D02*
X0075430Y0083251D01*
X0077770Y0083251D02*
X0125000Y0083251D01*
X0052631Y0083750D02*
X0025000Y0083750D01*
X0055969Y0083750D02*
X0074931Y0083750D01*
X0078269Y0083750D02*
X0125000Y0083750D01*
X0052133Y0084248D02*
X0025000Y0084248D01*
X0056467Y0084248D02*
X0074433Y0084248D01*
X0078767Y0084248D02*
X0125000Y0084248D01*
X0052059Y0084747D02*
X0025000Y0084747D01*
X0056541Y0084747D02*
X0074359Y0084747D01*
X0078841Y0084747D02*
X0125000Y0084747D01*
X0052059Y0085245D02*
X0025000Y0085245D01*
X0056541Y0085245D02*
X0074359Y0085245D01*
X0078841Y0085245D02*
X0125000Y0085245D01*
X0052059Y0085744D02*
X0025000Y0085744D01*
X0056541Y0085744D02*
X0074359Y0085744D01*
X0078841Y0085744D02*
X0125000Y0085744D01*
X0052124Y0086242D02*
X0025000Y0086242D01*
X0056476Y0086242D02*
X0074424Y0086242D01*
X0078776Y0086242D02*
X0125000Y0086242D01*
X0052622Y0086741D02*
X0025000Y0086741D01*
X0055978Y0086741D02*
X0074922Y0086741D01*
X0078278Y0086741D02*
X0125000Y0086741D01*
X0053121Y0087239D02*
X0025000Y0087239D01*
X0055479Y0087239D02*
X0075421Y0087239D01*
X0077779Y0087239D02*
X0125000Y0087239D01*
X0125000Y0087738D02*
X0025000Y0087738D01*
X0025000Y0088237D02*
X0125000Y0088237D01*
X0125000Y0088735D02*
X0025000Y0088735D01*
X0025000Y0089234D02*
X0125000Y0089234D01*
X0125000Y0089732D02*
X0025000Y0089732D01*
X0025000Y0090231D02*
X0125000Y0090231D01*
X0075715Y0090729D02*
X0025000Y0090729D01*
X0086785Y0090729D02*
X0125000Y0090729D01*
X0075400Y0091228D02*
X0025000Y0091228D01*
X0087100Y0091228D02*
X0125000Y0091228D01*
X0075400Y0091726D02*
X0025000Y0091726D01*
X0087100Y0091726D02*
X0125000Y0091726D01*
X0075400Y0092225D02*
X0025000Y0092225D01*
X0087100Y0092225D02*
X0125000Y0092225D01*
X0075400Y0092723D02*
X0025000Y0092723D01*
X0081141Y0092723D02*
X0084900Y0092723D01*
X0087100Y0092723D02*
X0125000Y0092723D01*
X0075400Y0093222D02*
X0025000Y0093222D01*
X0081490Y0093222D02*
X0084900Y0093222D01*
X0087100Y0093222D02*
X0125000Y0093222D01*
X0075400Y0093720D02*
X0025000Y0093720D01*
X0081490Y0093720D02*
X0084900Y0093720D01*
X0087100Y0093720D02*
X0125000Y0093720D01*
X0075400Y0094219D02*
X0025000Y0094219D01*
X0081490Y0094219D02*
X0084900Y0094219D01*
X0087100Y0094219D02*
X0125000Y0094219D01*
X0075400Y0094717D02*
X0025000Y0094717D01*
X0081490Y0094717D02*
X0084900Y0094717D01*
X0087100Y0094717D02*
X0125000Y0094717D01*
X0075400Y0095216D02*
X0025000Y0095216D01*
X0081202Y0095216D02*
X0084900Y0095216D01*
X0087100Y0095216D02*
X0119116Y0095216D01*
X0121883Y0095216D02*
X0125000Y0095216D01*
X0075400Y0095714D02*
X0025000Y0095714D01*
X0080704Y0095714D02*
X0084900Y0095714D01*
X0087100Y0095714D02*
X0118618Y0095714D01*
X0122382Y0095714D02*
X0125000Y0095714D01*
X0075400Y0096213D02*
X0025000Y0096213D01*
X0080350Y0096213D02*
X0084900Y0096213D01*
X0122740Y0096213D02*
X0125000Y0096213D01*
X0075400Y0096711D02*
X0025000Y0096711D01*
X0080350Y0096711D02*
X0084900Y0096711D01*
X0122740Y0096711D02*
X0125000Y0096711D01*
X0075400Y0097210D02*
X0025000Y0097210D01*
X0080350Y0097210D02*
X0084900Y0097210D01*
X0122740Y0097210D02*
X0125000Y0097210D01*
X0075400Y0097708D02*
X0025000Y0097708D01*
X0080350Y0097708D02*
X0085153Y0097708D01*
X0122740Y0097708D02*
X0125000Y0097708D01*
X0075400Y0098207D02*
X0025000Y0098207D01*
X0080350Y0098207D02*
X0118539Y0098207D01*
X0122461Y0098207D02*
X0125000Y0098207D01*
X0075400Y0098705D02*
X0025000Y0098705D01*
X0080350Y0098705D02*
X0119037Y0098705D01*
X0121963Y0098705D02*
X0125000Y0098705D01*
X0075400Y0099204D02*
X0025000Y0099204D01*
X0080350Y0099204D02*
X0119536Y0099204D01*
X0121464Y0099204D02*
X0125000Y0099204D01*
X0075400Y0099702D02*
X0025000Y0099702D01*
X0080350Y0099702D02*
X0125000Y0099702D01*
X0075400Y0100201D02*
X0025000Y0100201D01*
X0080350Y0100201D02*
X0125000Y0100201D01*
X0075400Y0100699D02*
X0025000Y0100699D01*
X0080350Y0100699D02*
X0125000Y0100699D01*
X0075400Y0101198D02*
X0025000Y0101198D01*
X0080350Y0101198D02*
X0125000Y0101198D01*
X0075400Y0101696D02*
X0025000Y0101696D01*
X0080350Y0101696D02*
X0088636Y0101696D01*
X0091364Y0101696D02*
X0125000Y0101696D01*
X0075400Y0102195D02*
X0025000Y0102195D01*
X0080350Y0102195D02*
X0088137Y0102195D01*
X0091863Y0102195D02*
X0125000Y0102195D01*
X0075400Y0102693D02*
X0025000Y0102693D01*
X0080350Y0102693D02*
X0087760Y0102693D01*
X0092240Y0102693D02*
X0125000Y0102693D01*
X0075400Y0103192D02*
X0025000Y0103192D01*
X0080350Y0103192D02*
X0087760Y0103192D01*
X0092240Y0103192D02*
X0125000Y0103192D01*
X0075400Y0103690D02*
X0025000Y0103690D01*
X0080350Y0103690D02*
X0087760Y0103690D01*
X0092240Y0103690D02*
X0125000Y0103690D01*
X0075400Y0104189D02*
X0025000Y0104189D01*
X0080350Y0104189D02*
X0087760Y0104189D01*
X0092240Y0104189D02*
X0125000Y0104189D01*
X0075400Y0104687D02*
X0025000Y0104687D01*
X0080350Y0104687D02*
X0088020Y0104687D01*
X0091980Y0104687D02*
X0125000Y0104687D01*
X0075400Y0105186D02*
X0025000Y0105186D01*
X0080350Y0105186D02*
X0088518Y0105186D01*
X0091482Y0105186D02*
X0125000Y0105186D01*
X0075400Y0105684D02*
X0025000Y0105684D01*
X0080350Y0105684D02*
X0088900Y0105684D01*
X0091100Y0105684D02*
X0125000Y0105684D01*
X0054649Y0106183D02*
X0025000Y0106183D01*
X0057351Y0106183D02*
X0075400Y0106183D01*
X0080350Y0106183D02*
X0088900Y0106183D01*
X0091100Y0106183D02*
X0125000Y0106183D01*
X0054151Y0106681D02*
X0025000Y0106681D01*
X0057849Y0106681D02*
X0075400Y0106681D01*
X0080350Y0106681D02*
X0088900Y0106681D01*
X0091100Y0106681D02*
X0125000Y0106681D01*
X0053760Y0107180D02*
X0025000Y0107180D01*
X0058240Y0107180D02*
X0075400Y0107180D01*
X0080350Y0107180D02*
X0088900Y0107180D01*
X0091100Y0107180D02*
X0125000Y0107180D01*
X0053760Y0107678D02*
X0025000Y0107678D01*
X0058240Y0107678D02*
X0075400Y0107678D01*
X0080350Y0107678D02*
X0088900Y0107678D01*
X0091100Y0107678D02*
X0125000Y0107678D01*
X0026767Y0108177D02*
X0025000Y0108177D01*
X0047733Y0108177D02*
X0053760Y0108177D01*
X0058240Y0108177D02*
X0075400Y0108177D01*
X0080350Y0108177D02*
X0088900Y0108177D01*
X0091100Y0108177D02*
X0125000Y0108177D01*
X0026400Y0108675D02*
X0025000Y0108675D01*
X0048100Y0108675D02*
X0053760Y0108675D01*
X0058240Y0108675D02*
X0075400Y0108675D01*
X0080350Y0108675D02*
X0088900Y0108675D01*
X0091100Y0108675D02*
X0125000Y0108675D01*
X0026400Y0109174D02*
X0025000Y0109174D01*
X0048100Y0109174D02*
X0054006Y0109174D01*
X0057994Y0109174D02*
X0075400Y0109174D01*
X0080350Y0109174D02*
X0088900Y0109174D01*
X0091100Y0109174D02*
X0125000Y0109174D01*
X0026400Y0109672D02*
X0025000Y0109672D01*
X0048100Y0109672D02*
X0054505Y0109672D01*
X0057495Y0109672D02*
X0075400Y0109672D01*
X0080350Y0109672D02*
X0088900Y0109672D01*
X0091100Y0109672D02*
X0125000Y0109672D01*
X0026400Y0110171D02*
X0025000Y0110171D01*
X0048100Y0110171D02*
X0055003Y0110171D01*
X0056997Y0110171D02*
X0075400Y0110171D01*
X0080350Y0110171D02*
X0088900Y0110171D01*
X0091100Y0110171D02*
X0125000Y0110171D01*
X0026400Y0110670D02*
X0025000Y0110670D01*
X0048100Y0110670D02*
X0075400Y0110670D01*
X0080350Y0110670D02*
X0088900Y0110670D01*
X0091100Y0110670D02*
X0125000Y0110670D01*
X0026400Y0111168D02*
X0025000Y0111168D01*
X0080350Y0111168D02*
X0088900Y0111168D01*
X0091100Y0111168D02*
X0125000Y0111168D01*
X0026400Y0111667D02*
X0025000Y0111667D01*
X0080350Y0111667D02*
X0088900Y0111667D01*
X0091100Y0111667D02*
X0125000Y0111667D01*
X0026400Y0112165D02*
X0025000Y0112165D01*
X0080350Y0112165D02*
X0088900Y0112165D01*
X0091100Y0112165D02*
X0125000Y0112165D01*
X0026400Y0112664D02*
X0025000Y0112664D01*
X0080350Y0112664D02*
X0088900Y0112664D01*
X0091100Y0112664D02*
X0125000Y0112664D01*
X0026400Y0113162D02*
X0026124Y0113162D01*
X0080350Y0113162D02*
X0088900Y0113162D01*
X0091100Y0113162D02*
X0125000Y0113162D01*
X0088900Y0113661D02*
X0080350Y0113661D01*
X0091100Y0113661D02*
X0125000Y0113661D01*
X0125000Y0114159D02*
X0091100Y0114159D01*
X0091100Y0114658D02*
X0125000Y0114658D01*
X0125000Y0115156D02*
X0091100Y0115156D01*
X0090901Y0115655D02*
X0125000Y0115655D01*
X0020000Y0127236D02*
X0030000Y0127236D01*
X0030000Y0125000D01*
X0015768Y0114441D02*
X0015768Y0117000D01*
X0020000Y0117000D01*
X0020000Y0121724D01*
X0048400Y0062609D02*
X0048400Y0062850D01*
X0054000Y0062850D01*
X0054000Y0067172D01*
X0053979Y0068472D01*
X0061500Y0062990D02*
X0061500Y0062850D01*
X0054000Y0062850D01*
X0096260Y0140984D02*
X0089000Y0140984D01*
X0089000Y0141500D01*
X0071260Y0140984D02*
X0064000Y0140984D01*
X0064000Y0141500D01*
X0015768Y0141000D02*
X0015768Y0119559D01*
X0046260Y0140984D02*
X0027000Y0140984D01*
X0027000Y0141000D01*
X0015768Y0141000D01*
X0079900Y0069750D02*
X0079900Y0060050D01*
X0060100Y0043450D02*
X0046200Y0043450D01*
X0046200Y0045150D01*
X0080750Y0018000D02*
X0080750Y0021500D01*
X0070250Y0021500D01*
X0046260Y0137047D02*
X0050000Y0137047D01*
X0050000Y0140000D01*
X0071260Y0137047D02*
X0075000Y0137047D01*
X0075000Y0140000D01*
X0096260Y0137047D02*
X0100000Y0137047D01*
X0100000Y0140000D01*
X0065800Y0128700D02*
X0065800Y0128740D01*
X0069882Y0128740D01*
X0040700Y0114700D02*
X0040700Y0128740D01*
X0044882Y0128740D01*
X0094882Y0125000D02*
X0105118Y0125000D01*
X0094882Y0121260D02*
X0105118Y0121260D01*
X0105118Y0125000D01*
X0103740Y0137047D02*
X0110500Y0137047D01*
X0103740Y0142953D02*
X0110500Y0142953D01*
X0110500Y0137047D01*
X0103740Y0137047D02*
X0103740Y0139016D01*
X0103740Y0142953D02*
X0103740Y0145500D01*
X0105118Y0125000D02*
X0110500Y0125000D01*
X0110500Y0137047D01*
X0089000Y0154500D02*
X0089000Y0145500D01*
X0103740Y0145500D01*
X0069882Y0121260D02*
X0069882Y0125000D01*
X0080118Y0125000D01*
X0080118Y0121260D01*
X0078740Y0137047D02*
X0085000Y0137047D01*
X0085000Y0145000D01*
X0078740Y0139016D02*
X0078740Y0137047D01*
X0078740Y0142953D02*
X0078740Y0145000D01*
X0085000Y0145000D01*
X0080118Y0125000D02*
X0085000Y0125000D01*
X0085000Y0137047D01*
X0085000Y0145000D02*
X0085000Y0152000D01*
X0055118Y0125000D02*
X0044882Y0125000D01*
X0044882Y0121260D02*
X0055118Y0121260D01*
X0055118Y0125000D01*
X0059500Y0143000D02*
X0053740Y0143000D01*
X0053740Y0142953D01*
X0053740Y0137047D02*
X0059500Y0137047D01*
X0059500Y0143000D01*
X0053740Y0139016D02*
X0053740Y0137047D01*
X0055118Y0125000D02*
X0059500Y0125000D01*
X0059500Y0137047D01*
X0078000Y0150500D02*
X0059500Y0150500D01*
X0059500Y0143000D01*
X0091100Y0138400D02*
X0091100Y0139016D01*
X0096260Y0139016D01*
X0038000Y0117900D02*
X0032700Y0117900D01*
X0032700Y0139000D01*
X0046260Y0139000D01*
X0046260Y0139016D01*
X0065700Y0132500D02*
X0065700Y0139016D01*
X0071260Y0139016D01*
X0088300Y0128800D02*
X0094882Y0128800D01*
X0094882Y0128740D01*
X0024232Y0119559D02*
X0031000Y0119559D01*
X0031000Y0112000D01*
X0043500Y0112000D01*
X0043500Y0115000D01*
X0090000Y0115000D01*
X0090000Y0103500D01*
X0024232Y0117000D02*
X0029500Y0117000D01*
X0029500Y0110500D01*
X0045000Y0110500D01*
X0045000Y0113500D01*
X0079250Y0113500D01*
X0079250Y0094000D01*
X0024232Y0114441D02*
X0027500Y0114441D01*
X0027500Y0109000D01*
X0047000Y0109000D01*
X0047000Y0112000D01*
X0076500Y0112000D01*
X0076500Y0091500D01*
X0086000Y0091500D01*
X0086000Y0097000D01*
X0120500Y0097000D01*
D21*
X0052600Y0106550D03*
X0057250Y0140000D03*
X0082750Y0141000D03*
X0107750Y0140250D03*
X0074000Y0169500D03*
X0043800Y0134300D03*
X0101900Y0133200D03*
X0055600Y0021800D03*
X0079000Y0134000D03*
X0091000Y0076000D03*
X0095000Y0076000D03*
X0099000Y0074500D03*
X0107500Y0070000D03*
X0107000Y0066000D03*
X0107500Y0062000D03*
X0028500Y0131500D03*
X0123500Y0108000D03*
X0089000Y0141500D03*
X0064000Y0141500D03*
X0056000Y0108000D03*
X0123000Y0143000D03*
X0027000Y0141000D03*
X0080750Y0018000D03*
X0070250Y0021500D03*
X0037000Y0136600D03*
X0094000Y0135500D03*
X0071000Y0134500D03*
X0074600Y0147700D03*
X0065800Y0128700D03*
X0040700Y0114700D03*
X0089000Y0154500D03*
X0085000Y0152000D03*
X0078000Y0150500D03*
X0091100Y0138400D03*
X0038000Y0117900D03*
X0065700Y0132500D03*
X0088300Y0128800D03*
X0090000Y0103500D03*
X0079250Y0094000D03*
X0120500Y0097000D03*
D22*
X0024500Y0145000D02*
X0044917Y0145000D01*
X0044697Y0144941D01*
X0044355Y0144744D01*
X0044075Y0144464D01*
X0043878Y0144122D01*
X0043776Y0143741D01*
X0043776Y0142953D01*
X0046260Y0142953D01*
X0046260Y0142953D01*
X0043776Y0142953D01*
X0043776Y0142334D01*
X0029142Y0142334D01*
X0029111Y0142410D01*
X0028410Y0143111D01*
X0027495Y0143490D01*
X0026505Y0143490D01*
X0025590Y0143111D01*
X0024889Y0142410D01*
X0024864Y0142350D01*
X0024500Y0142350D01*
X0024500Y0145000D01*
X0106224Y0140984D02*
X0103740Y0140984D01*
X0103740Y0140984D01*
X0106224Y0140984D01*
X0106224Y0141603D01*
X0109150Y0141603D01*
X0109150Y0138397D01*
X0105824Y0138397D01*
X0105824Y0139372D01*
X0105925Y0139473D01*
X0106122Y0139815D01*
X0106224Y0140196D01*
X0106224Y0140984D01*
X0081224Y0140984D02*
X0078740Y0140984D01*
X0078740Y0140984D01*
X0081224Y0140984D01*
X0081224Y0141772D01*
X0081122Y0142154D01*
X0080925Y0142496D01*
X0080824Y0142596D01*
X0080824Y0143650D01*
X0083650Y0143650D01*
X0083650Y0138397D01*
X0080824Y0138397D01*
X0080824Y0139372D01*
X0080925Y0139473D01*
X0081122Y0139815D01*
X0081224Y0140196D01*
X0081224Y0140984D01*
X0055824Y0138397D02*
X0055824Y0139372D01*
X0055925Y0139473D01*
X0056122Y0139815D01*
X0056224Y0140196D01*
X0056224Y0140984D01*
X0053740Y0140984D01*
X0053740Y0140984D01*
X0056224Y0140984D01*
X0056224Y0141650D01*
X0058150Y0141650D01*
X0058150Y0138397D01*
X0055824Y0138397D01*
X0090411Y0130210D02*
X0089710Y0130911D01*
X0088795Y0131290D01*
X0087805Y0131290D01*
X0086890Y0130911D01*
X0086350Y0130371D01*
X0086350Y0149864D01*
X0086410Y0149889D01*
X0087111Y0150590D01*
X0087490Y0151505D01*
X0087490Y0152489D01*
X0087590Y0152389D01*
X0087650Y0152364D01*
X0087650Y0144941D01*
X0088441Y0144150D01*
X0093894Y0144150D01*
X0093878Y0144122D01*
X0093776Y0143741D01*
X0093776Y0142953D01*
X0096260Y0142953D01*
X0096260Y0142953D01*
X0093776Y0142953D01*
X0093776Y0142334D01*
X0091350Y0142334D01*
X0091111Y0142910D01*
X0090410Y0143611D01*
X0089495Y0143990D01*
X0088505Y0143990D01*
X0087590Y0143611D01*
X0086889Y0142910D01*
X0086510Y0141995D01*
X0086510Y0141005D01*
X0086889Y0140090D01*
X0087590Y0139389D01*
X0088505Y0139010D01*
X0088658Y0139010D01*
X0088610Y0138895D01*
X0088610Y0137905D01*
X0088989Y0136990D01*
X0089690Y0136289D01*
X0090605Y0135910D01*
X0091510Y0135910D01*
X0091510Y0135005D01*
X0091889Y0134090D01*
X0092590Y0133389D01*
X0093505Y0133010D01*
X0094495Y0133010D01*
X0095410Y0133389D01*
X0095821Y0133800D01*
X0096964Y0133800D01*
X0097960Y0134796D01*
X0097960Y0135554D01*
X0102103Y0135554D01*
X0102300Y0135357D01*
X0105180Y0135357D01*
X0105521Y0135697D01*
X0109150Y0135697D01*
X0109150Y0126350D01*
X0108167Y0126350D01*
X0108167Y0126361D01*
X0108267Y0126461D01*
X0108465Y0126803D01*
X0108567Y0127184D01*
X0108567Y0128561D01*
X0105297Y0128561D01*
X0105297Y0128919D01*
X0108567Y0128919D01*
X0108567Y0130296D01*
X0108465Y0130677D01*
X0108267Y0131019D01*
X0107988Y0131299D01*
X0107646Y0131496D01*
X0107264Y0131598D01*
X0105297Y0131598D01*
X0105297Y0128919D01*
X0104939Y0128919D01*
X0104939Y0131598D01*
X0102972Y0131598D01*
X0102590Y0131496D01*
X0102248Y0131299D01*
X0101969Y0131019D01*
X0101772Y0130677D01*
X0101669Y0130296D01*
X0101669Y0128919D01*
X0104939Y0128919D01*
X0104939Y0128561D01*
X0101669Y0128561D01*
X0101669Y0127184D01*
X0101772Y0126803D01*
X0101969Y0126461D01*
X0102069Y0126361D01*
X0102069Y0126350D01*
X0097931Y0126350D01*
X0097931Y0126814D01*
X0097875Y0126870D01*
X0097931Y0126926D01*
X0097931Y0130554D01*
X0097286Y0131198D01*
X0092477Y0131198D01*
X0091833Y0130554D01*
X0091833Y0130150D01*
X0090436Y0130150D01*
X0090411Y0130210D01*
X0055473Y0144350D02*
X0055180Y0144643D01*
X0052300Y0144643D01*
X0052103Y0144446D01*
X0048455Y0144446D01*
X0048444Y0144464D01*
X0048165Y0144744D01*
X0047823Y0144941D01*
X0047442Y0145043D01*
X0046260Y0145043D01*
X0046260Y0142953D01*
X0046260Y0142953D01*
X0046260Y0145043D01*
X0045665Y0145043D01*
X0048921Y0146101D01*
X0048921Y0146101D01*
X0051804Y0148196D01*
X0051804Y0148196D01*
X0051804Y0148196D01*
X0053899Y0151079D01*
X0053899Y0151079D01*
X0055000Y0154468D01*
X0055000Y0180500D01*
X0095000Y0180500D01*
X0095000Y0154468D01*
X0096101Y0151079D01*
X0096101Y0151079D01*
X0098196Y0148196D01*
X0098196Y0148196D01*
X0098196Y0148196D01*
X0100048Y0146850D01*
X0090350Y0146850D01*
X0090350Y0152364D01*
X0090410Y0152389D01*
X0091111Y0153090D01*
X0091490Y0154005D01*
X0091490Y0154995D01*
X0091111Y0155910D01*
X0090410Y0156611D01*
X0089495Y0156990D01*
X0088505Y0156990D01*
X0087590Y0156611D01*
X0086889Y0155910D01*
X0086510Y0154995D01*
X0086510Y0154011D01*
X0086410Y0154111D01*
X0085495Y0154490D01*
X0084505Y0154490D01*
X0083590Y0154111D01*
X0082889Y0153410D01*
X0082510Y0152495D01*
X0082510Y0151505D01*
X0082889Y0150590D01*
X0083590Y0149889D01*
X0083650Y0149864D01*
X0083650Y0146350D01*
X0078181Y0146350D01*
X0077390Y0145559D01*
X0077390Y0144643D01*
X0077300Y0144643D01*
X0077103Y0144446D01*
X0073455Y0144446D01*
X0073444Y0144464D01*
X0073165Y0144744D01*
X0072823Y0144941D01*
X0072442Y0145043D01*
X0071260Y0145043D01*
X0071260Y0142953D01*
X0071260Y0142953D01*
X0071260Y0145043D01*
X0070078Y0145043D01*
X0069697Y0144941D01*
X0069355Y0144744D01*
X0069075Y0144464D01*
X0068878Y0144122D01*
X0068776Y0143741D01*
X0068776Y0142953D01*
X0071260Y0142953D01*
X0071260Y0142953D01*
X0068776Y0142953D01*
X0068776Y0142334D01*
X0066350Y0142334D01*
X0066111Y0142910D01*
X0065410Y0143611D01*
X0064495Y0143990D01*
X0063505Y0143990D01*
X0062590Y0143611D01*
X0061889Y0142910D01*
X0061510Y0141995D01*
X0061510Y0141005D01*
X0061889Y0140090D01*
X0062590Y0139389D01*
X0063505Y0139010D01*
X0064350Y0139010D01*
X0064350Y0134636D01*
X0064290Y0134611D01*
X0063589Y0133910D01*
X0063210Y0132995D01*
X0063210Y0132005D01*
X0063589Y0131090D01*
X0064129Y0130550D01*
X0063689Y0130110D01*
X0063310Y0129195D01*
X0063310Y0128205D01*
X0063689Y0127290D01*
X0064390Y0126589D01*
X0065305Y0126210D01*
X0066295Y0126210D01*
X0066833Y0126433D01*
X0066833Y0123186D01*
X0066889Y0123130D01*
X0066833Y0123074D01*
X0066833Y0119446D01*
X0067477Y0118802D01*
X0072286Y0118802D01*
X0072931Y0119446D01*
X0072931Y0123074D01*
X0072875Y0123130D01*
X0072931Y0123186D01*
X0072931Y0123650D01*
X0077069Y0123650D01*
X0077069Y0123186D01*
X0077125Y0123130D01*
X0077069Y0123074D01*
X0077069Y0119446D01*
X0077714Y0118802D01*
X0082523Y0118802D01*
X0083167Y0119446D01*
X0083167Y0123074D01*
X0083111Y0123130D01*
X0083167Y0123186D01*
X0083167Y0123650D01*
X0085559Y0123650D01*
X0086350Y0124441D01*
X0086350Y0127229D01*
X0086890Y0126689D01*
X0087805Y0126310D01*
X0088795Y0126310D01*
X0089710Y0126689D01*
X0090411Y0127390D01*
X0090436Y0127450D01*
X0091833Y0127450D01*
X0091833Y0126926D01*
X0091889Y0126870D01*
X0091833Y0126814D01*
X0091833Y0123186D01*
X0091889Y0123130D01*
X0091833Y0123074D01*
X0091833Y0119446D01*
X0092477Y0118802D01*
X0097286Y0118802D01*
X0097931Y0119446D01*
X0097931Y0119910D01*
X0102069Y0119910D01*
X0102069Y0119446D01*
X0102714Y0118802D01*
X0107523Y0118802D01*
X0108167Y0119446D01*
X0108167Y0123074D01*
X0108111Y0123130D01*
X0108167Y0123186D01*
X0108167Y0123650D01*
X0111059Y0123650D01*
X0111850Y0124441D01*
X0111850Y0143512D01*
X0111059Y0144303D01*
X0105521Y0144303D01*
X0105180Y0144643D01*
X0105090Y0144643D01*
X0105090Y0145000D01*
X0121479Y0145000D01*
X0120889Y0144410D01*
X0120510Y0143495D01*
X0120510Y0142505D01*
X0120889Y0141590D01*
X0121590Y0140889D01*
X0122505Y0140510D01*
X0123495Y0140510D01*
X0124410Y0140889D01*
X0125000Y0141479D01*
X0125000Y0128353D01*
X0124319Y0126709D01*
X0124319Y0124449D01*
X0125000Y0122804D01*
X0125000Y0122437D01*
X0123489Y0122437D01*
X0123489Y0119748D01*
X0123111Y0119748D01*
X0123111Y0122437D01*
X0121331Y0122437D01*
X0120949Y0122335D01*
X0120607Y0122137D01*
X0120328Y0121858D01*
X0120131Y0121516D01*
X0120028Y0121134D01*
X0120028Y0119748D01*
X0123111Y0119748D01*
X0123111Y0119370D01*
X0120028Y0119370D01*
X0120028Y0118500D01*
X0042050Y0118500D01*
X0042050Y0119229D01*
X0042477Y0118802D01*
X0047286Y0118802D01*
X0047931Y0119446D01*
X0047931Y0119910D01*
X0052069Y0119910D01*
X0052069Y0119446D01*
X0052714Y0118802D01*
X0057523Y0118802D01*
X0058167Y0119446D01*
X0058167Y0123074D01*
X0058111Y0123130D01*
X0058167Y0123186D01*
X0058167Y0123650D01*
X0060059Y0123650D01*
X0060850Y0124441D01*
X0060850Y0149150D01*
X0072529Y0149150D01*
X0072489Y0149110D01*
X0072110Y0148195D01*
X0072110Y0147205D01*
X0072489Y0146290D01*
X0073190Y0145589D01*
X0074105Y0145210D01*
X0075095Y0145210D01*
X0076010Y0145589D01*
X0076711Y0146290D01*
X0077090Y0147205D01*
X0077090Y0148182D01*
X0077505Y0148010D01*
X0078495Y0148010D01*
X0079410Y0148389D01*
X0080111Y0149090D01*
X0080490Y0150005D01*
X0080490Y0150995D01*
X0080111Y0151910D01*
X0079410Y0152611D01*
X0078495Y0152990D01*
X0077505Y0152990D01*
X0076590Y0152611D01*
X0075889Y0151910D01*
X0075864Y0151850D01*
X0058941Y0151850D01*
X0058150Y0151059D01*
X0058150Y0144350D01*
X0055473Y0144350D01*
X0069176Y0136197D02*
X0068889Y0135910D01*
X0068510Y0134995D01*
X0068510Y0134005D01*
X0068889Y0133090D01*
X0069590Y0132389D01*
X0070505Y0132010D01*
X0071495Y0132010D01*
X0072410Y0132389D01*
X0073111Y0133090D01*
X0073490Y0134005D01*
X0073490Y0134995D01*
X0073259Y0135554D01*
X0077103Y0135554D01*
X0077300Y0135357D01*
X0080180Y0135357D01*
X0080521Y0135697D01*
X0083650Y0135697D01*
X0083650Y0126350D01*
X0083167Y0126350D01*
X0083167Y0126361D01*
X0083267Y0126461D01*
X0083465Y0126803D01*
X0083567Y0127184D01*
X0083567Y0128561D01*
X0080297Y0128561D01*
X0080297Y0128919D01*
X0083567Y0128919D01*
X0083567Y0130296D01*
X0083465Y0130677D01*
X0083267Y0131019D01*
X0082988Y0131299D01*
X0082646Y0131496D01*
X0082264Y0131598D01*
X0080297Y0131598D01*
X0080297Y0128919D01*
X0079939Y0128919D01*
X0079939Y0131598D01*
X0077972Y0131598D01*
X0077590Y0131496D01*
X0077248Y0131299D01*
X0076969Y0131019D01*
X0076772Y0130677D01*
X0076669Y0130296D01*
X0076669Y0128919D01*
X0079939Y0128919D01*
X0079939Y0128561D01*
X0076669Y0128561D01*
X0076669Y0127184D01*
X0076772Y0126803D01*
X0076969Y0126461D01*
X0077069Y0126361D01*
X0077069Y0126350D01*
X0072931Y0126350D01*
X0072931Y0126814D01*
X0072875Y0126870D01*
X0072931Y0126926D01*
X0072931Y0130554D01*
X0072286Y0131198D01*
X0067856Y0131198D01*
X0068190Y0132005D01*
X0068190Y0132995D01*
X0067811Y0133910D01*
X0067110Y0134611D01*
X0067050Y0134636D01*
X0067050Y0137666D01*
X0069176Y0137666D01*
X0069176Y0136197D01*
X0025869Y0121446D02*
X0024852Y0121446D01*
X0025681Y0123449D01*
X0025681Y0125709D01*
X0024816Y0127797D01*
X0024500Y0128113D01*
X0024500Y0139650D01*
X0024864Y0139650D01*
X0024889Y0139590D01*
X0025590Y0138889D01*
X0026505Y0138510D01*
X0027495Y0138510D01*
X0028410Y0138889D01*
X0029111Y0139590D01*
X0029129Y0139634D01*
X0031425Y0139634D01*
X0031350Y0139559D01*
X0031350Y0120909D01*
X0026406Y0120909D01*
X0025869Y0121446D01*
X0057988Y0131299D02*
X0057646Y0131496D01*
X0057264Y0131598D01*
X0055297Y0131598D01*
X0055297Y0128919D01*
X0054939Y0128919D01*
X0054939Y0131598D01*
X0052972Y0131598D01*
X0052590Y0131496D01*
X0052248Y0131299D01*
X0051969Y0131019D01*
X0051772Y0130677D01*
X0051669Y0130296D01*
X0051669Y0128919D01*
X0054939Y0128919D01*
X0054939Y0128561D01*
X0051669Y0128561D01*
X0051669Y0127184D01*
X0051772Y0126803D01*
X0051969Y0126461D01*
X0052069Y0126361D01*
X0052069Y0126350D01*
X0047931Y0126350D01*
X0047931Y0126814D01*
X0047875Y0126870D01*
X0047931Y0126926D01*
X0047931Y0130554D01*
X0047286Y0131198D01*
X0042477Y0131198D01*
X0041833Y0130554D01*
X0041833Y0130090D01*
X0040141Y0130090D01*
X0039350Y0129299D01*
X0039350Y0120036D01*
X0038495Y0120390D01*
X0037505Y0120390D01*
X0036590Y0120011D01*
X0035889Y0119310D01*
X0035864Y0119250D01*
X0034050Y0119250D01*
X0034050Y0137650D01*
X0034740Y0137650D01*
X0034510Y0137095D01*
X0034510Y0136105D01*
X0034889Y0135190D01*
X0035590Y0134489D01*
X0036505Y0134110D01*
X0037495Y0134110D01*
X0038410Y0134489D01*
X0039111Y0135190D01*
X0039193Y0135388D01*
X0046954Y0135343D01*
X0046968Y0135357D01*
X0047700Y0135357D01*
X0047897Y0135554D01*
X0052103Y0135554D01*
X0052300Y0135357D01*
X0055180Y0135357D01*
X0055521Y0135697D01*
X0058150Y0135697D01*
X0058150Y0131137D01*
X0057988Y0131299D01*
X0042456Y0118823D02*
X0042050Y0118823D01*
X0047308Y0118823D02*
X0052692Y0118823D01*
X0057544Y0118823D02*
X0067456Y0118823D01*
X0072308Y0118823D02*
X0077692Y0118823D01*
X0082544Y0118823D02*
X0092456Y0118823D01*
X0097308Y0118823D02*
X0102692Y0118823D01*
X0107544Y0118823D02*
X0120028Y0118823D01*
X0036400Y0119821D02*
X0034050Y0119821D01*
X0047931Y0119821D02*
X0052069Y0119821D01*
X0058167Y0119821D02*
X0066833Y0119821D01*
X0072931Y0119821D02*
X0077069Y0119821D01*
X0083167Y0119821D02*
X0091833Y0119821D01*
X0097931Y0119821D02*
X0102069Y0119821D01*
X0108167Y0119821D02*
X0120028Y0119821D01*
X0123111Y0119821D02*
X0123489Y0119821D01*
X0039350Y0120820D02*
X0034050Y0120820D01*
X0058167Y0120820D02*
X0066833Y0120820D01*
X0072931Y0120820D02*
X0077069Y0120820D01*
X0083167Y0120820D02*
X0091833Y0120820D01*
X0108167Y0120820D02*
X0120028Y0120820D01*
X0123111Y0120820D02*
X0123489Y0120820D01*
X0031350Y0121818D02*
X0025006Y0121818D01*
X0034050Y0121818D02*
X0039350Y0121818D01*
X0058167Y0121818D02*
X0066833Y0121818D01*
X0072931Y0121818D02*
X0077069Y0121818D01*
X0083167Y0121818D02*
X0091833Y0121818D01*
X0108167Y0121818D02*
X0120305Y0121818D01*
X0123111Y0121818D02*
X0123489Y0121818D01*
X0031350Y0122817D02*
X0025419Y0122817D01*
X0034050Y0122817D02*
X0039350Y0122817D01*
X0058167Y0122817D02*
X0066833Y0122817D01*
X0072931Y0122817D02*
X0077069Y0122817D01*
X0083167Y0122817D02*
X0091833Y0122817D01*
X0108167Y0122817D02*
X0124995Y0122817D01*
X0031350Y0123815D02*
X0025681Y0123815D01*
X0034050Y0123815D02*
X0039350Y0123815D01*
X0060225Y0123815D02*
X0066833Y0123815D01*
X0085725Y0123815D02*
X0091833Y0123815D01*
X0111225Y0123815D02*
X0124581Y0123815D01*
X0031350Y0124814D02*
X0025681Y0124814D01*
X0034050Y0124814D02*
X0039350Y0124814D01*
X0060850Y0124814D02*
X0066833Y0124814D01*
X0086350Y0124814D02*
X0091833Y0124814D01*
X0111850Y0124814D02*
X0124319Y0124814D01*
X0031350Y0125812D02*
X0025638Y0125812D01*
X0034050Y0125812D02*
X0039350Y0125812D01*
X0060850Y0125812D02*
X0066833Y0125812D01*
X0086350Y0125812D02*
X0091833Y0125812D01*
X0111850Y0125812D02*
X0124319Y0125812D01*
X0031350Y0126811D02*
X0025225Y0126811D01*
X0034050Y0126811D02*
X0039350Y0126811D01*
X0047931Y0126811D02*
X0051769Y0126811D01*
X0060850Y0126811D02*
X0064168Y0126811D01*
X0072931Y0126811D02*
X0076769Y0126811D01*
X0083467Y0126811D02*
X0083650Y0126811D01*
X0086350Y0126811D02*
X0086768Y0126811D01*
X0089832Y0126811D02*
X0091833Y0126811D01*
X0097931Y0126811D02*
X0101769Y0126811D01*
X0108467Y0126811D02*
X0109150Y0126811D01*
X0111850Y0126811D02*
X0124361Y0126811D01*
X0031350Y0127809D02*
X0024804Y0127809D01*
X0034050Y0127809D02*
X0039350Y0127809D01*
X0047931Y0127809D02*
X0051669Y0127809D01*
X0060850Y0127809D02*
X0063474Y0127809D01*
X0072931Y0127809D02*
X0076669Y0127809D01*
X0083567Y0127809D02*
X0083650Y0127809D01*
X0097931Y0127809D02*
X0101669Y0127809D01*
X0108567Y0127809D02*
X0109150Y0127809D01*
X0111850Y0127809D02*
X0124775Y0127809D01*
X0031350Y0128808D02*
X0024500Y0128808D01*
X0034050Y0128808D02*
X0039350Y0128808D01*
X0047931Y0128808D02*
X0054939Y0128808D01*
X0060850Y0128808D02*
X0063310Y0128808D01*
X0072931Y0128808D02*
X0079939Y0128808D01*
X0080297Y0128808D02*
X0083650Y0128808D01*
X0097931Y0128808D02*
X0104939Y0128808D01*
X0105297Y0128808D02*
X0109150Y0128808D01*
X0111850Y0128808D02*
X0125000Y0128808D01*
X0031350Y0129806D02*
X0024500Y0129806D01*
X0034050Y0129806D02*
X0039857Y0129806D01*
X0047931Y0129806D02*
X0051669Y0129806D01*
X0054939Y0129806D02*
X0055297Y0129806D01*
X0060850Y0129806D02*
X0063563Y0129806D01*
X0072931Y0129806D02*
X0076669Y0129806D01*
X0079939Y0129806D02*
X0080297Y0129806D01*
X0083567Y0129806D02*
X0083650Y0129806D01*
X0097931Y0129806D02*
X0101669Y0129806D01*
X0104939Y0129806D02*
X0105297Y0129806D01*
X0108567Y0129806D02*
X0109150Y0129806D01*
X0111850Y0129806D02*
X0125000Y0129806D01*
X0031350Y0130805D02*
X0024500Y0130805D01*
X0034050Y0130805D02*
X0042084Y0130805D01*
X0047680Y0130805D02*
X0051845Y0130805D01*
X0054939Y0130805D02*
X0055297Y0130805D01*
X0060850Y0130805D02*
X0063874Y0130805D01*
X0072680Y0130805D02*
X0076845Y0130805D01*
X0079939Y0130805D02*
X0080297Y0130805D01*
X0083391Y0130805D02*
X0083650Y0130805D01*
X0086350Y0130805D02*
X0086784Y0130805D01*
X0089816Y0130805D02*
X0092084Y0130805D01*
X0097680Y0130805D02*
X0101845Y0130805D01*
X0104939Y0130805D02*
X0105297Y0130805D01*
X0108391Y0130805D02*
X0109150Y0130805D01*
X0111850Y0130805D02*
X0125000Y0130805D01*
X0031350Y0131803D02*
X0024500Y0131803D01*
X0034050Y0131803D02*
X0058150Y0131803D01*
X0060850Y0131803D02*
X0063293Y0131803D01*
X0068107Y0131803D02*
X0083650Y0131803D01*
X0086350Y0131803D02*
X0109150Y0131803D01*
X0111850Y0131803D02*
X0125000Y0131803D01*
X0031350Y0132802D02*
X0024500Y0132802D01*
X0034050Y0132802D02*
X0058150Y0132802D01*
X0060850Y0132802D02*
X0063210Y0132802D01*
X0068190Y0132802D02*
X0069177Y0132802D01*
X0072823Y0132802D02*
X0083650Y0132802D01*
X0086350Y0132802D02*
X0109150Y0132802D01*
X0111850Y0132802D02*
X0125000Y0132802D01*
X0031350Y0133801D02*
X0024500Y0133801D01*
X0034050Y0133801D02*
X0058150Y0133801D01*
X0060850Y0133801D02*
X0063544Y0133801D01*
X0067856Y0133801D02*
X0068595Y0133801D01*
X0073405Y0133801D02*
X0083650Y0133801D01*
X0086350Y0133801D02*
X0092178Y0133801D01*
X0096965Y0133801D02*
X0109150Y0133801D01*
X0111850Y0133801D02*
X0125000Y0133801D01*
X0031350Y0134799D02*
X0024500Y0134799D01*
X0034050Y0134799D02*
X0035280Y0134799D01*
X0038720Y0134799D02*
X0058150Y0134799D01*
X0060850Y0134799D02*
X0064350Y0134799D01*
X0067050Y0134799D02*
X0068510Y0134799D01*
X0073490Y0134799D02*
X0083650Y0134799D01*
X0086350Y0134799D02*
X0091595Y0134799D01*
X0097960Y0134799D02*
X0109150Y0134799D01*
X0111850Y0134799D02*
X0125000Y0134799D01*
X0031350Y0135798D02*
X0024500Y0135798D01*
X0034050Y0135798D02*
X0034637Y0135798D01*
X0060850Y0135798D02*
X0064350Y0135798D01*
X0067050Y0135798D02*
X0068842Y0135798D01*
X0086350Y0135798D02*
X0091510Y0135798D01*
X0111850Y0135798D02*
X0125000Y0135798D01*
X0031350Y0136796D02*
X0024500Y0136796D01*
X0034050Y0136796D02*
X0034510Y0136796D01*
X0060850Y0136796D02*
X0064350Y0136796D01*
X0067050Y0136796D02*
X0069176Y0136796D01*
X0086350Y0136796D02*
X0089183Y0136796D01*
X0111850Y0136796D02*
X0125000Y0136796D01*
X0031350Y0137795D02*
X0024500Y0137795D01*
X0060850Y0137795D02*
X0064350Y0137795D01*
X0086350Y0137795D02*
X0088656Y0137795D01*
X0111850Y0137795D02*
X0125000Y0137795D01*
X0025821Y0138793D02*
X0024500Y0138793D01*
X0028179Y0138793D02*
X0031350Y0138793D01*
X0055824Y0138793D02*
X0058150Y0138793D01*
X0060850Y0138793D02*
X0064350Y0138793D01*
X0080824Y0138793D02*
X0083650Y0138793D01*
X0086350Y0138793D02*
X0088610Y0138793D01*
X0105824Y0138793D02*
X0109150Y0138793D01*
X0111850Y0138793D02*
X0125000Y0138793D01*
X0058150Y0139792D02*
X0056109Y0139792D01*
X0060850Y0139792D02*
X0062187Y0139792D01*
X0081109Y0139792D02*
X0083650Y0139792D01*
X0086350Y0139792D02*
X0087187Y0139792D01*
X0106109Y0139792D02*
X0109150Y0139792D01*
X0111850Y0139792D02*
X0125000Y0139792D01*
X0058150Y0140790D02*
X0056224Y0140790D01*
X0060850Y0140790D02*
X0061599Y0140790D01*
X0081224Y0140790D02*
X0083650Y0140790D01*
X0086350Y0140790D02*
X0086599Y0140790D01*
X0106224Y0140790D02*
X0109150Y0140790D01*
X0111850Y0140790D02*
X0121828Y0140790D01*
X0124171Y0140790D02*
X0125000Y0140790D01*
X0061510Y0141789D02*
X0060850Y0141789D01*
X0081220Y0141789D02*
X0083650Y0141789D01*
X0086350Y0141789D02*
X0086510Y0141789D01*
X0111850Y0141789D02*
X0120807Y0141789D01*
X0025266Y0142787D02*
X0024500Y0142787D01*
X0028734Y0142787D02*
X0043776Y0142787D01*
X0060850Y0142787D02*
X0061838Y0142787D01*
X0066162Y0142787D02*
X0068776Y0142787D01*
X0080824Y0142787D02*
X0083650Y0142787D01*
X0086350Y0142787D02*
X0086838Y0142787D01*
X0091162Y0142787D02*
X0093776Y0142787D01*
X0111850Y0142787D02*
X0120510Y0142787D01*
X0043788Y0143786D02*
X0024500Y0143786D01*
X0046260Y0143786D02*
X0046260Y0143786D01*
X0060850Y0143786D02*
X0063011Y0143786D01*
X0064989Y0143786D02*
X0068788Y0143786D01*
X0071260Y0143786D02*
X0071260Y0143786D01*
X0086350Y0143786D02*
X0088011Y0143786D01*
X0089989Y0143786D02*
X0093788Y0143786D01*
X0111576Y0143786D02*
X0120630Y0143786D01*
X0044425Y0144784D02*
X0024500Y0144784D01*
X0046260Y0144784D02*
X0046260Y0144784D01*
X0048095Y0144784D02*
X0058150Y0144784D01*
X0060850Y0144784D02*
X0069425Y0144784D01*
X0071260Y0144784D02*
X0071260Y0144784D01*
X0073095Y0144784D02*
X0077390Y0144784D01*
X0086350Y0144784D02*
X0087807Y0144784D01*
X0105090Y0144784D02*
X0121263Y0144784D01*
X0058150Y0145783D02*
X0047941Y0145783D01*
X0060850Y0145783D02*
X0072996Y0145783D01*
X0076204Y0145783D02*
X0077614Y0145783D01*
X0086350Y0145783D02*
X0087650Y0145783D01*
X0058150Y0146781D02*
X0049857Y0146781D01*
X0060850Y0146781D02*
X0072285Y0146781D01*
X0076915Y0146781D02*
X0083650Y0146781D01*
X0086350Y0146781D02*
X0087650Y0146781D01*
X0058150Y0147780D02*
X0051231Y0147780D01*
X0060850Y0147780D02*
X0072110Y0147780D01*
X0077090Y0147780D02*
X0083650Y0147780D01*
X0086350Y0147780D02*
X0087650Y0147780D01*
X0090350Y0147780D02*
X0098769Y0147780D01*
X0058150Y0148778D02*
X0052227Y0148778D01*
X0060850Y0148778D02*
X0072351Y0148778D01*
X0079800Y0148778D02*
X0083650Y0148778D01*
X0086350Y0148778D02*
X0087650Y0148778D01*
X0090350Y0148778D02*
X0097773Y0148778D01*
X0058150Y0149777D02*
X0052953Y0149777D01*
X0080396Y0149777D02*
X0083650Y0149777D01*
X0086350Y0149777D02*
X0087650Y0149777D01*
X0090350Y0149777D02*
X0097047Y0149777D01*
X0058150Y0150775D02*
X0053678Y0150775D01*
X0080490Y0150775D02*
X0082812Y0150775D01*
X0087188Y0150775D02*
X0087650Y0150775D01*
X0090350Y0150775D02*
X0096322Y0150775D01*
X0058865Y0151774D02*
X0054124Y0151774D01*
X0080168Y0151774D02*
X0082510Y0151774D01*
X0087490Y0151774D02*
X0087650Y0151774D01*
X0090350Y0151774D02*
X0095875Y0151774D01*
X0076979Y0152772D02*
X0054449Y0152772D01*
X0079021Y0152772D02*
X0082625Y0152772D01*
X0090794Y0152772D02*
X0095551Y0152772D01*
X0083249Y0153771D02*
X0054773Y0153771D01*
X0091393Y0153771D02*
X0095227Y0153771D01*
X0086510Y0154769D02*
X0055000Y0154769D01*
X0091490Y0154769D02*
X0095000Y0154769D01*
X0086830Y0155768D02*
X0055000Y0155768D01*
X0091170Y0155768D02*
X0095000Y0155768D01*
X0087965Y0156766D02*
X0055000Y0156766D01*
X0090035Y0156766D02*
X0095000Y0156766D01*
X0095000Y0157765D02*
X0055000Y0157765D01*
X0055000Y0158763D02*
X0095000Y0158763D01*
X0095000Y0159762D02*
X0055000Y0159762D01*
X0055000Y0160760D02*
X0095000Y0160760D01*
X0095000Y0161759D02*
X0055000Y0161759D01*
X0055000Y0162757D02*
X0095000Y0162757D01*
X0095000Y0163756D02*
X0055000Y0163756D01*
X0055000Y0164754D02*
X0095000Y0164754D01*
X0095000Y0165753D02*
X0055000Y0165753D01*
X0055000Y0166751D02*
X0095000Y0166751D01*
X0095000Y0167750D02*
X0055000Y0167750D01*
X0055000Y0168748D02*
X0095000Y0168748D01*
X0095000Y0169747D02*
X0055000Y0169747D01*
X0055000Y0170745D02*
X0095000Y0170745D01*
X0095000Y0171744D02*
X0055000Y0171744D01*
X0055000Y0172742D02*
X0095000Y0172742D01*
X0095000Y0173741D02*
X0055000Y0173741D01*
X0055000Y0174739D02*
X0095000Y0174739D01*
X0095000Y0175738D02*
X0055000Y0175738D01*
X0055000Y0176737D02*
X0095000Y0176737D01*
X0095000Y0177735D02*
X0055000Y0177735D01*
X0055000Y0178734D02*
X0095000Y0178734D01*
X0095000Y0179732D02*
X0055000Y0179732D01*
D23*
X0096260Y0137047D02*
X0096260Y0135500D01*
X0094000Y0135500D01*
X0046260Y0137047D02*
X0037053Y0137100D01*
X0037000Y0136600D01*
X0071260Y0137047D02*
X0071000Y0137047D01*
X0071000Y0134500D01*
M02*
