%
M48
M72
T01C0.0118
T02C0.0118
T03C0.0236
%
T01
X5260Y10655
X5725Y14000
X8275Y14100
X10775Y14025
X7400Y16950
X4380Y13430
X10190Y13320
X5560Y2180
X7900Y13400
X9100Y7600
X9500Y7600
X9900Y7450
X10750Y7000
X10700Y6600
X10750Y6200
X2850Y13150
X12350Y10800
X8900Y14150
X6400Y14150
X5600Y10800
X12300Y14300
X2700Y14100
X8075Y1800
X7025Y2150
X3700Y13660
X9400Y13550
X7100Y13450
X7460Y14770
X6580Y12870
X4070Y11470
X8900Y15450
X8500Y15200
X7800Y15050
X9110Y13840
X3800Y11790
X6570Y13250
X8830Y12880
X9000Y10350
X7925Y9400
X12050Y9700
T02
X5290Y5605
X6180Y3615
X6180Y3305
X6300Y7675
X6800Y7675
X6300Y7175
X6800Y7175
X8940Y9155
X10120Y8645
X10310Y7815
X8190Y3065
X8450Y5775
X7990Y3935
X5580Y3305
X9300Y6725
X9600Y6475
X9800Y6175
X5430Y8525
X7660Y8525
X5400Y6285
X5190Y4045
X6890Y4305
X8450Y4605
X6870Y5715
X6770Y3395
X7990Y6005
X7990Y6975
X6010Y4345
X4620Y4515
T03
X2000Y12458
X13000Y12558
M30
