G75*
%MOIN*%
%OFA0B0*%
%FSLAX25Y25*%
%IPPOS*%
%LPD*%
%AMOC8*
5,1,8,0,0,1.08239X$1,22.5*
%
%ADD10C,0.01000*%
%ADD11C,0.00000*%
D10*
X0006250Y0000000D02*
X0143750Y0000000D01*
X0143906Y0000002D01*
X0144062Y0000008D01*
X0144217Y0000017D01*
X0144372Y0000031D01*
X0144527Y0000049D01*
X0144682Y0000070D01*
X0144835Y0000095D01*
X0144988Y0000124D01*
X0145141Y0000157D01*
X0145292Y0000193D01*
X0145443Y0000234D01*
X0145592Y0000278D01*
X0145741Y0000325D01*
X0145888Y0000377D01*
X0146033Y0000432D01*
X0146178Y0000491D01*
X0146321Y0000553D01*
X0146462Y0000619D01*
X0146601Y0000688D01*
X0146739Y0000761D01*
X0146875Y0000837D01*
X0147009Y0000917D01*
X0147141Y0001000D01*
X0147271Y0001086D01*
X0147398Y0001175D01*
X0147524Y0001268D01*
X0147647Y0001364D01*
X0147767Y0001462D01*
X0147886Y0001564D01*
X0148001Y0001668D01*
X0148114Y0001776D01*
X0148224Y0001886D01*
X0148332Y0001999D01*
X0148436Y0002114D01*
X0148538Y0002233D01*
X0148636Y0002353D01*
X0148732Y0002476D01*
X0148825Y0002602D01*
X0148914Y0002729D01*
X0149000Y0002859D01*
X0149083Y0002991D01*
X0149163Y0003125D01*
X0149239Y0003261D01*
X0149312Y0003399D01*
X0149381Y0003538D01*
X0149447Y0003679D01*
X0149509Y0003822D01*
X0149568Y0003967D01*
X0149623Y0004112D01*
X0149675Y0004259D01*
X0149722Y0004408D01*
X0149766Y0004557D01*
X0149807Y0004708D01*
X0149843Y0004859D01*
X0149876Y0005012D01*
X0149905Y0005165D01*
X0149930Y0005318D01*
X0149951Y0005473D01*
X0149969Y0005628D01*
X0149983Y0005783D01*
X0149992Y0005938D01*
X0149998Y0006094D01*
X0150000Y0006250D01*
X0150000Y0143750D01*
X0149998Y0143906D01*
X0149992Y0144062D01*
X0149983Y0144217D01*
X0149969Y0144372D01*
X0149951Y0144527D01*
X0149930Y0144682D01*
X0149905Y0144835D01*
X0149876Y0144988D01*
X0149843Y0145141D01*
X0149807Y0145292D01*
X0149766Y0145443D01*
X0149722Y0145592D01*
X0149675Y0145741D01*
X0149623Y0145888D01*
X0149568Y0146033D01*
X0149509Y0146178D01*
X0149447Y0146321D01*
X0149381Y0146462D01*
X0149312Y0146601D01*
X0149239Y0146739D01*
X0149163Y0146875D01*
X0149083Y0147009D01*
X0149000Y0147141D01*
X0148914Y0147271D01*
X0148825Y0147398D01*
X0148732Y0147524D01*
X0148636Y0147647D01*
X0148538Y0147767D01*
X0148436Y0147886D01*
X0148332Y0148001D01*
X0148224Y0148114D01*
X0148114Y0148224D01*
X0148001Y0148332D01*
X0147886Y0148436D01*
X0147767Y0148538D01*
X0147647Y0148636D01*
X0147524Y0148732D01*
X0147398Y0148825D01*
X0147271Y0148914D01*
X0147141Y0149000D01*
X0147009Y0149083D01*
X0146875Y0149163D01*
X0146739Y0149239D01*
X0146601Y0149312D01*
X0146462Y0149381D01*
X0146321Y0149447D01*
X0146178Y0149509D01*
X0146033Y0149568D01*
X0145888Y0149623D01*
X0145741Y0149675D01*
X0145592Y0149722D01*
X0145443Y0149766D01*
X0145292Y0149807D01*
X0145141Y0149843D01*
X0144988Y0149876D01*
X0144835Y0149905D01*
X0144682Y0149930D01*
X0144527Y0149951D01*
X0144372Y0149969D01*
X0144217Y0149983D01*
X0144062Y0149992D01*
X0143906Y0149998D01*
X0143750Y0150000D01*
X0106250Y0150000D01*
X0106094Y0150002D01*
X0105938Y0150008D01*
X0105783Y0150017D01*
X0105628Y0150031D01*
X0105473Y0150049D01*
X0105318Y0150070D01*
X0105165Y0150095D01*
X0105012Y0150124D01*
X0104859Y0150157D01*
X0104708Y0150193D01*
X0104557Y0150234D01*
X0104408Y0150278D01*
X0104259Y0150325D01*
X0104112Y0150377D01*
X0103967Y0150432D01*
X0103822Y0150491D01*
X0103679Y0150553D01*
X0103538Y0150619D01*
X0103399Y0150688D01*
X0103261Y0150761D01*
X0103125Y0150837D01*
X0102991Y0150917D01*
X0102859Y0151000D01*
X0102729Y0151086D01*
X0102602Y0151175D01*
X0102476Y0151268D01*
X0102353Y0151364D01*
X0102233Y0151462D01*
X0102114Y0151564D01*
X0101999Y0151668D01*
X0101886Y0151776D01*
X0101776Y0151886D01*
X0101668Y0151999D01*
X0101564Y0152114D01*
X0101462Y0152233D01*
X0101364Y0152353D01*
X0101268Y0152476D01*
X0101175Y0152602D01*
X0101086Y0152729D01*
X0101000Y0152859D01*
X0100917Y0152991D01*
X0100837Y0153125D01*
X0100761Y0153261D01*
X0100688Y0153399D01*
X0100619Y0153538D01*
X0100553Y0153679D01*
X0100491Y0153822D01*
X0100432Y0153967D01*
X0100377Y0154112D01*
X0100325Y0154259D01*
X0100278Y0154408D01*
X0100234Y0154557D01*
X0100193Y0154708D01*
X0100157Y0154859D01*
X0100124Y0155012D01*
X0100095Y0155165D01*
X0100070Y0155318D01*
X0100049Y0155473D01*
X0100031Y0155628D01*
X0100017Y0155783D01*
X0100008Y0155938D01*
X0100002Y0156094D01*
X0100000Y0156250D01*
X0100000Y0293750D01*
X0099998Y0293906D01*
X0099992Y0294062D01*
X0099983Y0294217D01*
X0099969Y0294372D01*
X0099951Y0294527D01*
X0099930Y0294682D01*
X0099905Y0294835D01*
X0099876Y0294988D01*
X0099843Y0295141D01*
X0099807Y0295292D01*
X0099766Y0295443D01*
X0099722Y0295592D01*
X0099675Y0295741D01*
X0099623Y0295888D01*
X0099568Y0296033D01*
X0099509Y0296178D01*
X0099447Y0296321D01*
X0099381Y0296462D01*
X0099312Y0296601D01*
X0099239Y0296739D01*
X0099163Y0296875D01*
X0099083Y0297009D01*
X0099000Y0297141D01*
X0098914Y0297271D01*
X0098825Y0297398D01*
X0098732Y0297524D01*
X0098636Y0297647D01*
X0098538Y0297767D01*
X0098436Y0297886D01*
X0098332Y0298001D01*
X0098224Y0298114D01*
X0098114Y0298224D01*
X0098001Y0298332D01*
X0097886Y0298436D01*
X0097767Y0298538D01*
X0097647Y0298636D01*
X0097524Y0298732D01*
X0097398Y0298825D01*
X0097271Y0298914D01*
X0097141Y0299000D01*
X0097009Y0299083D01*
X0096875Y0299163D01*
X0096739Y0299239D01*
X0096601Y0299312D01*
X0096462Y0299381D01*
X0096321Y0299447D01*
X0096178Y0299509D01*
X0096033Y0299568D01*
X0095888Y0299623D01*
X0095741Y0299675D01*
X0095592Y0299722D01*
X0095443Y0299766D01*
X0095292Y0299807D01*
X0095141Y0299843D01*
X0094988Y0299876D01*
X0094835Y0299905D01*
X0094682Y0299930D01*
X0094527Y0299951D01*
X0094372Y0299969D01*
X0094217Y0299983D01*
X0094062Y0299992D01*
X0093906Y0299998D01*
X0093750Y0300000D01*
X0090000Y0300000D01*
X0090000Y0206250D01*
X0089998Y0206094D01*
X0089992Y0205938D01*
X0089983Y0205783D01*
X0089969Y0205628D01*
X0089951Y0205473D01*
X0089930Y0205318D01*
X0089905Y0205165D01*
X0089876Y0205012D01*
X0089843Y0204859D01*
X0089807Y0204708D01*
X0089766Y0204557D01*
X0089722Y0204408D01*
X0089675Y0204259D01*
X0089623Y0204112D01*
X0089568Y0203967D01*
X0089509Y0203822D01*
X0089447Y0203679D01*
X0089381Y0203538D01*
X0089312Y0203399D01*
X0089239Y0203261D01*
X0089163Y0203125D01*
X0089083Y0202991D01*
X0089000Y0202859D01*
X0088914Y0202729D01*
X0088825Y0202602D01*
X0088732Y0202476D01*
X0088636Y0202353D01*
X0088538Y0202233D01*
X0088436Y0202114D01*
X0088332Y0201999D01*
X0088224Y0201886D01*
X0088114Y0201776D01*
X0088001Y0201668D01*
X0087886Y0201564D01*
X0087767Y0201462D01*
X0087647Y0201364D01*
X0087524Y0201268D01*
X0087398Y0201175D01*
X0087271Y0201086D01*
X0087141Y0201000D01*
X0087009Y0200917D01*
X0086875Y0200837D01*
X0086739Y0200761D01*
X0086601Y0200688D01*
X0086462Y0200619D01*
X0086321Y0200553D01*
X0086178Y0200491D01*
X0086033Y0200432D01*
X0085888Y0200377D01*
X0085741Y0200325D01*
X0085592Y0200278D01*
X0085443Y0200234D01*
X0085292Y0200193D01*
X0085141Y0200157D01*
X0084988Y0200124D01*
X0084835Y0200095D01*
X0084682Y0200070D01*
X0084527Y0200049D01*
X0084372Y0200031D01*
X0084217Y0200017D01*
X0084062Y0200008D01*
X0083906Y0200002D01*
X0083750Y0200000D01*
X0066250Y0200000D01*
X0066094Y0200002D01*
X0065938Y0200008D01*
X0065783Y0200017D01*
X0065628Y0200031D01*
X0065473Y0200049D01*
X0065318Y0200070D01*
X0065165Y0200095D01*
X0065012Y0200124D01*
X0064859Y0200157D01*
X0064708Y0200193D01*
X0064557Y0200234D01*
X0064408Y0200278D01*
X0064259Y0200325D01*
X0064112Y0200377D01*
X0063967Y0200432D01*
X0063822Y0200491D01*
X0063679Y0200553D01*
X0063538Y0200619D01*
X0063399Y0200688D01*
X0063261Y0200761D01*
X0063125Y0200837D01*
X0062991Y0200917D01*
X0062859Y0201000D01*
X0062729Y0201086D01*
X0062602Y0201175D01*
X0062476Y0201268D01*
X0062353Y0201364D01*
X0062233Y0201462D01*
X0062114Y0201564D01*
X0061999Y0201668D01*
X0061886Y0201776D01*
X0061776Y0201886D01*
X0061668Y0201999D01*
X0061564Y0202114D01*
X0061462Y0202233D01*
X0061364Y0202353D01*
X0061268Y0202476D01*
X0061175Y0202602D01*
X0061086Y0202729D01*
X0061000Y0202859D01*
X0060917Y0202991D01*
X0060837Y0203125D01*
X0060761Y0203261D01*
X0060688Y0203399D01*
X0060619Y0203538D01*
X0060553Y0203679D01*
X0060491Y0203822D01*
X0060432Y0203967D01*
X0060377Y0204112D01*
X0060325Y0204259D01*
X0060278Y0204408D01*
X0060234Y0204557D01*
X0060193Y0204708D01*
X0060157Y0204859D01*
X0060124Y0205012D01*
X0060095Y0205165D01*
X0060070Y0205318D01*
X0060049Y0205473D01*
X0060031Y0205628D01*
X0060017Y0205783D01*
X0060008Y0205938D01*
X0060002Y0206094D01*
X0060000Y0206250D01*
X0060000Y0300000D01*
X0056000Y0300000D01*
X0055848Y0299998D01*
X0055696Y0299992D01*
X0055544Y0299983D01*
X0055393Y0299969D01*
X0055242Y0299952D01*
X0055091Y0299931D01*
X0054941Y0299906D01*
X0054792Y0299877D01*
X0054644Y0299845D01*
X0054496Y0299808D01*
X0054349Y0299769D01*
X0054204Y0299725D01*
X0054059Y0299677D01*
X0053916Y0299627D01*
X0053774Y0299572D01*
X0053634Y0299514D01*
X0053495Y0299452D01*
X0053358Y0299387D01*
X0053222Y0299318D01*
X0053088Y0299246D01*
X0052956Y0299171D01*
X0052826Y0299092D01*
X0052698Y0299010D01*
X0052572Y0298925D01*
X0052449Y0298836D01*
X0052327Y0298745D01*
X0052208Y0298650D01*
X0052092Y0298553D01*
X0051978Y0298452D01*
X0051866Y0298349D01*
X0051757Y0298243D01*
X0051651Y0298134D01*
X0051548Y0298022D01*
X0051447Y0297908D01*
X0051350Y0297792D01*
X0051255Y0297673D01*
X0051164Y0297551D01*
X0051075Y0297428D01*
X0050990Y0297302D01*
X0050908Y0297174D01*
X0050829Y0297044D01*
X0050754Y0296912D01*
X0050682Y0296778D01*
X0050613Y0296642D01*
X0050548Y0296505D01*
X0050486Y0296366D01*
X0050428Y0296226D01*
X0050373Y0296084D01*
X0050323Y0295941D01*
X0050275Y0295796D01*
X0050231Y0295651D01*
X0050192Y0295504D01*
X0050155Y0295356D01*
X0050123Y0295208D01*
X0050094Y0295059D01*
X0050069Y0294909D01*
X0050048Y0294758D01*
X0050031Y0294607D01*
X0050017Y0294456D01*
X0050008Y0294304D01*
X0050002Y0294152D01*
X0050000Y0294000D01*
X0050000Y0156250D01*
X0049998Y0156094D01*
X0049992Y0155938D01*
X0049983Y0155783D01*
X0049969Y0155628D01*
X0049951Y0155473D01*
X0049930Y0155318D01*
X0049905Y0155165D01*
X0049876Y0155012D01*
X0049843Y0154859D01*
X0049807Y0154708D01*
X0049766Y0154557D01*
X0049722Y0154408D01*
X0049675Y0154259D01*
X0049623Y0154112D01*
X0049568Y0153967D01*
X0049509Y0153822D01*
X0049447Y0153679D01*
X0049381Y0153538D01*
X0049312Y0153399D01*
X0049239Y0153261D01*
X0049163Y0153125D01*
X0049083Y0152991D01*
X0049000Y0152859D01*
X0048914Y0152729D01*
X0048825Y0152602D01*
X0048732Y0152476D01*
X0048636Y0152353D01*
X0048538Y0152233D01*
X0048436Y0152114D01*
X0048332Y0151999D01*
X0048224Y0151886D01*
X0048114Y0151776D01*
X0048001Y0151668D01*
X0047886Y0151564D01*
X0047767Y0151462D01*
X0047647Y0151364D01*
X0047524Y0151268D01*
X0047398Y0151175D01*
X0047271Y0151086D01*
X0047141Y0151000D01*
X0047009Y0150917D01*
X0046875Y0150837D01*
X0046739Y0150761D01*
X0046601Y0150688D01*
X0046462Y0150619D01*
X0046321Y0150553D01*
X0046178Y0150491D01*
X0046033Y0150432D01*
X0045888Y0150377D01*
X0045741Y0150325D01*
X0045592Y0150278D01*
X0045443Y0150234D01*
X0045292Y0150193D01*
X0045141Y0150157D01*
X0044988Y0150124D01*
X0044835Y0150095D01*
X0044682Y0150070D01*
X0044527Y0150049D01*
X0044372Y0150031D01*
X0044217Y0150017D01*
X0044062Y0150008D01*
X0043906Y0150002D01*
X0043750Y0150000D01*
X0006250Y0150000D01*
X0006094Y0149998D01*
X0005938Y0149992D01*
X0005783Y0149983D01*
X0005628Y0149969D01*
X0005473Y0149951D01*
X0005318Y0149930D01*
X0005165Y0149905D01*
X0005012Y0149876D01*
X0004859Y0149843D01*
X0004708Y0149807D01*
X0004557Y0149766D01*
X0004408Y0149722D01*
X0004259Y0149675D01*
X0004112Y0149623D01*
X0003967Y0149568D01*
X0003822Y0149509D01*
X0003679Y0149447D01*
X0003538Y0149381D01*
X0003399Y0149312D01*
X0003261Y0149239D01*
X0003125Y0149163D01*
X0002991Y0149083D01*
X0002859Y0149000D01*
X0002729Y0148914D01*
X0002602Y0148825D01*
X0002476Y0148732D01*
X0002353Y0148636D01*
X0002233Y0148538D01*
X0002114Y0148436D01*
X0001999Y0148332D01*
X0001886Y0148224D01*
X0001776Y0148114D01*
X0001668Y0148001D01*
X0001564Y0147886D01*
X0001462Y0147767D01*
X0001364Y0147647D01*
X0001268Y0147524D01*
X0001175Y0147398D01*
X0001086Y0147271D01*
X0001000Y0147141D01*
X0000917Y0147009D01*
X0000837Y0146875D01*
X0000761Y0146739D01*
X0000688Y0146601D01*
X0000619Y0146462D01*
X0000553Y0146321D01*
X0000491Y0146178D01*
X0000432Y0146033D01*
X0000377Y0145888D01*
X0000325Y0145741D01*
X0000278Y0145592D01*
X0000234Y0145443D01*
X0000193Y0145292D01*
X0000157Y0145141D01*
X0000124Y0144988D01*
X0000095Y0144835D01*
X0000070Y0144682D01*
X0000049Y0144527D01*
X0000031Y0144372D01*
X0000017Y0144217D01*
X0000008Y0144062D01*
X0000002Y0143906D01*
X0000000Y0143750D01*
X0000000Y0006250D01*
X0000002Y0006094D01*
X0000008Y0005938D01*
X0000017Y0005783D01*
X0000031Y0005628D01*
X0000049Y0005473D01*
X0000070Y0005318D01*
X0000095Y0005165D01*
X0000124Y0005012D01*
X0000157Y0004859D01*
X0000193Y0004708D01*
X0000234Y0004557D01*
X0000278Y0004408D01*
X0000325Y0004259D01*
X0000377Y0004112D01*
X0000432Y0003967D01*
X0000491Y0003822D01*
X0000553Y0003679D01*
X0000619Y0003538D01*
X0000688Y0003399D01*
X0000761Y0003261D01*
X0000837Y0003125D01*
X0000917Y0002991D01*
X0001000Y0002859D01*
X0001086Y0002729D01*
X0001175Y0002602D01*
X0001268Y0002476D01*
X0001364Y0002353D01*
X0001462Y0002233D01*
X0001564Y0002114D01*
X0001668Y0001999D01*
X0001776Y0001886D01*
X0001886Y0001776D01*
X0001999Y0001668D01*
X0002114Y0001564D01*
X0002233Y0001462D01*
X0002353Y0001364D01*
X0002476Y0001268D01*
X0002602Y0001175D01*
X0002729Y0001086D01*
X0002859Y0001000D01*
X0002991Y0000917D01*
X0003125Y0000837D01*
X0003261Y0000761D01*
X0003399Y0000688D01*
X0003538Y0000619D01*
X0003679Y0000553D01*
X0003822Y0000491D01*
X0003967Y0000432D01*
X0004112Y0000377D01*
X0004259Y0000325D01*
X0004408Y0000278D01*
X0004557Y0000234D01*
X0004708Y0000193D01*
X0004859Y0000157D01*
X0005012Y0000124D01*
X0005165Y0000095D01*
X0005318Y0000070D01*
X0005473Y0000049D01*
X0005628Y0000031D01*
X0005783Y0000017D01*
X0005938Y0000008D01*
X0006094Y0000002D01*
X0006250Y0000000D01*
D11*
X0018819Y0124579D02*
X0018821Y0124648D01*
X0018827Y0124716D01*
X0018837Y0124784D01*
X0018851Y0124851D01*
X0018869Y0124918D01*
X0018890Y0124983D01*
X0018916Y0125047D01*
X0018945Y0125109D01*
X0018977Y0125169D01*
X0019013Y0125228D01*
X0019053Y0125284D01*
X0019095Y0125338D01*
X0019141Y0125389D01*
X0019190Y0125438D01*
X0019241Y0125484D01*
X0019295Y0125526D01*
X0019351Y0125566D01*
X0019409Y0125602D01*
X0019470Y0125634D01*
X0019532Y0125663D01*
X0019596Y0125689D01*
X0019661Y0125710D01*
X0019728Y0125728D01*
X0019795Y0125742D01*
X0019863Y0125752D01*
X0019931Y0125758D01*
X0020000Y0125760D01*
X0020069Y0125758D01*
X0020137Y0125752D01*
X0020205Y0125742D01*
X0020272Y0125728D01*
X0020339Y0125710D01*
X0020404Y0125689D01*
X0020468Y0125663D01*
X0020530Y0125634D01*
X0020590Y0125602D01*
X0020649Y0125566D01*
X0020705Y0125526D01*
X0020759Y0125484D01*
X0020810Y0125438D01*
X0020859Y0125389D01*
X0020905Y0125338D01*
X0020947Y0125284D01*
X0020987Y0125228D01*
X0021023Y0125169D01*
X0021055Y0125109D01*
X0021084Y0125047D01*
X0021110Y0124983D01*
X0021131Y0124918D01*
X0021149Y0124851D01*
X0021163Y0124784D01*
X0021173Y0124716D01*
X0021179Y0124648D01*
X0021181Y0124579D01*
X0021179Y0124510D01*
X0021173Y0124442D01*
X0021163Y0124374D01*
X0021149Y0124307D01*
X0021131Y0124240D01*
X0021110Y0124175D01*
X0021084Y0124111D01*
X0021055Y0124049D01*
X0021023Y0123988D01*
X0020987Y0123930D01*
X0020947Y0123874D01*
X0020905Y0123820D01*
X0020859Y0123769D01*
X0020810Y0123720D01*
X0020759Y0123674D01*
X0020705Y0123632D01*
X0020649Y0123592D01*
X0020591Y0123556D01*
X0020530Y0123524D01*
X0020468Y0123495D01*
X0020404Y0123469D01*
X0020339Y0123448D01*
X0020272Y0123430D01*
X0020205Y0123416D01*
X0020137Y0123406D01*
X0020069Y0123400D01*
X0020000Y0123398D01*
X0019931Y0123400D01*
X0019863Y0123406D01*
X0019795Y0123416D01*
X0019728Y0123430D01*
X0019661Y0123448D01*
X0019596Y0123469D01*
X0019532Y0123495D01*
X0019470Y0123524D01*
X0019409Y0123556D01*
X0019351Y0123592D01*
X0019295Y0123632D01*
X0019241Y0123674D01*
X0019190Y0123720D01*
X0019141Y0123769D01*
X0019095Y0123820D01*
X0019053Y0123874D01*
X0019013Y0123930D01*
X0018977Y0123988D01*
X0018945Y0124049D01*
X0018916Y0124111D01*
X0018890Y0124175D01*
X0018869Y0124240D01*
X0018851Y0124307D01*
X0018837Y0124374D01*
X0018827Y0124442D01*
X0018821Y0124510D01*
X0018819Y0124579D01*
X0128819Y0125579D02*
X0128821Y0125648D01*
X0128827Y0125716D01*
X0128837Y0125784D01*
X0128851Y0125851D01*
X0128869Y0125918D01*
X0128890Y0125983D01*
X0128916Y0126047D01*
X0128945Y0126109D01*
X0128977Y0126169D01*
X0129013Y0126228D01*
X0129053Y0126284D01*
X0129095Y0126338D01*
X0129141Y0126389D01*
X0129190Y0126438D01*
X0129241Y0126484D01*
X0129295Y0126526D01*
X0129351Y0126566D01*
X0129409Y0126602D01*
X0129470Y0126634D01*
X0129532Y0126663D01*
X0129596Y0126689D01*
X0129661Y0126710D01*
X0129728Y0126728D01*
X0129795Y0126742D01*
X0129863Y0126752D01*
X0129931Y0126758D01*
X0130000Y0126760D01*
X0130069Y0126758D01*
X0130137Y0126752D01*
X0130205Y0126742D01*
X0130272Y0126728D01*
X0130339Y0126710D01*
X0130404Y0126689D01*
X0130468Y0126663D01*
X0130530Y0126634D01*
X0130590Y0126602D01*
X0130649Y0126566D01*
X0130705Y0126526D01*
X0130759Y0126484D01*
X0130810Y0126438D01*
X0130859Y0126389D01*
X0130905Y0126338D01*
X0130947Y0126284D01*
X0130987Y0126228D01*
X0131023Y0126169D01*
X0131055Y0126109D01*
X0131084Y0126047D01*
X0131110Y0125983D01*
X0131131Y0125918D01*
X0131149Y0125851D01*
X0131163Y0125784D01*
X0131173Y0125716D01*
X0131179Y0125648D01*
X0131181Y0125579D01*
X0131179Y0125510D01*
X0131173Y0125442D01*
X0131163Y0125374D01*
X0131149Y0125307D01*
X0131131Y0125240D01*
X0131110Y0125175D01*
X0131084Y0125111D01*
X0131055Y0125049D01*
X0131023Y0124988D01*
X0130987Y0124930D01*
X0130947Y0124874D01*
X0130905Y0124820D01*
X0130859Y0124769D01*
X0130810Y0124720D01*
X0130759Y0124674D01*
X0130705Y0124632D01*
X0130649Y0124592D01*
X0130591Y0124556D01*
X0130530Y0124524D01*
X0130468Y0124495D01*
X0130404Y0124469D01*
X0130339Y0124448D01*
X0130272Y0124430D01*
X0130205Y0124416D01*
X0130137Y0124406D01*
X0130069Y0124400D01*
X0130000Y0124398D01*
X0129931Y0124400D01*
X0129863Y0124406D01*
X0129795Y0124416D01*
X0129728Y0124430D01*
X0129661Y0124448D01*
X0129596Y0124469D01*
X0129532Y0124495D01*
X0129470Y0124524D01*
X0129409Y0124556D01*
X0129351Y0124592D01*
X0129295Y0124632D01*
X0129241Y0124674D01*
X0129190Y0124720D01*
X0129141Y0124769D01*
X0129095Y0124820D01*
X0129053Y0124874D01*
X0129013Y0124930D01*
X0128977Y0124988D01*
X0128945Y0125049D01*
X0128916Y0125111D01*
X0128890Y0125175D01*
X0128869Y0125240D01*
X0128851Y0125307D01*
X0128837Y0125374D01*
X0128827Y0125442D01*
X0128821Y0125510D01*
X0128819Y0125579D01*
M02*
