G75*
%MOIN*%
%OFA0B0*%
%FSLAX25Y25*%
%IPPOS*%
%LPD*%
%AMOC8*
5,1,8,0,0,1.08239X$1,22.5*
%
%ADD10R,0.02756X0.03543*%
%ADD11R,0.03543X0.02756*%
%ADD12R,0.01969X0.00787*%
%ADD13R,0.00787X0.01969*%
%ADD14R,0.18110X0.18110*%
%ADD15R,0.04331X0.03937*%
%ADD16R,0.05118X0.05906*%
%ADD17C,0.00630*%
%ADD18C,0.00118*%
%ADD19R,0.03543X0.03937*%
%ADD20R,0.10000X0.04000*%
%ADD21R,0.01772X0.01772*%
%ADD22R,0.03740X0.03346*%
%ADD23R,0.08268X0.07874*%
%ADD24R,0.06299X0.07480*%
%ADD25R,0.01575X0.05315*%
%ADD26C,0.00787*%
%ADD27R,0.01181X0.03150*%
%ADD28R,0.07874X0.07480*%
%ADD29R,0.02362X0.01575*%
%ADD30C,0.01181*%
%ADD31R,0.00394X0.00394*%
D10*
X0088541Y0071550D03*
X0093659Y0071550D03*
G36*
X0101233Y0068654D02*
X0103182Y0066705D01*
X0100679Y0064202D01*
X0098730Y0066151D01*
X0101233Y0068654D01*
G37*
G36*
X0097614Y0072273D02*
X0099563Y0070324D01*
X0097060Y0067821D01*
X0095111Y0069770D01*
X0097614Y0072273D01*
G37*
X0043241Y0084350D03*
X0048359Y0084350D03*
X0078559Y0039333D03*
X0073441Y0039333D03*
X0076559Y0032750D03*
X0071441Y0032750D03*
X0121559Y0111500D03*
X0116441Y0111500D03*
D11*
X0085000Y0076709D03*
X0085000Y0071591D03*
X0109400Y0091009D03*
X0109400Y0085891D03*
X0114300Y0091009D03*
X0114300Y0085891D03*
X0104400Y0085891D03*
X0104400Y0091009D03*
X0086400Y0091609D03*
X0086400Y0086491D03*
X0057350Y0100259D03*
X0057350Y0095141D03*
X0052550Y0100259D03*
X0052550Y0095141D03*
X0059700Y0052209D03*
X0059700Y0047091D03*
X0050600Y0052209D03*
X0050600Y0047091D03*
X0055100Y0052209D03*
X0055100Y0047091D03*
X0030000Y0050691D03*
X0030000Y0055809D03*
X0070550Y0095191D03*
X0070550Y0100309D03*
X0061650Y0095191D03*
X0061650Y0100309D03*
X0065950Y0095241D03*
X0065950Y0100359D03*
X0102500Y0062809D03*
X0102500Y0057691D03*
X0103100Y0075309D03*
X0103100Y0070191D03*
X0084500Y0053309D03*
X0084500Y0048191D03*
D12*
X0054180Y0082811D03*
X0054180Y0081237D03*
X0054180Y0079662D03*
X0054180Y0078087D03*
X0054180Y0076512D03*
X0054180Y0074937D03*
X0054180Y0073363D03*
X0054180Y0071788D03*
X0054180Y0070213D03*
X0054180Y0068638D03*
X0054180Y0067063D03*
X0054180Y0065489D03*
X0076620Y0065489D03*
X0076620Y0067063D03*
X0076620Y0068638D03*
X0076620Y0070213D03*
X0076620Y0071788D03*
X0076620Y0073363D03*
X0076620Y0074937D03*
X0076620Y0076512D03*
X0076620Y0078087D03*
X0076620Y0079662D03*
X0076620Y0081237D03*
X0076620Y0082811D03*
D13*
X0056739Y0062930D03*
X0058313Y0062930D03*
X0059888Y0062930D03*
X0061463Y0062930D03*
X0063038Y0062930D03*
X0064613Y0062930D03*
X0066187Y0062930D03*
X0067762Y0062930D03*
X0069337Y0062930D03*
X0070912Y0062930D03*
X0072487Y0062930D03*
X0074061Y0062930D03*
X0074061Y0085370D03*
X0072487Y0085370D03*
X0070912Y0085370D03*
X0069337Y0085370D03*
X0067762Y0085370D03*
X0066187Y0085370D03*
X0064613Y0085370D03*
X0063038Y0085370D03*
X0061463Y0085370D03*
X0059888Y0085370D03*
X0058313Y0085370D03*
X0056739Y0085370D03*
D14*
X0065400Y0074150D03*
D15*
X0045850Y0094654D03*
X0045850Y0101346D03*
D16*
X0077640Y0027050D03*
X0070160Y0027050D03*
D17*
X0063209Y0037384D02*
X0063209Y0031716D01*
X0054391Y0031716D01*
X0054391Y0037384D01*
X0063209Y0037384D01*
X0063209Y0032345D02*
X0054391Y0032345D01*
X0054391Y0032974D02*
X0063209Y0032974D01*
X0063209Y0033603D02*
X0054391Y0033603D01*
X0054391Y0034232D02*
X0063209Y0034232D01*
X0063209Y0034861D02*
X0054391Y0034861D01*
X0054391Y0035490D02*
X0063209Y0035490D01*
X0063209Y0036119D02*
X0054391Y0036119D01*
X0054391Y0036748D02*
X0063209Y0036748D01*
X0063209Y0037377D02*
X0054391Y0037377D01*
D18*
X0055492Y0029569D02*
X0055492Y0027719D01*
X0054430Y0027719D01*
X0054430Y0029569D01*
X0055492Y0029569D01*
X0055492Y0027836D02*
X0054430Y0027836D01*
X0054430Y0027953D02*
X0055492Y0027953D01*
X0055492Y0028070D02*
X0054430Y0028070D01*
X0054430Y0028187D02*
X0055492Y0028187D01*
X0055492Y0028304D02*
X0054430Y0028304D01*
X0054430Y0028421D02*
X0055492Y0028421D01*
X0055492Y0028538D02*
X0054430Y0028538D01*
X0054430Y0028655D02*
X0055492Y0028655D01*
X0055492Y0028772D02*
X0054430Y0028772D01*
X0054430Y0028889D02*
X0055492Y0028889D01*
X0055492Y0029006D02*
X0054430Y0029006D01*
X0054430Y0029123D02*
X0055492Y0029123D01*
X0055492Y0029240D02*
X0054430Y0029240D01*
X0054430Y0029357D02*
X0055492Y0029357D01*
X0055492Y0029474D02*
X0054430Y0029474D01*
X0058051Y0029569D02*
X0058051Y0027719D01*
X0056989Y0027719D01*
X0056989Y0029569D01*
X0058051Y0029569D01*
X0058051Y0027836D02*
X0056989Y0027836D01*
X0056989Y0027953D02*
X0058051Y0027953D01*
X0058051Y0028070D02*
X0056989Y0028070D01*
X0056989Y0028187D02*
X0058051Y0028187D01*
X0058051Y0028304D02*
X0056989Y0028304D01*
X0056989Y0028421D02*
X0058051Y0028421D01*
X0058051Y0028538D02*
X0056989Y0028538D01*
X0056989Y0028655D02*
X0058051Y0028655D01*
X0058051Y0028772D02*
X0056989Y0028772D01*
X0056989Y0028889D02*
X0058051Y0028889D01*
X0058051Y0029006D02*
X0056989Y0029006D01*
X0056989Y0029123D02*
X0058051Y0029123D01*
X0058051Y0029240D02*
X0056989Y0029240D01*
X0056989Y0029357D02*
X0058051Y0029357D01*
X0058051Y0029474D02*
X0056989Y0029474D01*
X0060611Y0029569D02*
X0060611Y0027719D01*
X0059549Y0027719D01*
X0059549Y0029569D01*
X0060611Y0029569D01*
X0060611Y0027836D02*
X0059549Y0027836D01*
X0059549Y0027953D02*
X0060611Y0027953D01*
X0060611Y0028070D02*
X0059549Y0028070D01*
X0059549Y0028187D02*
X0060611Y0028187D01*
X0060611Y0028304D02*
X0059549Y0028304D01*
X0059549Y0028421D02*
X0060611Y0028421D01*
X0060611Y0028538D02*
X0059549Y0028538D01*
X0059549Y0028655D02*
X0060611Y0028655D01*
X0060611Y0028772D02*
X0059549Y0028772D01*
X0059549Y0028889D02*
X0060611Y0028889D01*
X0060611Y0029006D02*
X0059549Y0029006D01*
X0059549Y0029123D02*
X0060611Y0029123D01*
X0060611Y0029240D02*
X0059549Y0029240D01*
X0059549Y0029357D02*
X0060611Y0029357D01*
X0060611Y0029474D02*
X0059549Y0029474D01*
X0063170Y0029569D02*
X0063170Y0027719D01*
X0062108Y0027719D01*
X0062108Y0029569D01*
X0063170Y0029569D01*
X0063170Y0027836D02*
X0062108Y0027836D01*
X0062108Y0027953D02*
X0063170Y0027953D01*
X0063170Y0028070D02*
X0062108Y0028070D01*
X0062108Y0028187D02*
X0063170Y0028187D01*
X0063170Y0028304D02*
X0062108Y0028304D01*
X0062108Y0028421D02*
X0063170Y0028421D01*
X0063170Y0028538D02*
X0062108Y0028538D01*
X0062108Y0028655D02*
X0063170Y0028655D01*
X0063170Y0028772D02*
X0062108Y0028772D01*
X0062108Y0028889D02*
X0063170Y0028889D01*
X0063170Y0029006D02*
X0062108Y0029006D01*
X0062108Y0029123D02*
X0063170Y0029123D01*
X0063170Y0029240D02*
X0062108Y0029240D01*
X0062108Y0029357D02*
X0063170Y0029357D01*
X0063170Y0029474D02*
X0062108Y0029474D01*
X0063170Y0041381D02*
X0063170Y0039531D01*
X0062108Y0039531D01*
X0062108Y0041381D01*
X0063170Y0041381D01*
X0063170Y0039648D02*
X0062108Y0039648D01*
X0062108Y0039765D02*
X0063170Y0039765D01*
X0063170Y0039882D02*
X0062108Y0039882D01*
X0062108Y0039999D02*
X0063170Y0039999D01*
X0063170Y0040116D02*
X0062108Y0040116D01*
X0062108Y0040233D02*
X0063170Y0040233D01*
X0063170Y0040350D02*
X0062108Y0040350D01*
X0062108Y0040467D02*
X0063170Y0040467D01*
X0063170Y0040584D02*
X0062108Y0040584D01*
X0062108Y0040701D02*
X0063170Y0040701D01*
X0063170Y0040818D02*
X0062108Y0040818D01*
X0062108Y0040935D02*
X0063170Y0040935D01*
X0063170Y0041052D02*
X0062108Y0041052D01*
X0062108Y0041169D02*
X0063170Y0041169D01*
X0063170Y0041286D02*
X0062108Y0041286D01*
X0060611Y0041381D02*
X0060611Y0039531D01*
X0059549Y0039531D01*
X0059549Y0041381D01*
X0060611Y0041381D01*
X0060611Y0039648D02*
X0059549Y0039648D01*
X0059549Y0039765D02*
X0060611Y0039765D01*
X0060611Y0039882D02*
X0059549Y0039882D01*
X0059549Y0039999D02*
X0060611Y0039999D01*
X0060611Y0040116D02*
X0059549Y0040116D01*
X0059549Y0040233D02*
X0060611Y0040233D01*
X0060611Y0040350D02*
X0059549Y0040350D01*
X0059549Y0040467D02*
X0060611Y0040467D01*
X0060611Y0040584D02*
X0059549Y0040584D01*
X0059549Y0040701D02*
X0060611Y0040701D01*
X0060611Y0040818D02*
X0059549Y0040818D01*
X0059549Y0040935D02*
X0060611Y0040935D01*
X0060611Y0041052D02*
X0059549Y0041052D01*
X0059549Y0041169D02*
X0060611Y0041169D01*
X0060611Y0041286D02*
X0059549Y0041286D01*
X0058051Y0041381D02*
X0058051Y0039531D01*
X0056989Y0039531D01*
X0056989Y0041381D01*
X0058051Y0041381D01*
X0058051Y0039648D02*
X0056989Y0039648D01*
X0056989Y0039765D02*
X0058051Y0039765D01*
X0058051Y0039882D02*
X0056989Y0039882D01*
X0056989Y0039999D02*
X0058051Y0039999D01*
X0058051Y0040116D02*
X0056989Y0040116D01*
X0056989Y0040233D02*
X0058051Y0040233D01*
X0058051Y0040350D02*
X0056989Y0040350D01*
X0056989Y0040467D02*
X0058051Y0040467D01*
X0058051Y0040584D02*
X0056989Y0040584D01*
X0056989Y0040701D02*
X0058051Y0040701D01*
X0058051Y0040818D02*
X0056989Y0040818D01*
X0056989Y0040935D02*
X0058051Y0040935D01*
X0058051Y0041052D02*
X0056989Y0041052D01*
X0056989Y0041169D02*
X0058051Y0041169D01*
X0058051Y0041286D02*
X0056989Y0041286D01*
X0055492Y0041381D02*
X0055492Y0039531D01*
X0054430Y0039531D01*
X0054430Y0041381D01*
X0055492Y0041381D01*
X0055492Y0039648D02*
X0054430Y0039648D01*
X0054430Y0039765D02*
X0055492Y0039765D01*
X0055492Y0039882D02*
X0054430Y0039882D01*
X0054430Y0039999D02*
X0055492Y0039999D01*
X0055492Y0040116D02*
X0054430Y0040116D01*
X0054430Y0040233D02*
X0055492Y0040233D01*
X0055492Y0040350D02*
X0054430Y0040350D01*
X0054430Y0040467D02*
X0055492Y0040467D01*
X0055492Y0040584D02*
X0054430Y0040584D01*
X0054430Y0040701D02*
X0055492Y0040701D01*
X0055492Y0040818D02*
X0054430Y0040818D01*
X0054430Y0040935D02*
X0055492Y0040935D01*
X0055492Y0041052D02*
X0054430Y0041052D01*
X0054430Y0041169D02*
X0055492Y0041169D01*
X0055492Y0041286D02*
X0054430Y0041286D01*
D19*
X0035147Y0046641D03*
X0041053Y0046641D03*
X0041053Y0058059D03*
X0035147Y0058059D03*
D20*
X0102500Y0054250D03*
X0102500Y0028250D03*
D21*
X0060827Y0110223D03*
X0064173Y0110223D03*
X0064173Y0106877D03*
X0060827Y0106877D03*
D22*
X0092346Y0086486D03*
X0098054Y0086486D03*
X0098054Y0091014D03*
X0092346Y0091014D03*
D23*
X0062795Y0014852D03*
X0087205Y0014852D03*
D24*
X0058858Y0005600D03*
X0091142Y0005600D03*
D25*
X0069882Y0016131D03*
X0072441Y0016131D03*
X0075000Y0016131D03*
X0077559Y0016131D03*
X0080118Y0016131D03*
D26*
X0069882Y0054687D02*
X0069882Y0054687D01*
X0069488Y0054687D01*
X0069488Y0054687D01*
X0069882Y0054687D01*
X0069882Y0053112D02*
X0069882Y0053112D01*
X0069488Y0053112D01*
X0069488Y0053112D01*
X0069882Y0053112D01*
X0069882Y0051537D02*
X0069882Y0051537D01*
X0069488Y0051537D01*
X0069488Y0051537D01*
X0069882Y0051537D01*
X0069882Y0049963D02*
X0069882Y0049963D01*
X0069488Y0049963D01*
X0069488Y0049963D01*
X0069882Y0049963D01*
X0069882Y0048388D02*
X0069882Y0048388D01*
X0069488Y0048388D01*
X0069488Y0048388D01*
X0069882Y0048388D01*
X0069882Y0046813D02*
X0069882Y0046813D01*
X0069488Y0046813D01*
X0069488Y0046813D01*
X0069882Y0046813D01*
X0071063Y0045238D02*
X0071063Y0045238D01*
X0071063Y0045632D01*
X0071063Y0045632D01*
X0071063Y0045238D01*
X0072638Y0045238D02*
X0072638Y0045238D01*
X0072638Y0045632D01*
X0072638Y0045632D01*
X0072638Y0045238D01*
X0074213Y0045238D02*
X0074213Y0045238D01*
X0074213Y0045632D01*
X0074213Y0045632D01*
X0074213Y0045238D01*
X0075787Y0045238D02*
X0075787Y0045238D01*
X0075787Y0045632D01*
X0075787Y0045632D01*
X0075787Y0045238D01*
X0077362Y0045238D02*
X0077362Y0045238D01*
X0077362Y0045632D01*
X0077362Y0045632D01*
X0077362Y0045238D01*
X0078937Y0045238D02*
X0078937Y0045238D01*
X0078937Y0045632D01*
X0078937Y0045632D01*
X0078937Y0045238D01*
X0080512Y0046813D02*
X0080512Y0046813D01*
X0080118Y0046813D01*
X0080118Y0046813D01*
X0080512Y0046813D01*
X0080512Y0048388D02*
X0080512Y0048388D01*
X0080118Y0048388D01*
X0080118Y0048388D01*
X0080512Y0048388D01*
X0080512Y0049963D02*
X0080512Y0049963D01*
X0080118Y0049963D01*
X0080118Y0049963D01*
X0080512Y0049963D01*
X0080512Y0051537D02*
X0080512Y0051537D01*
X0080118Y0051537D01*
X0080118Y0051537D01*
X0080512Y0051537D01*
X0080512Y0053112D02*
X0080512Y0053112D01*
X0080118Y0053112D01*
X0080118Y0053112D01*
X0080512Y0053112D01*
X0080512Y0054687D02*
X0080512Y0054687D01*
X0080118Y0054687D01*
X0080118Y0054687D01*
X0080512Y0054687D01*
X0078937Y0056262D02*
X0078937Y0056262D01*
X0078937Y0055868D01*
X0078937Y0055868D01*
X0078937Y0056262D01*
X0077362Y0055868D02*
X0077362Y0055868D01*
X0077362Y0056262D01*
X0077362Y0056262D01*
X0077362Y0055868D01*
X0075787Y0055868D02*
X0075787Y0055868D01*
X0075787Y0056262D01*
X0075787Y0056262D01*
X0075787Y0055868D01*
X0074213Y0055868D02*
X0074213Y0055868D01*
X0074213Y0056262D01*
X0074213Y0056262D01*
X0074213Y0055868D01*
X0072638Y0055868D02*
X0072638Y0055868D01*
X0072638Y0056262D01*
X0072638Y0056262D01*
X0072638Y0055868D01*
X0071063Y0055868D02*
X0071063Y0055868D01*
X0071063Y0056262D01*
X0071063Y0056262D01*
X0071063Y0055868D01*
D27*
X0081890Y0165157D03*
X0079921Y0165157D03*
X0077953Y0165157D03*
X0075984Y0165157D03*
X0074016Y0165157D03*
X0072047Y0165157D03*
X0070079Y0165157D03*
X0068110Y0165157D03*
D28*
X0058465Y0171457D03*
X0091535Y0171457D03*
D29*
X0125768Y0120559D03*
X0125768Y0118000D03*
X0125768Y0115441D03*
X0134232Y0115441D03*
X0134232Y0118000D03*
X0134232Y0120559D03*
D30*
X0127361Y0125559D02*
X0127356Y0125654D01*
X0127354Y0125749D01*
X0127356Y0125843D01*
X0127362Y0125938D01*
X0127372Y0126032D01*
X0127385Y0126126D01*
X0127403Y0126219D01*
X0127424Y0126311D01*
X0127449Y0126403D01*
X0127478Y0126493D01*
X0127510Y0126582D01*
X0127546Y0126669D01*
X0127586Y0126756D01*
X0127629Y0126840D01*
X0127675Y0126923D01*
X0127725Y0127003D01*
X0127778Y0127082D01*
X0127834Y0127158D01*
X0127893Y0127232D01*
X0127955Y0127303D01*
X0128020Y0127372D01*
X0128088Y0127439D01*
X0128158Y0127502D01*
X0128231Y0127562D01*
X0128307Y0127620D01*
X0128384Y0127674D01*
X0128464Y0127725D01*
X0127834Y0124063D02*
X0127885Y0123983D01*
X0127939Y0123906D01*
X0127997Y0123830D01*
X0128057Y0123757D01*
X0128120Y0123687D01*
X0128187Y0123619D01*
X0128256Y0123554D01*
X0128327Y0123492D01*
X0128401Y0123433D01*
X0128477Y0123377D01*
X0128556Y0123324D01*
X0128636Y0123274D01*
X0128719Y0123228D01*
X0128803Y0123185D01*
X0128890Y0123145D01*
X0128977Y0123109D01*
X0129066Y0123077D01*
X0129156Y0123048D01*
X0129248Y0123023D01*
X0129340Y0123002D01*
X0129433Y0122984D01*
X0129527Y0122971D01*
X0129621Y0122961D01*
X0129716Y0122955D01*
X0129810Y0122953D01*
X0129905Y0122955D01*
X0130000Y0122960D01*
X0132126Y0127095D02*
X0132075Y0127175D01*
X0132021Y0127252D01*
X0131963Y0127328D01*
X0131903Y0127401D01*
X0131840Y0127471D01*
X0131773Y0127539D01*
X0131704Y0127604D01*
X0131633Y0127666D01*
X0131559Y0127725D01*
X0131483Y0127781D01*
X0131404Y0127834D01*
X0131324Y0127884D01*
X0131241Y0127930D01*
X0131157Y0127973D01*
X0131070Y0128013D01*
X0130983Y0128049D01*
X0130894Y0128081D01*
X0130804Y0128110D01*
X0130712Y0128135D01*
X0130620Y0128156D01*
X0130527Y0128174D01*
X0130433Y0128187D01*
X0130339Y0128197D01*
X0130244Y0128203D01*
X0130150Y0128205D01*
X0130055Y0128203D01*
X0129960Y0128198D01*
X0132639Y0125599D02*
X0132644Y0125504D01*
X0132646Y0125409D01*
X0132644Y0125315D01*
X0132638Y0125220D01*
X0132628Y0125126D01*
X0132615Y0125032D01*
X0132597Y0124939D01*
X0132576Y0124847D01*
X0132551Y0124755D01*
X0132522Y0124665D01*
X0132490Y0124576D01*
X0132454Y0124489D01*
X0132414Y0124402D01*
X0132371Y0124318D01*
X0132325Y0124235D01*
X0132275Y0124155D01*
X0132222Y0124076D01*
X0132166Y0124000D01*
X0132107Y0123926D01*
X0132045Y0123855D01*
X0131980Y0123786D01*
X0131912Y0123719D01*
X0131842Y0123656D01*
X0131769Y0123596D01*
X0131693Y0123538D01*
X0131616Y0123484D01*
X0131536Y0123433D01*
D31*
X0130000Y0128236D03*
X0130000Y0122724D03*
X0132756Y0125480D03*
X0127244Y0125874D03*
M02*
