G75*
%MOIN*%
%OFA0B0*%
%FSLAX25Y25*%
%IPPOS*%
%LPD*%
%AMOC8*
5,1,8,0,0,1.08239X$1,22.5*
%
%ADD10C,0.00200*%
%ADD11C,0.00400*%
%ADD12C,0.00500*%
%ADD13C,0.00800*%
%ADD14C,0.00100*%
%ADD15C,0.00197*%
%ADD16C,0.00394*%
D10*
X0085301Y0073452D02*
X0096899Y0073452D01*
X0096899Y0069648D01*
X0085301Y0069648D01*
X0085301Y0073452D01*
X0086902Y0079949D02*
X0086902Y0068351D01*
X0083098Y0068351D01*
X0083098Y0079949D01*
X0086902Y0079949D01*
X0101902Y0062793D02*
X0093701Y0070994D01*
X0096390Y0073683D01*
X0104592Y0065482D01*
X0101902Y0062793D01*
X0111302Y0094249D02*
X0111302Y0082651D01*
X0107498Y0082651D01*
X0107498Y0094249D01*
X0111302Y0094249D01*
X0116202Y0094249D02*
X0116202Y0082651D01*
X0112398Y0082651D01*
X0112398Y0094249D01*
X0116202Y0094249D01*
X0102498Y0082651D02*
X0102498Y0094249D01*
X0106302Y0094249D01*
X0106302Y0082651D01*
X0102498Y0082651D01*
X0088302Y0094849D02*
X0088302Y0083251D01*
X0084498Y0083251D01*
X0084498Y0094849D01*
X0088302Y0094849D01*
X0059252Y0103499D02*
X0059252Y0091901D01*
X0055448Y0091901D01*
X0055448Y0103499D01*
X0059252Y0103499D01*
X0040001Y0086252D02*
X0051599Y0086252D01*
X0051599Y0082448D01*
X0040001Y0082448D01*
X0040001Y0086252D01*
X0041980Y0092201D02*
X0041980Y0103799D01*
X0049720Y0103799D01*
X0049720Y0092201D01*
X0041980Y0092201D01*
X0054452Y0103499D02*
X0054452Y0091901D01*
X0050648Y0091901D01*
X0050648Y0103499D01*
X0054452Y0103499D01*
X0061602Y0055449D02*
X0061602Y0043851D01*
X0057798Y0043851D01*
X0057798Y0055449D01*
X0061602Y0055449D01*
X0066132Y0023180D02*
X0081668Y0023180D01*
X0066132Y0030920D02*
X0081668Y0030920D01*
X0081668Y0023180D01*
X0066132Y0023180D02*
X0066132Y0030920D01*
X0052502Y0055449D02*
X0052502Y0043851D01*
X0048698Y0043851D01*
X0048698Y0055449D01*
X0052502Y0055449D01*
X0057002Y0055449D02*
X0057002Y0043851D01*
X0053198Y0043851D01*
X0053198Y0055449D01*
X0057002Y0055449D01*
X0028098Y0047451D02*
X0028098Y0059049D01*
X0031902Y0059049D01*
X0031902Y0047451D01*
X0028098Y0047451D01*
X0068648Y0091951D02*
X0068648Y0103549D01*
X0072452Y0103549D01*
X0072452Y0091951D01*
X0068648Y0091951D01*
X0059748Y0091951D02*
X0059748Y0103549D01*
X0063552Y0103549D01*
X0063552Y0091951D01*
X0059748Y0091951D01*
X0064048Y0092001D02*
X0064048Y0103599D01*
X0067852Y0103599D01*
X0067852Y0092001D01*
X0064048Y0092001D01*
X0092044Y0093968D02*
X0090576Y0093968D01*
X0092044Y0095436D01*
X0092044Y0095803D01*
X0091677Y0096170D01*
X0090943Y0096170D01*
X0090576Y0095803D01*
X0094253Y0096170D02*
X0093519Y0095803D01*
X0092785Y0095069D01*
X0092785Y0094335D01*
X0093152Y0093968D01*
X0093886Y0093968D01*
X0094253Y0094335D01*
X0094253Y0094702D01*
X0093886Y0095069D01*
X0092785Y0095069D01*
X0094995Y0094335D02*
X0094995Y0095803D01*
X0095362Y0096170D01*
X0096096Y0096170D01*
X0096463Y0095803D01*
X0096463Y0094335D01*
X0096096Y0093968D01*
X0095362Y0093968D01*
X0094995Y0094335D01*
X0096463Y0095803D01*
X0097205Y0094335D02*
X0097205Y0095803D01*
X0097572Y0096170D01*
X0098306Y0096170D01*
X0098673Y0095803D01*
X0098673Y0094335D01*
X0098306Y0093968D01*
X0097572Y0093968D01*
X0097205Y0094335D01*
X0098673Y0095803D01*
X0099415Y0093968D02*
X0099415Y0096170D01*
X0100149Y0095436D01*
X0100883Y0096170D01*
X0100883Y0093968D01*
X0092044Y0083572D02*
X0090576Y0083572D01*
X0090576Y0081370D01*
X0092044Y0081370D01*
X0091310Y0082471D02*
X0090576Y0082471D01*
X0094253Y0083572D02*
X0093519Y0083205D01*
X0092785Y0082471D01*
X0092785Y0081737D01*
X0093152Y0081370D01*
X0093886Y0081370D01*
X0094253Y0081737D01*
X0094253Y0082104D01*
X0093886Y0082471D01*
X0092785Y0082471D01*
X0096463Y0083572D02*
X0095729Y0083205D01*
X0094995Y0082471D01*
X0094995Y0081737D01*
X0095362Y0081370D01*
X0096096Y0081370D01*
X0096463Y0081737D01*
X0096463Y0082104D01*
X0096096Y0082471D01*
X0094995Y0082471D01*
X0097205Y0081370D02*
X0097205Y0083572D01*
X0098306Y0083572D01*
X0098673Y0083205D01*
X0098673Y0082471D01*
X0098306Y0082104D01*
X0097205Y0082104D01*
X0097939Y0082104D02*
X0098673Y0081370D01*
X0099415Y0081370D02*
X0099415Y0082838D01*
X0100149Y0083572D01*
X0100883Y0082838D01*
X0100883Y0081370D01*
X0100883Y0082471D02*
X0099415Y0082471D01*
X0104402Y0066049D02*
X0104402Y0054451D01*
X0100598Y0054451D01*
X0100598Y0066049D01*
X0104402Y0066049D01*
X0105002Y0078549D02*
X0105002Y0066951D01*
X0101198Y0066951D01*
X0101198Y0078549D01*
X0105002Y0078549D01*
X0086402Y0056549D02*
X0086402Y0044951D01*
X0082598Y0044951D01*
X0082598Y0056549D01*
X0086402Y0056549D01*
X0081799Y0037431D02*
X0070201Y0037431D01*
X0070201Y0041234D01*
X0081799Y0041234D01*
X0081799Y0037431D01*
X0079799Y0030848D02*
X0068201Y0030848D01*
X0068201Y0034652D01*
X0079799Y0034652D01*
X0079799Y0030848D01*
X0124799Y0109598D02*
X0113201Y0109598D01*
X0113201Y0113402D01*
X0124799Y0113402D01*
X0124799Y0109598D01*
D11*
X0089400Y0078954D02*
X0089400Y0074350D01*
X0092469Y0074350D01*
X0094004Y0077419D02*
X0095539Y0078954D01*
X0095539Y0074350D01*
X0097073Y0074350D02*
X0094004Y0074350D01*
X0084069Y0082587D02*
X0083302Y0083354D01*
X0081767Y0083354D01*
X0081000Y0082587D01*
X0081000Y0079517D01*
X0081767Y0078750D01*
X0083302Y0078750D01*
X0084069Y0079517D01*
X0085604Y0082587D02*
X0086371Y0083354D01*
X0087906Y0083354D01*
X0088673Y0082587D01*
X0088673Y0081819D01*
X0087906Y0081052D01*
X0087139Y0081052D01*
X0087906Y0081052D02*
X0088673Y0080285D01*
X0088673Y0079517D01*
X0087906Y0078750D01*
X0086371Y0078750D01*
X0085604Y0079517D01*
X0089405Y0060604D02*
X0088320Y0060604D01*
X0087235Y0059519D01*
X0087235Y0058434D01*
X0089405Y0056263D01*
X0090490Y0056263D01*
X0091576Y0057349D01*
X0091576Y0058434D01*
X0091033Y0061147D02*
X0091033Y0063317D01*
X0094288Y0060061D01*
X0093203Y0058976D02*
X0095374Y0061147D01*
X0093746Y0064945D02*
X0093746Y0066030D01*
X0094831Y0067115D01*
X0095916Y0067115D01*
X0096459Y0066572D01*
X0096459Y0065487D01*
X0095916Y0064945D01*
X0096459Y0065487D02*
X0097544Y0065487D01*
X0098086Y0064945D01*
X0098086Y0063859D01*
X0097001Y0062774D01*
X0095916Y0062774D01*
X0111069Y0099287D02*
X0110302Y0100054D01*
X0108767Y0100054D01*
X0108000Y0099287D01*
X0108000Y0096217D01*
X0108767Y0095450D01*
X0110302Y0095450D01*
X0111069Y0096217D01*
X0112604Y0100054D02*
X0115673Y0100054D01*
X0115673Y0099287D01*
X0112604Y0096217D01*
X0112604Y0095450D01*
X0119669Y0089587D02*
X0118902Y0090354D01*
X0117367Y0090354D01*
X0116600Y0089587D01*
X0116600Y0086517D01*
X0117367Y0085750D01*
X0118902Y0085750D01*
X0119669Y0086517D01*
X0124273Y0090354D02*
X0122739Y0089587D01*
X0121204Y0088052D01*
X0121204Y0086517D01*
X0121971Y0085750D01*
X0123506Y0085750D01*
X0124273Y0086517D01*
X0124273Y0087285D01*
X0123506Y0088052D01*
X0121204Y0088052D01*
X0103469Y0098987D02*
X0102702Y0099754D01*
X0101167Y0099754D01*
X0100400Y0098987D01*
X0100400Y0095917D01*
X0101167Y0095150D01*
X0102702Y0095150D01*
X0103469Y0095917D01*
X0105004Y0098219D02*
X0106539Y0099754D01*
X0106539Y0095150D01*
X0108073Y0095150D02*
X0105004Y0095150D01*
X0086469Y0098237D02*
X0085702Y0099004D01*
X0084167Y0099004D01*
X0083400Y0098237D01*
X0083400Y0095167D01*
X0084167Y0094400D01*
X0085702Y0094400D01*
X0086469Y0095167D01*
X0091073Y0094400D02*
X0088004Y0094400D01*
X0091073Y0097469D01*
X0091073Y0098237D01*
X0090306Y0099004D01*
X0088771Y0099004D01*
X0088004Y0098237D01*
X0051969Y0091237D02*
X0051202Y0092004D01*
X0049667Y0092004D01*
X0048900Y0091237D01*
X0048900Y0088167D01*
X0049667Y0087400D01*
X0051202Y0087400D01*
X0051969Y0088167D01*
X0053504Y0090469D02*
X0055039Y0092004D01*
X0055039Y0087400D01*
X0056573Y0087400D02*
X0053504Y0087400D01*
X0058108Y0088167D02*
X0058108Y0091237D01*
X0058875Y0092004D01*
X0060410Y0092004D01*
X0061177Y0091237D01*
X0061177Y0088167D01*
X0060410Y0087400D01*
X0058875Y0087400D01*
X0058108Y0088167D01*
X0061177Y0091237D01*
X0040219Y0090787D02*
X0039452Y0091554D01*
X0037917Y0091554D01*
X0037150Y0090787D01*
X0037150Y0087717D01*
X0037917Y0086950D01*
X0039452Y0086950D01*
X0040219Y0087717D01*
X0044056Y0086950D02*
X0044056Y0091554D01*
X0041754Y0089252D01*
X0044823Y0089252D01*
X0078900Y0062050D02*
X0080435Y0062050D01*
X0079667Y0062050D02*
X0079667Y0066654D01*
X0078900Y0066654D02*
X0080435Y0066654D01*
X0085039Y0065887D02*
X0084271Y0066654D01*
X0082737Y0066654D01*
X0081969Y0065887D01*
X0081969Y0062817D01*
X0082737Y0062050D01*
X0084271Y0062050D01*
X0085039Y0062817D01*
X0086573Y0065119D02*
X0088108Y0066654D01*
X0088108Y0062050D01*
X0089642Y0062050D02*
X0086573Y0062050D01*
X0041850Y0109154D02*
X0041850Y0104550D01*
X0044919Y0104550D01*
X0049523Y0104550D02*
X0046454Y0104550D01*
X0049523Y0107619D01*
X0049523Y0108387D01*
X0048756Y0109154D01*
X0047221Y0109154D01*
X0046454Y0108387D01*
X0049350Y0107004D02*
X0049350Y0102400D01*
X0052419Y0102400D01*
X0053954Y0106237D02*
X0054721Y0107004D01*
X0056256Y0107004D01*
X0057023Y0106237D01*
X0057023Y0105469D01*
X0056256Y0104702D01*
X0055489Y0104702D01*
X0056256Y0104702D02*
X0057023Y0103935D01*
X0057023Y0103167D01*
X0056256Y0102400D01*
X0054721Y0102400D01*
X0053954Y0103167D01*
X0056138Y0040550D02*
X0056138Y0045154D01*
X0058440Y0045154D01*
X0059207Y0044387D01*
X0059207Y0042852D01*
X0058440Y0042085D01*
X0056138Y0042085D01*
X0057673Y0042085D02*
X0059207Y0040550D01*
X0060742Y0044387D02*
X0061509Y0045154D01*
X0063044Y0045154D01*
X0063811Y0044387D01*
X0063811Y0043619D01*
X0063044Y0042852D01*
X0062277Y0042852D01*
X0063044Y0042852D02*
X0063811Y0042085D01*
X0063811Y0041317D01*
X0063044Y0040550D01*
X0061509Y0040550D01*
X0060742Y0041317D01*
X0065346Y0043619D02*
X0066881Y0045154D01*
X0066881Y0040550D01*
X0068415Y0040550D02*
X0065346Y0040550D01*
X0081557Y0026437D02*
X0080790Y0027204D01*
X0079256Y0027204D01*
X0078488Y0026437D01*
X0078488Y0023367D01*
X0079256Y0022600D01*
X0080790Y0022600D01*
X0081557Y0023367D01*
X0083092Y0026437D02*
X0083859Y0027204D01*
X0085394Y0027204D01*
X0086161Y0026437D01*
X0086161Y0025669D01*
X0085394Y0024902D01*
X0084627Y0024902D01*
X0085394Y0024902D02*
X0086161Y0024135D01*
X0086161Y0023367D01*
X0085394Y0022600D01*
X0083859Y0022600D01*
X0083092Y0023367D01*
X0087696Y0025669D02*
X0089231Y0027204D01*
X0089231Y0022600D01*
X0090765Y0022600D02*
X0087696Y0022600D01*
X0044813Y0050169D02*
X0044046Y0049402D01*
X0044046Y0047867D01*
X0044813Y0047100D01*
X0047883Y0047100D01*
X0048650Y0047867D01*
X0048650Y0049402D01*
X0047883Y0050169D01*
X0044813Y0051704D02*
X0044046Y0052471D01*
X0044046Y0054006D01*
X0044813Y0054773D01*
X0045581Y0054773D01*
X0046348Y0054006D01*
X0046348Y0053239D01*
X0046348Y0054006D02*
X0047115Y0054773D01*
X0047883Y0054773D01*
X0048650Y0054006D01*
X0048650Y0052471D01*
X0047883Y0051704D01*
X0048650Y0059377D02*
X0048650Y0056308D01*
X0045581Y0059377D01*
X0044813Y0059377D01*
X0044046Y0058610D01*
X0044046Y0057075D01*
X0044813Y0056308D01*
X0053669Y0058637D02*
X0052902Y0059404D01*
X0051367Y0059404D01*
X0050600Y0058637D01*
X0050600Y0055567D01*
X0051367Y0054800D01*
X0052902Y0054800D01*
X0053669Y0055567D01*
X0055204Y0058637D02*
X0055971Y0059404D01*
X0057506Y0059404D01*
X0058273Y0058637D01*
X0058273Y0057869D01*
X0057506Y0057102D01*
X0056739Y0057102D01*
X0057506Y0057102D02*
X0058273Y0056335D01*
X0058273Y0055567D01*
X0057506Y0054800D01*
X0055971Y0054800D01*
X0055204Y0055567D01*
X0059808Y0058637D02*
X0060575Y0059404D01*
X0062110Y0059404D01*
X0062877Y0058637D01*
X0062877Y0057869D01*
X0062110Y0057102D01*
X0061342Y0057102D01*
X0062110Y0057102D02*
X0062877Y0056335D01*
X0062877Y0055567D01*
X0062110Y0054800D01*
X0060575Y0054800D01*
X0059808Y0055567D01*
X0027469Y0064837D02*
X0026702Y0065604D01*
X0025167Y0065604D01*
X0024400Y0064837D01*
X0024400Y0061767D01*
X0025167Y0061000D01*
X0026702Y0061000D01*
X0027469Y0061767D01*
X0029004Y0064069D02*
X0030539Y0065604D01*
X0030539Y0061000D01*
X0032073Y0061000D02*
X0029004Y0061000D01*
X0033608Y0064069D02*
X0035142Y0065604D01*
X0035142Y0061000D01*
X0033608Y0061000D02*
X0036677Y0061000D01*
X0067721Y0116217D02*
X0067721Y0111613D01*
X0070790Y0111613D01*
X0075394Y0116217D02*
X0072325Y0116217D01*
X0072325Y0111613D01*
X0075394Y0111613D01*
X0073859Y0113915D02*
X0072325Y0113915D01*
X0076929Y0116217D02*
X0076929Y0111613D01*
X0079231Y0111613D01*
X0079998Y0112381D01*
X0079998Y0115450D01*
X0079231Y0116217D01*
X0076929Y0116217D01*
X0072850Y0099700D02*
X0072850Y0104304D01*
X0075152Y0104304D01*
X0075919Y0103537D01*
X0075919Y0102002D01*
X0075152Y0101235D01*
X0072850Y0101235D01*
X0074385Y0101235D02*
X0075919Y0099700D01*
X0077454Y0103537D02*
X0078221Y0104304D01*
X0079756Y0104304D01*
X0080523Y0103537D01*
X0080523Y0102769D01*
X0079756Y0102002D01*
X0078989Y0102002D01*
X0079756Y0102002D02*
X0080523Y0101235D01*
X0080523Y0100467D01*
X0079756Y0099700D01*
X0078221Y0099700D01*
X0077454Y0100467D01*
X0061900Y0087700D02*
X0061900Y0092304D01*
X0064202Y0092304D01*
X0064969Y0091537D01*
X0064969Y0090002D01*
X0064202Y0089235D01*
X0061900Y0089235D01*
X0063435Y0089235D02*
X0064969Y0087700D01*
X0068806Y0087700D02*
X0068806Y0092304D01*
X0066504Y0090002D01*
X0069573Y0090002D01*
X0067500Y0104650D02*
X0067500Y0109254D01*
X0069802Y0109254D01*
X0070569Y0108487D01*
X0070569Y0106952D01*
X0069802Y0106185D01*
X0067500Y0106185D01*
X0069035Y0106185D02*
X0070569Y0104650D01*
X0075173Y0109254D02*
X0072104Y0109254D01*
X0072104Y0106952D01*
X0073639Y0107719D01*
X0074406Y0107719D01*
X0075173Y0106952D01*
X0075173Y0105417D01*
X0074406Y0104650D01*
X0072871Y0104650D01*
X0072104Y0105417D01*
X0105400Y0063154D02*
X0105400Y0058550D01*
X0108469Y0058550D01*
X0112306Y0058550D02*
X0112306Y0063154D01*
X0110004Y0060852D01*
X0113073Y0060852D01*
X0105796Y0066242D02*
X0110400Y0066242D01*
X0110400Y0069311D01*
X0105796Y0073915D02*
X0105796Y0070846D01*
X0108098Y0070846D01*
X0107331Y0072381D01*
X0107331Y0073148D01*
X0108098Y0073915D01*
X0109633Y0073915D01*
X0110400Y0073148D01*
X0110400Y0071613D01*
X0109633Y0070846D01*
X0066288Y0008304D02*
X0066288Y0004467D01*
X0067056Y0003700D01*
X0068590Y0003700D01*
X0069357Y0004467D01*
X0069357Y0008304D01*
X0070892Y0004467D02*
X0071659Y0003700D01*
X0073194Y0003700D01*
X0073961Y0004467D01*
X0073961Y0005235D01*
X0073194Y0006002D01*
X0071659Y0006002D01*
X0070892Y0006769D01*
X0070892Y0007537D01*
X0071659Y0008304D01*
X0073194Y0008304D01*
X0073961Y0007537D01*
X0072427Y0009071D02*
X0072427Y0002933D01*
X0077798Y0003700D02*
X0077798Y0008304D01*
X0075496Y0006002D01*
X0078565Y0006002D01*
X0089519Y0055787D02*
X0088752Y0056554D01*
X0087217Y0056554D01*
X0086450Y0055787D01*
X0086450Y0052717D01*
X0087217Y0051950D01*
X0088752Y0051950D01*
X0089519Y0052717D01*
X0094123Y0051950D02*
X0091054Y0051950D01*
X0094123Y0055019D01*
X0094123Y0055787D01*
X0093356Y0056554D01*
X0091821Y0056554D01*
X0091054Y0055787D01*
X0098727Y0051950D02*
X0095658Y0051950D01*
X0098727Y0055019D01*
X0098727Y0055787D01*
X0097960Y0056554D01*
X0096425Y0056554D01*
X0095658Y0055787D01*
X0083457Y0038869D02*
X0082690Y0039637D01*
X0081156Y0039637D01*
X0080388Y0038869D01*
X0080388Y0035800D01*
X0081156Y0035033D01*
X0082690Y0035033D01*
X0083457Y0035800D01*
X0088061Y0035033D02*
X0084992Y0035033D01*
X0088061Y0038102D01*
X0088061Y0038869D01*
X0087294Y0039637D01*
X0085759Y0039637D01*
X0084992Y0038869D01*
X0089596Y0038102D02*
X0091131Y0039637D01*
X0091131Y0035033D01*
X0092665Y0035033D02*
X0089596Y0035033D01*
X0080707Y0032537D02*
X0079940Y0033304D01*
X0078406Y0033304D01*
X0077638Y0032537D01*
X0077638Y0029467D01*
X0078406Y0028700D01*
X0079940Y0028700D01*
X0080707Y0029467D01*
X0085311Y0028700D02*
X0082242Y0028700D01*
X0085311Y0031769D01*
X0085311Y0032537D01*
X0084544Y0033304D01*
X0083009Y0033304D01*
X0082242Y0032537D01*
X0086846Y0032537D02*
X0087613Y0033304D01*
X0089148Y0033304D01*
X0089915Y0032537D01*
X0089915Y0031769D01*
X0089148Y0031002D01*
X0088381Y0031002D01*
X0089148Y0031002D02*
X0089915Y0030235D01*
X0089915Y0029467D01*
X0089148Y0028700D01*
X0087613Y0028700D01*
X0086846Y0029467D01*
X0083735Y0040450D02*
X0082200Y0040450D01*
X0082967Y0040450D02*
X0082967Y0045054D01*
X0082200Y0045054D02*
X0083735Y0045054D01*
X0088339Y0044287D02*
X0087571Y0045054D01*
X0086037Y0045054D01*
X0085269Y0044287D01*
X0085269Y0041217D01*
X0086037Y0040450D01*
X0087571Y0040450D01*
X0088339Y0041217D01*
X0092942Y0040450D02*
X0089873Y0040450D01*
X0092942Y0043519D01*
X0092942Y0044287D01*
X0092175Y0045054D01*
X0090641Y0045054D01*
X0089873Y0044287D01*
X0083071Y0187205D02*
X0083071Y0188780D01*
X0082087Y0187795D01*
X0082087Y0187205D01*
X0067913Y0187205D02*
X0067913Y0187795D01*
X0066929Y0188780D01*
X0066929Y0187205D01*
X0085992Y0161930D02*
X0089061Y0157326D01*
X0085992Y0157326D02*
X0089061Y0161930D01*
X0090596Y0160395D02*
X0092131Y0161930D01*
X0092131Y0157326D01*
X0093665Y0157326D02*
X0090596Y0157326D01*
X0083858Y0179921D02*
X0083858Y0179724D01*
X0082874Y0178346D01*
X0081890Y0179724D01*
X0081890Y0179921D01*
X0083858Y0179921D01*
X0083007Y0178533D02*
X0082741Y0178533D01*
X0082456Y0178932D02*
X0083292Y0178932D01*
X0083577Y0179330D02*
X0082171Y0179330D01*
X0081890Y0179729D02*
X0083858Y0179729D01*
X0112492Y0104200D02*
X0112492Y0108804D01*
X0114794Y0108804D01*
X0115561Y0108037D01*
X0115561Y0106502D01*
X0114794Y0105735D01*
X0112492Y0105735D01*
X0114027Y0105735D02*
X0115561Y0104200D01*
X0120165Y0104200D02*
X0117096Y0104200D01*
X0120165Y0107269D01*
X0120165Y0108037D01*
X0119398Y0108804D01*
X0117863Y0108804D01*
X0117096Y0108037D01*
D12*
X0056050Y0085961D02*
X0053589Y0085961D01*
X0053589Y0083500D01*
X0074750Y0085961D02*
X0077211Y0085961D01*
X0077211Y0083500D01*
X0077211Y0064800D02*
X0077211Y0062831D01*
X0074750Y0062831D01*
X0056050Y0062339D02*
X0053589Y0062339D01*
X0053589Y0064800D01*
X0054369Y0084485D02*
X0054371Y0084538D01*
X0054377Y0084590D01*
X0054387Y0084642D01*
X0054401Y0084693D01*
X0054418Y0084742D01*
X0054440Y0084790D01*
X0054464Y0084837D01*
X0054493Y0084881D01*
X0054524Y0084923D01*
X0054559Y0084963D01*
X0054597Y0085000D01*
X0054637Y0085034D01*
X0054680Y0085065D01*
X0054725Y0085092D01*
X0054772Y0085116D01*
X0054820Y0085136D01*
X0054870Y0085153D01*
X0054921Y0085166D01*
X0054973Y0085175D01*
X0055026Y0085180D01*
X0055078Y0085181D01*
X0055131Y0085178D01*
X0055183Y0085171D01*
X0055235Y0085160D01*
X0055285Y0085145D01*
X0055334Y0085127D01*
X0055382Y0085105D01*
X0055428Y0085079D01*
X0055472Y0085050D01*
X0055514Y0085017D01*
X0055552Y0084982D01*
X0055589Y0084943D01*
X0055622Y0084903D01*
X0055652Y0084859D01*
X0055678Y0084814D01*
X0055702Y0084766D01*
X0055721Y0084718D01*
X0055737Y0084667D01*
X0055749Y0084616D01*
X0055757Y0084564D01*
X0055761Y0084511D01*
X0055761Y0084459D01*
X0055757Y0084406D01*
X0055749Y0084354D01*
X0055737Y0084303D01*
X0055721Y0084252D01*
X0055702Y0084204D01*
X0055678Y0084156D01*
X0055652Y0084111D01*
X0055622Y0084067D01*
X0055589Y0084027D01*
X0055552Y0083988D01*
X0055514Y0083953D01*
X0055472Y0083920D01*
X0055428Y0083891D01*
X0055382Y0083865D01*
X0055334Y0083843D01*
X0055285Y0083825D01*
X0055235Y0083810D01*
X0055183Y0083799D01*
X0055131Y0083792D01*
X0055078Y0083789D01*
X0055026Y0083790D01*
X0054973Y0083795D01*
X0054921Y0083804D01*
X0054870Y0083817D01*
X0054820Y0083834D01*
X0054772Y0083854D01*
X0054725Y0083878D01*
X0054680Y0083905D01*
X0054637Y0083936D01*
X0054597Y0083970D01*
X0054559Y0084007D01*
X0054524Y0084047D01*
X0054493Y0084089D01*
X0054464Y0084133D01*
X0054440Y0084180D01*
X0054418Y0084228D01*
X0054401Y0084277D01*
X0054387Y0084328D01*
X0054377Y0084380D01*
X0054371Y0084432D01*
X0054369Y0084485D01*
X0064706Y0040456D02*
X0064706Y0028644D01*
X0052894Y0040456D02*
X0052894Y0028644D01*
X0054076Y0028644D01*
X0054076Y0040456D02*
X0052894Y0040456D01*
X0063524Y0040456D02*
X0064706Y0040456D01*
X0064706Y0028644D02*
X0063524Y0028644D01*
X0051944Y0027070D02*
X0051946Y0027117D01*
X0051952Y0027163D01*
X0051961Y0027209D01*
X0051975Y0027253D01*
X0051992Y0027297D01*
X0052013Y0027338D01*
X0052037Y0027378D01*
X0052064Y0027416D01*
X0052095Y0027451D01*
X0052128Y0027484D01*
X0052164Y0027514D01*
X0052203Y0027540D01*
X0052243Y0027564D01*
X0052285Y0027583D01*
X0052329Y0027600D01*
X0052374Y0027612D01*
X0052420Y0027621D01*
X0052466Y0027626D01*
X0052513Y0027627D01*
X0052559Y0027624D01*
X0052605Y0027617D01*
X0052651Y0027606D01*
X0052695Y0027592D01*
X0052738Y0027574D01*
X0052779Y0027552D01*
X0052819Y0027527D01*
X0052856Y0027499D01*
X0052891Y0027468D01*
X0052923Y0027434D01*
X0052952Y0027397D01*
X0052977Y0027359D01*
X0053000Y0027318D01*
X0053019Y0027275D01*
X0053034Y0027231D01*
X0053046Y0027186D01*
X0053054Y0027140D01*
X0053058Y0027093D01*
X0053058Y0027047D01*
X0053054Y0027000D01*
X0053046Y0026954D01*
X0053034Y0026909D01*
X0053019Y0026865D01*
X0053000Y0026822D01*
X0052977Y0026781D01*
X0052952Y0026743D01*
X0052923Y0026706D01*
X0052891Y0026672D01*
X0052856Y0026641D01*
X0052819Y0026613D01*
X0052780Y0026588D01*
X0052738Y0026566D01*
X0052695Y0026548D01*
X0052651Y0026534D01*
X0052605Y0026523D01*
X0052559Y0026516D01*
X0052513Y0026513D01*
X0052466Y0026514D01*
X0052420Y0026519D01*
X0052374Y0026528D01*
X0052329Y0026540D01*
X0052285Y0026557D01*
X0052243Y0026576D01*
X0052203Y0026600D01*
X0052164Y0026626D01*
X0052128Y0026656D01*
X0052095Y0026689D01*
X0052064Y0026724D01*
X0052037Y0026762D01*
X0052013Y0026802D01*
X0051992Y0026843D01*
X0051975Y0026887D01*
X0051961Y0026931D01*
X0051952Y0026977D01*
X0051946Y0027023D01*
X0051944Y0027070D01*
X0032982Y0044870D02*
X0032982Y0059437D01*
X0037313Y0059437D02*
X0038887Y0059437D01*
X0043218Y0059437D02*
X0043218Y0044870D01*
X0038887Y0044870D02*
X0037313Y0044870D01*
X0030921Y0044082D02*
X0030923Y0044141D01*
X0030929Y0044199D01*
X0030939Y0044257D01*
X0030952Y0044314D01*
X0030970Y0044371D01*
X0030991Y0044426D01*
X0031016Y0044479D01*
X0031044Y0044530D01*
X0031075Y0044580D01*
X0031110Y0044627D01*
X0031148Y0044672D01*
X0031189Y0044715D01*
X0031233Y0044754D01*
X0031279Y0044790D01*
X0031327Y0044824D01*
X0031378Y0044854D01*
X0031431Y0044880D01*
X0031485Y0044903D01*
X0031540Y0044922D01*
X0031597Y0044938D01*
X0031655Y0044950D01*
X0031713Y0044958D01*
X0031772Y0044962D01*
X0031830Y0044962D01*
X0031889Y0044958D01*
X0031947Y0044950D01*
X0032005Y0044938D01*
X0032062Y0044922D01*
X0032117Y0044903D01*
X0032171Y0044880D01*
X0032224Y0044854D01*
X0032275Y0044824D01*
X0032323Y0044790D01*
X0032369Y0044754D01*
X0032413Y0044715D01*
X0032454Y0044672D01*
X0032492Y0044627D01*
X0032527Y0044580D01*
X0032558Y0044530D01*
X0032586Y0044479D01*
X0032611Y0044426D01*
X0032632Y0044371D01*
X0032650Y0044314D01*
X0032663Y0044257D01*
X0032673Y0044199D01*
X0032679Y0044141D01*
X0032681Y0044082D01*
X0032679Y0044023D01*
X0032673Y0043965D01*
X0032663Y0043907D01*
X0032650Y0043850D01*
X0032632Y0043793D01*
X0032611Y0043738D01*
X0032586Y0043685D01*
X0032558Y0043634D01*
X0032527Y0043584D01*
X0032492Y0043537D01*
X0032454Y0043492D01*
X0032413Y0043449D01*
X0032369Y0043410D01*
X0032323Y0043374D01*
X0032275Y0043340D01*
X0032224Y0043310D01*
X0032171Y0043284D01*
X0032117Y0043261D01*
X0032062Y0043242D01*
X0032005Y0043226D01*
X0031947Y0043214D01*
X0031889Y0043206D01*
X0031830Y0043202D01*
X0031772Y0043202D01*
X0031713Y0043206D01*
X0031655Y0043214D01*
X0031597Y0043226D01*
X0031540Y0043242D01*
X0031485Y0043261D01*
X0031431Y0043284D01*
X0031378Y0043310D01*
X0031327Y0043340D01*
X0031279Y0043374D01*
X0031233Y0043410D01*
X0031189Y0043449D01*
X0031148Y0043492D01*
X0031110Y0043537D01*
X0031075Y0043584D01*
X0031044Y0043634D01*
X0031016Y0043685D01*
X0030991Y0043738D01*
X0030970Y0043793D01*
X0030952Y0043850D01*
X0030939Y0043907D01*
X0030929Y0043965D01*
X0030923Y0044023D01*
X0030921Y0044082D01*
X0058563Y0104613D02*
X0058563Y0111503D01*
X0058563Y0112487D01*
X0059547Y0112487D01*
X0066437Y0112487D01*
X0066437Y0104613D01*
X0058563Y0104613D01*
X0058563Y0111503D02*
X0059547Y0111503D01*
X0059547Y0112487D01*
X0089764Y0001860D02*
X0089764Y-0000109D01*
X0085335Y-0000109D01*
X0081398Y-0000109D02*
X0076969Y-0000109D01*
X0073031Y-0000109D02*
X0068602Y-0000109D01*
X0064665Y-0000109D02*
X0060236Y-0000109D01*
X0060236Y0001860D01*
X0089764Y0009340D02*
X0089764Y0010915D01*
X0060236Y0010915D02*
X0060236Y0009340D01*
X0080906Y0018789D02*
X0083071Y0018789D01*
X0069094Y0018789D02*
X0066929Y0018789D01*
D13*
X0098000Y0031750D02*
X0098000Y0050750D01*
X0107000Y0050750D02*
X0107000Y0031750D01*
X0102500Y0036250D02*
X0102500Y0032750D01*
X0104000Y0034250D01*
X0102500Y0032750D02*
X0101000Y0034250D01*
X0094488Y0186811D02*
X0094488Y0188780D01*
X0094094Y0189173D01*
X0055906Y0189173D01*
X0055512Y0188780D01*
X0055512Y0186811D01*
X0094488Y0186811D01*
X0090945Y0180512D02*
X0059055Y0180512D01*
X0088780Y0180906D02*
X0088780Y0186417D01*
X0061220Y0186417D02*
X0061220Y0180906D01*
X0085433Y0179921D02*
X0085433Y0171063D01*
X0085431Y0171030D01*
X0085426Y0170997D01*
X0085416Y0170966D01*
X0085404Y0170935D01*
X0085388Y0170906D01*
X0085369Y0170879D01*
X0085347Y0170854D01*
X0085322Y0170832D01*
X0085295Y0170813D01*
X0085266Y0170797D01*
X0085235Y0170785D01*
X0085204Y0170775D01*
X0085171Y0170770D01*
X0085138Y0170768D01*
X0085105Y0170770D01*
X0085072Y0170775D01*
X0085041Y0170785D01*
X0085010Y0170797D01*
X0084981Y0170813D01*
X0084954Y0170832D01*
X0084929Y0170854D01*
X0084907Y0170879D01*
X0084888Y0170906D01*
X0084872Y0170935D01*
X0084860Y0170966D01*
X0084850Y0170997D01*
X0084845Y0171030D01*
X0084843Y0171063D01*
X0084843Y0179921D01*
X0065157Y0179921D02*
X0065157Y0171063D01*
X0065155Y0171030D01*
X0065150Y0170997D01*
X0065140Y0170966D01*
X0065128Y0170935D01*
X0065112Y0170906D01*
X0065093Y0170879D01*
X0065071Y0170854D01*
X0065046Y0170832D01*
X0065019Y0170813D01*
X0064990Y0170797D01*
X0064959Y0170785D01*
X0064928Y0170775D01*
X0064895Y0170770D01*
X0064862Y0170768D01*
X0064829Y0170770D01*
X0064796Y0170775D01*
X0064765Y0170785D01*
X0064734Y0170797D01*
X0064705Y0170813D01*
X0064678Y0170832D01*
X0064653Y0170854D01*
X0064631Y0170879D01*
X0064612Y0170906D01*
X0064596Y0170935D01*
X0064584Y0170966D01*
X0064574Y0170997D01*
X0064569Y0171030D01*
X0064567Y0171063D01*
X0064567Y0179921D01*
D14*
X0104749Y0041280D02*
X0106000Y0041280D01*
X0106250Y0041530D01*
X0106250Y0042031D01*
X0106000Y0042281D01*
X0104749Y0042281D01*
X0106000Y0042753D02*
X0106250Y0043004D01*
X0106250Y0043504D01*
X0106000Y0043754D01*
X0105750Y0043754D01*
X0105499Y0043504D01*
X0105499Y0043004D01*
X0105249Y0042753D01*
X0104999Y0042753D01*
X0104749Y0043004D01*
X0104749Y0043504D01*
X0104999Y0043754D01*
X0104499Y0043254D02*
X0106500Y0043254D01*
X0105249Y0044227D02*
X0104749Y0044727D01*
X0106250Y0044727D01*
X0106250Y0044227D02*
X0106250Y0045228D01*
D15*
X0089688Y0093474D02*
X0100712Y0093474D01*
X0100712Y0088750D01*
X0100712Y0084026D01*
X0095594Y0084026D01*
X0089688Y0084026D01*
X0089688Y0093474D01*
X0100712Y0088750D02*
X0095594Y0088750D01*
X0095594Y0084026D01*
X0123701Y0129811D02*
X0136299Y0129811D01*
X0136299Y0114063D01*
X0123701Y0114063D01*
X0123701Y0129811D01*
D16*
X0068500Y0057250D02*
X0081500Y0057250D01*
X0081500Y0044250D01*
X0068500Y0044250D01*
X0068500Y0057250D01*
X0068793Y0056250D02*
X0068795Y0056303D01*
X0068801Y0056355D01*
X0068811Y0056407D01*
X0068824Y0056458D01*
X0068842Y0056508D01*
X0068863Y0056557D01*
X0068888Y0056604D01*
X0068916Y0056648D01*
X0068947Y0056691D01*
X0068982Y0056731D01*
X0069019Y0056768D01*
X0069059Y0056803D01*
X0069102Y0056834D01*
X0069147Y0056862D01*
X0069193Y0056887D01*
X0069242Y0056908D01*
X0069292Y0056926D01*
X0069343Y0056939D01*
X0069395Y0056949D01*
X0069447Y0056955D01*
X0069500Y0056957D01*
X0069553Y0056955D01*
X0069605Y0056949D01*
X0069657Y0056939D01*
X0069708Y0056926D01*
X0069758Y0056908D01*
X0069807Y0056887D01*
X0069854Y0056862D01*
X0069898Y0056834D01*
X0069941Y0056803D01*
X0069981Y0056768D01*
X0070018Y0056731D01*
X0070053Y0056691D01*
X0070084Y0056648D01*
X0070112Y0056603D01*
X0070137Y0056557D01*
X0070158Y0056508D01*
X0070176Y0056458D01*
X0070189Y0056407D01*
X0070199Y0056355D01*
X0070205Y0056303D01*
X0070207Y0056250D01*
X0070205Y0056197D01*
X0070199Y0056145D01*
X0070189Y0056093D01*
X0070176Y0056042D01*
X0070158Y0055992D01*
X0070137Y0055943D01*
X0070112Y0055896D01*
X0070084Y0055852D01*
X0070053Y0055809D01*
X0070018Y0055769D01*
X0069981Y0055732D01*
X0069941Y0055697D01*
X0069898Y0055666D01*
X0069853Y0055638D01*
X0069807Y0055613D01*
X0069758Y0055592D01*
X0069708Y0055574D01*
X0069657Y0055561D01*
X0069605Y0055551D01*
X0069553Y0055545D01*
X0069500Y0055543D01*
X0069447Y0055545D01*
X0069395Y0055551D01*
X0069343Y0055561D01*
X0069292Y0055574D01*
X0069242Y0055592D01*
X0069193Y0055613D01*
X0069146Y0055638D01*
X0069102Y0055666D01*
X0069059Y0055697D01*
X0069019Y0055732D01*
X0068982Y0055769D01*
X0068947Y0055809D01*
X0068916Y0055852D01*
X0068888Y0055897D01*
X0068863Y0055943D01*
X0068842Y0055992D01*
X0068824Y0056042D01*
X0068811Y0056093D01*
X0068801Y0056145D01*
X0068795Y0056197D01*
X0068793Y0056250D01*
M02*
